%TF.GenerationSoftware,KiCad,Pcbnew,10.0.3*%
%TF.CreationDate,2026-05-22T18:31:41-04:00*%
%TF.ProjectId,meshtastic,6d657368-7461-4737-9469-632e6b696361,rev?*%
%TF.SameCoordinates,Original*%
%TF.FileFunction,Soldermask,Top*%
%TF.FilePolarity,Negative*%
%FSLAX46Y46*%
G04 Gerber Fmt 4.6, Leading zero omitted, Abs format (unit mm)*
G04 Created by KiCad (PCBNEW 10.0.3) date 2026-05-22 18:31:41*
%MOMM*%
%LPD*%
G01*
G04 APERTURE LIST*
G04 Aperture macros list*
%AMRoundRect*
0 Rectangle with rounded corners*
0 $1 Rounding radius*
0 $2 $3 $4 $5 $6 $7 $8 $9 X,Y pos of 4 corners*
0 Add a 4 corners polygon primitive as box body*
4,1,4,$2,$3,$4,$5,$6,$7,$8,$9,$2,$3,0*
0 Add four circle primitives for the rounded corners*
1,1,$1+$1,$2,$3*
1,1,$1+$1,$4,$5*
1,1,$1+$1,$6,$7*
1,1,$1+$1,$8,$9*
0 Add four rect primitives between the rounded corners*
20,1,$1+$1,$2,$3,$4,$5,0*
20,1,$1+$1,$4,$5,$6,$7,0*
20,1,$1+$1,$6,$7,$8,$9,0*
20,1,$1+$1,$8,$9,$2,$3,0*%
%AMOutline4P*
0 Free polygon, 4 corners , with rotation*
0 The origin of the aperture is its center*
0 number of corners: always 4*
0 $1 to $8 corner X, Y*
0 $9 Rotation angle, in degrees counterclockwise*
0 create outline with 4 corners*
4,1,4,$1,$2,$3,$4,$5,$6,$7,$8,$1,$2,$9*%
%AMFreePoly0*
4,1,23,0.500000,-0.750000,0.000000,-0.750000,0.000000,-0.745722,-0.065263,-0.745722,-0.191342,-0.711940,-0.304381,-0.646677,-0.396677,-0.554381,-0.461940,-0.441342,-0.495722,-0.315263,-0.495722,-0.250000,-0.500000,-0.250000,-0.500000,0.250000,-0.495722,0.250000,-0.495722,0.315263,-0.461940,0.441342,-0.396677,0.554381,-0.304381,0.646677,-0.191342,0.711940,-0.065263,0.745722,0.000000,0.745722,
0.000000,0.750000,0.500000,0.750000,0.500000,-0.750000,0.500000,-0.750000,$1*%
%AMFreePoly1*
4,1,23,0.000000,0.745722,0.065263,0.745722,0.191342,0.711940,0.304381,0.646677,0.396677,0.554381,0.461940,0.441342,0.495722,0.315263,0.495722,0.250000,0.500000,0.250000,0.500000,-0.250000,0.495722,-0.250000,0.495722,-0.315263,0.461940,-0.441342,0.396677,-0.554381,0.304381,-0.646677,0.191342,-0.711940,0.065263,-0.745722,0.000000,-0.745722,0.000000,-0.750000,-0.500000,-0.750000,
-0.500000,0.750000,0.000000,0.750000,0.000000,0.745722,0.000000,0.745722,$1*%
%AMFreePoly2*
4,1,23,0.550000,-0.750000,0.000000,-0.750000,0.000000,-0.745722,-0.065263,-0.745722,-0.191342,-0.711940,-0.304381,-0.646677,-0.396677,-0.554381,-0.461940,-0.441342,-0.495722,-0.315263,-0.495722,-0.250000,-0.500000,-0.250000,-0.500000,0.250000,-0.495722,0.250000,-0.495722,0.315263,-0.461940,0.441342,-0.396677,0.554381,-0.304381,0.646677,-0.191342,0.711940,-0.065263,0.745722,0.000000,0.745722,
0.000000,0.750000,0.550000,0.750000,0.550000,-0.750000,0.550000,-0.750000,$1*%
%AMFreePoly3*
4,1,23,0.000000,0.745722,0.065263,0.745722,0.191342,0.711940,0.304381,0.646677,0.396677,0.554381,0.461940,0.441342,0.495722,0.315263,0.495722,0.250000,0.500000,0.250000,0.500000,-0.250000,0.495722,-0.250000,0.495722,-0.315263,0.461940,-0.441342,0.396677,-0.554381,0.304381,-0.646677,0.191342,-0.711940,0.065263,-0.745722,0.000000,-0.745722,0.000000,-0.750000,-0.550000,-0.750000,
-0.550000,0.750000,0.000000,0.750000,0.000000,0.745722,0.000000,0.745722,$1*%
G04 Aperture macros list end*
%ADD10RoundRect,0.135000X0.135000X0.185000X-0.135000X0.185000X-0.135000X-0.185000X0.135000X-0.185000X0*%
%ADD11RoundRect,0.250000X0.475000X-0.250000X0.475000X0.250000X-0.475000X0.250000X-0.475000X-0.250000X0*%
%ADD12RoundRect,0.200000X-0.700000X-0.200000X0.700000X-0.200000X0.700000X0.200000X-0.700000X0.200000X0*%
%ADD13R,1.800000X1.800000*%
%ADD14C,1.800000*%
%ADD15RoundRect,0.140000X0.170000X-0.140000X0.170000X0.140000X-0.170000X0.140000X-0.170000X-0.140000X0*%
%ADD16RoundRect,0.140000X0.140000X0.170000X-0.140000X0.170000X-0.140000X-0.170000X0.140000X-0.170000X0*%
%ADD17RoundRect,0.135000X0.185000X-0.135000X0.185000X0.135000X-0.185000X0.135000X-0.185000X-0.135000X0*%
%ADD18RoundRect,0.200000X-0.275000X0.200000X-0.275000X-0.200000X0.275000X-0.200000X0.275000X0.200000X0*%
%ADD19RoundRect,0.135000X-0.135000X-0.185000X0.135000X-0.185000X0.135000X0.185000X-0.135000X0.185000X0*%
%ADD20FreePoly0,270.000000*%
%ADD21FreePoly1,270.000000*%
%ADD22R,0.680000X0.280000*%
%ADD23RoundRect,0.200000X-0.200000X-0.600000X0.200000X-0.600000X0.200000X0.600000X-0.200000X0.600000X0*%
%ADD24RoundRect,0.250001X-0.799999X-1.249999X0.799999X-1.249999X0.799999X1.249999X-0.799999X1.249999X0*%
%ADD25RoundRect,0.140000X-0.140000X-0.170000X0.140000X-0.170000X0.140000X0.170000X-0.140000X0.170000X0*%
%ADD26C,3.800000*%
%ADD27R,1.000000X0.600000*%
%ADD28RoundRect,0.135000X-0.185000X0.135000X-0.185000X-0.135000X0.185000X-0.135000X0.185000X0.135000X0*%
%ADD29RoundRect,0.140000X-0.170000X0.140000X-0.170000X-0.140000X0.170000X-0.140000X0.170000X0.140000X0*%
%ADD30RoundRect,0.218750X-0.218750X-0.256250X0.218750X-0.256250X0.218750X0.256250X-0.218750X0.256250X0*%
%ADD31RoundRect,0.200000X0.200000X0.275000X-0.200000X0.275000X-0.200000X-0.275000X0.200000X-0.275000X0*%
%ADD32RoundRect,0.525400X0.900400X0.525400X-0.900400X0.525400X-0.900400X-0.525400X0.900400X-0.525400X0*%
%ADD33C,1.700000*%
%ADD34RoundRect,0.275000X0.275000X-0.975000X0.275000X0.975000X-0.275000X0.975000X-0.275000X-0.975000X0*%
%ADD35RoundRect,0.150000X-0.587500X-0.150000X0.587500X-0.150000X0.587500X0.150000X-0.587500X0.150000X0*%
%ADD36RoundRect,0.050100X0.099900X-0.174900X0.099900X0.174900X-0.099900X0.174900X-0.099900X-0.174900X0*%
%ADD37RoundRect,0.050100X0.099900X-0.324900X0.099900X0.324900X-0.099900X0.324900X-0.099900X-0.324900X0*%
%ADD38RoundRect,0.050350X0.424650X-0.449650X0.424650X0.449650X-0.424650X0.449650X-0.424650X-0.449650X0*%
%ADD39RoundRect,0.250001X-0.462499X-0.849999X0.462499X-0.849999X0.462499X0.849999X-0.462499X0.849999X0*%
%ADD40C,2.000000*%
%ADD41RoundRect,0.250000X0.250000X-0.275000X0.250000X0.275000X-0.250000X0.275000X-0.250000X-0.275000X0*%
%ADD42RoundRect,0.250000X0.275000X-0.850000X0.275000X0.850000X-0.275000X0.850000X-0.275000X-0.850000X0*%
%ADD43RoundRect,0.250000X0.385000X1.350000X-0.385000X1.350000X-0.385000X-1.350000X0.385000X-1.350000X0*%
%ADD44RoundRect,0.250000X0.425000X1.600000X-0.425000X1.600000X-0.425000X-1.600000X0.425000X-1.600000X0*%
%ADD45RoundRect,0.070000X-0.070000X-0.355000X0.070000X-0.355000X0.070000X0.355000X-0.070000X0.355000X0*%
%ADD46RoundRect,0.070000X-0.070000X-0.305000X0.070000X-0.305000X0.070000X0.305000X-0.070000X0.305000X0*%
%ADD47RoundRect,0.218750X-0.256250X0.218750X-0.256250X-0.218750X0.256250X-0.218750X0.256250X0.218750X0*%
%ADD48R,1.700000X1.700000*%
%ADD49R,2.200000X1.500000*%
%ADD50FreePoly2,180.000000*%
%ADD51R,1.000000X1.500000*%
%ADD52FreePoly3,180.000000*%
%ADD53Outline4P,-1.800000X-1.150000X1.800000X-0.550000X1.800000X0.550000X-1.800000X1.150000X0.000000*%
%ADD54Outline4P,-1.800000X-1.150000X1.800000X-0.550000X1.800000X0.550000X-1.800000X1.150000X180.000000*%
%ADD55R,0.600000X1.000000*%
%ADD56RoundRect,0.050000X-0.100000X0.285000X-0.100000X-0.285000X0.100000X-0.285000X0.100000X0.285000X0*%
G04 APERTURE END LIST*
%TO.C,JP4*%
G36*
X97650000Y-64500000D02*
G01*
X99150000Y-64500000D01*
X99150000Y-64800000D01*
X97650000Y-64800000D01*
X97650000Y-64500000D01*
G37*
%TO.C,JP1*%
G36*
X91250000Y-82200000D02*
G01*
X92750000Y-82200000D01*
X92750000Y-82500000D01*
X91250000Y-82500000D01*
X91250000Y-82200000D01*
G37*
%TO.C,J4*%
G36*
X104085000Y-55000000D02*
G01*
X105965000Y-55000000D01*
X105965000Y-57090000D01*
X104085000Y-57090000D01*
X104085000Y-55000000D01*
G37*
%TO.C,JP3*%
G36*
X140950000Y-122250000D02*
G01*
X142450000Y-122250000D01*
X142450000Y-123750000D01*
X140950000Y-123750000D01*
X140950000Y-122250000D01*
G37*
%TO.C,JP2*%
G36*
X94750000Y-82200000D02*
G01*
X96250000Y-82200000D01*
X96250000Y-82500000D01*
X94750000Y-82500000D01*
X94750000Y-82200000D01*
G37*
%TD*%
D10*
%TO.C,R5*%
X106000000Y-142500000D03*
X104980000Y-142500000D03*
%TD*%
D11*
%TO.C,C14*%
X109600000Y-113850000D03*
X109600000Y-111950000D03*
%TD*%
D12*
%TO.C,U2*%
X103000000Y-60704100D03*
X103000000Y-61804100D03*
X103000000Y-62904100D03*
X103000000Y-64004100D03*
X103000000Y-65104100D03*
X103000000Y-66204100D03*
X103000000Y-67304100D03*
X103000000Y-70304100D03*
X103000000Y-71404100D03*
X103000000Y-72504100D03*
X103000000Y-73604100D03*
X103000000Y-74704100D03*
X115000000Y-74704100D03*
X115000000Y-73604100D03*
X115000000Y-72504100D03*
X115000000Y-71404100D03*
X115000000Y-70304100D03*
X115000000Y-67304100D03*
X115000000Y-66204100D03*
X115000000Y-65104100D03*
X115000000Y-64004100D03*
X115000000Y-62904100D03*
X115000000Y-61804100D03*
X115000000Y-60704100D03*
%TD*%
D13*
%TO.C,D2*%
X93500000Y-91540000D03*
D14*
X93500000Y-89000000D03*
%TD*%
D10*
%TO.C,R3*%
X130020000Y-145000000D03*
X129000000Y-145000000D03*
%TD*%
D15*
%TO.C,C5*%
X106500000Y-149480000D03*
X106500000Y-148520000D03*
%TD*%
D16*
%TO.C,C1*%
X103980000Y-145000000D03*
X103020000Y-145000000D03*
%TD*%
D17*
%TO.C,R17*%
X111100000Y-100450000D03*
X111100000Y-99430000D03*
%TD*%
D16*
%TO.C,C7*%
X103980000Y-150500000D03*
X103020000Y-150500000D03*
%TD*%
D18*
%TO.C,R28*%
X96000000Y-60175000D03*
X96000000Y-61825000D03*
%TD*%
D19*
%TO.C,R18*%
X99427500Y-97550000D03*
X100447500Y-97550000D03*
%TD*%
D20*
%TO.C,JP4*%
X98400000Y-64000000D03*
D21*
X98400000Y-65300000D03*
%TD*%
D22*
%TO.C,U5*%
X95447500Y-138130000D03*
X95447500Y-138630000D03*
X95447500Y-139130000D03*
X95447500Y-139630000D03*
X96727500Y-139630000D03*
X96727500Y-139130000D03*
X96727500Y-138630000D03*
X96727500Y-138130000D03*
%TD*%
D23*
%TO.C,J6*%
X134200000Y-148800000D03*
X135450000Y-148800000D03*
D24*
X131650000Y-151700000D03*
X138000000Y-151700000D03*
%TD*%
D25*
%TO.C,C10*%
X99520000Y-75200000D03*
X100480000Y-75200000D03*
%TD*%
D10*
%TO.C,R24*%
X95370000Y-142760000D03*
X94350000Y-142760000D03*
%TD*%
%TO.C,R6*%
X106010000Y-137500000D03*
X104990000Y-137500000D03*
%TD*%
%TO.C,R14*%
X118000000Y-65000000D03*
X116980000Y-65000000D03*
%TD*%
%TO.C,R16*%
X143120000Y-103950000D03*
X142100000Y-103950000D03*
%TD*%
D26*
%TO.C,H2*%
X92800000Y-66400000D03*
%TD*%
D27*
%TO.C,D4*%
X131350000Y-130450000D03*
X131350000Y-129500000D03*
X131350000Y-128550000D03*
X129150000Y-128550000D03*
X129150000Y-130450000D03*
%TD*%
D15*
%TO.C,C8*%
X132000000Y-134980000D03*
X132000000Y-134020000D03*
%TD*%
D28*
%TO.C,R10*%
X97500000Y-89490000D03*
X97500000Y-90510000D03*
%TD*%
D29*
%TO.C,C9*%
X103000000Y-116000000D03*
X103000000Y-116960000D03*
%TD*%
D16*
%TO.C,C22*%
X93180000Y-138020000D03*
X92220000Y-138020000D03*
%TD*%
D25*
%TO.C,C21*%
X96720000Y-137500000D03*
X97680000Y-137500000D03*
%TD*%
D30*
%TO.C,D7*%
X94412500Y-63400000D03*
X95987500Y-63400000D03*
%TD*%
D31*
%TO.C,R9*%
X142316700Y-98859200D03*
X140666700Y-98859200D03*
%TD*%
D16*
%TO.C,C24*%
X99180000Y-138500000D03*
X98220000Y-138500000D03*
%TD*%
D10*
%TO.C,R4*%
X130010000Y-142500000D03*
X128990000Y-142500000D03*
%TD*%
D32*
%TO.C,U1*%
X125229000Y-150018500D03*
X125229000Y-147478500D03*
X125229000Y-144938500D03*
X125229000Y-142398500D03*
X125229000Y-139858500D03*
X125229000Y-137318500D03*
X125229000Y-134778500D03*
X109064000Y-134778500D03*
X109064000Y-137318500D03*
X109064000Y-139858500D03*
X109064000Y-142398500D03*
X109064000Y-144938500D03*
X109064000Y-147478500D03*
X109064000Y-150018500D03*
D33*
X118447400Y-151040000D03*
X115907400Y-151040000D03*
X118447400Y-148500000D03*
X115907400Y-148500000D03*
X118447400Y-145960000D03*
X115907400Y-145960000D03*
X118447400Y-143420000D03*
X116000000Y-143476800D03*
D34*
X118955400Y-136866800D03*
X116415400Y-136866800D03*
%TD*%
D19*
%TO.C,R13*%
X99090000Y-71500000D03*
X100110000Y-71500000D03*
%TD*%
D16*
%TO.C,C23*%
X101780000Y-137720000D03*
X100820000Y-137720000D03*
%TD*%
D35*
%TO.C,Q1*%
X99100000Y-101000000D03*
X99100000Y-102900000D03*
X100975000Y-101950000D03*
%TD*%
D29*
%TO.C,C12*%
X112600000Y-112450000D03*
X112600000Y-113410000D03*
%TD*%
D17*
%TO.C,R8*%
X100500000Y-62910000D03*
X100500000Y-61890000D03*
%TD*%
D36*
%TO.C,Q4*%
X100337500Y-108650000D03*
X100987500Y-108650000D03*
X101637500Y-108650000D03*
X101637500Y-106700000D03*
X100987500Y-106700000D03*
X100337500Y-106700000D03*
D37*
X101637500Y-107580000D03*
D38*
X100662500Y-107675000D03*
%TD*%
D26*
%TO.C,H4*%
X141800000Y-151500000D03*
%TD*%
D16*
%TO.C,C13*%
X112600000Y-108950000D03*
X111640000Y-108950000D03*
%TD*%
D36*
%TO.C,Q3*%
X100337500Y-112000000D03*
X100987500Y-112000000D03*
X101637500Y-112000000D03*
X101637500Y-110050000D03*
X100987500Y-110050000D03*
X100337500Y-110050000D03*
D37*
X101637500Y-110930000D03*
D38*
X100662500Y-111025000D03*
%TD*%
D20*
%TO.C,JP1*%
X92000000Y-81700000D03*
D21*
X92000000Y-83000000D03*
%TD*%
D16*
%TO.C,C15*%
X112580000Y-110450000D03*
X111620000Y-110450000D03*
%TD*%
D10*
%TO.C,R26*%
X128710000Y-149100000D03*
X127690000Y-149100000D03*
%TD*%
D28*
%TO.C,R20*%
X96937500Y-102940000D03*
X96937500Y-103960000D03*
%TD*%
D15*
%TO.C,C16*%
X117000000Y-62000000D03*
X117000000Y-61040000D03*
%TD*%
D26*
%TO.C,H3*%
X92900000Y-151500000D03*
%TD*%
D11*
%TO.C,C18*%
X109600000Y-108700000D03*
X109600000Y-106800000D03*
%TD*%
D28*
%TO.C,JUMP*%
X142000000Y-82190000D03*
X142000000Y-83210000D03*
%TD*%
D39*
%TO.C,L2*%
X93637500Y-135620000D03*
X95962500Y-135620000D03*
%TD*%
D10*
%TO.C,R1*%
X130020000Y-137500000D03*
X129000000Y-137500000D03*
%TD*%
D29*
%TO.C,C20*%
X101637500Y-104190000D03*
X101637500Y-105150000D03*
%TD*%
D40*
%TO.C,SW1*%
X102500000Y-78000000D03*
X109000000Y-78000000D03*
X102500000Y-82500000D03*
X109000000Y-82500000D03*
%TD*%
D41*
%TO.C,J4*%
X105025000Y-57625000D03*
D42*
X103550000Y-56100000D03*
X106500000Y-56100000D03*
%TD*%
D43*
%TO.C,J3*%
X96000000Y-56650000D03*
D44*
X93175000Y-56900000D03*
X98825000Y-56900000D03*
%TD*%
D40*
%TO.C,TP1*%
X119700000Y-74600000D03*
%TD*%
D45*
%TO.C,U4*%
X96037500Y-109150000D03*
D46*
X96537500Y-109200000D03*
X97037500Y-109200000D03*
X97037500Y-108050000D03*
X96537500Y-108050000D03*
X96037500Y-108050000D03*
%TD*%
D28*
%TO.C,R11*%
X98500000Y-93990000D03*
X98500000Y-95010000D03*
%TD*%
D16*
%TO.C,C25*%
X128680000Y-147900000D03*
X127720000Y-147900000D03*
%TD*%
D10*
%TO.C,R21*%
X113110000Y-106200000D03*
X112090000Y-106200000D03*
%TD*%
D47*
%TO.C,L1*%
X97500000Y-72712500D03*
X97500000Y-74287500D03*
%TD*%
D48*
%TO.C,J2*%
X100400000Y-115125000D03*
D33*
X100400000Y-117665000D03*
X100400000Y-120205000D03*
X100400000Y-122745000D03*
X100400000Y-125285000D03*
X100400000Y-127825000D03*
%TD*%
D19*
%TO.C,R7*%
X98990000Y-70000000D03*
X100010000Y-70000000D03*
%TD*%
D10*
%TO.C,R15*%
X143120000Y-107450000D03*
X142100000Y-107450000D03*
%TD*%
D30*
%TO.C,D8*%
X137412500Y-61500000D03*
X138987500Y-61500000D03*
%TD*%
D43*
%TO.C,J5*%
X139000000Y-56662500D03*
D44*
X136175000Y-56912500D03*
X141825000Y-56912500D03*
%TD*%
D17*
%TO.C,R23*%
X93150000Y-143670000D03*
X93150000Y-142650000D03*
%TD*%
D48*
%TO.C,J1*%
X134600000Y-135825000D03*
D33*
X134600000Y-133285000D03*
X134600000Y-130745000D03*
X134600000Y-128205000D03*
%TD*%
D25*
%TO.C,C11*%
X142100000Y-106450000D03*
X143060000Y-106450000D03*
%TD*%
D49*
%TO.C,U3*%
X114950000Y-83730000D03*
X114950000Y-86270000D03*
X114950000Y-88810000D03*
X114950000Y-96410000D03*
X114950000Y-98950000D03*
X114950000Y-101490000D03*
X114950000Y-104030000D03*
X114950000Y-106570000D03*
X114950000Y-109110000D03*
X114950000Y-111650000D03*
X114950000Y-114190000D03*
X138250000Y-114190000D03*
X138250000Y-111650000D03*
X138250000Y-109110000D03*
X138250000Y-106570000D03*
X138250000Y-104030000D03*
X138250000Y-101490000D03*
X138250000Y-98950000D03*
X138250000Y-96410000D03*
X138250000Y-88790000D03*
X138250000Y-86250000D03*
X138250000Y-83710000D03*
%TD*%
D50*
%TO.C,JP3*%
X143000000Y-123000000D03*
D51*
X141700000Y-123000000D03*
D52*
X140400000Y-123000000D03*
%TD*%
D26*
%TO.C,H1*%
X124600000Y-57400000D03*
%TD*%
D15*
%TO.C,C6*%
X105500000Y-149480000D03*
X105500000Y-148520000D03*
%TD*%
D16*
%TO.C,C2*%
X103980000Y-148000000D03*
X103020000Y-148000000D03*
%TD*%
D10*
%TO.C,R2*%
X130020000Y-140000000D03*
X129000000Y-140000000D03*
%TD*%
D53*
%TO.C,D6*%
X115620000Y-119525000D03*
D54*
X121420000Y-119525000D03*
%TD*%
D19*
%TO.C,R22*%
X95590000Y-140500000D03*
X96610000Y-140500000D03*
%TD*%
D31*
%TO.C,R12*%
X142325000Y-120500000D03*
X140675000Y-120500000D03*
%TD*%
D55*
%TO.C,D5*%
X105140000Y-123505000D03*
X104190000Y-123505000D03*
X103240000Y-123505000D03*
X103240000Y-125705000D03*
X105140000Y-125705000D03*
%TD*%
D31*
%TO.C,R27*%
X97625000Y-61900000D03*
X95975000Y-61900000D03*
%TD*%
D16*
%TO.C,C3*%
X103980000Y-146500000D03*
X103020000Y-146500000D03*
%TD*%
D15*
%TO.C,C17*%
X118500000Y-61980000D03*
X118500000Y-61020000D03*
%TD*%
D47*
%TO.C,FB1*%
X100800000Y-134132500D03*
X100800000Y-135707500D03*
%TD*%
D20*
%TO.C,JP2*%
X95500000Y-81700000D03*
D21*
X95500000Y-83000000D03*
%TD*%
D10*
%TO.C,R25*%
X128700000Y-150300000D03*
X127680000Y-150300000D03*
%TD*%
D56*
%TO.C,U6*%
X95650000Y-144860000D03*
X95150000Y-144860000D03*
X94650000Y-144860000D03*
X94150000Y-144860000D03*
X94150000Y-146340000D03*
X94650000Y-146340000D03*
X95150000Y-146340000D03*
X95650000Y-146340000D03*
%TD*%
D16*
%TO.C,C19*%
X97817500Y-106250000D03*
X96857500Y-106250000D03*
%TD*%
D15*
%TO.C,C4*%
X106500000Y-146980000D03*
X106500000Y-146020000D03*
%TD*%
D13*
%TO.C,D3*%
X93500000Y-98000000D03*
D14*
X93500000Y-95460000D03*
%TD*%
D17*
%TO.C,R19*%
X95737500Y-106250000D03*
X95737500Y-105230000D03*
%TD*%
M02*
