%TF.GenerationSoftware,KiCad,Pcbnew,10.0.3*%
%TF.CreationDate,2026-05-22T18:31:41-04:00*%
%TF.ProjectId,meshtastic,6d657368-7461-4737-9469-632e6b696361,rev?*%
%TF.SameCoordinates,Original*%
%TF.FileFunction,Copper,L3,Inr*%
%TF.FilePolarity,Positive*%
%FSLAX46Y46*%
G04 Gerber Fmt 4.6, Leading zero omitted, Abs format (unit mm)*
G04 Created by KiCad (PCBNEW 10.0.3) date 2026-05-22 18:31:41*
%MOMM*%
%LPD*%
G01*
G04 APERTURE LIST*
%TA.AperFunction,ComponentPad*%
%ADD10R,1.800000X1.800000*%
%TD*%
%TA.AperFunction,ComponentPad*%
%ADD11C,1.800000*%
%TD*%
%TA.AperFunction,ComponentPad*%
%ADD12C,3.800000*%
%TD*%
%TA.AperFunction,ComponentPad*%
%ADD13C,2.000000*%
%TD*%
%TA.AperFunction,ComponentPad*%
%ADD14R,1.700000X1.700000*%
%TD*%
%TA.AperFunction,ComponentPad*%
%ADD15C,1.700000*%
%TD*%
%TA.AperFunction,ViaPad*%
%ADD16C,0.600000*%
%TD*%
%TA.AperFunction,Conductor*%
%ADD17C,0.300000*%
%TD*%
%TA.AperFunction,Conductor*%
%ADD18C,0.800000*%
%TD*%
%TA.AperFunction,Conductor*%
%ADD19C,0.600000*%
%TD*%
%TA.AperFunction,Conductor*%
%ADD20C,0.500000*%
%TD*%
%TA.AperFunction,Conductor*%
%ADD21C,0.700000*%
%TD*%
G04 APERTURE END LIST*
D10*
%TO.N,GND*%
%TO.C,D2*%
X93500000Y-91540000D03*
D11*
%TO.N,Net-(D2-A)*%
X93500000Y-89000000D03*
%TD*%
D12*
%TO.N,GND*%
%TO.C,H2*%
X92800000Y-66400000D03*
%TD*%
%TO.N,GND*%
%TO.C,H4*%
X141800000Y-151500000D03*
%TD*%
%TO.N,GND*%
%TO.C,H3*%
X92900000Y-151500000D03*
%TD*%
D13*
%TO.N,GND*%
%TO.C,SW1*%
X102500000Y-78000000D03*
X109000000Y-78000000D03*
%TO.N,Net-(U2-~{SAFEBOOT})*%
X102500000Y-82500000D03*
X109000000Y-82500000D03*
%TD*%
%TO.N,Net-(U2-LNA_EN)*%
%TO.C,TP1*%
X119700000Y-74600000D03*
%TD*%
D14*
%TO.N,+3V3*%
%TO.C,J2*%
X100400000Y-115125000D03*
D15*
%TO.N,GND*%
X100400000Y-117665000D03*
%TO.N,/SCK*%
X100400000Y-120205000D03*
%TO.N,/MOSI*%
X100400000Y-122745000D03*
%TO.N,/MISO*%
X100400000Y-125285000D03*
%TO.N,/CS_BUS*%
X100400000Y-127825000D03*
%TD*%
D14*
%TO.N,+3V3*%
%TO.C,J1*%
X134600000Y-135825000D03*
D15*
%TO.N,GND*%
X134600000Y-133285000D03*
%TO.N,/SDA_I2C*%
X134600000Y-130745000D03*
%TO.N,/SCL_I2C*%
X134600000Y-128205000D03*
%TD*%
D12*
%TO.N,GND*%
%TO.C,H1*%
X124600000Y-57400000D03*
%TD*%
D10*
%TO.N,GND*%
%TO.C,D3*%
X93500000Y-98000000D03*
D11*
%TO.N,Net-(D3-A)*%
X93500000Y-95460000D03*
%TD*%
D16*
%TO.N,GND*%
X102200000Y-57900000D03*
X136700000Y-66800000D03*
X90800000Y-149600000D03*
X103500000Y-142100000D03*
X110700000Y-57800000D03*
X104800000Y-104000000D03*
X97300000Y-97100000D03*
X96200000Y-93300000D03*
X90900000Y-93300000D03*
X91400000Y-85500000D03*
X143600000Y-133800000D03*
X143600000Y-130400000D03*
X143600000Y-127100000D03*
X143800000Y-79400000D03*
X143800000Y-76000000D03*
X144000000Y-70600000D03*
X143900000Y-63000000D03*
X126300000Y-55300000D03*
X117400000Y-55300000D03*
X111700000Y-55900000D03*
X130200000Y-55600000D03*
X130600000Y-67400000D03*
X127800000Y-70400000D03*
X132800000Y-75900000D03*
X125900000Y-75000000D03*
X102000000Y-84800000D03*
X108800000Y-85400000D03*
X107300000Y-86700000D03*
X104300000Y-89000000D03*
X101900000Y-91300000D03*
X130200000Y-118100000D03*
X129100000Y-118800000D03*
X122400000Y-124900000D03*
X128300000Y-123500000D03*
X125600000Y-124000000D03*
X116100000Y-124800000D03*
X116800000Y-129500000D03*
X121400000Y-134500000D03*
X115200000Y-134500000D03*
X123000000Y-147600000D03*
X122700000Y-150000000D03*
X133500000Y-152400000D03*
X135800000Y-152500000D03*
X133800000Y-150700000D03*
X135700000Y-150600000D03*
X138000000Y-147200000D03*
X138400000Y-142800000D03*
X139000000Y-139700000D03*
X143700000Y-118200000D03*
X143300000Y-114700000D03*
X143100000Y-110500000D03*
X142100000Y-94500000D03*
X143200000Y-91800000D03*
X108900000Y-95800000D03*
X108900000Y-93800000D03*
X104600000Y-100700000D03*
X104300000Y-95800000D03*
X92900000Y-111100000D03*
X93100000Y-117600000D03*
X93000000Y-120400000D03*
X93100000Y-122600000D03*
X93000000Y-125300000D03*
X93000000Y-128100000D03*
X92000000Y-136500000D03*
X92100000Y-135200000D03*
%TO.N,+5V*%
X99200000Y-135000000D03*
X98100000Y-134500000D03*
%TO.N,GND*%
X98600000Y-136700000D03*
X111400000Y-141400000D03*
X111400000Y-139200000D03*
X111400000Y-137600000D03*
X114400000Y-140100000D03*
X111500000Y-145400000D03*
X111500000Y-150800000D03*
X111500000Y-149600000D03*
X111500000Y-148900000D03*
X111500000Y-148100000D03*
X111500000Y-147300000D03*
X111500000Y-146500000D03*
X108200000Y-113900000D03*
X108500000Y-112900000D03*
X108500000Y-110800000D03*
X108300000Y-110000000D03*
X109700000Y-110300000D03*
X99900000Y-58600000D03*
X101000000Y-58000000D03*
X102800000Y-57900000D03*
X104500000Y-59100000D03*
X102400000Y-59300000D03*
X103100000Y-59300000D03*
X97800000Y-59600000D03*
X96680000Y-59300000D03*
X98357085Y-62548650D03*
X97625580Y-62875000D03*
X98593539Y-61797416D03*
X99100000Y-61400000D03*
X99530833Y-60930833D03*
X96900000Y-61000000D03*
X97840902Y-60768143D03*
X98369167Y-60169167D03*
X98919167Y-59619167D03*
X96800000Y-62700000D03*
%TO.N,/MOSI*%
X119900000Y-65200000D03*
X137994000Y-102760000D03*
%TO.N,+5V*%
X109600000Y-113850000D03*
X109600000Y-108700000D03*
X114950000Y-111500000D03*
X112600000Y-108950000D03*
X111700000Y-112200000D03*
X143120000Y-107450000D03*
X112600000Y-112450000D03*
X114950000Y-109250000D03*
X111300000Y-130800000D03*
X115250000Y-119500000D03*
X111500000Y-126200000D03*
X113750000Y-118500000D03*
X100800000Y-134132500D03*
%TO.N,GND*%
X140811237Y-86517845D03*
X140300000Y-57700000D03*
X132200000Y-132000000D03*
X142900000Y-66600000D03*
X130600000Y-98900000D03*
X95000000Y-58900000D03*
X142820000Y-83128993D03*
X140000000Y-69200000D03*
X140000000Y-87000000D03*
X98825000Y-56900000D03*
X114250000Y-116000000D03*
X95300000Y-64800000D03*
X103700000Y-59300000D03*
X96790000Y-65500000D03*
X135200000Y-65500000D03*
X104500000Y-72600000D03*
X100730833Y-59730833D03*
X139700000Y-65600000D03*
X128400000Y-152800000D03*
X139369167Y-71530833D03*
X101500000Y-146500000D03*
X91700000Y-59300000D03*
X123000000Y-118500000D03*
X134300000Y-55500000D03*
X111600000Y-114600000D03*
X108259190Y-64675576D03*
X139400000Y-90800000D03*
X98250000Y-75750000D03*
X138900000Y-113300000D03*
X100400000Y-58200000D03*
X100100000Y-55800000D03*
X126500000Y-83400000D03*
X121800000Y-113400000D03*
X112000000Y-74100000D03*
X94000000Y-148000000D03*
X142680000Y-77400000D03*
X142820000Y-82141722D03*
X99469167Y-59069167D03*
X97200000Y-56600000D03*
X104000000Y-99300000D03*
X96750880Y-70830880D03*
X104190000Y-123505000D03*
X91400000Y-102200000D03*
X119500000Y-88800000D03*
X124900000Y-107900000D03*
X140000000Y-61600000D03*
X94300000Y-140400000D03*
X109000000Y-61300000D03*
X136175000Y-56912500D03*
X139700000Y-64100000D03*
X134300000Y-58400000D03*
X106000000Y-64900000D03*
X96700000Y-132500000D03*
X99900000Y-76000000D03*
X135000000Y-108300000D03*
X142700000Y-75100000D03*
X96600000Y-147900000D03*
X92600000Y-69200000D03*
X109000000Y-147478500D03*
X105000000Y-68900000D03*
X92500000Y-100900000D03*
X104954293Y-58657374D03*
X104500000Y-151800000D03*
X91700000Y-140400000D03*
X112500000Y-72400000D03*
X142800000Y-146900000D03*
X100200000Y-72924100D03*
X105250000Y-112250000D03*
X140000000Y-68300000D03*
X94400000Y-64700000D03*
X105200000Y-66800000D03*
X94000000Y-74800000D03*
X96800000Y-73500000D03*
X104500000Y-118900000D03*
X118600000Y-77100000D03*
X141180000Y-82274146D03*
X138250000Y-114190000D03*
X128000000Y-66700000D03*
X139800000Y-58700000D03*
X96778709Y-69000831D03*
X142400000Y-142500000D03*
X104500000Y-74900000D03*
X104500000Y-71200000D03*
X140949018Y-84550711D03*
X111700000Y-109700000D03*
X130600000Y-93600000D03*
X139700000Y-64800000D03*
X125500000Y-68800000D03*
X139849770Y-85484791D03*
X103900000Y-103300000D03*
X95320000Y-65900000D03*
X100700000Y-143200000D03*
X106006233Y-74210411D03*
X127800000Y-56700000D03*
X136000000Y-86250000D03*
X96746341Y-66584729D03*
X132665342Y-105821398D03*
X96700000Y-144400000D03*
X123900000Y-86600000D03*
X107300000Y-66400000D03*
X112400000Y-89000000D03*
X130000000Y-87000000D03*
X97405947Y-67444314D03*
X96700000Y-146600000D03*
X142700000Y-79200000D03*
X112600000Y-103200000D03*
X133300000Y-89300000D03*
X93175000Y-56900000D03*
X134400000Y-97700000D03*
X125200000Y-97300000D03*
X132100000Y-73600000D03*
X130500000Y-71250000D03*
X115900000Y-141200000D03*
X113800000Y-150700000D03*
X136700000Y-63400000D03*
X141200000Y-73500000D03*
X136200000Y-76100000D03*
X101200000Y-141800000D03*
X95234890Y-62656629D03*
X120700000Y-95400000D03*
X121300000Y-97700000D03*
X119500000Y-82500000D03*
X138320000Y-67300000D03*
X95320000Y-67000000D03*
X111500025Y-75807832D03*
X95992404Y-67948656D03*
X141320000Y-76000000D03*
X119250000Y-124250000D03*
X137900000Y-82300000D03*
X104500000Y-70500000D03*
X108200000Y-59900000D03*
X99500000Y-70700000D03*
X92000000Y-148000000D03*
X125250000Y-118250000D03*
X122900000Y-92800000D03*
X95403290Y-61000001D03*
X101200000Y-75900000D03*
X97000000Y-60200000D03*
X97700000Y-136800000D03*
X94700000Y-56400000D03*
X92000000Y-146300000D03*
X100785331Y-63785331D03*
X130800000Y-146600000D03*
X106500000Y-58000000D03*
X138700000Y-70800000D03*
X143600000Y-58000000D03*
X129700000Y-114000000D03*
X105700000Y-80200000D03*
X101500000Y-148000000D03*
X96525000Y-72550000D03*
X104500000Y-69800000D03*
X109600000Y-111950000D03*
X102200000Y-75900000D03*
X131500000Y-81800000D03*
X140300000Y-55700000D03*
X98500000Y-66700000D03*
X100900000Y-72900000D03*
X140293620Y-70531954D03*
X91600000Y-57000000D03*
X94000000Y-131800000D03*
X98500000Y-141300000D03*
X105100000Y-147200000D03*
X126200000Y-88900000D03*
X95025000Y-60355684D03*
X123800000Y-81800000D03*
X141900000Y-63800000D03*
X120200000Y-148000000D03*
X136000000Y-83250000D03*
X114100000Y-142000000D03*
X96820000Y-69900000D03*
X138320000Y-62341927D03*
X94700000Y-55600000D03*
X121420000Y-119525000D03*
X98300000Y-137500000D03*
X98190000Y-69390880D03*
X139700000Y-67300000D03*
X135300000Y-113700000D03*
X132700000Y-95900000D03*
X129300000Y-84700000D03*
X104500000Y-71900000D03*
X105200000Y-113800000D03*
X110900000Y-64900000D03*
X112400000Y-107500000D03*
X101600000Y-72924100D03*
X137300000Y-62800000D03*
X105470000Y-115300000D03*
X95164520Y-59553850D03*
X127100000Y-91900000D03*
X138200000Y-69800000D03*
X142000000Y-61000000D03*
X100800000Y-70600000D03*
X98800000Y-148600000D03*
X104500000Y-73400000D03*
X136000000Y-87750000D03*
X130200000Y-103100000D03*
X104500000Y-74200000D03*
X101600000Y-144900000D03*
X142000000Y-87500000D03*
X129600000Y-97300000D03*
X103200000Y-68800000D03*
X143700000Y-55700000D03*
X92100000Y-131400000D03*
X93100000Y-61500000D03*
X96100000Y-131300000D03*
X138320000Y-66200000D03*
X139000000Y-80800000D03*
X138264383Y-60725721D03*
X133250000Y-69000000D03*
X104450000Y-76500000D03*
X107400000Y-72900000D03*
X133900000Y-81200000D03*
X140118754Y-72500000D03*
X136200000Y-68900000D03*
X101700000Y-59300000D03*
X112000000Y-70100000D03*
X99300000Y-82000000D03*
X100100000Y-56900000D03*
X140300000Y-56700000D03*
X105200000Y-61300000D03*
X108800000Y-71300000D03*
X112400000Y-94500000D03*
X95100000Y-143400000D03*
X105788544Y-58452946D03*
X95025000Y-61740338D03*
X108500000Y-68300000D03*
X139700000Y-63200000D03*
X141130833Y-71369167D03*
X109600000Y-72400000D03*
X125400000Y-93900000D03*
X112600000Y-90900000D03*
X126800000Y-94900000D03*
X98600000Y-147300000D03*
X136000000Y-85000000D03*
X97200000Y-152000000D03*
X123500000Y-77000000D03*
X142680000Y-76300000D03*
X112500000Y-65200000D03*
X139700000Y-59800000D03*
X101590935Y-57923526D03*
X112000000Y-77100000D03*
X98116843Y-68750000D03*
X91700000Y-55800000D03*
X127250000Y-77250000D03*
X142700000Y-69100000D03*
X109707519Y-66687145D03*
X121100000Y-108300000D03*
X94700000Y-58100000D03*
X144000000Y-83400000D03*
X127500000Y-81000000D03*
X134800000Y-101600000D03*
X142680000Y-80400000D03*
X118900000Y-86100000D03*
X132700000Y-55900000D03*
X138320000Y-64900000D03*
X114100000Y-146800000D03*
X138300000Y-59700000D03*
X137700000Y-56600000D03*
X117300000Y-75300000D03*
X97025000Y-63609756D03*
X136200000Y-61800000D03*
X116250000Y-115750000D03*
X131500000Y-148000000D03*
X114750000Y-122250000D03*
X91400000Y-71000000D03*
X107300000Y-61300000D03*
X138700000Y-77300000D03*
X105700000Y-78600000D03*
X142582218Y-84350630D03*
X94500000Y-68600000D03*
X134700000Y-60700000D03*
X139751898Y-60770596D03*
X103100000Y-75500000D03*
X138250000Y-83710000D03*
X142109726Y-85285960D03*
X98282559Y-71998201D03*
X109250000Y-115500000D03*
X141320000Y-81300000D03*
X141300000Y-89600000D03*
X106000000Y-70600000D03*
X122900000Y-103700000D03*
X142639516Y-73564321D03*
X121600000Y-85500000D03*
X141461666Y-85961666D03*
X99300000Y-144300000D03*
X130100000Y-57700000D03*
X101000000Y-74300000D03*
X94300000Y-100500000D03*
X100200000Y-60300000D03*
X91600000Y-58100000D03*
X110500000Y-61400000D03*
X141320000Y-74700000D03*
X141825000Y-56912500D03*
X106569472Y-68839523D03*
X100300000Y-74300000D03*
X137300000Y-60200000D03*
X99523251Y-74284099D03*
X130500000Y-109300000D03*
X141100000Y-145600000D03*
X141800000Y-138900000D03*
X138700000Y-115400000D03*
X133200000Y-129500000D03*
X101792182Y-74291478D03*
X103100000Y-87400000D03*
X122100000Y-82900000D03*
X119500000Y-91900000D03*
X125200000Y-72300000D03*
X97300000Y-55700000D03*
X132500000Y-111600000D03*
X119700000Y-140100000D03*
X136000000Y-89250000D03*
X141320000Y-79800000D03*
X125900000Y-112500000D03*
X99350000Y-72924100D03*
X138320000Y-63600000D03*
X142100000Y-72300000D03*
X106000000Y-144500000D03*
X123100000Y-99700000D03*
X133200000Y-86800000D03*
X112800000Y-104400000D03*
X104500000Y-60000000D03*
X106800000Y-76100000D03*
X126300000Y-102200000D03*
X97200000Y-57900000D03*
X138200000Y-68800000D03*
X95700000Y-70500000D03*
X137800000Y-57700000D03*
X125250000Y-79250000D03*
X110000000Y-69700000D03*
X134400000Y-115600000D03*
X93100000Y-132900000D03*
X104030797Y-57705459D03*
X114800000Y-57100000D03*
X120100000Y-57000000D03*
X120300000Y-151300000D03*
X112900000Y-68400000D03*
X96849877Y-58591314D03*
X112900000Y-61400000D03*
X92100000Y-145100000D03*
X103500000Y-109000000D03*
X143500000Y-86200000D03*
X112800000Y-60100000D03*
X119500000Y-79250000D03*
X139700000Y-66400000D03*
X138320000Y-58714788D03*
X96790000Y-64500000D03*
X94700000Y-57200000D03*
X124000000Y-89200000D03*
X103400000Y-57900000D03*
X138600000Y-93200000D03*
X113900000Y-148900000D03*
X141320000Y-77900000D03*
X137800000Y-55600000D03*
X139700000Y-62500000D03*
X141309065Y-83802932D03*
X106400000Y-60000000D03*
X98200000Y-78100000D03*
X128500000Y-79250000D03*
X99000000Y-137800000D03*
X109000000Y-74400000D03*
X93100000Y-59600000D03*
X110500000Y-60300000D03*
X99200000Y-151000000D03*
X125000000Y-119750000D03*
X95737500Y-105230000D03*
X90900000Y-69000000D03*
X143800000Y-61200000D03*
X128400000Y-107400000D03*
X134750000Y-73000000D03*
%TO.N,Net-(U2-~{SAFEBOOT})*%
X101141000Y-61035900D03*
%TO.N,/GNSS/PPS*%
X95100000Y-71900000D03*
X100900000Y-67100000D03*
%TO.N,/CS_GPS*%
X126800001Y-143551842D03*
X110538000Y-80000000D03*
X115024000Y-68419500D03*
%TO.N,/SCK*%
X134100000Y-119400000D03*
X109888000Y-89415100D03*
X106770000Y-119797000D03*
X116700000Y-70100000D03*
%TO.N,+3V3*%
X132000000Y-135354000D03*
X99000000Y-68100000D03*
X100086000Y-85343100D03*
X100000000Y-64000000D03*
X112600000Y-132600000D03*
X112200000Y-117400000D03*
X130000000Y-135354000D03*
X115000000Y-62904100D03*
X129100000Y-130450000D03*
X140743000Y-132497000D03*
X92000000Y-79448900D03*
X94252700Y-70607600D03*
%TO.N,VBUS*%
X100400000Y-149400000D03*
X93118964Y-144781036D03*
X106610000Y-149590000D03*
X107300000Y-150018500D03*
X104950000Y-149950000D03*
%TO.N,-BATT*%
X99000000Y-105100000D03*
X99200000Y-105150000D03*
X131549997Y-144600000D03*
X98800000Y-105300000D03*
%TO.N,/TR_CTRL*%
X92230000Y-139130000D03*
X112090000Y-106200000D03*
X94400000Y-139130000D03*
X91600000Y-106900000D03*
%TO.N,Net-(U5-VOUT)*%
X100500000Y-140200000D03*
X96610000Y-140500000D03*
%TO.N,Net-(BT1-+)*%
X135750000Y-143450000D03*
X101100000Y-102700000D03*
X114600000Y-76600000D03*
X101100000Y-104200000D03*
X101100000Y-101900000D03*
X130500000Y-62310000D03*
X101637500Y-103300000D03*
X101100000Y-103500000D03*
%TO.N,Net-(C10-Pad1)*%
X99062895Y-72174490D03*
X98700000Y-74750000D03*
%TO.N,/MISO*%
X122200000Y-75500000D03*
X143200000Y-102400000D03*
X130390381Y-89809619D03*
X136200000Y-95619239D03*
%TO.N,/SCL_I2C*%
X128880000Y-132497000D03*
%TO.N,Net-(JP3-B)*%
X142200000Y-100700000D03*
X140264000Y-121719000D03*
%TO.N,/CS_LORA*%
X138644000Y-96410000D03*
X141244000Y-109082000D03*
%TO.N,/CS_BUS*%
X113600000Y-151700000D03*
X105662000Y-129873000D03*
%TO.N,/BUSY_LORA*%
X137600000Y-116300000D03*
X117200000Y-140200000D03*
X138250000Y-109110000D03*
%TO.N,+BATT*%
X95050000Y-147350000D03*
X93600000Y-104300000D03*
%TO.N,Net-(Q4-G)*%
X99237500Y-109350000D03*
X102337500Y-109350000D03*
%TD*%
%TO.N,+5V*%
D17*
X115250000Y-119500000D02*
X117000000Y-121250000D01*
X130050000Y-121250000D02*
X134700000Y-116600000D01*
X117000000Y-121250000D02*
X130050000Y-121250000D01*
X134700000Y-116600000D02*
X135762132Y-116600000D01*
X135762132Y-116600000D02*
X135850000Y-116512132D01*
X135850000Y-116512132D02*
X135850000Y-115450000D01*
X135850000Y-115450000D02*
X143120000Y-108180000D01*
X143120000Y-108180000D02*
X143120000Y-107450000D01*
%TO.N,-BATT*%
D18*
X131549997Y-144600000D02*
X113000000Y-144600000D01*
X113000000Y-144600000D02*
X97100000Y-128700000D01*
X97100000Y-128700000D02*
X97100000Y-107000000D01*
X97100000Y-107000000D02*
X99000000Y-105100000D01*
%TO.N,/CS_GPS*%
D17*
X126800001Y-143551842D02*
X126687778Y-143664065D01*
X126687778Y-143664065D02*
X119264065Y-143664065D01*
X119264065Y-143664065D02*
X110538000Y-134938000D01*
X110538000Y-134938000D02*
X110538000Y-80000000D01*
%TO.N,+3V3*%
D19*
X100000000Y-63510000D02*
X100605900Y-62904100D01*
X100605900Y-62904100D02*
X115000000Y-62904100D01*
X100000000Y-64000000D02*
X100000000Y-63510000D01*
%TO.N,VBUS*%
D20*
X94139339Y-149400000D02*
X93118964Y-148379625D01*
X93118964Y-148379625D02*
X93118964Y-144781036D01*
X100400000Y-149400000D02*
X94139339Y-149400000D01*
%TO.N,Net-(BT1-+)*%
D21*
X114600000Y-76600000D02*
X128890000Y-62310000D01*
X128890000Y-62310000D02*
X130500000Y-62310000D01*
%TO.N,/MISO*%
D17*
X106120000Y-119565000D02*
X106120000Y-83470811D01*
X106120000Y-83470811D02*
X111240811Y-78350000D01*
X111240811Y-78350000D02*
X119350000Y-78350000D01*
X119350000Y-78350000D02*
X122200000Y-75500000D01*
X100400000Y-125285000D02*
X106120000Y-119565000D01*
X136200000Y-95619239D02*
X142980761Y-102400000D01*
X142980761Y-102400000D02*
X143200000Y-102400000D01*
%TO.N,/BUSY_LORA*%
X137300000Y-120100000D02*
X137300000Y-116600000D01*
X117200000Y-140200000D02*
X137300000Y-120100000D01*
X137300000Y-116600000D02*
X137600000Y-116300000D01*
%TD*%
%TA.AperFunction,Conductor*%
%TO.N,GND*%
G36*
X142708448Y-54883763D02*
G01*
X142749408Y-54891222D01*
X142794875Y-54909320D01*
X142819190Y-54925163D01*
X142825372Y-54931231D01*
X142830353Y-54933359D01*
X142854120Y-54959452D01*
X142870407Y-54983465D01*
X142889346Y-55028595D01*
X142897561Y-55069403D01*
X142900000Y-55093872D01*
X142900000Y-89387789D01*
X142897617Y-89411982D01*
X142889588Y-89452344D01*
X142886397Y-89460046D01*
X142886305Y-89465206D01*
X142871072Y-89497043D01*
X142855122Y-89520913D01*
X142820913Y-89555122D01*
X142797043Y-89571072D01*
X142752344Y-89589588D01*
X142735841Y-89592870D01*
X142711978Y-89597617D01*
X142687789Y-89600000D01*
X134600000Y-89600000D01*
X134600000Y-79206807D01*
X134600000Y-74253788D01*
X136574500Y-74253788D01*
X136574500Y-74506211D01*
X136607446Y-74756451D01*
X136672773Y-75000258D01*
X136769363Y-75233447D01*
X136769372Y-75233464D01*
X136895566Y-75452041D01*
X136895568Y-75452045D01*
X137049227Y-75652294D01*
X137049235Y-75652303D01*
X137227697Y-75830765D01*
X137227705Y-75830772D01*
X137427954Y-75984431D01*
X137427958Y-75984433D01*
X137646535Y-76110627D01*
X137646552Y-76110636D01*
X137775758Y-76164154D01*
X137879740Y-76207226D01*
X138123548Y-76272554D01*
X138373796Y-76305500D01*
X138373803Y-76305500D01*
X138626197Y-76305500D01*
X138626204Y-76305500D01*
X138876452Y-76272554D01*
X139120260Y-76207226D01*
X139353454Y-76110633D01*
X139572041Y-75984433D01*
X139572045Y-75984431D01*
X139609842Y-75955427D01*
X139772294Y-75830773D01*
X139772298Y-75830768D01*
X139772303Y-75830765D01*
X139950765Y-75652303D01*
X139950768Y-75652298D01*
X139950773Y-75652294D01*
X140104430Y-75452046D01*
X140230633Y-75233454D01*
X140327226Y-75000260D01*
X140392554Y-74756452D01*
X140425500Y-74506204D01*
X140425500Y-74253796D01*
X140392554Y-74003548D01*
X140327226Y-73759740D01*
X140284154Y-73655758D01*
X140230636Y-73526552D01*
X140230627Y-73526535D01*
X140104433Y-73307958D01*
X140104431Y-73307954D01*
X139950772Y-73107705D01*
X139950765Y-73107697D01*
X139772303Y-72929235D01*
X139772294Y-72929227D01*
X139572045Y-72775568D01*
X139572041Y-72775566D01*
X139353464Y-72649372D01*
X139353447Y-72649363D01*
X139120258Y-72552773D01*
X138965690Y-72511357D01*
X138876452Y-72487446D01*
X138845171Y-72483327D01*
X138626211Y-72454500D01*
X138626204Y-72454500D01*
X138373796Y-72454500D01*
X138373788Y-72454500D01*
X138123548Y-72487446D01*
X137879741Y-72552773D01*
X137646552Y-72649363D01*
X137646535Y-72649372D01*
X137427958Y-72775566D01*
X137427954Y-72775568D01*
X137227705Y-72929227D01*
X137049227Y-73107705D01*
X136895568Y-73307954D01*
X136895566Y-73307958D01*
X136769372Y-73526535D01*
X136769363Y-73526552D01*
X136672773Y-73759741D01*
X136607446Y-74003548D01*
X136574500Y-74253788D01*
X134600000Y-74253788D01*
X134600000Y-55243941D01*
X134604125Y-55212224D01*
X134617786Y-55160602D01*
X134649168Y-55105466D01*
X134674884Y-55079269D01*
X134729433Y-55046872D01*
X134780782Y-55032260D01*
X134812419Y-55027547D01*
X137186151Y-54983589D01*
X142683951Y-54881778D01*
X142708448Y-54883763D01*
G37*
%TD.AperFunction*%
%TD*%
%TA.AperFunction,Conductor*%
%TO.N,GND*%
G36*
X106946478Y-55004147D02*
G01*
X106998202Y-55017871D01*
X107011935Y-55025711D01*
X107025029Y-55028459D01*
X107053433Y-55049399D01*
X107079635Y-55075220D01*
X107111971Y-55129986D01*
X107126450Y-55181499D01*
X107131063Y-55213235D01*
X107178247Y-58433084D01*
X107182070Y-58693968D01*
X107182070Y-58693972D01*
X107185011Y-58894719D01*
X99900000Y-59029629D01*
X99900000Y-55300000D01*
X99827778Y-55300000D01*
X99825306Y-55166509D01*
X99829028Y-55133985D01*
X99835604Y-55107834D01*
X99867367Y-55051216D01*
X99874265Y-55044188D01*
X99930291Y-55011381D01*
X99947296Y-55006768D01*
X99956310Y-55004324D01*
X99988768Y-55000000D01*
X106914677Y-55000000D01*
X106946478Y-55004147D01*
G37*
%TD.AperFunction*%
%TD*%
%TA.AperFunction,Conductor*%
%TO.N,GND*%
G36*
X113743039Y-63424285D02*
G01*
X113788794Y-63477089D01*
X113800000Y-63528600D01*
X113800000Y-76287789D01*
X113797617Y-76311982D01*
X113789588Y-76352344D01*
X113786397Y-76360046D01*
X113786305Y-76365206D01*
X113771072Y-76397043D01*
X113755122Y-76420913D01*
X113720913Y-76455122D01*
X113697043Y-76471072D01*
X113652344Y-76489588D01*
X113635841Y-76492870D01*
X113611978Y-76497617D01*
X113587789Y-76500000D01*
X99900000Y-76500000D01*
X99900000Y-67034108D01*
X100399500Y-67034108D01*
X100399500Y-67165891D01*
X100433608Y-67293187D01*
X100466554Y-67350250D01*
X100499500Y-67407314D01*
X100592686Y-67500500D01*
X100706814Y-67566392D01*
X100834108Y-67600500D01*
X100834110Y-67600500D01*
X100965890Y-67600500D01*
X100965892Y-67600500D01*
X101093186Y-67566392D01*
X101207314Y-67500500D01*
X101300500Y-67407314D01*
X101366392Y-67293186D01*
X101400500Y-67165892D01*
X101400500Y-67034108D01*
X101366392Y-66906814D01*
X101300500Y-66792686D01*
X101207314Y-66699500D01*
X101150250Y-66666554D01*
X101093187Y-66633608D01*
X101029539Y-66616554D01*
X100965892Y-66599500D01*
X100834108Y-66599500D01*
X100706812Y-66633608D01*
X100592686Y-66699500D01*
X100592683Y-66699502D01*
X100499502Y-66792683D01*
X100499500Y-66792686D01*
X100433608Y-66906812D01*
X100399500Y-67034108D01*
X99900000Y-67034108D01*
X99900000Y-64491360D01*
X99934108Y-64500500D01*
X99934111Y-64500500D01*
X100065890Y-64500500D01*
X100065892Y-64500500D01*
X100193186Y-64466392D01*
X100307314Y-64400500D01*
X100400500Y-64307314D01*
X100466392Y-64193186D01*
X100500500Y-64065892D01*
X100500500Y-63768676D01*
X100520185Y-63701637D01*
X100536819Y-63680995D01*
X100776895Y-63440919D01*
X100838218Y-63407434D01*
X100864576Y-63404600D01*
X113676000Y-63404600D01*
X113743039Y-63424285D01*
G37*
%TD.AperFunction*%
%TA.AperFunction,Conductor*%
G36*
X113608448Y-58778206D02*
G01*
X113649408Y-58785665D01*
X113694875Y-58803763D01*
X113719190Y-58819606D01*
X113754120Y-58853895D01*
X113770407Y-58877908D01*
X113789346Y-58923038D01*
X113797561Y-58963846D01*
X113800000Y-58988315D01*
X113800000Y-62279600D01*
X113780315Y-62346639D01*
X113727511Y-62392394D01*
X113676000Y-62403600D01*
X100540008Y-62403600D01*
X100412712Y-62437708D01*
X100298586Y-62503600D01*
X100298583Y-62503602D01*
X99900000Y-62902185D01*
X99900000Y-60970008D01*
X100640500Y-60970008D01*
X100640500Y-61101791D01*
X100674608Y-61229087D01*
X100707554Y-61286150D01*
X100740500Y-61343214D01*
X100833686Y-61436400D01*
X100947814Y-61502292D01*
X101075108Y-61536400D01*
X101075110Y-61536400D01*
X101206890Y-61536400D01*
X101206892Y-61536400D01*
X101334186Y-61502292D01*
X101448314Y-61436400D01*
X101541500Y-61343214D01*
X101607392Y-61229086D01*
X101641500Y-61101792D01*
X101641500Y-60970008D01*
X101607392Y-60842714D01*
X101541500Y-60728586D01*
X101448314Y-60635400D01*
X101391250Y-60602454D01*
X101334187Y-60569508D01*
X101270539Y-60552454D01*
X101206892Y-60535400D01*
X101075108Y-60535400D01*
X100947812Y-60569508D01*
X100833686Y-60635400D01*
X100833683Y-60635402D01*
X100740502Y-60728583D01*
X100740500Y-60728586D01*
X100674608Y-60842712D01*
X100640500Y-60970008D01*
X99900000Y-60970008D01*
X99900000Y-59029629D01*
X107375182Y-58891198D01*
X107375188Y-58891199D01*
X107385750Y-58891003D01*
X107385752Y-58891004D01*
X110827877Y-58827260D01*
X113583951Y-58776221D01*
X113608448Y-58778206D01*
G37*
%TD.AperFunction*%
%TD*%
%TA.AperFunction,Conductor*%
%TO.N,GND*%
G36*
X99900000Y-62902185D02*
G01*
X99599502Y-63202683D01*
X99599500Y-63202686D01*
X99533608Y-63316812D01*
X99499500Y-63444108D01*
X99499500Y-64065891D01*
X99533608Y-64193187D01*
X99566554Y-64250250D01*
X99599500Y-64307314D01*
X99692686Y-64400500D01*
X99806814Y-64466392D01*
X99900000Y-64491360D01*
X99900000Y-76500000D01*
X92012211Y-76500000D01*
X91988020Y-76497617D01*
X91972744Y-76494578D01*
X91947656Y-76489588D01*
X91902956Y-76471072D01*
X91879086Y-76455122D01*
X91844877Y-76420913D01*
X91828927Y-76397043D01*
X91810412Y-76352346D01*
X91802381Y-76311971D01*
X91800000Y-76287789D01*
X91800000Y-74684108D01*
X98199500Y-74684108D01*
X98199500Y-74815891D01*
X98233608Y-74943187D01*
X98266554Y-75000250D01*
X98299500Y-75057314D01*
X98392686Y-75150500D01*
X98506814Y-75216392D01*
X98634108Y-75250500D01*
X98634110Y-75250500D01*
X98765890Y-75250500D01*
X98765892Y-75250500D01*
X98893186Y-75216392D01*
X99007314Y-75150500D01*
X99100500Y-75057314D01*
X99166392Y-74943186D01*
X99200500Y-74815892D01*
X99200500Y-74684108D01*
X99166392Y-74556814D01*
X99100500Y-74442686D01*
X99007314Y-74349500D01*
X98950250Y-74316554D01*
X98893187Y-74283608D01*
X98829539Y-74266554D01*
X98765892Y-74249500D01*
X98634108Y-74249500D01*
X98506812Y-74283608D01*
X98392686Y-74349500D01*
X98392683Y-74349502D01*
X98299502Y-74442683D01*
X98299500Y-74442686D01*
X98233608Y-74556812D01*
X98199500Y-74684108D01*
X91800000Y-74684108D01*
X91800000Y-71834108D01*
X94599500Y-71834108D01*
X94599500Y-71965891D01*
X94633608Y-72093187D01*
X94642506Y-72108598D01*
X94699500Y-72207314D01*
X94792686Y-72300500D01*
X94906814Y-72366392D01*
X95034108Y-72400500D01*
X95034110Y-72400500D01*
X95165890Y-72400500D01*
X95165892Y-72400500D01*
X95293186Y-72366392D01*
X95407314Y-72300500D01*
X95500500Y-72207314D01*
X95557494Y-72108598D01*
X98562395Y-72108598D01*
X98562395Y-72240381D01*
X98596503Y-72367677D01*
X98615453Y-72400499D01*
X98662395Y-72481804D01*
X98755581Y-72574990D01*
X98869709Y-72640882D01*
X98997003Y-72674990D01*
X98997005Y-72674990D01*
X99128785Y-72674990D01*
X99128787Y-72674990D01*
X99256081Y-72640882D01*
X99370209Y-72574990D01*
X99463395Y-72481804D01*
X99529287Y-72367676D01*
X99563395Y-72240382D01*
X99563395Y-72108598D01*
X99529287Y-71981304D01*
X99463395Y-71867176D01*
X99370209Y-71773990D01*
X99313145Y-71741044D01*
X99256082Y-71708098D01*
X99192434Y-71691044D01*
X99128787Y-71673990D01*
X98997003Y-71673990D01*
X98869707Y-71708098D01*
X98755581Y-71773990D01*
X98755578Y-71773992D01*
X98662397Y-71867173D01*
X98662395Y-71867176D01*
X98596503Y-71981302D01*
X98562395Y-72108598D01*
X95557494Y-72108598D01*
X95566392Y-72093186D01*
X95600500Y-71965892D01*
X95600500Y-71834108D01*
X95566392Y-71706814D01*
X95500500Y-71592686D01*
X95407314Y-71499500D01*
X95350250Y-71466554D01*
X95293187Y-71433608D01*
X95229539Y-71416554D01*
X95165892Y-71399500D01*
X95034108Y-71399500D01*
X94906812Y-71433608D01*
X94792686Y-71499500D01*
X94792683Y-71499502D01*
X94699502Y-71592683D01*
X94699500Y-71592686D01*
X94633608Y-71706812D01*
X94599500Y-71834108D01*
X91800000Y-71834108D01*
X91800000Y-70541708D01*
X93752200Y-70541708D01*
X93752200Y-70673491D01*
X93786308Y-70800787D01*
X93819254Y-70857850D01*
X93852200Y-70914914D01*
X93945386Y-71008100D01*
X94059514Y-71073992D01*
X94186808Y-71108100D01*
X94186810Y-71108100D01*
X94318590Y-71108100D01*
X94318592Y-71108100D01*
X94445886Y-71073992D01*
X94560014Y-71008100D01*
X94653200Y-70914914D01*
X94719092Y-70800786D01*
X94753200Y-70673492D01*
X94753200Y-70541708D01*
X94719092Y-70414414D01*
X94653200Y-70300286D01*
X94560014Y-70207100D01*
X94502950Y-70174154D01*
X94445887Y-70141208D01*
X94382239Y-70124154D01*
X94318592Y-70107100D01*
X94186808Y-70107100D01*
X94059512Y-70141208D01*
X93945386Y-70207100D01*
X93945383Y-70207102D01*
X93852202Y-70300283D01*
X93852200Y-70300286D01*
X93786308Y-70414412D01*
X93752200Y-70541708D01*
X91800000Y-70541708D01*
X91800000Y-68034108D01*
X98499500Y-68034108D01*
X98499500Y-68165891D01*
X98533608Y-68293187D01*
X98566554Y-68350250D01*
X98599500Y-68407314D01*
X98692686Y-68500500D01*
X98806814Y-68566392D01*
X98934108Y-68600500D01*
X98934110Y-68600500D01*
X99065890Y-68600500D01*
X99065892Y-68600500D01*
X99193186Y-68566392D01*
X99307314Y-68500500D01*
X99400500Y-68407314D01*
X99466392Y-68293186D01*
X99500500Y-68165892D01*
X99500500Y-68034108D01*
X99466392Y-67906814D01*
X99400500Y-67792686D01*
X99307314Y-67699500D01*
X99250250Y-67666554D01*
X99193187Y-67633608D01*
X99129539Y-67616554D01*
X99065892Y-67599500D01*
X98934108Y-67599500D01*
X98806812Y-67633608D01*
X98692686Y-67699500D01*
X98692683Y-67699502D01*
X98599502Y-67792683D01*
X98599500Y-67792686D01*
X98533608Y-67906812D01*
X98499500Y-68034108D01*
X91800000Y-68034108D01*
X91800000Y-55520288D01*
X91803180Y-55492388D01*
X91809856Y-55463478D01*
X91834328Y-55413320D01*
X91843880Y-55401530D01*
X91887859Y-55367194D01*
X91901611Y-55360788D01*
X91956199Y-55349211D01*
X91985873Y-55349745D01*
X92013704Y-55353426D01*
X92200000Y-55400000D01*
X92200000Y-55399999D01*
X92209143Y-55392861D01*
X92219685Y-55356961D01*
X92272489Y-55311206D01*
X92324000Y-55300000D01*
X99827778Y-55300000D01*
X99900000Y-55300000D01*
X99900000Y-62902185D01*
G37*
%TD.AperFunction*%
%TD*%
%TA.AperFunction,Conductor*%
%TO.N,GND*%
G36*
X118778351Y-79094124D02*
G01*
X119839864Y-79101685D01*
X124157499Y-79132435D01*
X135884025Y-79215953D01*
X135810069Y-89600000D01*
X135769245Y-95331979D01*
X135752636Y-95393095D01*
X135733608Y-95426052D01*
X135733608Y-95426053D01*
X135699500Y-95553347D01*
X135699500Y-95685130D01*
X135733608Y-95812424D01*
X135733610Y-95812429D01*
X135748580Y-95838357D01*
X135765191Y-95901241D01*
X135630376Y-114830495D01*
X135630376Y-114830496D01*
X135629979Y-114886191D01*
X135627423Y-114910369D01*
X135619103Y-114950685D01*
X135600261Y-114995261D01*
X135584137Y-115019017D01*
X135549669Y-115052985D01*
X135525677Y-115068762D01*
X135480835Y-115086949D01*
X135440409Y-115094679D01*
X135416196Y-115096883D01*
X116440098Y-114955423D01*
X116415926Y-114952860D01*
X116375624Y-114944531D01*
X116331060Y-114925681D01*
X116307312Y-114909555D01*
X116273359Y-114875092D01*
X116257588Y-114851104D01*
X116239407Y-114806266D01*
X116231680Y-114765846D01*
X116229477Y-114741639D01*
X116415828Y-89743727D01*
X129889881Y-89743727D01*
X129889881Y-89875510D01*
X129923989Y-90002806D01*
X129956935Y-90059869D01*
X129989881Y-90116933D01*
X130083067Y-90210119D01*
X130197195Y-90276011D01*
X130324489Y-90310119D01*
X130324491Y-90310119D01*
X130456271Y-90310119D01*
X130456273Y-90310119D01*
X130583567Y-90276011D01*
X130697695Y-90210119D01*
X130790881Y-90116933D01*
X130856773Y-90002805D01*
X130890881Y-89875511D01*
X130890881Y-89743727D01*
X130856773Y-89616433D01*
X130790881Y-89502305D01*
X130697695Y-89409119D01*
X130640631Y-89376173D01*
X130583568Y-89343227D01*
X130519920Y-89326173D01*
X130456273Y-89309119D01*
X130324489Y-89309119D01*
X130197193Y-89343227D01*
X130083067Y-89409119D01*
X130083064Y-89409121D01*
X129989883Y-89502302D01*
X129989881Y-89502305D01*
X129923989Y-89616431D01*
X129889881Y-89743727D01*
X116415828Y-89743727D01*
X116493757Y-79289989D01*
X116496318Y-79265836D01*
X116504646Y-79225534D01*
X116523484Y-79180985D01*
X116539607Y-79157234D01*
X116574054Y-79123286D01*
X116598038Y-79107511D01*
X116642855Y-79089324D01*
X116683276Y-79081584D01*
X116707466Y-79079375D01*
X118778351Y-79094124D01*
G37*
%TD.AperFunction*%
%TD*%
%TA.AperFunction,Conductor*%
%TO.N,+5V*%
G36*
X111199162Y-122307552D02*
G01*
X111244351Y-122360841D01*
X111311177Y-122381240D01*
X112000000Y-122388592D01*
X112000000Y-132001656D01*
X111994976Y-132036593D01*
X111985636Y-132068400D01*
X111969762Y-132102354D01*
X111890613Y-132220807D01*
X111890603Y-132220824D01*
X111890598Y-132220833D01*
X111830264Y-132366496D01*
X111830257Y-132366527D01*
X111799500Y-132521150D01*
X111799500Y-132521153D01*
X111799500Y-132678846D01*
X111799500Y-132678848D01*
X111799499Y-132678848D01*
X111830257Y-132833471D01*
X111830264Y-132833502D01*
X111890596Y-132979160D01*
X111890600Y-132979168D01*
X111890602Y-132979172D01*
X111890609Y-132979184D01*
X111969197Y-133096798D01*
X111984428Y-133128634D01*
X111994334Y-133160270D01*
X112000000Y-133197323D01*
X112000000Y-135162862D01*
X111994976Y-135197800D01*
X111991789Y-135208653D01*
X111954014Y-135267430D01*
X111890457Y-135296453D01*
X111821307Y-135286512D01*
X111814329Y-135283325D01*
X111778157Y-135258211D01*
X111237426Y-134717480D01*
X111237421Y-134717475D01*
X111216274Y-134689224D01*
X111203667Y-134666135D01*
X111188500Y-134606710D01*
X111188500Y-122257247D01*
X111199162Y-122307552D01*
G37*
%TD.AperFunction*%
%TD*%
%TA.AperFunction,Conductor*%
%TO.N,+5V*%
G36*
X115669845Y-105423259D02*
G01*
X115736665Y-105443669D01*
X115781845Y-105496966D01*
X115792496Y-105548176D01*
X115734786Y-113289711D01*
X115724174Y-114713402D01*
X115723991Y-114737885D01*
X115723991Y-114737894D01*
X115726056Y-114787445D01*
X115728260Y-114811661D01*
X115734213Y-114853960D01*
X115735171Y-114860762D01*
X115738506Y-114878210D01*
X115742899Y-114901185D01*
X115742899Y-114901186D01*
X115770953Y-114996216D01*
X115771359Y-114997377D01*
X115771371Y-114997633D01*
X115771815Y-114999134D01*
X115771453Y-114999240D01*
X115774879Y-115067158D01*
X115741975Y-115125944D01*
X115628211Y-115239708D01*
X115540613Y-115370807D01*
X115540603Y-115370824D01*
X115540598Y-115370833D01*
X115480264Y-115516496D01*
X115480257Y-115516527D01*
X115449500Y-115671150D01*
X115449500Y-115671153D01*
X115449500Y-115828846D01*
X115449500Y-115828848D01*
X115449499Y-115828848D01*
X115480257Y-115983471D01*
X115480264Y-115983502D01*
X115540598Y-116129165D01*
X115540603Y-116129174D01*
X115540613Y-116129191D01*
X115628211Y-116260290D01*
X115628212Y-116260291D01*
X115628217Y-116260297D01*
X115739701Y-116371781D01*
X115739707Y-116371786D01*
X115739711Y-116371789D01*
X115870814Y-116459390D01*
X115870827Y-116459397D01*
X116016498Y-116519735D01*
X116016503Y-116519737D01*
X116171153Y-116550499D01*
X116171156Y-116550500D01*
X116171158Y-116550500D01*
X116328844Y-116550500D01*
X116328845Y-116550499D01*
X116483497Y-116519737D01*
X116629179Y-116459394D01*
X116760289Y-116371789D01*
X116871789Y-116260289D01*
X116959394Y-116129179D01*
X117019737Y-115983497D01*
X117050500Y-115828842D01*
X117050500Y-115671158D01*
X117050500Y-115671155D01*
X117050500Y-115670974D01*
X117050065Y-115668973D01*
X117044776Y-115642384D01*
X117039230Y-115614502D01*
X117045457Y-115544914D01*
X117088319Y-115489736D01*
X117154208Y-115466491D01*
X117161753Y-115466316D01*
X123966489Y-115517043D01*
X124033379Y-115537227D01*
X124078739Y-115590371D01*
X124089557Y-115642384D01*
X124017414Y-122298571D01*
X124016684Y-122310728D01*
X124015363Y-122322789D01*
X124013448Y-122334794D01*
X124008749Y-122357150D01*
X124001444Y-122380327D01*
X123992041Y-122402354D01*
X123980350Y-122423671D01*
X123977931Y-122427208D01*
X123962313Y-122445826D01*
X123945195Y-122462580D01*
X123926257Y-122477788D01*
X123922678Y-122480125D01*
X123901105Y-122491362D01*
X123878873Y-122500293D01*
X123855535Y-122507100D01*
X123833073Y-122511318D01*
X123821022Y-122512974D01*
X123808948Y-122514033D01*
X123796791Y-122514500D01*
X120653943Y-122480957D01*
X115691006Y-122427986D01*
X115691004Y-122427985D01*
X115691004Y-122427986D01*
X115656125Y-122422590D01*
X115641171Y-122418025D01*
X115582800Y-122379625D01*
X115581392Y-122377964D01*
X115554671Y-122323483D01*
X115553192Y-122316508D01*
X115550500Y-122290808D01*
X115550500Y-122170973D01*
X115550065Y-122168972D01*
X115542257Y-122129719D01*
X115520395Y-122019816D01*
X115519994Y-122017467D01*
X115519738Y-122016508D01*
X115519737Y-122016506D01*
X115519737Y-122016503D01*
X115519735Y-122016498D01*
X115459397Y-121870827D01*
X115459390Y-121870814D01*
X115371789Y-121739711D01*
X115371786Y-121739707D01*
X115371781Y-121739701D01*
X115260297Y-121628217D01*
X115260291Y-121628212D01*
X115260290Y-121628211D01*
X115129191Y-121540613D01*
X115129190Y-121540612D01*
X115129185Y-121540609D01*
X115129172Y-121540602D01*
X115129165Y-121540598D01*
X114983502Y-121480264D01*
X114983471Y-121480257D01*
X114828847Y-121449500D01*
X114828845Y-121449500D01*
X114828842Y-121449500D01*
X114671158Y-121449500D01*
X114671155Y-121449500D01*
X114671153Y-121449500D01*
X114516527Y-121480257D01*
X114516496Y-121480264D01*
X114370833Y-121540598D01*
X114370824Y-121540603D01*
X114370807Y-121540613D01*
X114239708Y-121628211D01*
X114239707Y-121628212D01*
X114239701Y-121628217D01*
X114128217Y-121739701D01*
X114128212Y-121739707D01*
X114128211Y-121739708D01*
X114040613Y-121870807D01*
X114040603Y-121870824D01*
X114040598Y-121870833D01*
X113980264Y-122016496D01*
X113980257Y-122016527D01*
X113949500Y-122171150D01*
X113949500Y-122266239D01*
X113949499Y-122266245D01*
X113949500Y-122266248D01*
X113944475Y-122301181D01*
X113943452Y-122304665D01*
X113940070Y-122316181D01*
X113902310Y-122374940D01*
X113901207Y-122375896D01*
X113845716Y-122403495D01*
X113837558Y-122405225D01*
X113810511Y-122407916D01*
X112434963Y-122393235D01*
X112430906Y-122393191D01*
X112226452Y-122391009D01*
X112226445Y-122391007D01*
X112059832Y-122389231D01*
X112059831Y-122389231D01*
X111311177Y-122381240D01*
X111244351Y-122360841D01*
X111199162Y-122307552D01*
X111188500Y-122257247D01*
X111188500Y-119603848D01*
X120619499Y-119603848D01*
X120650257Y-119758471D01*
X120650264Y-119758502D01*
X120710598Y-119904165D01*
X120710603Y-119904174D01*
X120710613Y-119904191D01*
X120798211Y-120035290D01*
X120798212Y-120035291D01*
X120798217Y-120035297D01*
X120909701Y-120146781D01*
X120909707Y-120146786D01*
X120909711Y-120146789D01*
X121040814Y-120234390D01*
X121040827Y-120234397D01*
X121040829Y-120234397D01*
X121040833Y-120234400D01*
X121164685Y-120285700D01*
X121174446Y-120289743D01*
X121186503Y-120294737D01*
X121335121Y-120324299D01*
X121336710Y-120324659D01*
X121337013Y-120324828D01*
X121341155Y-120325500D01*
X121498844Y-120325500D01*
X121502964Y-120325500D01*
X121510814Y-120323118D01*
X121653497Y-120294737D01*
X121799179Y-120234394D01*
X121930289Y-120146789D01*
X122041789Y-120035289D01*
X122129394Y-119904179D01*
X122189737Y-119758497D01*
X122220500Y-119603842D01*
X122220500Y-119446158D01*
X122220500Y-119446155D01*
X122220500Y-119446064D01*
X122220287Y-119445088D01*
X122189737Y-119291503D01*
X122187752Y-119286711D01*
X122167168Y-119237017D01*
X122155723Y-119209385D01*
X122129397Y-119145827D01*
X122129390Y-119145814D01*
X122041789Y-119014711D01*
X122041786Y-119014707D01*
X122041781Y-119014701D01*
X121930297Y-118903217D01*
X121930291Y-118903212D01*
X121930290Y-118903211D01*
X121799191Y-118815613D01*
X121799190Y-118815612D01*
X121799185Y-118815609D01*
X121799172Y-118815602D01*
X121799165Y-118815598D01*
X121653502Y-118755264D01*
X121653471Y-118755257D01*
X121498847Y-118724500D01*
X121498845Y-118724500D01*
X121498842Y-118724500D01*
X121341158Y-118724500D01*
X121341155Y-118724500D01*
X121341153Y-118724500D01*
X121186527Y-118755257D01*
X121186496Y-118755264D01*
X121040833Y-118815598D01*
X121040824Y-118815603D01*
X121040807Y-118815613D01*
X120909708Y-118903211D01*
X120909707Y-118903212D01*
X120909701Y-118903217D01*
X120798217Y-119014701D01*
X120798212Y-119014707D01*
X120798211Y-119014708D01*
X120710613Y-119145807D01*
X120710603Y-119145824D01*
X120710598Y-119145833D01*
X120650264Y-119291496D01*
X120650257Y-119291527D01*
X120619500Y-119446150D01*
X120619500Y-119446153D01*
X120619500Y-119603846D01*
X120619500Y-119603848D01*
X120619499Y-119603848D01*
X111188500Y-119603848D01*
X111188500Y-118578848D01*
X122199499Y-118578848D01*
X122230257Y-118733471D01*
X122230264Y-118733502D01*
X122290598Y-118879165D01*
X122290603Y-118879174D01*
X122290613Y-118879191D01*
X122378211Y-119010290D01*
X122378212Y-119010291D01*
X122378217Y-119010297D01*
X122489701Y-119121781D01*
X122489707Y-119121786D01*
X122489711Y-119121789D01*
X122620814Y-119209390D01*
X122620827Y-119209397D01*
X122694013Y-119239711D01*
X122766503Y-119269737D01*
X122875963Y-119291510D01*
X122913528Y-119298982D01*
X122916252Y-119299704D01*
X122921155Y-119300500D01*
X123078844Y-119300500D01*
X123082964Y-119300500D01*
X123090814Y-119298118D01*
X123233497Y-119269737D01*
X123379179Y-119209394D01*
X123510289Y-119121789D01*
X123621789Y-119010289D01*
X123709394Y-118879179D01*
X123769737Y-118733497D01*
X123800500Y-118578842D01*
X123800500Y-118421158D01*
X123800500Y-118421155D01*
X123800500Y-118420973D01*
X123800065Y-118418972D01*
X123795181Y-118394419D01*
X123795181Y-118394418D01*
X123769739Y-118266510D01*
X123769736Y-118266501D01*
X123742398Y-118200500D01*
X123738298Y-118190602D01*
X123709397Y-118120827D01*
X123709390Y-118120814D01*
X123621789Y-117989711D01*
X123621786Y-117989707D01*
X123621781Y-117989701D01*
X123510297Y-117878217D01*
X123510291Y-117878212D01*
X123510290Y-117878211D01*
X123379191Y-117790613D01*
X123379190Y-117790612D01*
X123379185Y-117790609D01*
X123379172Y-117790602D01*
X123379165Y-117790598D01*
X123233502Y-117730264D01*
X123233471Y-117730257D01*
X123078847Y-117699500D01*
X123078845Y-117699500D01*
X123078842Y-117699500D01*
X122921158Y-117699500D01*
X122921155Y-117699500D01*
X122921153Y-117699500D01*
X122766527Y-117730257D01*
X122766496Y-117730264D01*
X122620833Y-117790598D01*
X122620824Y-117790603D01*
X122620807Y-117790613D01*
X122489708Y-117878211D01*
X122489707Y-117878212D01*
X122489701Y-117878217D01*
X122378217Y-117989701D01*
X122378212Y-117989707D01*
X122378211Y-117989708D01*
X122290613Y-118120807D01*
X122290604Y-118120823D01*
X122290599Y-118120831D01*
X122230264Y-118266496D01*
X122230257Y-118266527D01*
X122199500Y-118421150D01*
X122199500Y-118421153D01*
X122199500Y-118578846D01*
X122199500Y-118578848D01*
X122199499Y-118578848D01*
X111188500Y-118578848D01*
X111188500Y-117690279D01*
X111190375Y-117677242D01*
X111193524Y-117655341D01*
X111195320Y-117649225D01*
X111233096Y-117590448D01*
X111296652Y-117561425D01*
X111365811Y-117571370D01*
X111418316Y-117616666D01*
X111425882Y-117628326D01*
X111436423Y-117648371D01*
X111490596Y-117779158D01*
X111490604Y-117779176D01*
X111490613Y-117779191D01*
X111578211Y-117910290D01*
X111578212Y-117910291D01*
X111578217Y-117910297D01*
X111689701Y-118021781D01*
X111689707Y-118021786D01*
X111689711Y-118021789D01*
X111820814Y-118109390D01*
X111820827Y-118109397D01*
X111966498Y-118169735D01*
X111966503Y-118169737D01*
X112121153Y-118200499D01*
X112121156Y-118200500D01*
X112121158Y-118200500D01*
X112278844Y-118200500D01*
X112278845Y-118200499D01*
X112433497Y-118169737D01*
X112551592Y-118120821D01*
X112579172Y-118109397D01*
X112579172Y-118109396D01*
X112579179Y-118109394D01*
X112579184Y-118109390D01*
X112581534Y-118108417D01*
X112581534Y-118108416D01*
X112581537Y-118108416D01*
X112590792Y-118104582D01*
X112599677Y-118095698D01*
X112655002Y-118058730D01*
X112710289Y-118021789D01*
X112821789Y-117910289D01*
X112909394Y-117779179D01*
X112969737Y-117633497D01*
X113000500Y-117478842D01*
X113000500Y-117321158D01*
X113000500Y-117321155D01*
X113000500Y-117320973D01*
X113000065Y-117318972D01*
X112984332Y-117239878D01*
X112970395Y-117169815D01*
X112969983Y-117167403D01*
X112969737Y-117166504D01*
X112967526Y-117161167D01*
X112953602Y-117127549D01*
X112909397Y-117020827D01*
X112909390Y-117020814D01*
X112821789Y-116889711D01*
X112821786Y-116889707D01*
X112821781Y-116889701D01*
X112710297Y-116778217D01*
X112710291Y-116778212D01*
X112710290Y-116778211D01*
X112579191Y-116690613D01*
X112579190Y-116690612D01*
X112579185Y-116690609D01*
X112579172Y-116690602D01*
X112579165Y-116690598D01*
X112433502Y-116630264D01*
X112433471Y-116630257D01*
X112278847Y-116599500D01*
X112278845Y-116599500D01*
X112278842Y-116599500D01*
X112121158Y-116599500D01*
X112121155Y-116599500D01*
X112121153Y-116599500D01*
X111966527Y-116630257D01*
X111966496Y-116630264D01*
X111820833Y-116690598D01*
X111820824Y-116690603D01*
X111820807Y-116690613D01*
X111689708Y-116778211D01*
X111689707Y-116778212D01*
X111689701Y-116778217D01*
X111578217Y-116889701D01*
X111578212Y-116889707D01*
X111578211Y-116889708D01*
X111490613Y-117020807D01*
X111490604Y-117020822D01*
X111490599Y-117020833D01*
X111436506Y-117151426D01*
X111430726Y-117158597D01*
X111425659Y-117171940D01*
X111417894Y-117183789D01*
X111394126Y-117204014D01*
X111392665Y-117205829D01*
X111389582Y-117207882D01*
X111364684Y-117229071D01*
X111295440Y-117238398D01*
X111232145Y-117208807D01*
X111208736Y-117171837D01*
X111199548Y-117161167D01*
X111198853Y-117156228D01*
X111195044Y-117150212D01*
X111193364Y-117144392D01*
X111188500Y-117110002D01*
X111188500Y-116078848D01*
X113449499Y-116078848D01*
X113480257Y-116233471D01*
X113480264Y-116233502D01*
X113540598Y-116379165D01*
X113540603Y-116379174D01*
X113540613Y-116379191D01*
X113628211Y-116510290D01*
X113628212Y-116510291D01*
X113628217Y-116510297D01*
X113739701Y-116621781D01*
X113739707Y-116621786D01*
X113739711Y-116621789D01*
X113870814Y-116709390D01*
X113870827Y-116709397D01*
X114016498Y-116769735D01*
X114016503Y-116769737D01*
X114171153Y-116800499D01*
X114171156Y-116800500D01*
X114171158Y-116800500D01*
X114328844Y-116800500D01*
X114328845Y-116800499D01*
X114483497Y-116769737D01*
X114629179Y-116709394D01*
X114760289Y-116621789D01*
X114871789Y-116510289D01*
X114959394Y-116379179D01*
X115019737Y-116233497D01*
X115050500Y-116078842D01*
X115050500Y-115921158D01*
X115050500Y-115921155D01*
X115050500Y-115920973D01*
X115050065Y-115918971D01*
X115028447Y-115810291D01*
X115028446Y-115810290D01*
X115019737Y-115766503D01*
X114979933Y-115670408D01*
X114959397Y-115620827D01*
X114959390Y-115620814D01*
X114871789Y-115489711D01*
X114871786Y-115489707D01*
X114871781Y-115489701D01*
X114760297Y-115378217D01*
X114760291Y-115378212D01*
X114760290Y-115378211D01*
X114629191Y-115290613D01*
X114629190Y-115290612D01*
X114629185Y-115290609D01*
X114629172Y-115290602D01*
X114629165Y-115290598D01*
X114483502Y-115230264D01*
X114483471Y-115230257D01*
X114328847Y-115199500D01*
X114328845Y-115199500D01*
X114328842Y-115199500D01*
X114171158Y-115199500D01*
X114171155Y-115199500D01*
X114171153Y-115199500D01*
X114016527Y-115230257D01*
X114016496Y-115230264D01*
X113870833Y-115290598D01*
X113870824Y-115290603D01*
X113870807Y-115290613D01*
X113739708Y-115378211D01*
X113739707Y-115378212D01*
X113739701Y-115378217D01*
X113628217Y-115489701D01*
X113628212Y-115489707D01*
X113628211Y-115489708D01*
X113540613Y-115620807D01*
X113540603Y-115620824D01*
X113540598Y-115620833D01*
X113480264Y-115766496D01*
X113480257Y-115766527D01*
X113449500Y-115921150D01*
X113449500Y-115921153D01*
X113449500Y-116078846D01*
X113449500Y-116078848D01*
X113449499Y-116078848D01*
X111188500Y-116078848D01*
X111188500Y-115499413D01*
X111193522Y-115464480D01*
X111197433Y-115451161D01*
X111235206Y-115392384D01*
X111298758Y-115363359D01*
X111303947Y-115362613D01*
X111360152Y-115369673D01*
X111360670Y-115367968D01*
X111366497Y-115369734D01*
X111366503Y-115369737D01*
X111513513Y-115398979D01*
X111516247Y-115399703D01*
X111521155Y-115400500D01*
X111678844Y-115400500D01*
X111682964Y-115400500D01*
X111690814Y-115398118D01*
X111833497Y-115369737D01*
X111979179Y-115309394D01*
X112110289Y-115221789D01*
X112221789Y-115110289D01*
X112309394Y-114979179D01*
X112369737Y-114833497D01*
X112400500Y-114678842D01*
X112400500Y-114521158D01*
X112400500Y-114521155D01*
X112400500Y-114520973D01*
X112400065Y-114518971D01*
X112380734Y-114421788D01*
X112380733Y-114421787D01*
X112369737Y-114366503D01*
X112333569Y-114279185D01*
X112309397Y-114220827D01*
X112309390Y-114220814D01*
X112221789Y-114089711D01*
X112221786Y-114089707D01*
X112221781Y-114089701D01*
X112110297Y-113978217D01*
X112110291Y-113978212D01*
X112110290Y-113978211D01*
X111979191Y-113890613D01*
X111979190Y-113890612D01*
X111979185Y-113890609D01*
X111979172Y-113890602D01*
X111979165Y-113890598D01*
X111833502Y-113830264D01*
X111833471Y-113830257D01*
X111678847Y-113799500D01*
X111678845Y-113799500D01*
X111678842Y-113799500D01*
X111521158Y-113799500D01*
X111521155Y-113799500D01*
X111521150Y-113799500D01*
X111366513Y-113830259D01*
X111366510Y-113830260D01*
X111363874Y-113830979D01*
X111344501Y-113834637D01*
X111328419Y-113836365D01*
X111259661Y-113823956D01*
X111258924Y-113823270D01*
X111208526Y-113776342D01*
X111208525Y-113776339D01*
X111205855Y-113771838D01*
X111188500Y-113708571D01*
X111188500Y-110557992D01*
X111193522Y-110523059D01*
X111197433Y-110509740D01*
X111207073Y-110494738D01*
X111212099Y-110477629D01*
X111225569Y-110465958D01*
X111235206Y-110450963D01*
X111251428Y-110443554D01*
X111264906Y-110431877D01*
X111298749Y-110421942D01*
X111298757Y-110421938D01*
X111303955Y-110421191D01*
X111369044Y-110429368D01*
X111466503Y-110469737D01*
X111621153Y-110500499D01*
X111621156Y-110500500D01*
X111621158Y-110500500D01*
X111778844Y-110500500D01*
X111778845Y-110500499D01*
X111933497Y-110469737D01*
X112079179Y-110409394D01*
X112210289Y-110321789D01*
X112321789Y-110210289D01*
X112409394Y-110079179D01*
X112469737Y-109933497D01*
X112500500Y-109778842D01*
X112500500Y-109621158D01*
X112500500Y-109621155D01*
X112500500Y-109620973D01*
X112500065Y-109618972D01*
X112482419Y-109530261D01*
X112482419Y-109530260D01*
X112469738Y-109466508D01*
X112469737Y-109466507D01*
X112469737Y-109466503D01*
X112459811Y-109442539D01*
X112409397Y-109320827D01*
X112409390Y-109320814D01*
X112321789Y-109189711D01*
X112321786Y-109189707D01*
X112321781Y-109189701D01*
X112210297Y-109078217D01*
X112210291Y-109078212D01*
X112210290Y-109078211D01*
X112079191Y-108990613D01*
X112079190Y-108990612D01*
X112079185Y-108990609D01*
X112079172Y-108990602D01*
X112079165Y-108990598D01*
X111933502Y-108930264D01*
X111933471Y-108930257D01*
X111778847Y-108899500D01*
X111778845Y-108899500D01*
X111778842Y-108899500D01*
X111621158Y-108899500D01*
X111621155Y-108899500D01*
X111621153Y-108899500D01*
X111466527Y-108930257D01*
X111466499Y-108930263D01*
X111376419Y-108967575D01*
X111343234Y-108976046D01*
X111342231Y-108976302D01*
X111337474Y-108976813D01*
X111328434Y-108977785D01*
X111259675Y-108965384D01*
X111208535Y-108917777D01*
X111208526Y-108917761D01*
X111205853Y-108913255D01*
X111188500Y-108849991D01*
X111188500Y-106718274D01*
X111193521Y-106683347D01*
X111196707Y-106672494D01*
X111206344Y-106657494D01*
X111211368Y-106640385D01*
X111224840Y-106628710D01*
X111234477Y-106613713D01*
X111250696Y-106606304D01*
X111264171Y-106594628D01*
X111281815Y-106592090D01*
X111298031Y-106584684D01*
X111315681Y-106587220D01*
X111333329Y-106584683D01*
X111367184Y-106594622D01*
X111367186Y-106594622D01*
X111369318Y-106595595D01*
X111420910Y-106639499D01*
X111468208Y-106710285D01*
X111468211Y-106710290D01*
X111468216Y-106710296D01*
X111579701Y-106821781D01*
X111579707Y-106821786D01*
X111579711Y-106821789D01*
X111676588Y-106886521D01*
X111702837Y-106910099D01*
X111712866Y-106922099D01*
X111740750Y-106986149D01*
X111740976Y-106987947D01*
X111733332Y-107048817D01*
X111730500Y-107056014D01*
X111718215Y-107079499D01*
X111690605Y-107120819D01*
X111690600Y-107120829D01*
X111630264Y-107266496D01*
X111630257Y-107266527D01*
X111599500Y-107421150D01*
X111599500Y-107421153D01*
X111599500Y-107578846D01*
X111599500Y-107578848D01*
X111599499Y-107578848D01*
X111630257Y-107733471D01*
X111630264Y-107733502D01*
X111690598Y-107879165D01*
X111690603Y-107879174D01*
X111690613Y-107879191D01*
X111778211Y-108010290D01*
X111778212Y-108010291D01*
X111778217Y-108010297D01*
X111889701Y-108121781D01*
X111889707Y-108121786D01*
X111889711Y-108121789D01*
X112020814Y-108209390D01*
X112020827Y-108209397D01*
X112166498Y-108269735D01*
X112166503Y-108269737D01*
X112321153Y-108300499D01*
X112321156Y-108300500D01*
X112321158Y-108300500D01*
X112478844Y-108300500D01*
X112478845Y-108300499D01*
X112633497Y-108269737D01*
X112779179Y-108209394D01*
X112910289Y-108121789D01*
X113021789Y-108010289D01*
X113109394Y-107879179D01*
X113169737Y-107733497D01*
X113200500Y-107578842D01*
X113200500Y-107421158D01*
X113200500Y-107421155D01*
X113200500Y-107420973D01*
X113200065Y-107418972D01*
X113170398Y-107269830D01*
X113169983Y-107267403D01*
X113169737Y-107266504D01*
X113113305Y-107130263D01*
X113113300Y-107130252D01*
X113109402Y-107120840D01*
X113109397Y-107120827D01*
X113109390Y-107120814D01*
X113021789Y-106989711D01*
X113021786Y-106989707D01*
X113021781Y-106989701D01*
X112910297Y-106878217D01*
X112910291Y-106878212D01*
X112910290Y-106878211D01*
X112813413Y-106813479D01*
X112787158Y-106789896D01*
X112777133Y-106777900D01*
X112749248Y-106713841D01*
X112749017Y-106712000D01*
X112756663Y-106651193D01*
X112759498Y-106643987D01*
X112771778Y-106620508D01*
X112799389Y-106579187D01*
X112799390Y-106579184D01*
X112799394Y-106579179D01*
X112859737Y-106433497D01*
X112890500Y-106278842D01*
X112890500Y-106121158D01*
X112890500Y-106121155D01*
X112890500Y-106120973D01*
X112890065Y-106118972D01*
X112860397Y-105969824D01*
X112859994Y-105967467D01*
X112859738Y-105966508D01*
X112859737Y-105966506D01*
X112859737Y-105966503D01*
X112859735Y-105966498D01*
X112799397Y-105820827D01*
X112799390Y-105820814D01*
X112711789Y-105689711D01*
X112711786Y-105689707D01*
X112637578Y-105615499D01*
X112616431Y-105587250D01*
X112611009Y-105577320D01*
X112596158Y-105509049D01*
X112620575Y-105443585D01*
X112676504Y-105401715D01*
X112683296Y-105399182D01*
X112727963Y-105391373D01*
X115669845Y-105423259D01*
G37*
%TD.AperFunction*%
%TA.AperFunction,Conductor*%
G36*
X109747027Y-105359064D02*
G01*
X109781891Y-105364463D01*
X109796845Y-105369031D01*
X109811749Y-105378839D01*
X109828816Y-105384057D01*
X109855178Y-105407418D01*
X109855206Y-105407437D01*
X109856229Y-105408643D01*
X109856634Y-105409121D01*
X109883328Y-105463562D01*
X109884805Y-105470533D01*
X109887500Y-105496240D01*
X109887500Y-109357670D01*
X109882475Y-109392614D01*
X109878070Y-109407612D01*
X109868439Y-109422601D01*
X109863432Y-109439675D01*
X109840327Y-109466355D01*
X109838958Y-109467542D01*
X109784097Y-109495018D01*
X109776539Y-109496663D01*
X109750168Y-109499500D01*
X109621153Y-109499500D01*
X109466527Y-109530257D01*
X109466496Y-109530264D01*
X109320833Y-109590598D01*
X109320824Y-109590603D01*
X109320812Y-109590610D01*
X109207555Y-109666286D01*
X109175721Y-109681517D01*
X109162475Y-109685665D01*
X109092617Y-109686914D01*
X109033173Y-109650196D01*
X109033172Y-109650195D01*
X109022610Y-109638437D01*
X109011413Y-109623241D01*
X109011136Y-109623427D01*
X108921787Y-109489708D01*
X108921786Y-109489707D01*
X108921781Y-109489701D01*
X108810297Y-109378217D01*
X108810291Y-109378212D01*
X108810290Y-109378211D01*
X108679191Y-109290613D01*
X108679190Y-109290612D01*
X108679185Y-109290609D01*
X108679172Y-109290602D01*
X108679165Y-109290598D01*
X108533502Y-109230264D01*
X108533471Y-109230257D01*
X108378847Y-109199500D01*
X108378845Y-109199500D01*
X108378842Y-109199500D01*
X108221158Y-109199500D01*
X108221155Y-109199500D01*
X108221153Y-109199500D01*
X108066527Y-109230257D01*
X108066496Y-109230264D01*
X107920833Y-109290598D01*
X107920824Y-109290603D01*
X107920807Y-109290613D01*
X107789708Y-109378211D01*
X107789707Y-109378212D01*
X107789701Y-109378217D01*
X107678217Y-109489701D01*
X107678212Y-109489707D01*
X107678211Y-109489708D01*
X107590613Y-109620807D01*
X107590603Y-109620824D01*
X107590598Y-109620833D01*
X107530264Y-109766496D01*
X107530257Y-109766527D01*
X107499500Y-109921150D01*
X107499500Y-109921153D01*
X107499500Y-110078846D01*
X107499500Y-110078848D01*
X107499499Y-110078848D01*
X107530257Y-110233471D01*
X107530264Y-110233502D01*
X107590598Y-110379165D01*
X107590603Y-110379174D01*
X107590613Y-110379191D01*
X107678211Y-110510290D01*
X107678219Y-110510302D01*
X107680855Y-110513816D01*
X107680524Y-110514063D01*
X107691812Y-110530315D01*
X107702683Y-110550222D01*
X107717848Y-110608546D01*
X107717908Y-110615266D01*
X107715530Y-110640565D01*
X107699500Y-110721150D01*
X107699500Y-110721153D01*
X107699500Y-110878846D01*
X107699500Y-110878848D01*
X107699499Y-110878848D01*
X107730257Y-111033471D01*
X107730264Y-111033502D01*
X107790598Y-111179165D01*
X107790603Y-111179174D01*
X107790613Y-111179191D01*
X107878211Y-111310290D01*
X107878212Y-111310291D01*
X107878217Y-111310297D01*
X107989701Y-111421781D01*
X107989707Y-111421786D01*
X107989711Y-111421789D01*
X108120814Y-111509390D01*
X108120827Y-111509397D01*
X108196181Y-111540609D01*
X108266503Y-111569737D01*
X108417735Y-111599819D01*
X108418882Y-111600131D01*
X108421155Y-111600500D01*
X108578844Y-111600500D01*
X108578845Y-111600500D01*
X108595061Y-111597274D01*
X108665147Y-111583332D01*
X108700381Y-111581443D01*
X108714213Y-111582680D01*
X108779229Y-111608261D01*
X108820096Y-111664933D01*
X108820097Y-111664935D01*
X108821839Y-111669873D01*
X108826519Y-111735316D01*
X108799500Y-111871148D01*
X108799500Y-111974467D01*
X108799499Y-111974471D01*
X108799500Y-111974474D01*
X108794475Y-112009408D01*
X108790564Y-112022725D01*
X108752787Y-112081501D01*
X108689237Y-112110522D01*
X108678339Y-112112089D01*
X108636499Y-112110968D01*
X108578847Y-112099500D01*
X108578845Y-112099500D01*
X108578842Y-112099500D01*
X108421158Y-112099500D01*
X108421155Y-112099500D01*
X108421153Y-112099500D01*
X108266527Y-112130257D01*
X108266496Y-112130264D01*
X108120833Y-112190598D01*
X108120824Y-112190603D01*
X108120807Y-112190613D01*
X107989708Y-112278211D01*
X107989707Y-112278212D01*
X107989701Y-112278217D01*
X107878217Y-112389701D01*
X107878212Y-112389707D01*
X107878211Y-112389708D01*
X107790613Y-112520807D01*
X107790603Y-112520824D01*
X107790598Y-112520833D01*
X107730264Y-112666496D01*
X107730257Y-112666527D01*
X107699500Y-112821150D01*
X107699500Y-112978850D01*
X107727984Y-113122050D01*
X107729657Y-113132990D01*
X107733094Y-113164968D01*
X107720686Y-113233727D01*
X107720682Y-113233736D01*
X107716042Y-113243003D01*
X107691358Y-113275541D01*
X107691870Y-113276053D01*
X107689722Y-113278200D01*
X107689717Y-113278205D01*
X107578209Y-113389712D01*
X107578205Y-113389716D01*
X107490613Y-113520807D01*
X107490603Y-113520824D01*
X107490598Y-113520833D01*
X107430264Y-113666496D01*
X107430257Y-113666527D01*
X107399500Y-113821150D01*
X107399500Y-113821153D01*
X107399500Y-113978846D01*
X107399500Y-113978848D01*
X107399499Y-113978848D01*
X107430257Y-114133471D01*
X107430264Y-114133502D01*
X107490598Y-114279165D01*
X107490603Y-114279174D01*
X107490610Y-114279186D01*
X107578211Y-114410290D01*
X107578212Y-114410291D01*
X107578217Y-114410297D01*
X107689701Y-114521781D01*
X107689707Y-114521786D01*
X107689711Y-114521789D01*
X107820814Y-114609390D01*
X107820827Y-114609397D01*
X107966498Y-114669735D01*
X107966503Y-114669737D01*
X108116131Y-114699500D01*
X108121153Y-114700499D01*
X108121156Y-114700500D01*
X108121158Y-114700500D01*
X108278844Y-114700500D01*
X108278845Y-114700499D01*
X108433497Y-114669737D01*
X108579179Y-114609394D01*
X108710289Y-114521789D01*
X108821789Y-114410289D01*
X108909394Y-114279179D01*
X108969737Y-114133497D01*
X109000500Y-113978842D01*
X109000500Y-113821158D01*
X109000500Y-113821155D01*
X109000500Y-113820973D01*
X109000065Y-113818972D01*
X108986162Y-113749079D01*
X108986162Y-113749078D01*
X108972028Y-113678021D01*
X108970358Y-113667105D01*
X108966907Y-113635056D01*
X108979297Y-113566302D01*
X108983839Y-113557223D01*
X109007053Y-113525024D01*
X109010286Y-113521790D01*
X109010289Y-113521789D01*
X109121789Y-113410289D01*
X109209394Y-113279179D01*
X109209798Y-113278205D01*
X109223067Y-113246166D01*
X109269737Y-113133497D01*
X109300500Y-112978842D01*
X109300500Y-112875531D01*
X109305522Y-112840598D01*
X109307482Y-112833924D01*
X109309433Y-112827279D01*
X109347206Y-112768502D01*
X109410758Y-112739477D01*
X109421664Y-112737909D01*
X109463496Y-112739029D01*
X109505435Y-112747372D01*
X109521157Y-112750500D01*
X109521158Y-112750500D01*
X109678843Y-112750500D01*
X109692488Y-112747785D01*
X109721828Y-112741949D01*
X109721829Y-112741949D01*
X109757066Y-112740061D01*
X109770889Y-112741298D01*
X109787480Y-112747825D01*
X109791415Y-112748178D01*
X109794533Y-112750600D01*
X109835908Y-112766879D01*
X109876771Y-112823543D01*
X109880434Y-112833927D01*
X109887500Y-112875185D01*
X109887500Y-114713392D01*
X109887499Y-114713398D01*
X109887500Y-114713402D01*
X109883456Y-114741512D01*
X109882474Y-114748337D01*
X109878636Y-114761404D01*
X109840857Y-114820179D01*
X109777299Y-114849198D01*
X109715291Y-114842249D01*
X109707577Y-114839293D01*
X109683059Y-114826606D01*
X109629190Y-114790612D01*
X109629185Y-114790609D01*
X109629184Y-114790608D01*
X109629176Y-114790603D01*
X109629166Y-114790598D01*
X109483502Y-114730264D01*
X109483471Y-114730257D01*
X109328847Y-114699500D01*
X109328845Y-114699500D01*
X109328842Y-114699500D01*
X109171158Y-114699500D01*
X109171155Y-114699500D01*
X109171153Y-114699500D01*
X109016527Y-114730257D01*
X109016496Y-114730264D01*
X108870833Y-114790598D01*
X108870824Y-114790603D01*
X108870807Y-114790613D01*
X108739708Y-114878211D01*
X108739707Y-114878212D01*
X108739701Y-114878217D01*
X108628217Y-114989701D01*
X108628212Y-114989707D01*
X108628211Y-114989708D01*
X108540613Y-115120807D01*
X108540603Y-115120824D01*
X108540598Y-115120833D01*
X108480264Y-115266496D01*
X108480257Y-115266527D01*
X108449500Y-115421150D01*
X108449500Y-115421153D01*
X108449500Y-115578846D01*
X108449500Y-115578848D01*
X108449499Y-115578848D01*
X108480257Y-115733471D01*
X108480264Y-115733502D01*
X108540598Y-115879165D01*
X108540603Y-115879174D01*
X108540613Y-115879191D01*
X108628211Y-116010290D01*
X108628212Y-116010291D01*
X108628217Y-116010297D01*
X108739701Y-116121781D01*
X108739707Y-116121786D01*
X108739711Y-116121789D01*
X108870814Y-116209390D01*
X108870827Y-116209397D01*
X109014185Y-116268777D01*
X109016503Y-116269737D01*
X109164541Y-116299183D01*
X109165487Y-116299388D01*
X109165896Y-116299610D01*
X109166247Y-116299703D01*
X109171155Y-116300500D01*
X109328844Y-116300500D01*
X109332964Y-116300500D01*
X109340814Y-116298118D01*
X109483497Y-116269737D01*
X109596166Y-116223067D01*
X109622634Y-116212104D01*
X109625423Y-116211132D01*
X109626852Y-116210471D01*
X109631526Y-116208421D01*
X109638918Y-116205359D01*
X109649671Y-116195701D01*
X109679789Y-116175576D01*
X109711612Y-116160350D01*
X109724621Y-116156276D01*
X109742445Y-116155958D01*
X109746461Y-116154701D01*
X109750517Y-116155813D01*
X109794474Y-116155028D01*
X109853918Y-116191746D01*
X109882598Y-116247172D01*
X109884426Y-116255228D01*
X109887500Y-116282667D01*
X109887500Y-122222884D01*
X109887499Y-122222890D01*
X109887500Y-122222893D01*
X109882475Y-122257828D01*
X109878070Y-122272826D01*
X109840310Y-122331585D01*
X109839207Y-122332541D01*
X109783716Y-122360140D01*
X109775558Y-122361870D01*
X109748511Y-122364561D01*
X104611263Y-122309731D01*
X104611259Y-122309730D01*
X104611258Y-122309731D01*
X104576379Y-122304334D01*
X104565560Y-122301031D01*
X104507190Y-122262629D01*
X104478847Y-122198767D01*
X104489530Y-122129721D01*
X104492985Y-122122364D01*
X104517535Y-122087408D01*
X106131056Y-120473888D01*
X106159311Y-120452738D01*
X106173031Y-120445247D01*
X106190450Y-120441457D01*
X106206098Y-120432914D01*
X106241299Y-120430397D01*
X106248627Y-120430921D01*
X106308669Y-120451503D01*
X106390812Y-120506389D01*
X106390815Y-120506391D01*
X106390819Y-120506392D01*
X106390821Y-120506394D01*
X106390823Y-120506395D01*
X106390827Y-120506397D01*
X106497303Y-120550500D01*
X106536503Y-120566737D01*
X106536505Y-120566737D01*
X106536510Y-120566739D01*
X106662630Y-120591825D01*
X106683513Y-120595979D01*
X106686247Y-120596703D01*
X106691155Y-120597500D01*
X106848844Y-120597500D01*
X106852964Y-120597500D01*
X106860814Y-120595118D01*
X107003497Y-120566737D01*
X107127834Y-120515235D01*
X107149172Y-120506397D01*
X107149172Y-120506396D01*
X107149179Y-120506394D01*
X107280289Y-120418789D01*
X107391789Y-120307289D01*
X107479394Y-120176179D01*
X107539737Y-120030497D01*
X107570500Y-119875842D01*
X107570500Y-119718158D01*
X107570500Y-119718155D01*
X107570500Y-119717978D01*
X107570080Y-119716048D01*
X107561151Y-119671158D01*
X107539737Y-119563503D01*
X107539735Y-119563498D01*
X107479397Y-119417827D01*
X107479390Y-119417814D01*
X107391789Y-119286711D01*
X107391786Y-119286707D01*
X107391781Y-119286701D01*
X107280297Y-119175217D01*
X107280291Y-119175212D01*
X107280290Y-119175211D01*
X107149191Y-119087613D01*
X107149190Y-119087612D01*
X107149185Y-119087609D01*
X107149172Y-119087602D01*
X107149165Y-119087598D01*
X107003523Y-119027272D01*
X107003509Y-119027267D01*
X107003501Y-119027264D01*
X107003491Y-119027261D01*
X107003488Y-119027260D01*
X107003484Y-119027259D01*
X106887795Y-119004247D01*
X106854511Y-118992505D01*
X106840657Y-118985258D01*
X106790379Y-118936743D01*
X106786744Y-118930359D01*
X106770500Y-118869003D01*
X106770500Y-105469983D01*
X106775523Y-105435047D01*
X106778985Y-105423259D01*
X106779927Y-105420048D01*
X106789557Y-105405058D01*
X106794564Y-105387984D01*
X106817667Y-105361302D01*
X106818766Y-105360349D01*
X106874304Y-105332724D01*
X106882468Y-105330995D01*
X106909507Y-105328310D01*
X109747027Y-105359064D01*
G37*
%TD.AperFunction*%
%TD*%
%TA.AperFunction,Conductor*%
%TO.N,VBUS*%
G36*
X104720928Y-147909439D02*
G01*
X104866498Y-147969735D01*
X104866503Y-147969737D01*
X105021153Y-148000499D01*
X105021156Y-148000500D01*
X105021158Y-148000500D01*
X105178844Y-148000500D01*
X105178845Y-148000499D01*
X105333497Y-147969737D01*
X105393515Y-147944877D01*
X105479072Y-147909439D01*
X105526524Y-147900000D01*
X108037789Y-147900000D01*
X108061971Y-147902381D01*
X108102346Y-147910412D01*
X108147043Y-147928927D01*
X108170913Y-147944877D01*
X108205122Y-147979086D01*
X108221072Y-148002956D01*
X108239588Y-148047655D01*
X108247617Y-148088020D01*
X108250000Y-148112210D01*
X108250000Y-152037789D01*
X108247617Y-152061979D01*
X108247617Y-152061982D01*
X108239588Y-152102344D01*
X108221072Y-152147043D01*
X108205122Y-152170913D01*
X108170913Y-152205122D01*
X108147043Y-152221072D01*
X108102344Y-152239588D01*
X108085841Y-152242870D01*
X108061978Y-152247617D01*
X108037789Y-152250000D01*
X105365638Y-152250000D01*
X105298599Y-152230315D01*
X105252844Y-152177511D01*
X105242900Y-152108353D01*
X105251077Y-152078548D01*
X105269735Y-152033501D01*
X105269737Y-152033497D01*
X105300500Y-151878842D01*
X105300500Y-151721158D01*
X105300500Y-151721155D01*
X105300499Y-151721153D01*
X105269738Y-151566510D01*
X105269737Y-151566503D01*
X105269735Y-151566498D01*
X105209397Y-151420827D01*
X105209390Y-151420814D01*
X105121789Y-151289711D01*
X105121786Y-151289707D01*
X105010292Y-151178213D01*
X105010288Y-151178210D01*
X104879185Y-151090609D01*
X104879172Y-151090602D01*
X104733501Y-151030264D01*
X104733489Y-151030261D01*
X104578845Y-150999500D01*
X104578842Y-150999500D01*
X104421158Y-150999500D01*
X104421155Y-150999500D01*
X104266510Y-151030261D01*
X104266498Y-151030264D01*
X104120827Y-151090602D01*
X104120814Y-151090609D01*
X103989711Y-151178210D01*
X103989707Y-151178213D01*
X103878213Y-151289707D01*
X103878210Y-151289711D01*
X103790609Y-151420814D01*
X103790602Y-151420827D01*
X103730264Y-151566498D01*
X103730261Y-151566510D01*
X103699500Y-151721153D01*
X103699500Y-151878846D01*
X103730261Y-152033489D01*
X103730264Y-152033501D01*
X103748923Y-152078548D01*
X103752430Y-152111172D01*
X103757100Y-152143647D01*
X103756146Y-152145734D01*
X103756392Y-152148018D01*
X103741703Y-152177360D01*
X103728075Y-152207203D01*
X103726143Y-152208444D01*
X103725116Y-152210497D01*
X103696902Y-152227235D01*
X103669297Y-152244977D01*
X103666266Y-152245412D01*
X103665027Y-152246148D01*
X103634362Y-152250000D01*
X103512211Y-152250000D01*
X103488020Y-152247617D01*
X103472744Y-152244578D01*
X103447656Y-152239588D01*
X103402956Y-152221072D01*
X103379086Y-152205122D01*
X103344877Y-152170913D01*
X103328927Y-152147043D01*
X103310412Y-152102346D01*
X103302381Y-152061971D01*
X103300000Y-152037789D01*
X103300000Y-148112210D01*
X103302381Y-148088029D01*
X103310412Y-148047651D01*
X103328927Y-148002956D01*
X103344877Y-147979086D01*
X103379086Y-147944877D01*
X103402956Y-147928927D01*
X103447653Y-147910412D01*
X103488027Y-147902381D01*
X103512211Y-147900000D01*
X104673476Y-147900000D01*
X104720928Y-147909439D01*
G37*
%TD.AperFunction*%
%TD*%
%TA.AperFunction,Conductor*%
%TO.N,+3V3*%
G36*
X129033226Y-57751715D02*
G01*
X129043653Y-57752689D01*
X129045347Y-57752848D01*
X129057407Y-57754576D01*
X129061165Y-57755306D01*
X129061182Y-57755315D01*
X129061184Y-57755310D01*
X129079947Y-57758952D01*
X129094127Y-57762584D01*
X129098786Y-57764075D01*
X129099788Y-57764486D01*
X129100081Y-57764490D01*
X129106943Y-57766687D01*
X129109669Y-57768534D01*
X129109750Y-57768567D01*
X129122300Y-57772759D01*
X129128910Y-57775896D01*
X129144294Y-57784591D01*
X129150706Y-57788845D01*
X129169598Y-57804261D01*
X129186642Y-57821220D01*
X129202167Y-57840057D01*
X129204553Y-57843615D01*
X129216078Y-57865108D01*
X129225304Y-57887317D01*
X129232402Y-57910657D01*
X129236881Y-57933142D01*
X129238674Y-57945217D01*
X129239867Y-57957339D01*
X129240463Y-57969536D01*
X129239062Y-61317724D01*
X129239061Y-61317726D01*
X129239062Y-61317728D01*
X129234023Y-61352661D01*
X129229613Y-61367655D01*
X129191863Y-61426371D01*
X129191813Y-61426414D01*
X129191812Y-61426416D01*
X129191810Y-61426416D01*
X129190483Y-61427567D01*
X129135606Y-61455033D01*
X129128069Y-61456671D01*
X129101735Y-61459500D01*
X128806226Y-61459500D01*
X128641942Y-61492178D01*
X128641926Y-61492181D01*
X128641925Y-61492182D01*
X128641917Y-61492184D01*
X128641915Y-61492184D01*
X128641901Y-61492189D01*
X128611401Y-61504824D01*
X128611399Y-61504825D01*
X128498262Y-61551687D01*
X128491203Y-61554611D01*
X128488564Y-61555596D01*
X128487135Y-61556295D01*
X128347835Y-61649373D01*
X128347834Y-61649374D01*
X128347828Y-61649379D01*
X124119788Y-65877421D01*
X124108503Y-65885869D01*
X124091538Y-65898570D01*
X124081611Y-65903991D01*
X124013338Y-65918845D01*
X123947873Y-65894431D01*
X123906000Y-65838499D01*
X123903313Y-65831293D01*
X123895500Y-65787973D01*
X123895500Y-65760172D01*
X123862665Y-65552863D01*
X123862664Y-65552856D01*
X123862664Y-65552857D01*
X123861138Y-65543223D01*
X123861138Y-65543220D01*
X123793260Y-65334314D01*
X123793258Y-65334311D01*
X123793258Y-65334309D01*
X123693537Y-65138598D01*
X123685242Y-65127181D01*
X123685240Y-65127178D01*
X123661297Y-65094223D01*
X123564433Y-64960898D01*
X123409101Y-64805566D01*
X123231404Y-64676464D01*
X123231403Y-64676463D01*
X123231401Y-64676462D01*
X123171421Y-64645900D01*
X123035690Y-64576741D01*
X122840294Y-64513252D01*
X122840282Y-64513249D01*
X122826780Y-64508862D01*
X122826778Y-64508861D01*
X122826777Y-64508861D01*
X122812391Y-64506582D01*
X122812385Y-64506581D01*
X122695648Y-64488092D01*
X122660120Y-64482465D01*
X122640003Y-64479279D01*
X122609831Y-64474500D01*
X122609828Y-64474500D01*
X122390172Y-64474500D01*
X122390168Y-64474500D01*
X122349937Y-64480872D01*
X122339879Y-64482465D01*
X122301246Y-64488583D01*
X122173226Y-64508860D01*
X121964308Y-64576742D01*
X121768596Y-64676463D01*
X121768594Y-64676464D01*
X121590899Y-64805565D01*
X121590896Y-64805567D01*
X121435569Y-64960895D01*
X121435565Y-64960899D01*
X121306464Y-65138594D01*
X121306463Y-65138596D01*
X121206742Y-65334306D01*
X121138860Y-65543222D01*
X121138860Y-65543223D01*
X121133164Y-65579191D01*
X121112401Y-65710288D01*
X121104500Y-65760172D01*
X121104500Y-65979828D01*
X121106207Y-65990606D01*
X121137741Y-66189707D01*
X121137742Y-66189711D01*
X121138863Y-66196785D01*
X121206740Y-66405686D01*
X121206743Y-66405693D01*
X121237730Y-66466509D01*
X121268746Y-66527380D01*
X121306464Y-66601404D01*
X121435566Y-66779101D01*
X121590898Y-66934433D01*
X121757179Y-67055240D01*
X121757180Y-67055242D01*
X121757181Y-67055242D01*
X121768599Y-67063538D01*
X121964314Y-67163260D01*
X122173220Y-67231138D01*
X122390172Y-67265500D01*
X122390173Y-67265500D01*
X122414518Y-67265500D01*
X122449445Y-67270521D01*
X122460298Y-67273707D01*
X122519079Y-67311477D01*
X122548108Y-67375031D01*
X122538169Y-67444190D01*
X122538168Y-67444192D01*
X122534983Y-67451167D01*
X122509867Y-67487342D01*
X120643311Y-69353896D01*
X120615056Y-69375048D01*
X120591975Y-69387651D01*
X120532497Y-69402818D01*
X117142032Y-69401398D01*
X117117862Y-69399009D01*
X117094395Y-69394335D01*
X117071165Y-69387285D01*
X116933502Y-69330264D01*
X116933471Y-69330257D01*
X116778847Y-69299500D01*
X116778845Y-69299500D01*
X116778842Y-69299500D01*
X116621158Y-69299500D01*
X116621155Y-69299500D01*
X116621153Y-69299500D01*
X116466527Y-69330257D01*
X116466496Y-69330264D01*
X116329727Y-69386915D01*
X116306440Y-69393977D01*
X116282921Y-69398650D01*
X116258704Y-69401027D01*
X115388249Y-69400663D01*
X115353311Y-69395624D01*
X115344672Y-69393083D01*
X115285911Y-69355281D01*
X115256916Y-69291712D01*
X115266892Y-69222558D01*
X115307157Y-69173529D01*
X115311316Y-69170531D01*
X115336352Y-69156573D01*
X115403179Y-69128894D01*
X115534289Y-69041289D01*
X115645789Y-68929789D01*
X115733394Y-68798679D01*
X115793737Y-68652997D01*
X115824500Y-68498342D01*
X115824500Y-68340658D01*
X115824500Y-68340655D01*
X115824500Y-68340473D01*
X115824065Y-68338472D01*
X115814364Y-68289701D01*
X115794394Y-68189309D01*
X115793982Y-68186896D01*
X115793737Y-68186004D01*
X115790537Y-68178276D01*
X115790522Y-68178242D01*
X115790510Y-68178213D01*
X115733397Y-68040327D01*
X115733390Y-68040314D01*
X115645789Y-67909211D01*
X115645786Y-67909207D01*
X115645781Y-67909201D01*
X115534297Y-67797717D01*
X115534291Y-67797712D01*
X115534290Y-67797711D01*
X115403191Y-67710113D01*
X115403190Y-67710112D01*
X115403185Y-67710109D01*
X115403172Y-67710102D01*
X115403165Y-67710098D01*
X115257502Y-67649764D01*
X115257471Y-67649757D01*
X115102847Y-67619000D01*
X115102845Y-67619000D01*
X115102842Y-67619000D01*
X114945158Y-67619000D01*
X114945155Y-67619000D01*
X114945153Y-67619000D01*
X114790527Y-67649757D01*
X114790496Y-67649764D01*
X114644833Y-67710098D01*
X114644824Y-67710103D01*
X114644807Y-67710113D01*
X114513708Y-67797711D01*
X114513707Y-67797712D01*
X114510747Y-67800280D01*
X114447204Y-67829335D01*
X114378041Y-67819423D01*
X114325216Y-67773693D01*
X114305500Y-67706663D01*
X114305500Y-65278848D01*
X119099499Y-65278848D01*
X119130257Y-65433471D01*
X119130264Y-65433502D01*
X119190598Y-65579165D01*
X119190603Y-65579174D01*
X119190613Y-65579191D01*
X119278209Y-65710287D01*
X119278212Y-65710291D01*
X119278217Y-65710297D01*
X119389701Y-65821781D01*
X119389707Y-65821786D01*
X119389711Y-65821789D01*
X119520814Y-65909390D01*
X119520827Y-65909397D01*
X119666498Y-65969735D01*
X119666503Y-65969737D01*
X119821153Y-66000499D01*
X119821156Y-66000500D01*
X119821158Y-66000500D01*
X119978844Y-66000500D01*
X119978845Y-66000499D01*
X120133497Y-65969737D01*
X120279179Y-65909394D01*
X120410289Y-65821789D01*
X120521789Y-65710289D01*
X120521790Y-65710288D01*
X120521791Y-65710287D01*
X120609390Y-65579185D01*
X120609390Y-65579184D01*
X120609394Y-65579179D01*
X120669737Y-65433497D01*
X120700500Y-65278842D01*
X120700500Y-65121158D01*
X120700500Y-65121155D01*
X120700500Y-65120973D01*
X120700065Y-65118972D01*
X120670394Y-64969809D01*
X120669982Y-64967399D01*
X120669737Y-64966508D01*
X120669737Y-64966503D01*
X120667939Y-64962164D01*
X120667414Y-64960895D01*
X120667411Y-64960888D01*
X120609402Y-64820840D01*
X120609399Y-64820833D01*
X120609397Y-64820827D01*
X120609390Y-64820814D01*
X120521789Y-64689711D01*
X120521786Y-64689707D01*
X120521781Y-64689701D01*
X120410297Y-64578217D01*
X120410291Y-64578212D01*
X120410290Y-64578211D01*
X120279191Y-64490613D01*
X120279190Y-64490612D01*
X120279185Y-64490609D01*
X120279172Y-64490602D01*
X120279165Y-64490598D01*
X120133502Y-64430264D01*
X120133471Y-64430257D01*
X119978847Y-64399500D01*
X119978845Y-64399500D01*
X119978842Y-64399500D01*
X119821158Y-64399500D01*
X119821155Y-64399500D01*
X119821153Y-64399500D01*
X119666527Y-64430257D01*
X119666496Y-64430264D01*
X119520833Y-64490598D01*
X119520824Y-64490603D01*
X119520807Y-64490613D01*
X119389708Y-64578211D01*
X119389707Y-64578212D01*
X119389701Y-64578217D01*
X119278217Y-64689701D01*
X119278212Y-64689707D01*
X119278211Y-64689708D01*
X119190613Y-64820807D01*
X119190603Y-64820824D01*
X119190598Y-64820833D01*
X119130264Y-64966496D01*
X119130257Y-64966527D01*
X119099500Y-65121150D01*
X119099500Y-65121153D01*
X119099500Y-65278846D01*
X119099500Y-65278848D01*
X119099499Y-65278848D01*
X114305500Y-65278848D01*
X114305500Y-63528610D01*
X114305500Y-63528600D01*
X114293947Y-63421144D01*
X114282741Y-63369633D01*
X114273817Y-63342821D01*
X114248616Y-63267102D01*
X114248613Y-63267096D01*
X114170828Y-63146062D01*
X114170825Y-63146057D01*
X114170820Y-63146051D01*
X114125076Y-63093259D01*
X114125072Y-63093256D01*
X114125070Y-63093253D01*
X114016336Y-62999033D01*
X114016335Y-62999032D01*
X114010665Y-62994119D01*
X113972892Y-62935341D01*
X113972892Y-62865471D01*
X114010667Y-62806693D01*
X114024830Y-62796091D01*
X114058541Y-62774426D01*
X114058543Y-62774425D01*
X114111347Y-62728670D01*
X114205567Y-62619936D01*
X114265338Y-62489059D01*
X114285023Y-62422020D01*
X114285024Y-62422016D01*
X114305500Y-62279600D01*
X114305500Y-58988315D01*
X114304632Y-58970862D01*
X114303009Y-58938206D01*
X114303007Y-58938196D01*
X114303007Y-58938177D01*
X114300568Y-58913708D01*
X114293119Y-58864086D01*
X114284904Y-58823278D01*
X114255465Y-58727429D01*
X114236526Y-58682299D01*
X114236520Y-58682289D01*
X114236518Y-58682283D01*
X114213301Y-58639447D01*
X114188757Y-58594159D01*
X114172470Y-58570146D01*
X114108237Y-58493158D01*
X114108230Y-58493150D01*
X114073308Y-58458870D01*
X113995149Y-58396076D01*
X113970837Y-58380235D01*
X113881821Y-58334101D01*
X113854719Y-58323313D01*
X113836355Y-58316004D01*
X113829527Y-58314044D01*
X113807173Y-58299871D01*
X113783036Y-58289005D01*
X113778125Y-58281453D01*
X113770519Y-58276631D01*
X113759375Y-58252620D01*
X113744946Y-58230431D01*
X113742987Y-58217308D01*
X113741106Y-58213255D01*
X113739735Y-58195523D01*
X113738961Y-58051667D01*
X113739493Y-58039524D01*
X113740616Y-58027460D01*
X113742337Y-58015413D01*
X113746678Y-57992962D01*
X113753606Y-57969671D01*
X113758636Y-57957339D01*
X113762653Y-57947489D01*
X113773994Y-57925995D01*
X113776363Y-57922408D01*
X113791675Y-57903544D01*
X113808528Y-57886510D01*
X113827212Y-57871006D01*
X113830771Y-57868599D01*
X113852151Y-57857021D01*
X113874246Y-57847730D01*
X113897452Y-57840555D01*
X113919854Y-57835973D01*
X113931875Y-57834123D01*
X113943939Y-57832869D01*
X113956082Y-57832208D01*
X114431854Y-57829649D01*
X114456373Y-57831964D01*
X114480192Y-57836635D01*
X114503774Y-57843753D01*
X114566503Y-57869737D01*
X114711782Y-57898635D01*
X114721153Y-57900499D01*
X114721156Y-57900500D01*
X114721158Y-57900500D01*
X114878844Y-57900500D01*
X114878845Y-57900499D01*
X115033497Y-57869737D01*
X115105876Y-57839756D01*
X115128806Y-57832766D01*
X115137017Y-57831110D01*
X115151978Y-57828093D01*
X115175824Y-57825647D01*
X120005944Y-57799667D01*
X120018763Y-57800263D01*
X120021150Y-57800498D01*
X120021158Y-57800500D01*
X120021166Y-57800500D01*
X120178842Y-57800500D01*
X120178845Y-57800500D01*
X120184904Y-57799903D01*
X120184926Y-57800133D01*
X120199821Y-57798625D01*
X122109013Y-57788356D01*
X122143960Y-57793190D01*
X122158992Y-57797517D01*
X122217961Y-57834967D01*
X122222855Y-57840554D01*
X122223121Y-57840857D01*
X122250742Y-57894976D01*
X122289681Y-58065586D01*
X122289763Y-58065859D01*
X122290146Y-58066914D01*
X122378731Y-58320075D01*
X122378737Y-58320089D01*
X122495713Y-58562992D01*
X122495917Y-58563350D01*
X122496603Y-58564409D01*
X122562763Y-58669702D01*
X122639162Y-58791289D01*
X122736788Y-58913708D01*
X122796289Y-58988321D01*
X122807266Y-59002085D01*
X122997915Y-59192734D01*
X123208711Y-59360838D01*
X123437003Y-59504284D01*
X123679921Y-59621267D01*
X123871049Y-59688145D01*
X123924540Y-59706862D01*
X123930787Y-59709658D01*
X123931645Y-59709814D01*
X123937109Y-59710933D01*
X124169925Y-59764071D01*
X124197268Y-59770312D01*
X124197272Y-59770312D01*
X124197281Y-59770314D01*
X124326150Y-59784833D01*
X124447790Y-59798538D01*
X124455393Y-59800500D01*
X124734812Y-59800500D01*
X124760310Y-59800500D01*
X124765444Y-59797696D01*
X124777914Y-59795642D01*
X124926388Y-59778913D01*
X125002718Y-59770314D01*
X125002721Y-59770313D01*
X125002732Y-59770312D01*
X125265591Y-59710316D01*
X125520079Y-59621267D01*
X125762997Y-59504284D01*
X125991289Y-59360838D01*
X126202085Y-59192734D01*
X126392734Y-59002085D01*
X126560838Y-58791289D01*
X126704284Y-58562997D01*
X126821267Y-58320079D01*
X126910316Y-58065591D01*
X126953722Y-57875411D01*
X126956586Y-57867969D01*
X126966391Y-57842475D01*
X126974023Y-57828831D01*
X127023931Y-57779934D01*
X127024382Y-57779694D01*
X127031057Y-57776137D01*
X127088701Y-57761573D01*
X127125754Y-57761374D01*
X129021047Y-57751179D01*
X129033226Y-57751715D01*
G37*
%TD.AperFunction*%
%TD*%
M02*
