%TF.GenerationSoftware,KiCad,Pcbnew,10.0.3*%
%TF.CreationDate,2026-05-22T18:31:41-04:00*%
%TF.ProjectId,meshtastic,6d657368-7461-4737-9469-632e6b696361,rev?*%
%TF.SameCoordinates,Original*%
%TF.FileFunction,Legend,Top*%
%TF.FilePolarity,Positive*%
%FSLAX46Y46*%
G04 Gerber Fmt 4.6, Leading zero omitted, Abs format (unit mm)*
G04 Created by KiCad (PCBNEW 10.0.3) date 2026-05-22 18:31:41*
%MOMM*%
%LPD*%
G01*
G04 APERTURE LIST*
G04 Aperture macros list*
%AMRoundRect*
0 Rectangle with rounded corners*
0 $1 Rounding radius*
0 $2 $3 $4 $5 $6 $7 $8 $9 X,Y pos of 4 corners*
0 Add a 4 corners polygon primitive as box body*
4,1,4,$2,$3,$4,$5,$6,$7,$8,$9,$2,$3,0*
0 Add four circle primitives for the rounded corners*
1,1,$1+$1,$2,$3*
1,1,$1+$1,$4,$5*
1,1,$1+$1,$6,$7*
1,1,$1+$1,$8,$9*
0 Add four rect primitives between the rounded corners*
20,1,$1+$1,$2,$3,$4,$5,0*
20,1,$1+$1,$4,$5,$6,$7,0*
20,1,$1+$1,$6,$7,$8,$9,0*
20,1,$1+$1,$8,$9,$2,$3,0*%
%AMOutline4P*
0 Free polygon, 4 corners , with rotation*
0 The origin of the aperture is its center*
0 number of corners: always 4*
0 $1 to $8 corner X, Y*
0 $9 Rotation angle, in degrees counterclockwise*
0 create outline with 4 corners*
4,1,4,$1,$2,$3,$4,$5,$6,$7,$8,$1,$2,$9*%
%AMFreePoly0*
4,1,23,0.500000,-0.750000,0.000000,-0.750000,0.000000,-0.745722,-0.065263,-0.745722,-0.191342,-0.711940,-0.304381,-0.646677,-0.396677,-0.554381,-0.461940,-0.441342,-0.495722,-0.315263,-0.495722,-0.250000,-0.500000,-0.250000,-0.500000,0.250000,-0.495722,0.250000,-0.495722,0.315263,-0.461940,0.441342,-0.396677,0.554381,-0.304381,0.646677,-0.191342,0.711940,-0.065263,0.745722,0.000000,0.745722,
0.000000,0.750000,0.500000,0.750000,0.500000,-0.750000,0.500000,-0.750000,$1*%
%AMFreePoly1*
4,1,23,0.000000,0.745722,0.065263,0.745722,0.191342,0.711940,0.304381,0.646677,0.396677,0.554381,0.461940,0.441342,0.495722,0.315263,0.495722,0.250000,0.500000,0.250000,0.500000,-0.250000,0.495722,-0.250000,0.495722,-0.315263,0.461940,-0.441342,0.396677,-0.554381,0.304381,-0.646677,0.191342,-0.711940,0.065263,-0.745722,0.000000,-0.745722,0.000000,-0.750000,-0.500000,-0.750000,
-0.500000,0.750000,0.000000,0.750000,0.000000,0.745722,0.000000,0.745722,$1*%
%AMFreePoly2*
4,1,23,0.550000,-0.750000,0.000000,-0.750000,0.000000,-0.745722,-0.065263,-0.745722,-0.191342,-0.711940,-0.304381,-0.646677,-0.396677,-0.554381,-0.461940,-0.441342,-0.495722,-0.315263,-0.495722,-0.250000,-0.500000,-0.250000,-0.500000,0.250000,-0.495722,0.250000,-0.495722,0.315263,-0.461940,0.441342,-0.396677,0.554381,-0.304381,0.646677,-0.191342,0.711940,-0.065263,0.745722,0.000000,0.745722,
0.000000,0.750000,0.550000,0.750000,0.550000,-0.750000,0.550000,-0.750000,$1*%
%AMFreePoly3*
4,1,23,0.000000,0.745722,0.065263,0.745722,0.191342,0.711940,0.304381,0.646677,0.396677,0.554381,0.461940,0.441342,0.495722,0.315263,0.495722,0.250000,0.500000,0.250000,0.500000,-0.250000,0.495722,-0.250000,0.495722,-0.315263,0.461940,-0.441342,0.396677,-0.554381,0.304381,-0.646677,0.191342,-0.711940,0.065263,-0.745722,0.000000,-0.745722,0.000000,-0.750000,-0.550000,-0.750000,
-0.550000,0.750000,0.000000,0.750000,0.000000,0.745722,0.000000,0.745722,$1*%
G04 Aperture macros list end*
%ADD10C,0.150000*%
%ADD11C,0.106680*%
%ADD12C,0.120000*%
%ADD13C,0.250000*%
%ADD14C,0.060000*%
%ADD15C,0.300000*%
%ADD16C,0.100000*%
%ADD17C,0.127000*%
%ADD18C,0.504000*%
%ADD19C,0.500000*%
%ADD20RoundRect,0.135000X0.135000X0.185000X-0.135000X0.185000X-0.135000X-0.185000X0.135000X-0.185000X0*%
%ADD21RoundRect,0.250000X0.475000X-0.250000X0.475000X0.250000X-0.475000X0.250000X-0.475000X-0.250000X0*%
%ADD22RoundRect,0.200000X-0.700000X-0.200000X0.700000X-0.200000X0.700000X0.200000X-0.700000X0.200000X0*%
%ADD23R,1.800000X1.800000*%
%ADD24C,1.800000*%
%ADD25RoundRect,0.140000X0.170000X-0.140000X0.170000X0.140000X-0.170000X0.140000X-0.170000X-0.140000X0*%
%ADD26RoundRect,0.140000X0.140000X0.170000X-0.140000X0.170000X-0.140000X-0.170000X0.140000X-0.170000X0*%
%ADD27RoundRect,0.135000X0.185000X-0.135000X0.185000X0.135000X-0.185000X0.135000X-0.185000X-0.135000X0*%
%ADD28RoundRect,0.200000X-0.275000X0.200000X-0.275000X-0.200000X0.275000X-0.200000X0.275000X0.200000X0*%
%ADD29RoundRect,0.135000X-0.135000X-0.185000X0.135000X-0.185000X0.135000X0.185000X-0.135000X0.185000X0*%
%ADD30FreePoly0,270.000000*%
%ADD31FreePoly1,270.000000*%
%ADD32R,0.680000X0.280000*%
%ADD33RoundRect,0.200000X-0.200000X-0.600000X0.200000X-0.600000X0.200000X0.600000X-0.200000X0.600000X0*%
%ADD34RoundRect,0.250001X-0.799999X-1.249999X0.799999X-1.249999X0.799999X1.249999X-0.799999X1.249999X0*%
%ADD35RoundRect,0.140000X-0.140000X-0.170000X0.140000X-0.170000X0.140000X0.170000X-0.140000X0.170000X0*%
%ADD36C,3.800000*%
%ADD37R,1.000000X0.600000*%
%ADD38RoundRect,0.135000X-0.185000X0.135000X-0.185000X-0.135000X0.185000X-0.135000X0.185000X0.135000X0*%
%ADD39RoundRect,0.140000X-0.170000X0.140000X-0.170000X-0.140000X0.170000X-0.140000X0.170000X0.140000X0*%
%ADD40RoundRect,0.218750X-0.218750X-0.256250X0.218750X-0.256250X0.218750X0.256250X-0.218750X0.256250X0*%
%ADD41RoundRect,0.200000X0.200000X0.275000X-0.200000X0.275000X-0.200000X-0.275000X0.200000X-0.275000X0*%
%ADD42RoundRect,0.525400X0.900400X0.525400X-0.900400X0.525400X-0.900400X-0.525400X0.900400X-0.525400X0*%
%ADD43C,1.700000*%
%ADD44RoundRect,0.275000X0.275000X-0.975000X0.275000X0.975000X-0.275000X0.975000X-0.275000X-0.975000X0*%
%ADD45RoundRect,0.150000X-0.587500X-0.150000X0.587500X-0.150000X0.587500X0.150000X-0.587500X0.150000X0*%
%ADD46RoundRect,0.050100X0.099900X-0.174900X0.099900X0.174900X-0.099900X0.174900X-0.099900X-0.174900X0*%
%ADD47RoundRect,0.050100X0.099900X-0.324900X0.099900X0.324900X-0.099900X0.324900X-0.099900X-0.324900X0*%
%ADD48RoundRect,0.050350X0.424650X-0.449650X0.424650X0.449650X-0.424650X0.449650X-0.424650X-0.449650X0*%
%ADD49RoundRect,0.250001X-0.462499X-0.849999X0.462499X-0.849999X0.462499X0.849999X-0.462499X0.849999X0*%
%ADD50C,2.000000*%
%ADD51RoundRect,0.250000X0.250000X-0.275000X0.250000X0.275000X-0.250000X0.275000X-0.250000X-0.275000X0*%
%ADD52RoundRect,0.250000X0.275000X-0.850000X0.275000X0.850000X-0.275000X0.850000X-0.275000X-0.850000X0*%
%ADD53RoundRect,0.250000X0.385000X1.350000X-0.385000X1.350000X-0.385000X-1.350000X0.385000X-1.350000X0*%
%ADD54RoundRect,0.250000X0.425000X1.600000X-0.425000X1.600000X-0.425000X-1.600000X0.425000X-1.600000X0*%
%ADD55RoundRect,0.070000X-0.070000X-0.355000X0.070000X-0.355000X0.070000X0.355000X-0.070000X0.355000X0*%
%ADD56RoundRect,0.070000X-0.070000X-0.305000X0.070000X-0.305000X0.070000X0.305000X-0.070000X0.305000X0*%
%ADD57RoundRect,0.218750X-0.256250X0.218750X-0.256250X-0.218750X0.256250X-0.218750X0.256250X0.218750X0*%
%ADD58R,1.700000X1.700000*%
%ADD59R,2.200000X1.500000*%
%ADD60FreePoly2,180.000000*%
%ADD61R,1.000000X1.500000*%
%ADD62FreePoly3,180.000000*%
%ADD63Outline4P,-1.800000X-1.150000X1.800000X-0.550000X1.800000X0.550000X-1.800000X1.150000X0.000000*%
%ADD64Outline4P,-1.800000X-1.150000X1.800000X-0.550000X1.800000X0.550000X-1.800000X1.150000X180.000000*%
%ADD65R,0.600000X1.000000*%
%ADD66RoundRect,0.050000X-0.100000X0.285000X-0.100000X-0.285000X0.100000X-0.285000X0.100000X0.285000X0*%
%ADD67C,2.390000*%
%ADD68C,3.450000*%
G04 APERTURE END LIST*
D10*
X105333333Y-141854819D02*
X105000000Y-141378628D01*
X104761905Y-141854819D02*
X104761905Y-140854819D01*
X104761905Y-140854819D02*
X105142857Y-140854819D01*
X105142857Y-140854819D02*
X105238095Y-140902438D01*
X105238095Y-140902438D02*
X105285714Y-140950057D01*
X105285714Y-140950057D02*
X105333333Y-141045295D01*
X105333333Y-141045295D02*
X105333333Y-141188152D01*
X105333333Y-141188152D02*
X105285714Y-141283390D01*
X105285714Y-141283390D02*
X105238095Y-141331009D01*
X105238095Y-141331009D02*
X105142857Y-141378628D01*
X105142857Y-141378628D02*
X104761905Y-141378628D01*
X106238095Y-140854819D02*
X105761905Y-140854819D01*
X105761905Y-140854819D02*
X105714286Y-141331009D01*
X105714286Y-141331009D02*
X105761905Y-141283390D01*
X105761905Y-141283390D02*
X105857143Y-141235771D01*
X105857143Y-141235771D02*
X106095238Y-141235771D01*
X106095238Y-141235771D02*
X106190476Y-141283390D01*
X106190476Y-141283390D02*
X106238095Y-141331009D01*
X106238095Y-141331009D02*
X106285714Y-141426247D01*
X106285714Y-141426247D02*
X106285714Y-141664342D01*
X106285714Y-141664342D02*
X106238095Y-141759580D01*
X106238095Y-141759580D02*
X106190476Y-141807200D01*
X106190476Y-141807200D02*
X106095238Y-141854819D01*
X106095238Y-141854819D02*
X105857143Y-141854819D01*
X105857143Y-141854819D02*
X105761905Y-141807200D01*
X105761905Y-141807200D02*
X105714286Y-141759580D01*
X108279580Y-113542857D02*
X108327200Y-113590476D01*
X108327200Y-113590476D02*
X108374819Y-113733333D01*
X108374819Y-113733333D02*
X108374819Y-113828571D01*
X108374819Y-113828571D02*
X108327200Y-113971428D01*
X108327200Y-113971428D02*
X108231961Y-114066666D01*
X108231961Y-114066666D02*
X108136723Y-114114285D01*
X108136723Y-114114285D02*
X107946247Y-114161904D01*
X107946247Y-114161904D02*
X107803390Y-114161904D01*
X107803390Y-114161904D02*
X107612914Y-114114285D01*
X107612914Y-114114285D02*
X107517676Y-114066666D01*
X107517676Y-114066666D02*
X107422438Y-113971428D01*
X107422438Y-113971428D02*
X107374819Y-113828571D01*
X107374819Y-113828571D02*
X107374819Y-113733333D01*
X107374819Y-113733333D02*
X107422438Y-113590476D01*
X107422438Y-113590476D02*
X107470057Y-113542857D01*
X108374819Y-112590476D02*
X108374819Y-113161904D01*
X108374819Y-112876190D02*
X107374819Y-112876190D01*
X107374819Y-112876190D02*
X107517676Y-112971428D01*
X107517676Y-112971428D02*
X107612914Y-113066666D01*
X107612914Y-113066666D02*
X107660533Y-113161904D01*
X107708152Y-111733333D02*
X108374819Y-111733333D01*
X107327200Y-111971428D02*
X108041485Y-112209523D01*
X108041485Y-112209523D02*
X108041485Y-111590476D01*
X108238095Y-58158919D02*
X108238095Y-58968442D01*
X108238095Y-58968442D02*
X108285714Y-59063680D01*
X108285714Y-59063680D02*
X108333333Y-59111300D01*
X108333333Y-59111300D02*
X108428571Y-59158919D01*
X108428571Y-59158919D02*
X108619047Y-59158919D01*
X108619047Y-59158919D02*
X108714285Y-59111300D01*
X108714285Y-59111300D02*
X108761904Y-59063680D01*
X108761904Y-59063680D02*
X108809523Y-58968442D01*
X108809523Y-58968442D02*
X108809523Y-58158919D01*
X109238095Y-58254157D02*
X109285714Y-58206538D01*
X109285714Y-58206538D02*
X109380952Y-58158919D01*
X109380952Y-58158919D02*
X109619047Y-58158919D01*
X109619047Y-58158919D02*
X109714285Y-58206538D01*
X109714285Y-58206538D02*
X109761904Y-58254157D01*
X109761904Y-58254157D02*
X109809523Y-58349395D01*
X109809523Y-58349395D02*
X109809523Y-58444633D01*
X109809523Y-58444633D02*
X109761904Y-58587490D01*
X109761904Y-58587490D02*
X109190476Y-59158919D01*
X109190476Y-59158919D02*
X109809523Y-59158919D01*
X92761905Y-86494819D02*
X92761905Y-85494819D01*
X92761905Y-85494819D02*
X93000000Y-85494819D01*
X93000000Y-85494819D02*
X93142857Y-85542438D01*
X93142857Y-85542438D02*
X93238095Y-85637676D01*
X93238095Y-85637676D02*
X93285714Y-85732914D01*
X93285714Y-85732914D02*
X93333333Y-85923390D01*
X93333333Y-85923390D02*
X93333333Y-86066247D01*
X93333333Y-86066247D02*
X93285714Y-86256723D01*
X93285714Y-86256723D02*
X93238095Y-86351961D01*
X93238095Y-86351961D02*
X93142857Y-86447200D01*
X93142857Y-86447200D02*
X93000000Y-86494819D01*
X93000000Y-86494819D02*
X92761905Y-86494819D01*
X93714286Y-85590057D02*
X93761905Y-85542438D01*
X93761905Y-85542438D02*
X93857143Y-85494819D01*
X93857143Y-85494819D02*
X94095238Y-85494819D01*
X94095238Y-85494819D02*
X94190476Y-85542438D01*
X94190476Y-85542438D02*
X94238095Y-85590057D01*
X94238095Y-85590057D02*
X94285714Y-85685295D01*
X94285714Y-85685295D02*
X94285714Y-85780533D01*
X94285714Y-85780533D02*
X94238095Y-85923390D01*
X94238095Y-85923390D02*
X93666667Y-86494819D01*
X93666667Y-86494819D02*
X94285714Y-86494819D01*
X131343333Y-145454819D02*
X131010000Y-144978628D01*
X130771905Y-145454819D02*
X130771905Y-144454819D01*
X130771905Y-144454819D02*
X131152857Y-144454819D01*
X131152857Y-144454819D02*
X131248095Y-144502438D01*
X131248095Y-144502438D02*
X131295714Y-144550057D01*
X131295714Y-144550057D02*
X131343333Y-144645295D01*
X131343333Y-144645295D02*
X131343333Y-144788152D01*
X131343333Y-144788152D02*
X131295714Y-144883390D01*
X131295714Y-144883390D02*
X131248095Y-144931009D01*
X131248095Y-144931009D02*
X131152857Y-144978628D01*
X131152857Y-144978628D02*
X130771905Y-144978628D01*
X131676667Y-144454819D02*
X132295714Y-144454819D01*
X132295714Y-144454819D02*
X131962381Y-144835771D01*
X131962381Y-144835771D02*
X132105238Y-144835771D01*
X132105238Y-144835771D02*
X132200476Y-144883390D01*
X132200476Y-144883390D02*
X132248095Y-144931009D01*
X132248095Y-144931009D02*
X132295714Y-145026247D01*
X132295714Y-145026247D02*
X132295714Y-145264342D01*
X132295714Y-145264342D02*
X132248095Y-145359580D01*
X132248095Y-145359580D02*
X132200476Y-145407200D01*
X132200476Y-145407200D02*
X132105238Y-145454819D01*
X132105238Y-145454819D02*
X131819524Y-145454819D01*
X131819524Y-145454819D02*
X131724286Y-145407200D01*
X131724286Y-145407200D02*
X131676667Y-145359580D01*
X108059580Y-149266666D02*
X108107200Y-149314285D01*
X108107200Y-149314285D02*
X108154819Y-149457142D01*
X108154819Y-149457142D02*
X108154819Y-149552380D01*
X108154819Y-149552380D02*
X108107200Y-149695237D01*
X108107200Y-149695237D02*
X108011961Y-149790475D01*
X108011961Y-149790475D02*
X107916723Y-149838094D01*
X107916723Y-149838094D02*
X107726247Y-149885713D01*
X107726247Y-149885713D02*
X107583390Y-149885713D01*
X107583390Y-149885713D02*
X107392914Y-149838094D01*
X107392914Y-149838094D02*
X107297676Y-149790475D01*
X107297676Y-149790475D02*
X107202438Y-149695237D01*
X107202438Y-149695237D02*
X107154819Y-149552380D01*
X107154819Y-149552380D02*
X107154819Y-149457142D01*
X107154819Y-149457142D02*
X107202438Y-149314285D01*
X107202438Y-149314285D02*
X107250057Y-149266666D01*
X107154819Y-148361904D02*
X107154819Y-148838094D01*
X107154819Y-148838094D02*
X107631009Y-148885713D01*
X107631009Y-148885713D02*
X107583390Y-148838094D01*
X107583390Y-148838094D02*
X107535771Y-148742856D01*
X107535771Y-148742856D02*
X107535771Y-148504761D01*
X107535771Y-148504761D02*
X107583390Y-148409523D01*
X107583390Y-148409523D02*
X107631009Y-148361904D01*
X107631009Y-148361904D02*
X107726247Y-148314285D01*
X107726247Y-148314285D02*
X107964342Y-148314285D01*
X107964342Y-148314285D02*
X108059580Y-148361904D01*
X108059580Y-148361904D02*
X108107200Y-148409523D01*
X108107200Y-148409523D02*
X108154819Y-148504761D01*
X108154819Y-148504761D02*
X108154819Y-148742856D01*
X108154819Y-148742856D02*
X108107200Y-148838094D01*
X108107200Y-148838094D02*
X108059580Y-148885713D01*
X103333333Y-144259580D02*
X103285714Y-144307200D01*
X103285714Y-144307200D02*
X103142857Y-144354819D01*
X103142857Y-144354819D02*
X103047619Y-144354819D01*
X103047619Y-144354819D02*
X102904762Y-144307200D01*
X102904762Y-144307200D02*
X102809524Y-144211961D01*
X102809524Y-144211961D02*
X102761905Y-144116723D01*
X102761905Y-144116723D02*
X102714286Y-143926247D01*
X102714286Y-143926247D02*
X102714286Y-143783390D01*
X102714286Y-143783390D02*
X102761905Y-143592914D01*
X102761905Y-143592914D02*
X102809524Y-143497676D01*
X102809524Y-143497676D02*
X102904762Y-143402438D01*
X102904762Y-143402438D02*
X103047619Y-143354819D01*
X103047619Y-143354819D02*
X103142857Y-143354819D01*
X103142857Y-143354819D02*
X103285714Y-143402438D01*
X103285714Y-143402438D02*
X103333333Y-143450057D01*
X104285714Y-144354819D02*
X103714286Y-144354819D01*
X104000000Y-144354819D02*
X104000000Y-143354819D01*
X104000000Y-143354819D02*
X103904762Y-143497676D01*
X103904762Y-143497676D02*
X103809524Y-143592914D01*
X103809524Y-143592914D02*
X103714286Y-143640533D01*
X110384819Y-100582857D02*
X109908628Y-100916190D01*
X110384819Y-101154285D02*
X109384819Y-101154285D01*
X109384819Y-101154285D02*
X109384819Y-100773333D01*
X109384819Y-100773333D02*
X109432438Y-100678095D01*
X109432438Y-100678095D02*
X109480057Y-100630476D01*
X109480057Y-100630476D02*
X109575295Y-100582857D01*
X109575295Y-100582857D02*
X109718152Y-100582857D01*
X109718152Y-100582857D02*
X109813390Y-100630476D01*
X109813390Y-100630476D02*
X109861009Y-100678095D01*
X109861009Y-100678095D02*
X109908628Y-100773333D01*
X109908628Y-100773333D02*
X109908628Y-101154285D01*
X110384819Y-99630476D02*
X110384819Y-100201904D01*
X110384819Y-99916190D02*
X109384819Y-99916190D01*
X109384819Y-99916190D02*
X109527676Y-100011428D01*
X109527676Y-100011428D02*
X109622914Y-100106666D01*
X109622914Y-100106666D02*
X109670533Y-100201904D01*
X109384819Y-99297142D02*
X109384819Y-98630476D01*
X109384819Y-98630476D02*
X110384819Y-99059047D01*
X101333333Y-150859580D02*
X101285714Y-150907200D01*
X101285714Y-150907200D02*
X101142857Y-150954819D01*
X101142857Y-150954819D02*
X101047619Y-150954819D01*
X101047619Y-150954819D02*
X100904762Y-150907200D01*
X100904762Y-150907200D02*
X100809524Y-150811961D01*
X100809524Y-150811961D02*
X100761905Y-150716723D01*
X100761905Y-150716723D02*
X100714286Y-150526247D01*
X100714286Y-150526247D02*
X100714286Y-150383390D01*
X100714286Y-150383390D02*
X100761905Y-150192914D01*
X100761905Y-150192914D02*
X100809524Y-150097676D01*
X100809524Y-150097676D02*
X100904762Y-150002438D01*
X100904762Y-150002438D02*
X101047619Y-149954819D01*
X101047619Y-149954819D02*
X101142857Y-149954819D01*
X101142857Y-149954819D02*
X101285714Y-150002438D01*
X101285714Y-150002438D02*
X101333333Y-150050057D01*
X101666667Y-149954819D02*
X102333333Y-149954819D01*
X102333333Y-149954819D02*
X101904762Y-150954819D01*
X99294642Y-96834819D02*
X98961309Y-96358628D01*
X98723214Y-96834819D02*
X98723214Y-95834819D01*
X98723214Y-95834819D02*
X99104166Y-95834819D01*
X99104166Y-95834819D02*
X99199404Y-95882438D01*
X99199404Y-95882438D02*
X99247023Y-95930057D01*
X99247023Y-95930057D02*
X99294642Y-96025295D01*
X99294642Y-96025295D02*
X99294642Y-96168152D01*
X99294642Y-96168152D02*
X99247023Y-96263390D01*
X99247023Y-96263390D02*
X99199404Y-96311009D01*
X99199404Y-96311009D02*
X99104166Y-96358628D01*
X99104166Y-96358628D02*
X98723214Y-96358628D01*
X100247023Y-96834819D02*
X99675595Y-96834819D01*
X99961309Y-96834819D02*
X99961309Y-95834819D01*
X99961309Y-95834819D02*
X99866071Y-95977676D01*
X99866071Y-95977676D02*
X99770833Y-96072914D01*
X99770833Y-96072914D02*
X99675595Y-96120533D01*
X100818452Y-96263390D02*
X100723214Y-96215771D01*
X100723214Y-96215771D02*
X100675595Y-96168152D01*
X100675595Y-96168152D02*
X100627976Y-96072914D01*
X100627976Y-96072914D02*
X100627976Y-96025295D01*
X100627976Y-96025295D02*
X100675595Y-95930057D01*
X100675595Y-95930057D02*
X100723214Y-95882438D01*
X100723214Y-95882438D02*
X100818452Y-95834819D01*
X100818452Y-95834819D02*
X101008928Y-95834819D01*
X101008928Y-95834819D02*
X101104166Y-95882438D01*
X101104166Y-95882438D02*
X101151785Y-95930057D01*
X101151785Y-95930057D02*
X101199404Y-96025295D01*
X101199404Y-96025295D02*
X101199404Y-96072914D01*
X101199404Y-96072914D02*
X101151785Y-96168152D01*
X101151785Y-96168152D02*
X101104166Y-96215771D01*
X101104166Y-96215771D02*
X101008928Y-96263390D01*
X101008928Y-96263390D02*
X100818452Y-96263390D01*
X100818452Y-96263390D02*
X100723214Y-96311009D01*
X100723214Y-96311009D02*
X100675595Y-96358628D01*
X100675595Y-96358628D02*
X100627976Y-96453866D01*
X100627976Y-96453866D02*
X100627976Y-96644342D01*
X100627976Y-96644342D02*
X100675595Y-96739580D01*
X100675595Y-96739580D02*
X100723214Y-96787200D01*
X100723214Y-96787200D02*
X100818452Y-96834819D01*
X100818452Y-96834819D02*
X101008928Y-96834819D01*
X101008928Y-96834819D02*
X101104166Y-96787200D01*
X101104166Y-96787200D02*
X101151785Y-96739580D01*
X101151785Y-96739580D02*
X101199404Y-96644342D01*
X101199404Y-96644342D02*
X101199404Y-96453866D01*
X101199404Y-96453866D02*
X101151785Y-96358628D01*
X101151785Y-96358628D02*
X101104166Y-96311009D01*
X101104166Y-96311009D02*
X101008928Y-96263390D01*
X97566666Y-66454819D02*
X97566666Y-67169104D01*
X97566666Y-67169104D02*
X97519047Y-67311961D01*
X97519047Y-67311961D02*
X97423809Y-67407200D01*
X97423809Y-67407200D02*
X97280952Y-67454819D01*
X97280952Y-67454819D02*
X97185714Y-67454819D01*
X98042857Y-67454819D02*
X98042857Y-66454819D01*
X98042857Y-66454819D02*
X98423809Y-66454819D01*
X98423809Y-66454819D02*
X98519047Y-66502438D01*
X98519047Y-66502438D02*
X98566666Y-66550057D01*
X98566666Y-66550057D02*
X98614285Y-66645295D01*
X98614285Y-66645295D02*
X98614285Y-66788152D01*
X98614285Y-66788152D02*
X98566666Y-66883390D01*
X98566666Y-66883390D02*
X98519047Y-66931009D01*
X98519047Y-66931009D02*
X98423809Y-66978628D01*
X98423809Y-66978628D02*
X98042857Y-66978628D01*
X99471428Y-66788152D02*
X99471428Y-67454819D01*
X99233333Y-66407200D02*
X98995238Y-67121485D01*
X98995238Y-67121485D02*
X99614285Y-67121485D01*
X96938095Y-138954819D02*
X96938095Y-139764342D01*
X96938095Y-139764342D02*
X96985714Y-139859580D01*
X96985714Y-139859580D02*
X97033333Y-139907200D01*
X97033333Y-139907200D02*
X97128571Y-139954819D01*
X97128571Y-139954819D02*
X97319047Y-139954819D01*
X97319047Y-139954819D02*
X97414285Y-139907200D01*
X97414285Y-139907200D02*
X97461904Y-139859580D01*
X97461904Y-139859580D02*
X97509523Y-139764342D01*
X97509523Y-139764342D02*
X97509523Y-138954819D01*
X98461904Y-138954819D02*
X97985714Y-138954819D01*
X97985714Y-138954819D02*
X97938095Y-139431009D01*
X97938095Y-139431009D02*
X97985714Y-139383390D01*
X97985714Y-139383390D02*
X98080952Y-139335771D01*
X98080952Y-139335771D02*
X98319047Y-139335771D01*
X98319047Y-139335771D02*
X98414285Y-139383390D01*
X98414285Y-139383390D02*
X98461904Y-139431009D01*
X98461904Y-139431009D02*
X98509523Y-139526247D01*
X98509523Y-139526247D02*
X98509523Y-139764342D01*
X98509523Y-139764342D02*
X98461904Y-139859580D01*
X98461904Y-139859580D02*
X98414285Y-139907200D01*
X98414285Y-139907200D02*
X98319047Y-139954819D01*
X98319047Y-139954819D02*
X98080952Y-139954819D01*
X98080952Y-139954819D02*
X97985714Y-139907200D01*
X97985714Y-139907200D02*
X97938095Y-139859580D01*
X134491666Y-146254819D02*
X134491666Y-146969104D01*
X134491666Y-146969104D02*
X134444047Y-147111961D01*
X134444047Y-147111961D02*
X134348809Y-147207200D01*
X134348809Y-147207200D02*
X134205952Y-147254819D01*
X134205952Y-147254819D02*
X134110714Y-147254819D01*
X135396428Y-146254819D02*
X135205952Y-146254819D01*
X135205952Y-146254819D02*
X135110714Y-146302438D01*
X135110714Y-146302438D02*
X135063095Y-146350057D01*
X135063095Y-146350057D02*
X134967857Y-146492914D01*
X134967857Y-146492914D02*
X134920238Y-146683390D01*
X134920238Y-146683390D02*
X134920238Y-147064342D01*
X134920238Y-147064342D02*
X134967857Y-147159580D01*
X134967857Y-147159580D02*
X135015476Y-147207200D01*
X135015476Y-147207200D02*
X135110714Y-147254819D01*
X135110714Y-147254819D02*
X135301190Y-147254819D01*
X135301190Y-147254819D02*
X135396428Y-147207200D01*
X135396428Y-147207200D02*
X135444047Y-147159580D01*
X135444047Y-147159580D02*
X135491666Y-147064342D01*
X135491666Y-147064342D02*
X135491666Y-146826247D01*
X135491666Y-146826247D02*
X135444047Y-146731009D01*
X135444047Y-146731009D02*
X135396428Y-146683390D01*
X135396428Y-146683390D02*
X135301190Y-146635771D01*
X135301190Y-146635771D02*
X135110714Y-146635771D01*
X135110714Y-146635771D02*
X135015476Y-146683390D01*
X135015476Y-146683390D02*
X134967857Y-146731009D01*
X134967857Y-146731009D02*
X134920238Y-146826247D01*
X99357142Y-76959580D02*
X99309523Y-77007200D01*
X99309523Y-77007200D02*
X99166666Y-77054819D01*
X99166666Y-77054819D02*
X99071428Y-77054819D01*
X99071428Y-77054819D02*
X98928571Y-77007200D01*
X98928571Y-77007200D02*
X98833333Y-76911961D01*
X98833333Y-76911961D02*
X98785714Y-76816723D01*
X98785714Y-76816723D02*
X98738095Y-76626247D01*
X98738095Y-76626247D02*
X98738095Y-76483390D01*
X98738095Y-76483390D02*
X98785714Y-76292914D01*
X98785714Y-76292914D02*
X98833333Y-76197676D01*
X98833333Y-76197676D02*
X98928571Y-76102438D01*
X98928571Y-76102438D02*
X99071428Y-76054819D01*
X99071428Y-76054819D02*
X99166666Y-76054819D01*
X99166666Y-76054819D02*
X99309523Y-76102438D01*
X99309523Y-76102438D02*
X99357142Y-76150057D01*
X100309523Y-77054819D02*
X99738095Y-77054819D01*
X100023809Y-77054819D02*
X100023809Y-76054819D01*
X100023809Y-76054819D02*
X99928571Y-76197676D01*
X99928571Y-76197676D02*
X99833333Y-76292914D01*
X99833333Y-76292914D02*
X99738095Y-76340533D01*
X100928571Y-76054819D02*
X101023809Y-76054819D01*
X101023809Y-76054819D02*
X101119047Y-76102438D01*
X101119047Y-76102438D02*
X101166666Y-76150057D01*
X101166666Y-76150057D02*
X101214285Y-76245295D01*
X101214285Y-76245295D02*
X101261904Y-76435771D01*
X101261904Y-76435771D02*
X101261904Y-76673866D01*
X101261904Y-76673866D02*
X101214285Y-76864342D01*
X101214285Y-76864342D02*
X101166666Y-76959580D01*
X101166666Y-76959580D02*
X101119047Y-77007200D01*
X101119047Y-77007200D02*
X101023809Y-77054819D01*
X101023809Y-77054819D02*
X100928571Y-77054819D01*
X100928571Y-77054819D02*
X100833333Y-77007200D01*
X100833333Y-77007200D02*
X100785714Y-76959580D01*
X100785714Y-76959580D02*
X100738095Y-76864342D01*
X100738095Y-76864342D02*
X100690476Y-76673866D01*
X100690476Y-76673866D02*
X100690476Y-76435771D01*
X100690476Y-76435771D02*
X100738095Y-76245295D01*
X100738095Y-76245295D02*
X100785714Y-76150057D01*
X100785714Y-76150057D02*
X100833333Y-76102438D01*
X100833333Y-76102438D02*
X100928571Y-76054819D01*
X96607142Y-143314819D02*
X96273809Y-142838628D01*
X96035714Y-143314819D02*
X96035714Y-142314819D01*
X96035714Y-142314819D02*
X96416666Y-142314819D01*
X96416666Y-142314819D02*
X96511904Y-142362438D01*
X96511904Y-142362438D02*
X96559523Y-142410057D01*
X96559523Y-142410057D02*
X96607142Y-142505295D01*
X96607142Y-142505295D02*
X96607142Y-142648152D01*
X96607142Y-142648152D02*
X96559523Y-142743390D01*
X96559523Y-142743390D02*
X96511904Y-142791009D01*
X96511904Y-142791009D02*
X96416666Y-142838628D01*
X96416666Y-142838628D02*
X96035714Y-142838628D01*
X96988095Y-142410057D02*
X97035714Y-142362438D01*
X97035714Y-142362438D02*
X97130952Y-142314819D01*
X97130952Y-142314819D02*
X97369047Y-142314819D01*
X97369047Y-142314819D02*
X97464285Y-142362438D01*
X97464285Y-142362438D02*
X97511904Y-142410057D01*
X97511904Y-142410057D02*
X97559523Y-142505295D01*
X97559523Y-142505295D02*
X97559523Y-142600533D01*
X97559523Y-142600533D02*
X97511904Y-142743390D01*
X97511904Y-142743390D02*
X96940476Y-143314819D01*
X96940476Y-143314819D02*
X97559523Y-143314819D01*
X98416666Y-142648152D02*
X98416666Y-143314819D01*
X98178571Y-142267200D02*
X97940476Y-142981485D01*
X97940476Y-142981485D02*
X98559523Y-142981485D01*
X105333333Y-136854819D02*
X105000000Y-136378628D01*
X104761905Y-136854819D02*
X104761905Y-135854819D01*
X104761905Y-135854819D02*
X105142857Y-135854819D01*
X105142857Y-135854819D02*
X105238095Y-135902438D01*
X105238095Y-135902438D02*
X105285714Y-135950057D01*
X105285714Y-135950057D02*
X105333333Y-136045295D01*
X105333333Y-136045295D02*
X105333333Y-136188152D01*
X105333333Y-136188152D02*
X105285714Y-136283390D01*
X105285714Y-136283390D02*
X105238095Y-136331009D01*
X105238095Y-136331009D02*
X105142857Y-136378628D01*
X105142857Y-136378628D02*
X104761905Y-136378628D01*
X106190476Y-135854819D02*
X106000000Y-135854819D01*
X106000000Y-135854819D02*
X105904762Y-135902438D01*
X105904762Y-135902438D02*
X105857143Y-135950057D01*
X105857143Y-135950057D02*
X105761905Y-136092914D01*
X105761905Y-136092914D02*
X105714286Y-136283390D01*
X105714286Y-136283390D02*
X105714286Y-136664342D01*
X105714286Y-136664342D02*
X105761905Y-136759580D01*
X105761905Y-136759580D02*
X105809524Y-136807200D01*
X105809524Y-136807200D02*
X105904762Y-136854819D01*
X105904762Y-136854819D02*
X106095238Y-136854819D01*
X106095238Y-136854819D02*
X106190476Y-136807200D01*
X106190476Y-136807200D02*
X106238095Y-136759580D01*
X106238095Y-136759580D02*
X106285714Y-136664342D01*
X106285714Y-136664342D02*
X106285714Y-136426247D01*
X106285714Y-136426247D02*
X106238095Y-136331009D01*
X106238095Y-136331009D02*
X106190476Y-136283390D01*
X106190476Y-136283390D02*
X106095238Y-136235771D01*
X106095238Y-136235771D02*
X105904762Y-136235771D01*
X105904762Y-136235771D02*
X105809524Y-136283390D01*
X105809524Y-136283390D02*
X105761905Y-136331009D01*
X105761905Y-136331009D02*
X105714286Y-136426247D01*
X119357142Y-65454819D02*
X119023809Y-64978628D01*
X118785714Y-65454819D02*
X118785714Y-64454819D01*
X118785714Y-64454819D02*
X119166666Y-64454819D01*
X119166666Y-64454819D02*
X119261904Y-64502438D01*
X119261904Y-64502438D02*
X119309523Y-64550057D01*
X119309523Y-64550057D02*
X119357142Y-64645295D01*
X119357142Y-64645295D02*
X119357142Y-64788152D01*
X119357142Y-64788152D02*
X119309523Y-64883390D01*
X119309523Y-64883390D02*
X119261904Y-64931009D01*
X119261904Y-64931009D02*
X119166666Y-64978628D01*
X119166666Y-64978628D02*
X118785714Y-64978628D01*
X120309523Y-65454819D02*
X119738095Y-65454819D01*
X120023809Y-65454819D02*
X120023809Y-64454819D01*
X120023809Y-64454819D02*
X119928571Y-64597676D01*
X119928571Y-64597676D02*
X119833333Y-64692914D01*
X119833333Y-64692914D02*
X119738095Y-64740533D01*
X121166666Y-64788152D02*
X121166666Y-65454819D01*
X120928571Y-64407200D02*
X120690476Y-65121485D01*
X120690476Y-65121485D02*
X121309523Y-65121485D01*
X141957142Y-102904819D02*
X141623809Y-102428628D01*
X141385714Y-102904819D02*
X141385714Y-101904819D01*
X141385714Y-101904819D02*
X141766666Y-101904819D01*
X141766666Y-101904819D02*
X141861904Y-101952438D01*
X141861904Y-101952438D02*
X141909523Y-102000057D01*
X141909523Y-102000057D02*
X141957142Y-102095295D01*
X141957142Y-102095295D02*
X141957142Y-102238152D01*
X141957142Y-102238152D02*
X141909523Y-102333390D01*
X141909523Y-102333390D02*
X141861904Y-102381009D01*
X141861904Y-102381009D02*
X141766666Y-102428628D01*
X141766666Y-102428628D02*
X141385714Y-102428628D01*
X142909523Y-102904819D02*
X142338095Y-102904819D01*
X142623809Y-102904819D02*
X142623809Y-101904819D01*
X142623809Y-101904819D02*
X142528571Y-102047676D01*
X142528571Y-102047676D02*
X142433333Y-102142914D01*
X142433333Y-102142914D02*
X142338095Y-102190533D01*
X143766666Y-101904819D02*
X143576190Y-101904819D01*
X143576190Y-101904819D02*
X143480952Y-101952438D01*
X143480952Y-101952438D02*
X143433333Y-102000057D01*
X143433333Y-102000057D02*
X143338095Y-102142914D01*
X143338095Y-102142914D02*
X143290476Y-102333390D01*
X143290476Y-102333390D02*
X143290476Y-102714342D01*
X143290476Y-102714342D02*
X143338095Y-102809580D01*
X143338095Y-102809580D02*
X143385714Y-102857200D01*
X143385714Y-102857200D02*
X143480952Y-102904819D01*
X143480952Y-102904819D02*
X143671428Y-102904819D01*
X143671428Y-102904819D02*
X143766666Y-102857200D01*
X143766666Y-102857200D02*
X143814285Y-102809580D01*
X143814285Y-102809580D02*
X143861904Y-102714342D01*
X143861904Y-102714342D02*
X143861904Y-102476247D01*
X143861904Y-102476247D02*
X143814285Y-102381009D01*
X143814285Y-102381009D02*
X143766666Y-102333390D01*
X143766666Y-102333390D02*
X143671428Y-102285771D01*
X143671428Y-102285771D02*
X143480952Y-102285771D01*
X143480952Y-102285771D02*
X143385714Y-102333390D01*
X143385714Y-102333390D02*
X143338095Y-102381009D01*
X143338095Y-102381009D02*
X143290476Y-102476247D01*
X92038095Y-69754819D02*
X92038095Y-68754819D01*
X92038095Y-69231009D02*
X92609523Y-69231009D01*
X92609523Y-69754819D02*
X92609523Y-68754819D01*
X93038095Y-68850057D02*
X93085714Y-68802438D01*
X93085714Y-68802438D02*
X93180952Y-68754819D01*
X93180952Y-68754819D02*
X93419047Y-68754819D01*
X93419047Y-68754819D02*
X93514285Y-68802438D01*
X93514285Y-68802438D02*
X93561904Y-68850057D01*
X93561904Y-68850057D02*
X93609523Y-68945295D01*
X93609523Y-68945295D02*
X93609523Y-69040533D01*
X93609523Y-69040533D02*
X93561904Y-69183390D01*
X93561904Y-69183390D02*
X92990476Y-69754819D01*
X92990476Y-69754819D02*
X93609523Y-69754819D01*
X129511905Y-127354819D02*
X129511905Y-126354819D01*
X129511905Y-126354819D02*
X129750000Y-126354819D01*
X129750000Y-126354819D02*
X129892857Y-126402438D01*
X129892857Y-126402438D02*
X129988095Y-126497676D01*
X129988095Y-126497676D02*
X130035714Y-126592914D01*
X130035714Y-126592914D02*
X130083333Y-126783390D01*
X130083333Y-126783390D02*
X130083333Y-126926247D01*
X130083333Y-126926247D02*
X130035714Y-127116723D01*
X130035714Y-127116723D02*
X129988095Y-127211961D01*
X129988095Y-127211961D02*
X129892857Y-127307200D01*
X129892857Y-127307200D02*
X129750000Y-127354819D01*
X129750000Y-127354819D02*
X129511905Y-127354819D01*
X130940476Y-126688152D02*
X130940476Y-127354819D01*
X130702381Y-126307200D02*
X130464286Y-127021485D01*
X130464286Y-127021485D02*
X131083333Y-127021485D01*
X130233333Y-134859580D02*
X130185714Y-134907200D01*
X130185714Y-134907200D02*
X130042857Y-134954819D01*
X130042857Y-134954819D02*
X129947619Y-134954819D01*
X129947619Y-134954819D02*
X129804762Y-134907200D01*
X129804762Y-134907200D02*
X129709524Y-134811961D01*
X129709524Y-134811961D02*
X129661905Y-134716723D01*
X129661905Y-134716723D02*
X129614286Y-134526247D01*
X129614286Y-134526247D02*
X129614286Y-134383390D01*
X129614286Y-134383390D02*
X129661905Y-134192914D01*
X129661905Y-134192914D02*
X129709524Y-134097676D01*
X129709524Y-134097676D02*
X129804762Y-134002438D01*
X129804762Y-134002438D02*
X129947619Y-133954819D01*
X129947619Y-133954819D02*
X130042857Y-133954819D01*
X130042857Y-133954819D02*
X130185714Y-134002438D01*
X130185714Y-134002438D02*
X130233333Y-134050057D01*
X130804762Y-134383390D02*
X130709524Y-134335771D01*
X130709524Y-134335771D02*
X130661905Y-134288152D01*
X130661905Y-134288152D02*
X130614286Y-134192914D01*
X130614286Y-134192914D02*
X130614286Y-134145295D01*
X130614286Y-134145295D02*
X130661905Y-134050057D01*
X130661905Y-134050057D02*
X130709524Y-134002438D01*
X130709524Y-134002438D02*
X130804762Y-133954819D01*
X130804762Y-133954819D02*
X130995238Y-133954819D01*
X130995238Y-133954819D02*
X131090476Y-134002438D01*
X131090476Y-134002438D02*
X131138095Y-134050057D01*
X131138095Y-134050057D02*
X131185714Y-134145295D01*
X131185714Y-134145295D02*
X131185714Y-134192914D01*
X131185714Y-134192914D02*
X131138095Y-134288152D01*
X131138095Y-134288152D02*
X131090476Y-134335771D01*
X131090476Y-134335771D02*
X130995238Y-134383390D01*
X130995238Y-134383390D02*
X130804762Y-134383390D01*
X130804762Y-134383390D02*
X130709524Y-134431009D01*
X130709524Y-134431009D02*
X130661905Y-134478628D01*
X130661905Y-134478628D02*
X130614286Y-134573866D01*
X130614286Y-134573866D02*
X130614286Y-134764342D01*
X130614286Y-134764342D02*
X130661905Y-134859580D01*
X130661905Y-134859580D02*
X130709524Y-134907200D01*
X130709524Y-134907200D02*
X130804762Y-134954819D01*
X130804762Y-134954819D02*
X130995238Y-134954819D01*
X130995238Y-134954819D02*
X131090476Y-134907200D01*
X131090476Y-134907200D02*
X131138095Y-134859580D01*
X131138095Y-134859580D02*
X131185714Y-134764342D01*
X131185714Y-134764342D02*
X131185714Y-134573866D01*
X131185714Y-134573866D02*
X131138095Y-134478628D01*
X131138095Y-134478628D02*
X131090476Y-134431009D01*
X131090476Y-134431009D02*
X130995238Y-134383390D01*
X99354819Y-90642857D02*
X98878628Y-90976190D01*
X99354819Y-91214285D02*
X98354819Y-91214285D01*
X98354819Y-91214285D02*
X98354819Y-90833333D01*
X98354819Y-90833333D02*
X98402438Y-90738095D01*
X98402438Y-90738095D02*
X98450057Y-90690476D01*
X98450057Y-90690476D02*
X98545295Y-90642857D01*
X98545295Y-90642857D02*
X98688152Y-90642857D01*
X98688152Y-90642857D02*
X98783390Y-90690476D01*
X98783390Y-90690476D02*
X98831009Y-90738095D01*
X98831009Y-90738095D02*
X98878628Y-90833333D01*
X98878628Y-90833333D02*
X98878628Y-91214285D01*
X99354819Y-89690476D02*
X99354819Y-90261904D01*
X99354819Y-89976190D02*
X98354819Y-89976190D01*
X98354819Y-89976190D02*
X98497676Y-90071428D01*
X98497676Y-90071428D02*
X98592914Y-90166666D01*
X98592914Y-90166666D02*
X98640533Y-90261904D01*
X98354819Y-89071428D02*
X98354819Y-88976190D01*
X98354819Y-88976190D02*
X98402438Y-88880952D01*
X98402438Y-88880952D02*
X98450057Y-88833333D01*
X98450057Y-88833333D02*
X98545295Y-88785714D01*
X98545295Y-88785714D02*
X98735771Y-88738095D01*
X98735771Y-88738095D02*
X98973866Y-88738095D01*
X98973866Y-88738095D02*
X99164342Y-88785714D01*
X99164342Y-88785714D02*
X99259580Y-88833333D01*
X99259580Y-88833333D02*
X99307200Y-88880952D01*
X99307200Y-88880952D02*
X99354819Y-88976190D01*
X99354819Y-88976190D02*
X99354819Y-89071428D01*
X99354819Y-89071428D02*
X99307200Y-89166666D01*
X99307200Y-89166666D02*
X99259580Y-89214285D01*
X99259580Y-89214285D02*
X99164342Y-89261904D01*
X99164342Y-89261904D02*
X98973866Y-89309523D01*
X98973866Y-89309523D02*
X98735771Y-89309523D01*
X98735771Y-89309523D02*
X98545295Y-89261904D01*
X98545295Y-89261904D02*
X98450057Y-89214285D01*
X98450057Y-89214285D02*
X98402438Y-89166666D01*
X98402438Y-89166666D02*
X98354819Y-89071428D01*
X104433333Y-116839580D02*
X104385714Y-116887200D01*
X104385714Y-116887200D02*
X104242857Y-116934819D01*
X104242857Y-116934819D02*
X104147619Y-116934819D01*
X104147619Y-116934819D02*
X104004762Y-116887200D01*
X104004762Y-116887200D02*
X103909524Y-116791961D01*
X103909524Y-116791961D02*
X103861905Y-116696723D01*
X103861905Y-116696723D02*
X103814286Y-116506247D01*
X103814286Y-116506247D02*
X103814286Y-116363390D01*
X103814286Y-116363390D02*
X103861905Y-116172914D01*
X103861905Y-116172914D02*
X103909524Y-116077676D01*
X103909524Y-116077676D02*
X104004762Y-115982438D01*
X104004762Y-115982438D02*
X104147619Y-115934819D01*
X104147619Y-115934819D02*
X104242857Y-115934819D01*
X104242857Y-115934819D02*
X104385714Y-115982438D01*
X104385714Y-115982438D02*
X104433333Y-116030057D01*
X104909524Y-116934819D02*
X105100000Y-116934819D01*
X105100000Y-116934819D02*
X105195238Y-116887200D01*
X105195238Y-116887200D02*
X105242857Y-116839580D01*
X105242857Y-116839580D02*
X105338095Y-116696723D01*
X105338095Y-116696723D02*
X105385714Y-116506247D01*
X105385714Y-116506247D02*
X105385714Y-116125295D01*
X105385714Y-116125295D02*
X105338095Y-116030057D01*
X105338095Y-116030057D02*
X105290476Y-115982438D01*
X105290476Y-115982438D02*
X105195238Y-115934819D01*
X105195238Y-115934819D02*
X105004762Y-115934819D01*
X105004762Y-115934819D02*
X104909524Y-115982438D01*
X104909524Y-115982438D02*
X104861905Y-116030057D01*
X104861905Y-116030057D02*
X104814286Y-116125295D01*
X104814286Y-116125295D02*
X104814286Y-116363390D01*
X104814286Y-116363390D02*
X104861905Y-116458628D01*
X104861905Y-116458628D02*
X104909524Y-116506247D01*
X104909524Y-116506247D02*
X105004762Y-116553866D01*
X105004762Y-116553866D02*
X105195238Y-116553866D01*
X105195238Y-116553866D02*
X105290476Y-116506247D01*
X105290476Y-116506247D02*
X105338095Y-116458628D01*
X105338095Y-116458628D02*
X105385714Y-116363390D01*
X92057142Y-139539580D02*
X92009523Y-139587200D01*
X92009523Y-139587200D02*
X91866666Y-139634819D01*
X91866666Y-139634819D02*
X91771428Y-139634819D01*
X91771428Y-139634819D02*
X91628571Y-139587200D01*
X91628571Y-139587200D02*
X91533333Y-139491961D01*
X91533333Y-139491961D02*
X91485714Y-139396723D01*
X91485714Y-139396723D02*
X91438095Y-139206247D01*
X91438095Y-139206247D02*
X91438095Y-139063390D01*
X91438095Y-139063390D02*
X91485714Y-138872914D01*
X91485714Y-138872914D02*
X91533333Y-138777676D01*
X91533333Y-138777676D02*
X91628571Y-138682438D01*
X91628571Y-138682438D02*
X91771428Y-138634819D01*
X91771428Y-138634819D02*
X91866666Y-138634819D01*
X91866666Y-138634819D02*
X92009523Y-138682438D01*
X92009523Y-138682438D02*
X92057142Y-138730057D01*
X92438095Y-138730057D02*
X92485714Y-138682438D01*
X92485714Y-138682438D02*
X92580952Y-138634819D01*
X92580952Y-138634819D02*
X92819047Y-138634819D01*
X92819047Y-138634819D02*
X92914285Y-138682438D01*
X92914285Y-138682438D02*
X92961904Y-138730057D01*
X92961904Y-138730057D02*
X93009523Y-138825295D01*
X93009523Y-138825295D02*
X93009523Y-138920533D01*
X93009523Y-138920533D02*
X92961904Y-139063390D01*
X92961904Y-139063390D02*
X92390476Y-139634819D01*
X92390476Y-139634819D02*
X93009523Y-139634819D01*
X93390476Y-138730057D02*
X93438095Y-138682438D01*
X93438095Y-138682438D02*
X93533333Y-138634819D01*
X93533333Y-138634819D02*
X93771428Y-138634819D01*
X93771428Y-138634819D02*
X93866666Y-138682438D01*
X93866666Y-138682438D02*
X93914285Y-138730057D01*
X93914285Y-138730057D02*
X93961904Y-138825295D01*
X93961904Y-138825295D02*
X93961904Y-138920533D01*
X93961904Y-138920533D02*
X93914285Y-139063390D01*
X93914285Y-139063390D02*
X93342857Y-139634819D01*
X93342857Y-139634819D02*
X93961904Y-139634819D01*
X97757142Y-136659580D02*
X97709523Y-136707200D01*
X97709523Y-136707200D02*
X97566666Y-136754819D01*
X97566666Y-136754819D02*
X97471428Y-136754819D01*
X97471428Y-136754819D02*
X97328571Y-136707200D01*
X97328571Y-136707200D02*
X97233333Y-136611961D01*
X97233333Y-136611961D02*
X97185714Y-136516723D01*
X97185714Y-136516723D02*
X97138095Y-136326247D01*
X97138095Y-136326247D02*
X97138095Y-136183390D01*
X97138095Y-136183390D02*
X97185714Y-135992914D01*
X97185714Y-135992914D02*
X97233333Y-135897676D01*
X97233333Y-135897676D02*
X97328571Y-135802438D01*
X97328571Y-135802438D02*
X97471428Y-135754819D01*
X97471428Y-135754819D02*
X97566666Y-135754819D01*
X97566666Y-135754819D02*
X97709523Y-135802438D01*
X97709523Y-135802438D02*
X97757142Y-135850057D01*
X98138095Y-135850057D02*
X98185714Y-135802438D01*
X98185714Y-135802438D02*
X98280952Y-135754819D01*
X98280952Y-135754819D02*
X98519047Y-135754819D01*
X98519047Y-135754819D02*
X98614285Y-135802438D01*
X98614285Y-135802438D02*
X98661904Y-135850057D01*
X98661904Y-135850057D02*
X98709523Y-135945295D01*
X98709523Y-135945295D02*
X98709523Y-136040533D01*
X98709523Y-136040533D02*
X98661904Y-136183390D01*
X98661904Y-136183390D02*
X98090476Y-136754819D01*
X98090476Y-136754819D02*
X98709523Y-136754819D01*
X99661904Y-136754819D02*
X99090476Y-136754819D01*
X99376190Y-136754819D02*
X99376190Y-135754819D01*
X99376190Y-135754819D02*
X99280952Y-135897676D01*
X99280952Y-135897676D02*
X99185714Y-135992914D01*
X99185714Y-135992914D02*
X99090476Y-136040533D01*
X91861905Y-63954819D02*
X91861905Y-62954819D01*
X91861905Y-62954819D02*
X92100000Y-62954819D01*
X92100000Y-62954819D02*
X92242857Y-63002438D01*
X92242857Y-63002438D02*
X92338095Y-63097676D01*
X92338095Y-63097676D02*
X92385714Y-63192914D01*
X92385714Y-63192914D02*
X92433333Y-63383390D01*
X92433333Y-63383390D02*
X92433333Y-63526247D01*
X92433333Y-63526247D02*
X92385714Y-63716723D01*
X92385714Y-63716723D02*
X92338095Y-63811961D01*
X92338095Y-63811961D02*
X92242857Y-63907200D01*
X92242857Y-63907200D02*
X92100000Y-63954819D01*
X92100000Y-63954819D02*
X91861905Y-63954819D01*
X92766667Y-62954819D02*
X93433333Y-62954819D01*
X93433333Y-62954819D02*
X93004762Y-63954819D01*
X143825033Y-99314019D02*
X143491700Y-98837828D01*
X143253605Y-99314019D02*
X143253605Y-98314019D01*
X143253605Y-98314019D02*
X143634557Y-98314019D01*
X143634557Y-98314019D02*
X143729795Y-98361638D01*
X143729795Y-98361638D02*
X143777414Y-98409257D01*
X143777414Y-98409257D02*
X143825033Y-98504495D01*
X143825033Y-98504495D02*
X143825033Y-98647352D01*
X143825033Y-98647352D02*
X143777414Y-98742590D01*
X143777414Y-98742590D02*
X143729795Y-98790209D01*
X143729795Y-98790209D02*
X143634557Y-98837828D01*
X143634557Y-98837828D02*
X143253605Y-98837828D01*
X144301224Y-99314019D02*
X144491700Y-99314019D01*
X144491700Y-99314019D02*
X144586938Y-99266400D01*
X144586938Y-99266400D02*
X144634557Y-99218780D01*
X144634557Y-99218780D02*
X144729795Y-99075923D01*
X144729795Y-99075923D02*
X144777414Y-98885447D01*
X144777414Y-98885447D02*
X144777414Y-98504495D01*
X144777414Y-98504495D02*
X144729795Y-98409257D01*
X144729795Y-98409257D02*
X144682176Y-98361638D01*
X144682176Y-98361638D02*
X144586938Y-98314019D01*
X144586938Y-98314019D02*
X144396462Y-98314019D01*
X144396462Y-98314019D02*
X144301224Y-98361638D01*
X144301224Y-98361638D02*
X144253605Y-98409257D01*
X144253605Y-98409257D02*
X144205986Y-98504495D01*
X144205986Y-98504495D02*
X144205986Y-98742590D01*
X144205986Y-98742590D02*
X144253605Y-98837828D01*
X144253605Y-98837828D02*
X144301224Y-98885447D01*
X144301224Y-98885447D02*
X144396462Y-98933066D01*
X144396462Y-98933066D02*
X144586938Y-98933066D01*
X144586938Y-98933066D02*
X144682176Y-98885447D01*
X144682176Y-98885447D02*
X144729795Y-98837828D01*
X144729795Y-98837828D02*
X144777414Y-98742590D01*
X100457142Y-139359580D02*
X100409523Y-139407200D01*
X100409523Y-139407200D02*
X100266666Y-139454819D01*
X100266666Y-139454819D02*
X100171428Y-139454819D01*
X100171428Y-139454819D02*
X100028571Y-139407200D01*
X100028571Y-139407200D02*
X99933333Y-139311961D01*
X99933333Y-139311961D02*
X99885714Y-139216723D01*
X99885714Y-139216723D02*
X99838095Y-139026247D01*
X99838095Y-139026247D02*
X99838095Y-138883390D01*
X99838095Y-138883390D02*
X99885714Y-138692914D01*
X99885714Y-138692914D02*
X99933333Y-138597676D01*
X99933333Y-138597676D02*
X100028571Y-138502438D01*
X100028571Y-138502438D02*
X100171428Y-138454819D01*
X100171428Y-138454819D02*
X100266666Y-138454819D01*
X100266666Y-138454819D02*
X100409523Y-138502438D01*
X100409523Y-138502438D02*
X100457142Y-138550057D01*
X100838095Y-138550057D02*
X100885714Y-138502438D01*
X100885714Y-138502438D02*
X100980952Y-138454819D01*
X100980952Y-138454819D02*
X101219047Y-138454819D01*
X101219047Y-138454819D02*
X101314285Y-138502438D01*
X101314285Y-138502438D02*
X101361904Y-138550057D01*
X101361904Y-138550057D02*
X101409523Y-138645295D01*
X101409523Y-138645295D02*
X101409523Y-138740533D01*
X101409523Y-138740533D02*
X101361904Y-138883390D01*
X101361904Y-138883390D02*
X100790476Y-139454819D01*
X100790476Y-139454819D02*
X101409523Y-139454819D01*
X102266666Y-138788152D02*
X102266666Y-139454819D01*
X102028571Y-138407200D02*
X101790476Y-139121485D01*
X101790476Y-139121485D02*
X102409523Y-139121485D01*
X131333333Y-142954819D02*
X131000000Y-142478628D01*
X130761905Y-142954819D02*
X130761905Y-141954819D01*
X130761905Y-141954819D02*
X131142857Y-141954819D01*
X131142857Y-141954819D02*
X131238095Y-142002438D01*
X131238095Y-142002438D02*
X131285714Y-142050057D01*
X131285714Y-142050057D02*
X131333333Y-142145295D01*
X131333333Y-142145295D02*
X131333333Y-142288152D01*
X131333333Y-142288152D02*
X131285714Y-142383390D01*
X131285714Y-142383390D02*
X131238095Y-142431009D01*
X131238095Y-142431009D02*
X131142857Y-142478628D01*
X131142857Y-142478628D02*
X130761905Y-142478628D01*
X132190476Y-142288152D02*
X132190476Y-142954819D01*
X131952381Y-141907200D02*
X131714286Y-142621485D01*
X131714286Y-142621485D02*
X132333333Y-142621485D01*
D11*
X116551442Y-130831705D02*
X116551442Y-131465012D01*
X116551442Y-131465012D02*
X116588696Y-131539518D01*
X116588696Y-131539518D02*
X116625949Y-131576772D01*
X116625949Y-131576772D02*
X116700456Y-131614025D01*
X116700456Y-131614025D02*
X116849469Y-131614025D01*
X116849469Y-131614025D02*
X116923976Y-131576772D01*
X116923976Y-131576772D02*
X116961229Y-131539518D01*
X116961229Y-131539518D02*
X116998482Y-131465012D01*
X116998482Y-131465012D02*
X116998482Y-130831705D01*
X117780802Y-131614025D02*
X117333762Y-131614025D01*
X117557282Y-131614025D02*
X117557282Y-130831705D01*
X117557282Y-130831705D02*
X117482775Y-130943465D01*
X117482775Y-130943465D02*
X117408269Y-131017972D01*
X117408269Y-131017972D02*
X117333762Y-131055225D01*
D10*
X98957142Y-73154819D02*
X98623809Y-72678628D01*
X98385714Y-73154819D02*
X98385714Y-72154819D01*
X98385714Y-72154819D02*
X98766666Y-72154819D01*
X98766666Y-72154819D02*
X98861904Y-72202438D01*
X98861904Y-72202438D02*
X98909523Y-72250057D01*
X98909523Y-72250057D02*
X98957142Y-72345295D01*
X98957142Y-72345295D02*
X98957142Y-72488152D01*
X98957142Y-72488152D02*
X98909523Y-72583390D01*
X98909523Y-72583390D02*
X98861904Y-72631009D01*
X98861904Y-72631009D02*
X98766666Y-72678628D01*
X98766666Y-72678628D02*
X98385714Y-72678628D01*
X99909523Y-73154819D02*
X99338095Y-73154819D01*
X99623809Y-73154819D02*
X99623809Y-72154819D01*
X99623809Y-72154819D02*
X99528571Y-72297676D01*
X99528571Y-72297676D02*
X99433333Y-72392914D01*
X99433333Y-72392914D02*
X99338095Y-72440533D01*
X100242857Y-72154819D02*
X100861904Y-72154819D01*
X100861904Y-72154819D02*
X100528571Y-72535771D01*
X100528571Y-72535771D02*
X100671428Y-72535771D01*
X100671428Y-72535771D02*
X100766666Y-72583390D01*
X100766666Y-72583390D02*
X100814285Y-72631009D01*
X100814285Y-72631009D02*
X100861904Y-72726247D01*
X100861904Y-72726247D02*
X100861904Y-72964342D01*
X100861904Y-72964342D02*
X100814285Y-73059580D01*
X100814285Y-73059580D02*
X100766666Y-73107200D01*
X100766666Y-73107200D02*
X100671428Y-73154819D01*
X100671428Y-73154819D02*
X100385714Y-73154819D01*
X100385714Y-73154819D02*
X100290476Y-73107200D01*
X100290476Y-73107200D02*
X100242857Y-73059580D01*
X102257142Y-136959580D02*
X102209523Y-137007200D01*
X102209523Y-137007200D02*
X102066666Y-137054819D01*
X102066666Y-137054819D02*
X101971428Y-137054819D01*
X101971428Y-137054819D02*
X101828571Y-137007200D01*
X101828571Y-137007200D02*
X101733333Y-136911961D01*
X101733333Y-136911961D02*
X101685714Y-136816723D01*
X101685714Y-136816723D02*
X101638095Y-136626247D01*
X101638095Y-136626247D02*
X101638095Y-136483390D01*
X101638095Y-136483390D02*
X101685714Y-136292914D01*
X101685714Y-136292914D02*
X101733333Y-136197676D01*
X101733333Y-136197676D02*
X101828571Y-136102438D01*
X101828571Y-136102438D02*
X101971428Y-136054819D01*
X101971428Y-136054819D02*
X102066666Y-136054819D01*
X102066666Y-136054819D02*
X102209523Y-136102438D01*
X102209523Y-136102438D02*
X102257142Y-136150057D01*
X102638095Y-136150057D02*
X102685714Y-136102438D01*
X102685714Y-136102438D02*
X102780952Y-136054819D01*
X102780952Y-136054819D02*
X103019047Y-136054819D01*
X103019047Y-136054819D02*
X103114285Y-136102438D01*
X103114285Y-136102438D02*
X103161904Y-136150057D01*
X103161904Y-136150057D02*
X103209523Y-136245295D01*
X103209523Y-136245295D02*
X103209523Y-136340533D01*
X103209523Y-136340533D02*
X103161904Y-136483390D01*
X103161904Y-136483390D02*
X102590476Y-137054819D01*
X102590476Y-137054819D02*
X103209523Y-137054819D01*
X103542857Y-136054819D02*
X104161904Y-136054819D01*
X104161904Y-136054819D02*
X103828571Y-136435771D01*
X103828571Y-136435771D02*
X103971428Y-136435771D01*
X103971428Y-136435771D02*
X104066666Y-136483390D01*
X104066666Y-136483390D02*
X104114285Y-136531009D01*
X104114285Y-136531009D02*
X104161904Y-136626247D01*
X104161904Y-136626247D02*
X104161904Y-136864342D01*
X104161904Y-136864342D02*
X104114285Y-136959580D01*
X104114285Y-136959580D02*
X104066666Y-137007200D01*
X104066666Y-137007200D02*
X103971428Y-137054819D01*
X103971428Y-137054819D02*
X103685714Y-137054819D01*
X103685714Y-137054819D02*
X103590476Y-137007200D01*
X103590476Y-137007200D02*
X103542857Y-136959580D01*
X99942261Y-100100057D02*
X99847023Y-100052438D01*
X99847023Y-100052438D02*
X99751785Y-99957200D01*
X99751785Y-99957200D02*
X99608928Y-99814342D01*
X99608928Y-99814342D02*
X99513690Y-99766723D01*
X99513690Y-99766723D02*
X99418452Y-99766723D01*
X99466071Y-100004819D02*
X99370833Y-99957200D01*
X99370833Y-99957200D02*
X99275595Y-99861961D01*
X99275595Y-99861961D02*
X99227976Y-99671485D01*
X99227976Y-99671485D02*
X99227976Y-99338152D01*
X99227976Y-99338152D02*
X99275595Y-99147676D01*
X99275595Y-99147676D02*
X99370833Y-99052438D01*
X99370833Y-99052438D02*
X99466071Y-99004819D01*
X99466071Y-99004819D02*
X99656547Y-99004819D01*
X99656547Y-99004819D02*
X99751785Y-99052438D01*
X99751785Y-99052438D02*
X99847023Y-99147676D01*
X99847023Y-99147676D02*
X99894642Y-99338152D01*
X99894642Y-99338152D02*
X99894642Y-99671485D01*
X99894642Y-99671485D02*
X99847023Y-99861961D01*
X99847023Y-99861961D02*
X99751785Y-99957200D01*
X99751785Y-99957200D02*
X99656547Y-100004819D01*
X99656547Y-100004819D02*
X99466071Y-100004819D01*
X100847023Y-100004819D02*
X100275595Y-100004819D01*
X100561309Y-100004819D02*
X100561309Y-99004819D01*
X100561309Y-99004819D02*
X100466071Y-99147676D01*
X100466071Y-99147676D02*
X100370833Y-99242914D01*
X100370833Y-99242914D02*
X100275595Y-99290533D01*
X111859580Y-113572857D02*
X111907200Y-113620476D01*
X111907200Y-113620476D02*
X111954819Y-113763333D01*
X111954819Y-113763333D02*
X111954819Y-113858571D01*
X111954819Y-113858571D02*
X111907200Y-114001428D01*
X111907200Y-114001428D02*
X111811961Y-114096666D01*
X111811961Y-114096666D02*
X111716723Y-114144285D01*
X111716723Y-114144285D02*
X111526247Y-114191904D01*
X111526247Y-114191904D02*
X111383390Y-114191904D01*
X111383390Y-114191904D02*
X111192914Y-114144285D01*
X111192914Y-114144285D02*
X111097676Y-114096666D01*
X111097676Y-114096666D02*
X111002438Y-114001428D01*
X111002438Y-114001428D02*
X110954819Y-113858571D01*
X110954819Y-113858571D02*
X110954819Y-113763333D01*
X110954819Y-113763333D02*
X111002438Y-113620476D01*
X111002438Y-113620476D02*
X111050057Y-113572857D01*
X111954819Y-112620476D02*
X111954819Y-113191904D01*
X111954819Y-112906190D02*
X110954819Y-112906190D01*
X110954819Y-112906190D02*
X111097676Y-113001428D01*
X111097676Y-113001428D02*
X111192914Y-113096666D01*
X111192914Y-113096666D02*
X111240533Y-113191904D01*
X111050057Y-112239523D02*
X111002438Y-112191904D01*
X111002438Y-112191904D02*
X110954819Y-112096666D01*
X110954819Y-112096666D02*
X110954819Y-111858571D01*
X110954819Y-111858571D02*
X111002438Y-111763333D01*
X111002438Y-111763333D02*
X111050057Y-111715714D01*
X111050057Y-111715714D02*
X111145295Y-111668095D01*
X111145295Y-111668095D02*
X111240533Y-111668095D01*
X111240533Y-111668095D02*
X111383390Y-111715714D01*
X111383390Y-111715714D02*
X111954819Y-112287142D01*
X111954819Y-112287142D02*
X111954819Y-111668095D01*
X100333333Y-61354819D02*
X100000000Y-60878628D01*
X99761905Y-61354819D02*
X99761905Y-60354819D01*
X99761905Y-60354819D02*
X100142857Y-60354819D01*
X100142857Y-60354819D02*
X100238095Y-60402438D01*
X100238095Y-60402438D02*
X100285714Y-60450057D01*
X100285714Y-60450057D02*
X100333333Y-60545295D01*
X100333333Y-60545295D02*
X100333333Y-60688152D01*
X100333333Y-60688152D02*
X100285714Y-60783390D01*
X100285714Y-60783390D02*
X100238095Y-60831009D01*
X100238095Y-60831009D02*
X100142857Y-60878628D01*
X100142857Y-60878628D02*
X99761905Y-60878628D01*
X100904762Y-60783390D02*
X100809524Y-60735771D01*
X100809524Y-60735771D02*
X100761905Y-60688152D01*
X100761905Y-60688152D02*
X100714286Y-60592914D01*
X100714286Y-60592914D02*
X100714286Y-60545295D01*
X100714286Y-60545295D02*
X100761905Y-60450057D01*
X100761905Y-60450057D02*
X100809524Y-60402438D01*
X100809524Y-60402438D02*
X100904762Y-60354819D01*
X100904762Y-60354819D02*
X101095238Y-60354819D01*
X101095238Y-60354819D02*
X101190476Y-60402438D01*
X101190476Y-60402438D02*
X101238095Y-60450057D01*
X101238095Y-60450057D02*
X101285714Y-60545295D01*
X101285714Y-60545295D02*
X101285714Y-60592914D01*
X101285714Y-60592914D02*
X101238095Y-60688152D01*
X101238095Y-60688152D02*
X101190476Y-60735771D01*
X101190476Y-60735771D02*
X101095238Y-60783390D01*
X101095238Y-60783390D02*
X100904762Y-60783390D01*
X100904762Y-60783390D02*
X100809524Y-60831009D01*
X100809524Y-60831009D02*
X100761905Y-60878628D01*
X100761905Y-60878628D02*
X100714286Y-60973866D01*
X100714286Y-60973866D02*
X100714286Y-61164342D01*
X100714286Y-61164342D02*
X100761905Y-61259580D01*
X100761905Y-61259580D02*
X100809524Y-61307200D01*
X100809524Y-61307200D02*
X100904762Y-61354819D01*
X100904762Y-61354819D02*
X101095238Y-61354819D01*
X101095238Y-61354819D02*
X101190476Y-61307200D01*
X101190476Y-61307200D02*
X101238095Y-61259580D01*
X101238095Y-61259580D02*
X101285714Y-61164342D01*
X101285714Y-61164342D02*
X101285714Y-60973866D01*
X101285714Y-60973866D02*
X101238095Y-60878628D01*
X101238095Y-60878628D02*
X101190476Y-60831009D01*
X101190476Y-60831009D02*
X101095238Y-60783390D01*
X99637557Y-107770238D02*
X99589938Y-107865476D01*
X99589938Y-107865476D02*
X99494700Y-107960714D01*
X99494700Y-107960714D02*
X99351842Y-108103571D01*
X99351842Y-108103571D02*
X99304223Y-108198809D01*
X99304223Y-108198809D02*
X99304223Y-108294047D01*
X99542319Y-108246428D02*
X99494700Y-108341666D01*
X99494700Y-108341666D02*
X99399461Y-108436904D01*
X99399461Y-108436904D02*
X99208985Y-108484523D01*
X99208985Y-108484523D02*
X98875652Y-108484523D01*
X98875652Y-108484523D02*
X98685176Y-108436904D01*
X98685176Y-108436904D02*
X98589938Y-108341666D01*
X98589938Y-108341666D02*
X98542319Y-108246428D01*
X98542319Y-108246428D02*
X98542319Y-108055952D01*
X98542319Y-108055952D02*
X98589938Y-107960714D01*
X98589938Y-107960714D02*
X98685176Y-107865476D01*
X98685176Y-107865476D02*
X98875652Y-107817857D01*
X98875652Y-107817857D02*
X99208985Y-107817857D01*
X99208985Y-107817857D02*
X99399461Y-107865476D01*
X99399461Y-107865476D02*
X99494700Y-107960714D01*
X99494700Y-107960714D02*
X99542319Y-108055952D01*
X99542319Y-108055952D02*
X99542319Y-108246428D01*
X98875652Y-106960714D02*
X99542319Y-106960714D01*
X98494700Y-107198809D02*
X99208985Y-107436904D01*
X99208985Y-107436904D02*
X99208985Y-106817857D01*
X141038095Y-149104819D02*
X141038095Y-148104819D01*
X141038095Y-148581009D02*
X141609523Y-148581009D01*
X141609523Y-149104819D02*
X141609523Y-148104819D01*
X142514285Y-148438152D02*
X142514285Y-149104819D01*
X142276190Y-148057200D02*
X142038095Y-148771485D01*
X142038095Y-148771485D02*
X142657142Y-148771485D01*
X111457142Y-108059580D02*
X111409523Y-108107200D01*
X111409523Y-108107200D02*
X111266666Y-108154819D01*
X111266666Y-108154819D02*
X111171428Y-108154819D01*
X111171428Y-108154819D02*
X111028571Y-108107200D01*
X111028571Y-108107200D02*
X110933333Y-108011961D01*
X110933333Y-108011961D02*
X110885714Y-107916723D01*
X110885714Y-107916723D02*
X110838095Y-107726247D01*
X110838095Y-107726247D02*
X110838095Y-107583390D01*
X110838095Y-107583390D02*
X110885714Y-107392914D01*
X110885714Y-107392914D02*
X110933333Y-107297676D01*
X110933333Y-107297676D02*
X111028571Y-107202438D01*
X111028571Y-107202438D02*
X111171428Y-107154819D01*
X111171428Y-107154819D02*
X111266666Y-107154819D01*
X111266666Y-107154819D02*
X111409523Y-107202438D01*
X111409523Y-107202438D02*
X111457142Y-107250057D01*
X112409523Y-108154819D02*
X111838095Y-108154819D01*
X112123809Y-108154819D02*
X112123809Y-107154819D01*
X112123809Y-107154819D02*
X112028571Y-107297676D01*
X112028571Y-107297676D02*
X111933333Y-107392914D01*
X111933333Y-107392914D02*
X111838095Y-107440533D01*
X112742857Y-107154819D02*
X113361904Y-107154819D01*
X113361904Y-107154819D02*
X113028571Y-107535771D01*
X113028571Y-107535771D02*
X113171428Y-107535771D01*
X113171428Y-107535771D02*
X113266666Y-107583390D01*
X113266666Y-107583390D02*
X113314285Y-107631009D01*
X113314285Y-107631009D02*
X113361904Y-107726247D01*
X113361904Y-107726247D02*
X113361904Y-107964342D01*
X113361904Y-107964342D02*
X113314285Y-108059580D01*
X113314285Y-108059580D02*
X113266666Y-108107200D01*
X113266666Y-108107200D02*
X113171428Y-108154819D01*
X113171428Y-108154819D02*
X112885714Y-108154819D01*
X112885714Y-108154819D02*
X112790476Y-108107200D01*
X112790476Y-108107200D02*
X112742857Y-108059580D01*
X99637557Y-111120238D02*
X99589938Y-111215476D01*
X99589938Y-111215476D02*
X99494700Y-111310714D01*
X99494700Y-111310714D02*
X99351842Y-111453571D01*
X99351842Y-111453571D02*
X99304223Y-111548809D01*
X99304223Y-111548809D02*
X99304223Y-111644047D01*
X99542319Y-111596428D02*
X99494700Y-111691666D01*
X99494700Y-111691666D02*
X99399461Y-111786904D01*
X99399461Y-111786904D02*
X99208985Y-111834523D01*
X99208985Y-111834523D02*
X98875652Y-111834523D01*
X98875652Y-111834523D02*
X98685176Y-111786904D01*
X98685176Y-111786904D02*
X98589938Y-111691666D01*
X98589938Y-111691666D02*
X98542319Y-111596428D01*
X98542319Y-111596428D02*
X98542319Y-111405952D01*
X98542319Y-111405952D02*
X98589938Y-111310714D01*
X98589938Y-111310714D02*
X98685176Y-111215476D01*
X98685176Y-111215476D02*
X98875652Y-111167857D01*
X98875652Y-111167857D02*
X99208985Y-111167857D01*
X99208985Y-111167857D02*
X99399461Y-111215476D01*
X99399461Y-111215476D02*
X99494700Y-111310714D01*
X99494700Y-111310714D02*
X99542319Y-111405952D01*
X99542319Y-111405952D02*
X99542319Y-111596428D01*
X98542319Y-110834523D02*
X98542319Y-110215476D01*
X98542319Y-110215476D02*
X98923271Y-110548809D01*
X98923271Y-110548809D02*
X98923271Y-110405952D01*
X98923271Y-110405952D02*
X98970890Y-110310714D01*
X98970890Y-110310714D02*
X99018509Y-110263095D01*
X99018509Y-110263095D02*
X99113747Y-110215476D01*
X99113747Y-110215476D02*
X99351842Y-110215476D01*
X99351842Y-110215476D02*
X99447080Y-110263095D01*
X99447080Y-110263095D02*
X99494700Y-110310714D01*
X99494700Y-110310714D02*
X99542319Y-110405952D01*
X99542319Y-110405952D02*
X99542319Y-110691666D01*
X99542319Y-110691666D02*
X99494700Y-110786904D01*
X99494700Y-110786904D02*
X99447080Y-110834523D01*
X91166666Y-79304819D02*
X91166666Y-80019104D01*
X91166666Y-80019104D02*
X91119047Y-80161961D01*
X91119047Y-80161961D02*
X91023809Y-80257200D01*
X91023809Y-80257200D02*
X90880952Y-80304819D01*
X90880952Y-80304819D02*
X90785714Y-80304819D01*
X91642857Y-80304819D02*
X91642857Y-79304819D01*
X91642857Y-79304819D02*
X92023809Y-79304819D01*
X92023809Y-79304819D02*
X92119047Y-79352438D01*
X92119047Y-79352438D02*
X92166666Y-79400057D01*
X92166666Y-79400057D02*
X92214285Y-79495295D01*
X92214285Y-79495295D02*
X92214285Y-79638152D01*
X92214285Y-79638152D02*
X92166666Y-79733390D01*
X92166666Y-79733390D02*
X92119047Y-79781009D01*
X92119047Y-79781009D02*
X92023809Y-79828628D01*
X92023809Y-79828628D02*
X91642857Y-79828628D01*
X93166666Y-80304819D02*
X92595238Y-80304819D01*
X92880952Y-80304819D02*
X92880952Y-79304819D01*
X92880952Y-79304819D02*
X92785714Y-79447676D01*
X92785714Y-79447676D02*
X92690476Y-79542914D01*
X92690476Y-79542914D02*
X92595238Y-79590533D01*
X109057142Y-110759580D02*
X109009523Y-110807200D01*
X109009523Y-110807200D02*
X108866666Y-110854819D01*
X108866666Y-110854819D02*
X108771428Y-110854819D01*
X108771428Y-110854819D02*
X108628571Y-110807200D01*
X108628571Y-110807200D02*
X108533333Y-110711961D01*
X108533333Y-110711961D02*
X108485714Y-110616723D01*
X108485714Y-110616723D02*
X108438095Y-110426247D01*
X108438095Y-110426247D02*
X108438095Y-110283390D01*
X108438095Y-110283390D02*
X108485714Y-110092914D01*
X108485714Y-110092914D02*
X108533333Y-109997676D01*
X108533333Y-109997676D02*
X108628571Y-109902438D01*
X108628571Y-109902438D02*
X108771428Y-109854819D01*
X108771428Y-109854819D02*
X108866666Y-109854819D01*
X108866666Y-109854819D02*
X109009523Y-109902438D01*
X109009523Y-109902438D02*
X109057142Y-109950057D01*
X110009523Y-110854819D02*
X109438095Y-110854819D01*
X109723809Y-110854819D02*
X109723809Y-109854819D01*
X109723809Y-109854819D02*
X109628571Y-109997676D01*
X109628571Y-109997676D02*
X109533333Y-110092914D01*
X109533333Y-110092914D02*
X109438095Y-110140533D01*
X110914285Y-109854819D02*
X110438095Y-109854819D01*
X110438095Y-109854819D02*
X110390476Y-110331009D01*
X110390476Y-110331009D02*
X110438095Y-110283390D01*
X110438095Y-110283390D02*
X110533333Y-110235771D01*
X110533333Y-110235771D02*
X110771428Y-110235771D01*
X110771428Y-110235771D02*
X110866666Y-110283390D01*
X110866666Y-110283390D02*
X110914285Y-110331009D01*
X110914285Y-110331009D02*
X110961904Y-110426247D01*
X110961904Y-110426247D02*
X110961904Y-110664342D01*
X110961904Y-110664342D02*
X110914285Y-110759580D01*
X110914285Y-110759580D02*
X110866666Y-110807200D01*
X110866666Y-110807200D02*
X110771428Y-110854819D01*
X110771428Y-110854819D02*
X110533333Y-110854819D01*
X110533333Y-110854819D02*
X110438095Y-110807200D01*
X110438095Y-110807200D02*
X110390476Y-110759580D01*
X129967142Y-149554819D02*
X129633809Y-149078628D01*
X129395714Y-149554819D02*
X129395714Y-148554819D01*
X129395714Y-148554819D02*
X129776666Y-148554819D01*
X129776666Y-148554819D02*
X129871904Y-148602438D01*
X129871904Y-148602438D02*
X129919523Y-148650057D01*
X129919523Y-148650057D02*
X129967142Y-148745295D01*
X129967142Y-148745295D02*
X129967142Y-148888152D01*
X129967142Y-148888152D02*
X129919523Y-148983390D01*
X129919523Y-148983390D02*
X129871904Y-149031009D01*
X129871904Y-149031009D02*
X129776666Y-149078628D01*
X129776666Y-149078628D02*
X129395714Y-149078628D01*
X130348095Y-148650057D02*
X130395714Y-148602438D01*
X130395714Y-148602438D02*
X130490952Y-148554819D01*
X130490952Y-148554819D02*
X130729047Y-148554819D01*
X130729047Y-148554819D02*
X130824285Y-148602438D01*
X130824285Y-148602438D02*
X130871904Y-148650057D01*
X130871904Y-148650057D02*
X130919523Y-148745295D01*
X130919523Y-148745295D02*
X130919523Y-148840533D01*
X130919523Y-148840533D02*
X130871904Y-148983390D01*
X130871904Y-148983390D02*
X130300476Y-149554819D01*
X130300476Y-149554819D02*
X130919523Y-149554819D01*
X131776666Y-148554819D02*
X131586190Y-148554819D01*
X131586190Y-148554819D02*
X131490952Y-148602438D01*
X131490952Y-148602438D02*
X131443333Y-148650057D01*
X131443333Y-148650057D02*
X131348095Y-148792914D01*
X131348095Y-148792914D02*
X131300476Y-148983390D01*
X131300476Y-148983390D02*
X131300476Y-149364342D01*
X131300476Y-149364342D02*
X131348095Y-149459580D01*
X131348095Y-149459580D02*
X131395714Y-149507200D01*
X131395714Y-149507200D02*
X131490952Y-149554819D01*
X131490952Y-149554819D02*
X131681428Y-149554819D01*
X131681428Y-149554819D02*
X131776666Y-149507200D01*
X131776666Y-149507200D02*
X131824285Y-149459580D01*
X131824285Y-149459580D02*
X131871904Y-149364342D01*
X131871904Y-149364342D02*
X131871904Y-149126247D01*
X131871904Y-149126247D02*
X131824285Y-149031009D01*
X131824285Y-149031009D02*
X131776666Y-148983390D01*
X131776666Y-148983390D02*
X131681428Y-148935771D01*
X131681428Y-148935771D02*
X131490952Y-148935771D01*
X131490952Y-148935771D02*
X131395714Y-148983390D01*
X131395714Y-148983390D02*
X131348095Y-149031009D01*
X131348095Y-149031009D02*
X131300476Y-149126247D01*
X97392319Y-101592857D02*
X96916128Y-101926190D01*
X97392319Y-102164285D02*
X96392319Y-102164285D01*
X96392319Y-102164285D02*
X96392319Y-101783333D01*
X96392319Y-101783333D02*
X96439938Y-101688095D01*
X96439938Y-101688095D02*
X96487557Y-101640476D01*
X96487557Y-101640476D02*
X96582795Y-101592857D01*
X96582795Y-101592857D02*
X96725652Y-101592857D01*
X96725652Y-101592857D02*
X96820890Y-101640476D01*
X96820890Y-101640476D02*
X96868509Y-101688095D01*
X96868509Y-101688095D02*
X96916128Y-101783333D01*
X96916128Y-101783333D02*
X96916128Y-102164285D01*
X96487557Y-101211904D02*
X96439938Y-101164285D01*
X96439938Y-101164285D02*
X96392319Y-101069047D01*
X96392319Y-101069047D02*
X96392319Y-100830952D01*
X96392319Y-100830952D02*
X96439938Y-100735714D01*
X96439938Y-100735714D02*
X96487557Y-100688095D01*
X96487557Y-100688095D02*
X96582795Y-100640476D01*
X96582795Y-100640476D02*
X96678033Y-100640476D01*
X96678033Y-100640476D02*
X96820890Y-100688095D01*
X96820890Y-100688095D02*
X97392319Y-101259523D01*
X97392319Y-101259523D02*
X97392319Y-100640476D01*
X96392319Y-100021428D02*
X96392319Y-99926190D01*
X96392319Y-99926190D02*
X96439938Y-99830952D01*
X96439938Y-99830952D02*
X96487557Y-99783333D01*
X96487557Y-99783333D02*
X96582795Y-99735714D01*
X96582795Y-99735714D02*
X96773271Y-99688095D01*
X96773271Y-99688095D02*
X97011366Y-99688095D01*
X97011366Y-99688095D02*
X97201842Y-99735714D01*
X97201842Y-99735714D02*
X97297080Y-99783333D01*
X97297080Y-99783333D02*
X97344700Y-99830952D01*
X97344700Y-99830952D02*
X97392319Y-99926190D01*
X97392319Y-99926190D02*
X97392319Y-100021428D01*
X97392319Y-100021428D02*
X97344700Y-100116666D01*
X97344700Y-100116666D02*
X97297080Y-100164285D01*
X97297080Y-100164285D02*
X97201842Y-100211904D01*
X97201842Y-100211904D02*
X97011366Y-100259523D01*
X97011366Y-100259523D02*
X96773271Y-100259523D01*
X96773271Y-100259523D02*
X96582795Y-100211904D01*
X96582795Y-100211904D02*
X96487557Y-100164285D01*
X96487557Y-100164285D02*
X96439938Y-100116666D01*
X96439938Y-100116666D02*
X96392319Y-100021428D01*
X116157142Y-60159580D02*
X116109523Y-60207200D01*
X116109523Y-60207200D02*
X115966666Y-60254819D01*
X115966666Y-60254819D02*
X115871428Y-60254819D01*
X115871428Y-60254819D02*
X115728571Y-60207200D01*
X115728571Y-60207200D02*
X115633333Y-60111961D01*
X115633333Y-60111961D02*
X115585714Y-60016723D01*
X115585714Y-60016723D02*
X115538095Y-59826247D01*
X115538095Y-59826247D02*
X115538095Y-59683390D01*
X115538095Y-59683390D02*
X115585714Y-59492914D01*
X115585714Y-59492914D02*
X115633333Y-59397676D01*
X115633333Y-59397676D02*
X115728571Y-59302438D01*
X115728571Y-59302438D02*
X115871428Y-59254819D01*
X115871428Y-59254819D02*
X115966666Y-59254819D01*
X115966666Y-59254819D02*
X116109523Y-59302438D01*
X116109523Y-59302438D02*
X116157142Y-59350057D01*
X117109523Y-60254819D02*
X116538095Y-60254819D01*
X116823809Y-60254819D02*
X116823809Y-59254819D01*
X116823809Y-59254819D02*
X116728571Y-59397676D01*
X116728571Y-59397676D02*
X116633333Y-59492914D01*
X116633333Y-59492914D02*
X116538095Y-59540533D01*
X117966666Y-59254819D02*
X117776190Y-59254819D01*
X117776190Y-59254819D02*
X117680952Y-59302438D01*
X117680952Y-59302438D02*
X117633333Y-59350057D01*
X117633333Y-59350057D02*
X117538095Y-59492914D01*
X117538095Y-59492914D02*
X117490476Y-59683390D01*
X117490476Y-59683390D02*
X117490476Y-60064342D01*
X117490476Y-60064342D02*
X117538095Y-60159580D01*
X117538095Y-60159580D02*
X117585714Y-60207200D01*
X117585714Y-60207200D02*
X117680952Y-60254819D01*
X117680952Y-60254819D02*
X117871428Y-60254819D01*
X117871428Y-60254819D02*
X117966666Y-60207200D01*
X117966666Y-60207200D02*
X118014285Y-60159580D01*
X118014285Y-60159580D02*
X118061904Y-60064342D01*
X118061904Y-60064342D02*
X118061904Y-59826247D01*
X118061904Y-59826247D02*
X118014285Y-59731009D01*
X118014285Y-59731009D02*
X117966666Y-59683390D01*
X117966666Y-59683390D02*
X117871428Y-59635771D01*
X117871428Y-59635771D02*
X117680952Y-59635771D01*
X117680952Y-59635771D02*
X117585714Y-59683390D01*
X117585714Y-59683390D02*
X117538095Y-59731009D01*
X117538095Y-59731009D02*
X117490476Y-59826247D01*
X95438095Y-151954819D02*
X95438095Y-150954819D01*
X95438095Y-151431009D02*
X96009523Y-151431009D01*
X96009523Y-151954819D02*
X96009523Y-150954819D01*
X96390476Y-150954819D02*
X97009523Y-150954819D01*
X97009523Y-150954819D02*
X96676190Y-151335771D01*
X96676190Y-151335771D02*
X96819047Y-151335771D01*
X96819047Y-151335771D02*
X96914285Y-151383390D01*
X96914285Y-151383390D02*
X96961904Y-151431009D01*
X96961904Y-151431009D02*
X97009523Y-151526247D01*
X97009523Y-151526247D02*
X97009523Y-151764342D01*
X97009523Y-151764342D02*
X96961904Y-151859580D01*
X96961904Y-151859580D02*
X96914285Y-151907200D01*
X96914285Y-151907200D02*
X96819047Y-151954819D01*
X96819047Y-151954819D02*
X96533333Y-151954819D01*
X96533333Y-151954819D02*
X96438095Y-151907200D01*
X96438095Y-151907200D02*
X96390476Y-151859580D01*
X108279580Y-108392857D02*
X108327200Y-108440476D01*
X108327200Y-108440476D02*
X108374819Y-108583333D01*
X108374819Y-108583333D02*
X108374819Y-108678571D01*
X108374819Y-108678571D02*
X108327200Y-108821428D01*
X108327200Y-108821428D02*
X108231961Y-108916666D01*
X108231961Y-108916666D02*
X108136723Y-108964285D01*
X108136723Y-108964285D02*
X107946247Y-109011904D01*
X107946247Y-109011904D02*
X107803390Y-109011904D01*
X107803390Y-109011904D02*
X107612914Y-108964285D01*
X107612914Y-108964285D02*
X107517676Y-108916666D01*
X107517676Y-108916666D02*
X107422438Y-108821428D01*
X107422438Y-108821428D02*
X107374819Y-108678571D01*
X107374819Y-108678571D02*
X107374819Y-108583333D01*
X107374819Y-108583333D02*
X107422438Y-108440476D01*
X107422438Y-108440476D02*
X107470057Y-108392857D01*
X108374819Y-107440476D02*
X108374819Y-108011904D01*
X108374819Y-107726190D02*
X107374819Y-107726190D01*
X107374819Y-107726190D02*
X107517676Y-107821428D01*
X107517676Y-107821428D02*
X107612914Y-107916666D01*
X107612914Y-107916666D02*
X107660533Y-108011904D01*
X107803390Y-106869047D02*
X107755771Y-106964285D01*
X107755771Y-106964285D02*
X107708152Y-107011904D01*
X107708152Y-107011904D02*
X107612914Y-107059523D01*
X107612914Y-107059523D02*
X107565295Y-107059523D01*
X107565295Y-107059523D02*
X107470057Y-107011904D01*
X107470057Y-107011904D02*
X107422438Y-106964285D01*
X107422438Y-106964285D02*
X107374819Y-106869047D01*
X107374819Y-106869047D02*
X107374819Y-106678571D01*
X107374819Y-106678571D02*
X107422438Y-106583333D01*
X107422438Y-106583333D02*
X107470057Y-106535714D01*
X107470057Y-106535714D02*
X107565295Y-106488095D01*
X107565295Y-106488095D02*
X107612914Y-106488095D01*
X107612914Y-106488095D02*
X107708152Y-106535714D01*
X107708152Y-106535714D02*
X107755771Y-106583333D01*
X107755771Y-106583333D02*
X107803390Y-106678571D01*
X107803390Y-106678571D02*
X107803390Y-106869047D01*
X107803390Y-106869047D02*
X107851009Y-106964285D01*
X107851009Y-106964285D02*
X107898628Y-107011904D01*
X107898628Y-107011904D02*
X107993866Y-107059523D01*
X107993866Y-107059523D02*
X108184342Y-107059523D01*
X108184342Y-107059523D02*
X108279580Y-107011904D01*
X108279580Y-107011904D02*
X108327200Y-106964285D01*
X108327200Y-106964285D02*
X108374819Y-106869047D01*
X108374819Y-106869047D02*
X108374819Y-106678571D01*
X108374819Y-106678571D02*
X108327200Y-106583333D01*
X108327200Y-106583333D02*
X108279580Y-106535714D01*
X108279580Y-106535714D02*
X108184342Y-106488095D01*
X108184342Y-106488095D02*
X107993866Y-106488095D01*
X107993866Y-106488095D02*
X107898628Y-106535714D01*
X107898628Y-106535714D02*
X107851009Y-106583333D01*
X107851009Y-106583333D02*
X107803390Y-106678571D01*
X140547619Y-80654819D02*
X140547619Y-81369104D01*
X140547619Y-81369104D02*
X140500000Y-81511961D01*
X140500000Y-81511961D02*
X140404762Y-81607200D01*
X140404762Y-81607200D02*
X140261905Y-81654819D01*
X140261905Y-81654819D02*
X140166667Y-81654819D01*
X141023810Y-80654819D02*
X141023810Y-81464342D01*
X141023810Y-81464342D02*
X141071429Y-81559580D01*
X141071429Y-81559580D02*
X141119048Y-81607200D01*
X141119048Y-81607200D02*
X141214286Y-81654819D01*
X141214286Y-81654819D02*
X141404762Y-81654819D01*
X141404762Y-81654819D02*
X141500000Y-81607200D01*
X141500000Y-81607200D02*
X141547619Y-81559580D01*
X141547619Y-81559580D02*
X141595238Y-81464342D01*
X141595238Y-81464342D02*
X141595238Y-80654819D01*
X142071429Y-81654819D02*
X142071429Y-80654819D01*
X142071429Y-80654819D02*
X142404762Y-81369104D01*
X142404762Y-81369104D02*
X142738095Y-80654819D01*
X142738095Y-80654819D02*
X142738095Y-81654819D01*
X143214286Y-81654819D02*
X143214286Y-80654819D01*
X143214286Y-80654819D02*
X143595238Y-80654819D01*
X143595238Y-80654819D02*
X143690476Y-80702438D01*
X143690476Y-80702438D02*
X143738095Y-80750057D01*
X143738095Y-80750057D02*
X143785714Y-80845295D01*
X143785714Y-80845295D02*
X143785714Y-80988152D01*
X143785714Y-80988152D02*
X143738095Y-81083390D01*
X143738095Y-81083390D02*
X143690476Y-81131009D01*
X143690476Y-81131009D02*
X143595238Y-81178628D01*
X143595238Y-81178628D02*
X143214286Y-81178628D01*
X94633333Y-134024819D02*
X94157143Y-134024819D01*
X94157143Y-134024819D02*
X94157143Y-133024819D01*
X94919048Y-133120057D02*
X94966667Y-133072438D01*
X94966667Y-133072438D02*
X95061905Y-133024819D01*
X95061905Y-133024819D02*
X95300000Y-133024819D01*
X95300000Y-133024819D02*
X95395238Y-133072438D01*
X95395238Y-133072438D02*
X95442857Y-133120057D01*
X95442857Y-133120057D02*
X95490476Y-133215295D01*
X95490476Y-133215295D02*
X95490476Y-133310533D01*
X95490476Y-133310533D02*
X95442857Y-133453390D01*
X95442857Y-133453390D02*
X94871429Y-134024819D01*
X94871429Y-134024819D02*
X95490476Y-134024819D01*
X131343333Y-137954819D02*
X131010000Y-137478628D01*
X130771905Y-137954819D02*
X130771905Y-136954819D01*
X130771905Y-136954819D02*
X131152857Y-136954819D01*
X131152857Y-136954819D02*
X131248095Y-137002438D01*
X131248095Y-137002438D02*
X131295714Y-137050057D01*
X131295714Y-137050057D02*
X131343333Y-137145295D01*
X131343333Y-137145295D02*
X131343333Y-137288152D01*
X131343333Y-137288152D02*
X131295714Y-137383390D01*
X131295714Y-137383390D02*
X131248095Y-137431009D01*
X131248095Y-137431009D02*
X131152857Y-137478628D01*
X131152857Y-137478628D02*
X130771905Y-137478628D01*
X132295714Y-137954819D02*
X131724286Y-137954819D01*
X132010000Y-137954819D02*
X132010000Y-136954819D01*
X132010000Y-136954819D02*
X131914762Y-137097676D01*
X131914762Y-137097676D02*
X131819524Y-137192914D01*
X131819524Y-137192914D02*
X131724286Y-137240533D01*
X103157080Y-105312857D02*
X103204700Y-105360476D01*
X103204700Y-105360476D02*
X103252319Y-105503333D01*
X103252319Y-105503333D02*
X103252319Y-105598571D01*
X103252319Y-105598571D02*
X103204700Y-105741428D01*
X103204700Y-105741428D02*
X103109461Y-105836666D01*
X103109461Y-105836666D02*
X103014223Y-105884285D01*
X103014223Y-105884285D02*
X102823747Y-105931904D01*
X102823747Y-105931904D02*
X102680890Y-105931904D01*
X102680890Y-105931904D02*
X102490414Y-105884285D01*
X102490414Y-105884285D02*
X102395176Y-105836666D01*
X102395176Y-105836666D02*
X102299938Y-105741428D01*
X102299938Y-105741428D02*
X102252319Y-105598571D01*
X102252319Y-105598571D02*
X102252319Y-105503333D01*
X102252319Y-105503333D02*
X102299938Y-105360476D01*
X102299938Y-105360476D02*
X102347557Y-105312857D01*
X102347557Y-104931904D02*
X102299938Y-104884285D01*
X102299938Y-104884285D02*
X102252319Y-104789047D01*
X102252319Y-104789047D02*
X102252319Y-104550952D01*
X102252319Y-104550952D02*
X102299938Y-104455714D01*
X102299938Y-104455714D02*
X102347557Y-104408095D01*
X102347557Y-104408095D02*
X102442795Y-104360476D01*
X102442795Y-104360476D02*
X102538033Y-104360476D01*
X102538033Y-104360476D02*
X102680890Y-104408095D01*
X102680890Y-104408095D02*
X103252319Y-104979523D01*
X103252319Y-104979523D02*
X103252319Y-104360476D01*
X102252319Y-103741428D02*
X102252319Y-103646190D01*
X102252319Y-103646190D02*
X102299938Y-103550952D01*
X102299938Y-103550952D02*
X102347557Y-103503333D01*
X102347557Y-103503333D02*
X102442795Y-103455714D01*
X102442795Y-103455714D02*
X102633271Y-103408095D01*
X102633271Y-103408095D02*
X102871366Y-103408095D01*
X102871366Y-103408095D02*
X103061842Y-103455714D01*
X103061842Y-103455714D02*
X103157080Y-103503333D01*
X103157080Y-103503333D02*
X103204700Y-103550952D01*
X103204700Y-103550952D02*
X103252319Y-103646190D01*
X103252319Y-103646190D02*
X103252319Y-103741428D01*
X103252319Y-103741428D02*
X103204700Y-103836666D01*
X103204700Y-103836666D02*
X103157080Y-103884285D01*
X103157080Y-103884285D02*
X103061842Y-103931904D01*
X103061842Y-103931904D02*
X102871366Y-103979523D01*
X102871366Y-103979523D02*
X102633271Y-103979523D01*
X102633271Y-103979523D02*
X102442795Y-103931904D01*
X102442795Y-103931904D02*
X102347557Y-103884285D01*
X102347557Y-103884285D02*
X102299938Y-103836666D01*
X102299938Y-103836666D02*
X102252319Y-103741428D01*
X104416667Y-85657200D02*
X104559524Y-85704819D01*
X104559524Y-85704819D02*
X104797619Y-85704819D01*
X104797619Y-85704819D02*
X104892857Y-85657200D01*
X104892857Y-85657200D02*
X104940476Y-85609580D01*
X104940476Y-85609580D02*
X104988095Y-85514342D01*
X104988095Y-85514342D02*
X104988095Y-85419104D01*
X104988095Y-85419104D02*
X104940476Y-85323866D01*
X104940476Y-85323866D02*
X104892857Y-85276247D01*
X104892857Y-85276247D02*
X104797619Y-85228628D01*
X104797619Y-85228628D02*
X104607143Y-85181009D01*
X104607143Y-85181009D02*
X104511905Y-85133390D01*
X104511905Y-85133390D02*
X104464286Y-85085771D01*
X104464286Y-85085771D02*
X104416667Y-84990533D01*
X104416667Y-84990533D02*
X104416667Y-84895295D01*
X104416667Y-84895295D02*
X104464286Y-84800057D01*
X104464286Y-84800057D02*
X104511905Y-84752438D01*
X104511905Y-84752438D02*
X104607143Y-84704819D01*
X104607143Y-84704819D02*
X104845238Y-84704819D01*
X104845238Y-84704819D02*
X104988095Y-84752438D01*
X105321429Y-84704819D02*
X105559524Y-85704819D01*
X105559524Y-85704819D02*
X105750000Y-84990533D01*
X105750000Y-84990533D02*
X105940476Y-85704819D01*
X105940476Y-85704819D02*
X106178572Y-84704819D01*
X107083333Y-85704819D02*
X106511905Y-85704819D01*
X106797619Y-85704819D02*
X106797619Y-84704819D01*
X106797619Y-84704819D02*
X106702381Y-84847676D01*
X106702381Y-84847676D02*
X106607143Y-84942914D01*
X106607143Y-84942914D02*
X106511905Y-84990533D01*
X107966666Y-55554819D02*
X107966666Y-56269104D01*
X107966666Y-56269104D02*
X107919047Y-56411961D01*
X107919047Y-56411961D02*
X107823809Y-56507200D01*
X107823809Y-56507200D02*
X107680952Y-56554819D01*
X107680952Y-56554819D02*
X107585714Y-56554819D01*
X108871428Y-55888152D02*
X108871428Y-56554819D01*
X108633333Y-55507200D02*
X108395238Y-56221485D01*
X108395238Y-56221485D02*
X109014285Y-56221485D01*
X90754819Y-57133333D02*
X91469104Y-57133333D01*
X91469104Y-57133333D02*
X91611961Y-57180952D01*
X91611961Y-57180952D02*
X91707200Y-57276190D01*
X91707200Y-57276190D02*
X91754819Y-57419047D01*
X91754819Y-57419047D02*
X91754819Y-57514285D01*
X90754819Y-56752380D02*
X90754819Y-56133333D01*
X90754819Y-56133333D02*
X91135771Y-56466666D01*
X91135771Y-56466666D02*
X91135771Y-56323809D01*
X91135771Y-56323809D02*
X91183390Y-56228571D01*
X91183390Y-56228571D02*
X91231009Y-56180952D01*
X91231009Y-56180952D02*
X91326247Y-56133333D01*
X91326247Y-56133333D02*
X91564342Y-56133333D01*
X91564342Y-56133333D02*
X91659580Y-56180952D01*
X91659580Y-56180952D02*
X91707200Y-56228571D01*
X91707200Y-56228571D02*
X91754819Y-56323809D01*
X91754819Y-56323809D02*
X91754819Y-56609523D01*
X91754819Y-56609523D02*
X91707200Y-56704761D01*
X91707200Y-56704761D02*
X91659580Y-56752380D01*
X118438095Y-71850719D02*
X119009523Y-71850719D01*
X118723809Y-72850719D02*
X118723809Y-71850719D01*
X119342857Y-72850719D02*
X119342857Y-71850719D01*
X119342857Y-71850719D02*
X119723809Y-71850719D01*
X119723809Y-71850719D02*
X119819047Y-71898338D01*
X119819047Y-71898338D02*
X119866666Y-71945957D01*
X119866666Y-71945957D02*
X119914285Y-72041195D01*
X119914285Y-72041195D02*
X119914285Y-72184052D01*
X119914285Y-72184052D02*
X119866666Y-72279290D01*
X119866666Y-72279290D02*
X119819047Y-72326909D01*
X119819047Y-72326909D02*
X119723809Y-72374528D01*
X119723809Y-72374528D02*
X119342857Y-72374528D01*
X120866666Y-72850719D02*
X120295238Y-72850719D01*
X120580952Y-72850719D02*
X120580952Y-71850719D01*
X120580952Y-71850719D02*
X120485714Y-71993576D01*
X120485714Y-71993576D02*
X120390476Y-72088814D01*
X120390476Y-72088814D02*
X120295238Y-72136433D01*
X93775595Y-108079819D02*
X93775595Y-108889342D01*
X93775595Y-108889342D02*
X93823214Y-108984580D01*
X93823214Y-108984580D02*
X93870833Y-109032200D01*
X93870833Y-109032200D02*
X93966071Y-109079819D01*
X93966071Y-109079819D02*
X94156547Y-109079819D01*
X94156547Y-109079819D02*
X94251785Y-109032200D01*
X94251785Y-109032200D02*
X94299404Y-108984580D01*
X94299404Y-108984580D02*
X94347023Y-108889342D01*
X94347023Y-108889342D02*
X94347023Y-108079819D01*
X95251785Y-108413152D02*
X95251785Y-109079819D01*
X95013690Y-108032200D02*
X94775595Y-108746485D01*
X94775595Y-108746485D02*
X95394642Y-108746485D01*
X97857142Y-93444819D02*
X97523809Y-92968628D01*
X97285714Y-93444819D02*
X97285714Y-92444819D01*
X97285714Y-92444819D02*
X97666666Y-92444819D01*
X97666666Y-92444819D02*
X97761904Y-92492438D01*
X97761904Y-92492438D02*
X97809523Y-92540057D01*
X97809523Y-92540057D02*
X97857142Y-92635295D01*
X97857142Y-92635295D02*
X97857142Y-92778152D01*
X97857142Y-92778152D02*
X97809523Y-92873390D01*
X97809523Y-92873390D02*
X97761904Y-92921009D01*
X97761904Y-92921009D02*
X97666666Y-92968628D01*
X97666666Y-92968628D02*
X97285714Y-92968628D01*
X98809523Y-93444819D02*
X98238095Y-93444819D01*
X98523809Y-93444819D02*
X98523809Y-92444819D01*
X98523809Y-92444819D02*
X98428571Y-92587676D01*
X98428571Y-92587676D02*
X98333333Y-92682914D01*
X98333333Y-92682914D02*
X98238095Y-92730533D01*
X99761904Y-93444819D02*
X99190476Y-93444819D01*
X99476190Y-93444819D02*
X99476190Y-92444819D01*
X99476190Y-92444819D02*
X99380952Y-92587676D01*
X99380952Y-92587676D02*
X99285714Y-92682914D01*
X99285714Y-92682914D02*
X99190476Y-92730533D01*
X129937142Y-148159580D02*
X129889523Y-148207200D01*
X129889523Y-148207200D02*
X129746666Y-148254819D01*
X129746666Y-148254819D02*
X129651428Y-148254819D01*
X129651428Y-148254819D02*
X129508571Y-148207200D01*
X129508571Y-148207200D02*
X129413333Y-148111961D01*
X129413333Y-148111961D02*
X129365714Y-148016723D01*
X129365714Y-148016723D02*
X129318095Y-147826247D01*
X129318095Y-147826247D02*
X129318095Y-147683390D01*
X129318095Y-147683390D02*
X129365714Y-147492914D01*
X129365714Y-147492914D02*
X129413333Y-147397676D01*
X129413333Y-147397676D02*
X129508571Y-147302438D01*
X129508571Y-147302438D02*
X129651428Y-147254819D01*
X129651428Y-147254819D02*
X129746666Y-147254819D01*
X129746666Y-147254819D02*
X129889523Y-147302438D01*
X129889523Y-147302438D02*
X129937142Y-147350057D01*
X130318095Y-147350057D02*
X130365714Y-147302438D01*
X130365714Y-147302438D02*
X130460952Y-147254819D01*
X130460952Y-147254819D02*
X130699047Y-147254819D01*
X130699047Y-147254819D02*
X130794285Y-147302438D01*
X130794285Y-147302438D02*
X130841904Y-147350057D01*
X130841904Y-147350057D02*
X130889523Y-147445295D01*
X130889523Y-147445295D02*
X130889523Y-147540533D01*
X130889523Y-147540533D02*
X130841904Y-147683390D01*
X130841904Y-147683390D02*
X130270476Y-148254819D01*
X130270476Y-148254819D02*
X130889523Y-148254819D01*
X131794285Y-147254819D02*
X131318095Y-147254819D01*
X131318095Y-147254819D02*
X131270476Y-147731009D01*
X131270476Y-147731009D02*
X131318095Y-147683390D01*
X131318095Y-147683390D02*
X131413333Y-147635771D01*
X131413333Y-147635771D02*
X131651428Y-147635771D01*
X131651428Y-147635771D02*
X131746666Y-147683390D01*
X131746666Y-147683390D02*
X131794285Y-147731009D01*
X131794285Y-147731009D02*
X131841904Y-147826247D01*
X131841904Y-147826247D02*
X131841904Y-148064342D01*
X131841904Y-148064342D02*
X131794285Y-148159580D01*
X131794285Y-148159580D02*
X131746666Y-148207200D01*
X131746666Y-148207200D02*
X131651428Y-148254819D01*
X131651428Y-148254819D02*
X131413333Y-148254819D01*
X131413333Y-148254819D02*
X131318095Y-148207200D01*
X131318095Y-148207200D02*
X131270476Y-148159580D01*
X111957142Y-105354819D02*
X111623809Y-104878628D01*
X111385714Y-105354819D02*
X111385714Y-104354819D01*
X111385714Y-104354819D02*
X111766666Y-104354819D01*
X111766666Y-104354819D02*
X111861904Y-104402438D01*
X111861904Y-104402438D02*
X111909523Y-104450057D01*
X111909523Y-104450057D02*
X111957142Y-104545295D01*
X111957142Y-104545295D02*
X111957142Y-104688152D01*
X111957142Y-104688152D02*
X111909523Y-104783390D01*
X111909523Y-104783390D02*
X111861904Y-104831009D01*
X111861904Y-104831009D02*
X111766666Y-104878628D01*
X111766666Y-104878628D02*
X111385714Y-104878628D01*
X112338095Y-104450057D02*
X112385714Y-104402438D01*
X112385714Y-104402438D02*
X112480952Y-104354819D01*
X112480952Y-104354819D02*
X112719047Y-104354819D01*
X112719047Y-104354819D02*
X112814285Y-104402438D01*
X112814285Y-104402438D02*
X112861904Y-104450057D01*
X112861904Y-104450057D02*
X112909523Y-104545295D01*
X112909523Y-104545295D02*
X112909523Y-104640533D01*
X112909523Y-104640533D02*
X112861904Y-104783390D01*
X112861904Y-104783390D02*
X112290476Y-105354819D01*
X112290476Y-105354819D02*
X112909523Y-105354819D01*
X113861904Y-105354819D02*
X113290476Y-105354819D01*
X113576190Y-105354819D02*
X113576190Y-104354819D01*
X113576190Y-104354819D02*
X113480952Y-104497676D01*
X113480952Y-104497676D02*
X113385714Y-104592914D01*
X113385714Y-104592914D02*
X113290476Y-104640533D01*
X95833333Y-73954819D02*
X95357143Y-73954819D01*
X95357143Y-73954819D02*
X95357143Y-72954819D01*
X96690476Y-73954819D02*
X96119048Y-73954819D01*
X96404762Y-73954819D02*
X96404762Y-72954819D01*
X96404762Y-72954819D02*
X96309524Y-73097676D01*
X96309524Y-73097676D02*
X96214286Y-73192914D01*
X96214286Y-73192914D02*
X96119048Y-73240533D01*
X95266666Y-112054819D02*
X95266666Y-112769104D01*
X95266666Y-112769104D02*
X95219047Y-112911961D01*
X95219047Y-112911961D02*
X95123809Y-113007200D01*
X95123809Y-113007200D02*
X94980952Y-113054819D01*
X94980952Y-113054819D02*
X94885714Y-113054819D01*
X95695238Y-112150057D02*
X95742857Y-112102438D01*
X95742857Y-112102438D02*
X95838095Y-112054819D01*
X95838095Y-112054819D02*
X96076190Y-112054819D01*
X96076190Y-112054819D02*
X96171428Y-112102438D01*
X96171428Y-112102438D02*
X96219047Y-112150057D01*
X96219047Y-112150057D02*
X96266666Y-112245295D01*
X96266666Y-112245295D02*
X96266666Y-112340533D01*
X96266666Y-112340533D02*
X96219047Y-112483390D01*
X96219047Y-112483390D02*
X95647619Y-113054819D01*
X95647619Y-113054819D02*
X96266666Y-113054819D01*
X99333333Y-69284819D02*
X99000000Y-68808628D01*
X98761905Y-69284819D02*
X98761905Y-68284819D01*
X98761905Y-68284819D02*
X99142857Y-68284819D01*
X99142857Y-68284819D02*
X99238095Y-68332438D01*
X99238095Y-68332438D02*
X99285714Y-68380057D01*
X99285714Y-68380057D02*
X99333333Y-68475295D01*
X99333333Y-68475295D02*
X99333333Y-68618152D01*
X99333333Y-68618152D02*
X99285714Y-68713390D01*
X99285714Y-68713390D02*
X99238095Y-68761009D01*
X99238095Y-68761009D02*
X99142857Y-68808628D01*
X99142857Y-68808628D02*
X98761905Y-68808628D01*
X99666667Y-68284819D02*
X100333333Y-68284819D01*
X100333333Y-68284819D02*
X99904762Y-69284819D01*
X141967142Y-109154819D02*
X141633809Y-108678628D01*
X141395714Y-109154819D02*
X141395714Y-108154819D01*
X141395714Y-108154819D02*
X141776666Y-108154819D01*
X141776666Y-108154819D02*
X141871904Y-108202438D01*
X141871904Y-108202438D02*
X141919523Y-108250057D01*
X141919523Y-108250057D02*
X141967142Y-108345295D01*
X141967142Y-108345295D02*
X141967142Y-108488152D01*
X141967142Y-108488152D02*
X141919523Y-108583390D01*
X141919523Y-108583390D02*
X141871904Y-108631009D01*
X141871904Y-108631009D02*
X141776666Y-108678628D01*
X141776666Y-108678628D02*
X141395714Y-108678628D01*
X142919523Y-109154819D02*
X142348095Y-109154819D01*
X142633809Y-109154819D02*
X142633809Y-108154819D01*
X142633809Y-108154819D02*
X142538571Y-108297676D01*
X142538571Y-108297676D02*
X142443333Y-108392914D01*
X142443333Y-108392914D02*
X142348095Y-108440533D01*
X143824285Y-108154819D02*
X143348095Y-108154819D01*
X143348095Y-108154819D02*
X143300476Y-108631009D01*
X143300476Y-108631009D02*
X143348095Y-108583390D01*
X143348095Y-108583390D02*
X143443333Y-108535771D01*
X143443333Y-108535771D02*
X143681428Y-108535771D01*
X143681428Y-108535771D02*
X143776666Y-108583390D01*
X143776666Y-108583390D02*
X143824285Y-108631009D01*
X143824285Y-108631009D02*
X143871904Y-108726247D01*
X143871904Y-108726247D02*
X143871904Y-108964342D01*
X143871904Y-108964342D02*
X143824285Y-109059580D01*
X143824285Y-109059580D02*
X143776666Y-109107200D01*
X143776666Y-109107200D02*
X143681428Y-109154819D01*
X143681428Y-109154819D02*
X143443333Y-109154819D01*
X143443333Y-109154819D02*
X143348095Y-109107200D01*
X143348095Y-109107200D02*
X143300476Y-109059580D01*
X137461905Y-63554819D02*
X137461905Y-62554819D01*
X137461905Y-62554819D02*
X137700000Y-62554819D01*
X137700000Y-62554819D02*
X137842857Y-62602438D01*
X137842857Y-62602438D02*
X137938095Y-62697676D01*
X137938095Y-62697676D02*
X137985714Y-62792914D01*
X137985714Y-62792914D02*
X138033333Y-62983390D01*
X138033333Y-62983390D02*
X138033333Y-63126247D01*
X138033333Y-63126247D02*
X137985714Y-63316723D01*
X137985714Y-63316723D02*
X137938095Y-63411961D01*
X137938095Y-63411961D02*
X137842857Y-63507200D01*
X137842857Y-63507200D02*
X137700000Y-63554819D01*
X137700000Y-63554819D02*
X137461905Y-63554819D01*
X138604762Y-62983390D02*
X138509524Y-62935771D01*
X138509524Y-62935771D02*
X138461905Y-62888152D01*
X138461905Y-62888152D02*
X138414286Y-62792914D01*
X138414286Y-62792914D02*
X138414286Y-62745295D01*
X138414286Y-62745295D02*
X138461905Y-62650057D01*
X138461905Y-62650057D02*
X138509524Y-62602438D01*
X138509524Y-62602438D02*
X138604762Y-62554819D01*
X138604762Y-62554819D02*
X138795238Y-62554819D01*
X138795238Y-62554819D02*
X138890476Y-62602438D01*
X138890476Y-62602438D02*
X138938095Y-62650057D01*
X138938095Y-62650057D02*
X138985714Y-62745295D01*
X138985714Y-62745295D02*
X138985714Y-62792914D01*
X138985714Y-62792914D02*
X138938095Y-62888152D01*
X138938095Y-62888152D02*
X138890476Y-62935771D01*
X138890476Y-62935771D02*
X138795238Y-62983390D01*
X138795238Y-62983390D02*
X138604762Y-62983390D01*
X138604762Y-62983390D02*
X138509524Y-63031009D01*
X138509524Y-63031009D02*
X138461905Y-63078628D01*
X138461905Y-63078628D02*
X138414286Y-63173866D01*
X138414286Y-63173866D02*
X138414286Y-63364342D01*
X138414286Y-63364342D02*
X138461905Y-63459580D01*
X138461905Y-63459580D02*
X138509524Y-63507200D01*
X138509524Y-63507200D02*
X138604762Y-63554819D01*
X138604762Y-63554819D02*
X138795238Y-63554819D01*
X138795238Y-63554819D02*
X138890476Y-63507200D01*
X138890476Y-63507200D02*
X138938095Y-63459580D01*
X138938095Y-63459580D02*
X138985714Y-63364342D01*
X138985714Y-63364342D02*
X138985714Y-63173866D01*
X138985714Y-63173866D02*
X138938095Y-63078628D01*
X138938095Y-63078628D02*
X138890476Y-63031009D01*
X138890476Y-63031009D02*
X138795238Y-62983390D01*
X133586666Y-56117319D02*
X133586666Y-56831604D01*
X133586666Y-56831604D02*
X133539047Y-56974461D01*
X133539047Y-56974461D02*
X133443809Y-57069700D01*
X133443809Y-57069700D02*
X133300952Y-57117319D01*
X133300952Y-57117319D02*
X133205714Y-57117319D01*
X134539047Y-56117319D02*
X134062857Y-56117319D01*
X134062857Y-56117319D02*
X134015238Y-56593509D01*
X134015238Y-56593509D02*
X134062857Y-56545890D01*
X134062857Y-56545890D02*
X134158095Y-56498271D01*
X134158095Y-56498271D02*
X134396190Y-56498271D01*
X134396190Y-56498271D02*
X134491428Y-56545890D01*
X134491428Y-56545890D02*
X134539047Y-56593509D01*
X134539047Y-56593509D02*
X134586666Y-56688747D01*
X134586666Y-56688747D02*
X134586666Y-56926842D01*
X134586666Y-56926842D02*
X134539047Y-57022080D01*
X134539047Y-57022080D02*
X134491428Y-57069700D01*
X134491428Y-57069700D02*
X134396190Y-57117319D01*
X134396190Y-57117319D02*
X134158095Y-57117319D01*
X134158095Y-57117319D02*
X134062857Y-57069700D01*
X134062857Y-57069700D02*
X134015238Y-57022080D01*
X92454819Y-143342857D02*
X91978628Y-143676190D01*
X92454819Y-143914285D02*
X91454819Y-143914285D01*
X91454819Y-143914285D02*
X91454819Y-143533333D01*
X91454819Y-143533333D02*
X91502438Y-143438095D01*
X91502438Y-143438095D02*
X91550057Y-143390476D01*
X91550057Y-143390476D02*
X91645295Y-143342857D01*
X91645295Y-143342857D02*
X91788152Y-143342857D01*
X91788152Y-143342857D02*
X91883390Y-143390476D01*
X91883390Y-143390476D02*
X91931009Y-143438095D01*
X91931009Y-143438095D02*
X91978628Y-143533333D01*
X91978628Y-143533333D02*
X91978628Y-143914285D01*
X91550057Y-142961904D02*
X91502438Y-142914285D01*
X91502438Y-142914285D02*
X91454819Y-142819047D01*
X91454819Y-142819047D02*
X91454819Y-142580952D01*
X91454819Y-142580952D02*
X91502438Y-142485714D01*
X91502438Y-142485714D02*
X91550057Y-142438095D01*
X91550057Y-142438095D02*
X91645295Y-142390476D01*
X91645295Y-142390476D02*
X91740533Y-142390476D01*
X91740533Y-142390476D02*
X91883390Y-142438095D01*
X91883390Y-142438095D02*
X92454819Y-143009523D01*
X92454819Y-143009523D02*
X92454819Y-142390476D01*
X91454819Y-142057142D02*
X91454819Y-141438095D01*
X91454819Y-141438095D02*
X91835771Y-141771428D01*
X91835771Y-141771428D02*
X91835771Y-141628571D01*
X91835771Y-141628571D02*
X91883390Y-141533333D01*
X91883390Y-141533333D02*
X91931009Y-141485714D01*
X91931009Y-141485714D02*
X92026247Y-141438095D01*
X92026247Y-141438095D02*
X92264342Y-141438095D01*
X92264342Y-141438095D02*
X92359580Y-141485714D01*
X92359580Y-141485714D02*
X92407200Y-141533333D01*
X92407200Y-141533333D02*
X92454819Y-141628571D01*
X92454819Y-141628571D02*
X92454819Y-141914285D01*
X92454819Y-141914285D02*
X92407200Y-142009523D01*
X92407200Y-142009523D02*
X92359580Y-142057142D01*
X138646666Y-138049819D02*
X138646666Y-138764104D01*
X138646666Y-138764104D02*
X138599047Y-138906961D01*
X138599047Y-138906961D02*
X138503809Y-139002200D01*
X138503809Y-139002200D02*
X138360952Y-139049819D01*
X138360952Y-139049819D02*
X138265714Y-139049819D01*
X139646666Y-139049819D02*
X139075238Y-139049819D01*
X139360952Y-139049819D02*
X139360952Y-138049819D01*
X139360952Y-138049819D02*
X139265714Y-138192676D01*
X139265714Y-138192676D02*
X139170476Y-138287914D01*
X139170476Y-138287914D02*
X139075238Y-138335533D01*
X141937142Y-105649580D02*
X141889523Y-105697200D01*
X141889523Y-105697200D02*
X141746666Y-105744819D01*
X141746666Y-105744819D02*
X141651428Y-105744819D01*
X141651428Y-105744819D02*
X141508571Y-105697200D01*
X141508571Y-105697200D02*
X141413333Y-105601961D01*
X141413333Y-105601961D02*
X141365714Y-105506723D01*
X141365714Y-105506723D02*
X141318095Y-105316247D01*
X141318095Y-105316247D02*
X141318095Y-105173390D01*
X141318095Y-105173390D02*
X141365714Y-104982914D01*
X141365714Y-104982914D02*
X141413333Y-104887676D01*
X141413333Y-104887676D02*
X141508571Y-104792438D01*
X141508571Y-104792438D02*
X141651428Y-104744819D01*
X141651428Y-104744819D02*
X141746666Y-104744819D01*
X141746666Y-104744819D02*
X141889523Y-104792438D01*
X141889523Y-104792438D02*
X141937142Y-104840057D01*
X142889523Y-105744819D02*
X142318095Y-105744819D01*
X142603809Y-105744819D02*
X142603809Y-104744819D01*
X142603809Y-104744819D02*
X142508571Y-104887676D01*
X142508571Y-104887676D02*
X142413333Y-104982914D01*
X142413333Y-104982914D02*
X142318095Y-105030533D01*
X143841904Y-105744819D02*
X143270476Y-105744819D01*
X143556190Y-105744819D02*
X143556190Y-104744819D01*
X143556190Y-104744819D02*
X143460952Y-104887676D01*
X143460952Y-104887676D02*
X143365714Y-104982914D01*
X143365714Y-104982914D02*
X143270476Y-105030533D01*
X125838095Y-117644819D02*
X125838095Y-118454342D01*
X125838095Y-118454342D02*
X125885714Y-118549580D01*
X125885714Y-118549580D02*
X125933333Y-118597200D01*
X125933333Y-118597200D02*
X126028571Y-118644819D01*
X126028571Y-118644819D02*
X126219047Y-118644819D01*
X126219047Y-118644819D02*
X126314285Y-118597200D01*
X126314285Y-118597200D02*
X126361904Y-118549580D01*
X126361904Y-118549580D02*
X126409523Y-118454342D01*
X126409523Y-118454342D02*
X126409523Y-117644819D01*
X126790476Y-117644819D02*
X127409523Y-117644819D01*
X127409523Y-117644819D02*
X127076190Y-118025771D01*
X127076190Y-118025771D02*
X127219047Y-118025771D01*
X127219047Y-118025771D02*
X127314285Y-118073390D01*
X127314285Y-118073390D02*
X127361904Y-118121009D01*
X127361904Y-118121009D02*
X127409523Y-118216247D01*
X127409523Y-118216247D02*
X127409523Y-118454342D01*
X127409523Y-118454342D02*
X127361904Y-118549580D01*
X127361904Y-118549580D02*
X127314285Y-118597200D01*
X127314285Y-118597200D02*
X127219047Y-118644819D01*
X127219047Y-118644819D02*
X126933333Y-118644819D01*
X126933333Y-118644819D02*
X126838095Y-118597200D01*
X126838095Y-118597200D02*
X126790476Y-118549580D01*
X136166666Y-122454819D02*
X136166666Y-123169104D01*
X136166666Y-123169104D02*
X136119047Y-123311961D01*
X136119047Y-123311961D02*
X136023809Y-123407200D01*
X136023809Y-123407200D02*
X135880952Y-123454819D01*
X135880952Y-123454819D02*
X135785714Y-123454819D01*
X136642857Y-123454819D02*
X136642857Y-122454819D01*
X136642857Y-122454819D02*
X137023809Y-122454819D01*
X137023809Y-122454819D02*
X137119047Y-122502438D01*
X137119047Y-122502438D02*
X137166666Y-122550057D01*
X137166666Y-122550057D02*
X137214285Y-122645295D01*
X137214285Y-122645295D02*
X137214285Y-122788152D01*
X137214285Y-122788152D02*
X137166666Y-122883390D01*
X137166666Y-122883390D02*
X137119047Y-122931009D01*
X137119047Y-122931009D02*
X137023809Y-122978628D01*
X137023809Y-122978628D02*
X136642857Y-122978628D01*
X137547619Y-122454819D02*
X138166666Y-122454819D01*
X138166666Y-122454819D02*
X137833333Y-122835771D01*
X137833333Y-122835771D02*
X137976190Y-122835771D01*
X137976190Y-122835771D02*
X138071428Y-122883390D01*
X138071428Y-122883390D02*
X138119047Y-122931009D01*
X138119047Y-122931009D02*
X138166666Y-123026247D01*
X138166666Y-123026247D02*
X138166666Y-123264342D01*
X138166666Y-123264342D02*
X138119047Y-123359580D01*
X138119047Y-123359580D02*
X138071428Y-123407200D01*
X138071428Y-123407200D02*
X137976190Y-123454819D01*
X137976190Y-123454819D02*
X137690476Y-123454819D01*
X137690476Y-123454819D02*
X137595238Y-123407200D01*
X137595238Y-123407200D02*
X137547619Y-123359580D01*
X138766667Y-122454819D02*
X139385714Y-122454819D01*
X139385714Y-122454819D02*
X139052381Y-122835771D01*
X139052381Y-122835771D02*
X139195238Y-122835771D01*
X139195238Y-122835771D02*
X139290476Y-122883390D01*
X139290476Y-122883390D02*
X139338095Y-122931009D01*
X139338095Y-122931009D02*
X139385714Y-123026247D01*
X139385714Y-123026247D02*
X139385714Y-123264342D01*
X139385714Y-123264342D02*
X139338095Y-123359580D01*
X139338095Y-123359580D02*
X139290476Y-123407200D01*
X139290476Y-123407200D02*
X139195238Y-123454819D01*
X139195238Y-123454819D02*
X138909524Y-123454819D01*
X138909524Y-123454819D02*
X138814286Y-123407200D01*
X138814286Y-123407200D02*
X138766667Y-123359580D01*
X144585714Y-123454819D02*
X144014286Y-123454819D01*
X144300000Y-123454819D02*
X144300000Y-122454819D01*
X144300000Y-122454819D02*
X144204762Y-122597676D01*
X144204762Y-122597676D02*
X144109524Y-122692914D01*
X144109524Y-122692914D02*
X144014286Y-122740533D01*
X124038095Y-60854819D02*
X124038095Y-59854819D01*
X124038095Y-60331009D02*
X124609523Y-60331009D01*
X124609523Y-60854819D02*
X124609523Y-59854819D01*
X125609523Y-60854819D02*
X125038095Y-60854819D01*
X125323809Y-60854819D02*
X125323809Y-59854819D01*
X125323809Y-59854819D02*
X125228571Y-59997676D01*
X125228571Y-59997676D02*
X125133333Y-60092914D01*
X125133333Y-60092914D02*
X125038095Y-60140533D01*
X105859580Y-151066666D02*
X105907200Y-151114285D01*
X105907200Y-151114285D02*
X105954819Y-151257142D01*
X105954819Y-151257142D02*
X105954819Y-151352380D01*
X105954819Y-151352380D02*
X105907200Y-151495237D01*
X105907200Y-151495237D02*
X105811961Y-151590475D01*
X105811961Y-151590475D02*
X105716723Y-151638094D01*
X105716723Y-151638094D02*
X105526247Y-151685713D01*
X105526247Y-151685713D02*
X105383390Y-151685713D01*
X105383390Y-151685713D02*
X105192914Y-151638094D01*
X105192914Y-151638094D02*
X105097676Y-151590475D01*
X105097676Y-151590475D02*
X105002438Y-151495237D01*
X105002438Y-151495237D02*
X104954819Y-151352380D01*
X104954819Y-151352380D02*
X104954819Y-151257142D01*
X104954819Y-151257142D02*
X105002438Y-151114285D01*
X105002438Y-151114285D02*
X105050057Y-151066666D01*
X104954819Y-150209523D02*
X104954819Y-150399999D01*
X104954819Y-150399999D02*
X105002438Y-150495237D01*
X105002438Y-150495237D02*
X105050057Y-150542856D01*
X105050057Y-150542856D02*
X105192914Y-150638094D01*
X105192914Y-150638094D02*
X105383390Y-150685713D01*
X105383390Y-150685713D02*
X105764342Y-150685713D01*
X105764342Y-150685713D02*
X105859580Y-150638094D01*
X105859580Y-150638094D02*
X105907200Y-150590475D01*
X105907200Y-150590475D02*
X105954819Y-150495237D01*
X105954819Y-150495237D02*
X105954819Y-150304761D01*
X105954819Y-150304761D02*
X105907200Y-150209523D01*
X105907200Y-150209523D02*
X105859580Y-150161904D01*
X105859580Y-150161904D02*
X105764342Y-150114285D01*
X105764342Y-150114285D02*
X105526247Y-150114285D01*
X105526247Y-150114285D02*
X105431009Y-150161904D01*
X105431009Y-150161904D02*
X105383390Y-150209523D01*
X105383390Y-150209523D02*
X105335771Y-150304761D01*
X105335771Y-150304761D02*
X105335771Y-150495237D01*
X105335771Y-150495237D02*
X105383390Y-150590475D01*
X105383390Y-150590475D02*
X105431009Y-150638094D01*
X105431009Y-150638094D02*
X105526247Y-150685713D01*
X101333333Y-148359580D02*
X101285714Y-148407200D01*
X101285714Y-148407200D02*
X101142857Y-148454819D01*
X101142857Y-148454819D02*
X101047619Y-148454819D01*
X101047619Y-148454819D02*
X100904762Y-148407200D01*
X100904762Y-148407200D02*
X100809524Y-148311961D01*
X100809524Y-148311961D02*
X100761905Y-148216723D01*
X100761905Y-148216723D02*
X100714286Y-148026247D01*
X100714286Y-148026247D02*
X100714286Y-147883390D01*
X100714286Y-147883390D02*
X100761905Y-147692914D01*
X100761905Y-147692914D02*
X100809524Y-147597676D01*
X100809524Y-147597676D02*
X100904762Y-147502438D01*
X100904762Y-147502438D02*
X101047619Y-147454819D01*
X101047619Y-147454819D02*
X101142857Y-147454819D01*
X101142857Y-147454819D02*
X101285714Y-147502438D01*
X101285714Y-147502438D02*
X101333333Y-147550057D01*
X101714286Y-147550057D02*
X101761905Y-147502438D01*
X101761905Y-147502438D02*
X101857143Y-147454819D01*
X101857143Y-147454819D02*
X102095238Y-147454819D01*
X102095238Y-147454819D02*
X102190476Y-147502438D01*
X102190476Y-147502438D02*
X102238095Y-147550057D01*
X102238095Y-147550057D02*
X102285714Y-147645295D01*
X102285714Y-147645295D02*
X102285714Y-147740533D01*
X102285714Y-147740533D02*
X102238095Y-147883390D01*
X102238095Y-147883390D02*
X101666667Y-148454819D01*
X101666667Y-148454819D02*
X102285714Y-148454819D01*
X131343333Y-140454819D02*
X131010000Y-139978628D01*
X130771905Y-140454819D02*
X130771905Y-139454819D01*
X130771905Y-139454819D02*
X131152857Y-139454819D01*
X131152857Y-139454819D02*
X131248095Y-139502438D01*
X131248095Y-139502438D02*
X131295714Y-139550057D01*
X131295714Y-139550057D02*
X131343333Y-139645295D01*
X131343333Y-139645295D02*
X131343333Y-139788152D01*
X131343333Y-139788152D02*
X131295714Y-139883390D01*
X131295714Y-139883390D02*
X131248095Y-139931009D01*
X131248095Y-139931009D02*
X131152857Y-139978628D01*
X131152857Y-139978628D02*
X130771905Y-139978628D01*
X131724286Y-139550057D02*
X131771905Y-139502438D01*
X131771905Y-139502438D02*
X131867143Y-139454819D01*
X131867143Y-139454819D02*
X132105238Y-139454819D01*
X132105238Y-139454819D02*
X132200476Y-139502438D01*
X132200476Y-139502438D02*
X132248095Y-139550057D01*
X132248095Y-139550057D02*
X132295714Y-139645295D01*
X132295714Y-139645295D02*
X132295714Y-139740533D01*
X132295714Y-139740533D02*
X132248095Y-139883390D01*
X132248095Y-139883390D02*
X131676667Y-140454819D01*
X131676667Y-140454819D02*
X132295714Y-140454819D01*
X117761905Y-123204819D02*
X117761905Y-122204819D01*
X117761905Y-122204819D02*
X118000000Y-122204819D01*
X118000000Y-122204819D02*
X118142857Y-122252438D01*
X118142857Y-122252438D02*
X118238095Y-122347676D01*
X118238095Y-122347676D02*
X118285714Y-122442914D01*
X118285714Y-122442914D02*
X118333333Y-122633390D01*
X118333333Y-122633390D02*
X118333333Y-122776247D01*
X118333333Y-122776247D02*
X118285714Y-122966723D01*
X118285714Y-122966723D02*
X118238095Y-123061961D01*
X118238095Y-123061961D02*
X118142857Y-123157200D01*
X118142857Y-123157200D02*
X118000000Y-123204819D01*
X118000000Y-123204819D02*
X117761905Y-123204819D01*
X119190476Y-122204819D02*
X119000000Y-122204819D01*
X119000000Y-122204819D02*
X118904762Y-122252438D01*
X118904762Y-122252438D02*
X118857143Y-122300057D01*
X118857143Y-122300057D02*
X118761905Y-122442914D01*
X118761905Y-122442914D02*
X118714286Y-122633390D01*
X118714286Y-122633390D02*
X118714286Y-123014342D01*
X118714286Y-123014342D02*
X118761905Y-123109580D01*
X118761905Y-123109580D02*
X118809524Y-123157200D01*
X118809524Y-123157200D02*
X118904762Y-123204819D01*
X118904762Y-123204819D02*
X119095238Y-123204819D01*
X119095238Y-123204819D02*
X119190476Y-123157200D01*
X119190476Y-123157200D02*
X119238095Y-123109580D01*
X119238095Y-123109580D02*
X119285714Y-123014342D01*
X119285714Y-123014342D02*
X119285714Y-122776247D01*
X119285714Y-122776247D02*
X119238095Y-122681009D01*
X119238095Y-122681009D02*
X119190476Y-122633390D01*
X119190476Y-122633390D02*
X119095238Y-122585771D01*
X119095238Y-122585771D02*
X118904762Y-122585771D01*
X118904762Y-122585771D02*
X118809524Y-122633390D01*
X118809524Y-122633390D02*
X118761905Y-122681009D01*
X118761905Y-122681009D02*
X118714286Y-122776247D01*
X97957142Y-141154819D02*
X97623809Y-140678628D01*
X97385714Y-141154819D02*
X97385714Y-140154819D01*
X97385714Y-140154819D02*
X97766666Y-140154819D01*
X97766666Y-140154819D02*
X97861904Y-140202438D01*
X97861904Y-140202438D02*
X97909523Y-140250057D01*
X97909523Y-140250057D02*
X97957142Y-140345295D01*
X97957142Y-140345295D02*
X97957142Y-140488152D01*
X97957142Y-140488152D02*
X97909523Y-140583390D01*
X97909523Y-140583390D02*
X97861904Y-140631009D01*
X97861904Y-140631009D02*
X97766666Y-140678628D01*
X97766666Y-140678628D02*
X97385714Y-140678628D01*
X98338095Y-140250057D02*
X98385714Y-140202438D01*
X98385714Y-140202438D02*
X98480952Y-140154819D01*
X98480952Y-140154819D02*
X98719047Y-140154819D01*
X98719047Y-140154819D02*
X98814285Y-140202438D01*
X98814285Y-140202438D02*
X98861904Y-140250057D01*
X98861904Y-140250057D02*
X98909523Y-140345295D01*
X98909523Y-140345295D02*
X98909523Y-140440533D01*
X98909523Y-140440533D02*
X98861904Y-140583390D01*
X98861904Y-140583390D02*
X98290476Y-141154819D01*
X98290476Y-141154819D02*
X98909523Y-141154819D01*
X99290476Y-140250057D02*
X99338095Y-140202438D01*
X99338095Y-140202438D02*
X99433333Y-140154819D01*
X99433333Y-140154819D02*
X99671428Y-140154819D01*
X99671428Y-140154819D02*
X99766666Y-140202438D01*
X99766666Y-140202438D02*
X99814285Y-140250057D01*
X99814285Y-140250057D02*
X99861904Y-140345295D01*
X99861904Y-140345295D02*
X99861904Y-140440533D01*
X99861904Y-140440533D02*
X99814285Y-140583390D01*
X99814285Y-140583390D02*
X99242857Y-141154819D01*
X99242857Y-141154819D02*
X99861904Y-141154819D01*
X140857142Y-119454819D02*
X140523809Y-118978628D01*
X140285714Y-119454819D02*
X140285714Y-118454819D01*
X140285714Y-118454819D02*
X140666666Y-118454819D01*
X140666666Y-118454819D02*
X140761904Y-118502438D01*
X140761904Y-118502438D02*
X140809523Y-118550057D01*
X140809523Y-118550057D02*
X140857142Y-118645295D01*
X140857142Y-118645295D02*
X140857142Y-118788152D01*
X140857142Y-118788152D02*
X140809523Y-118883390D01*
X140809523Y-118883390D02*
X140761904Y-118931009D01*
X140761904Y-118931009D02*
X140666666Y-118978628D01*
X140666666Y-118978628D02*
X140285714Y-118978628D01*
X141809523Y-119454819D02*
X141238095Y-119454819D01*
X141523809Y-119454819D02*
X141523809Y-118454819D01*
X141523809Y-118454819D02*
X141428571Y-118597676D01*
X141428571Y-118597676D02*
X141333333Y-118692914D01*
X141333333Y-118692914D02*
X141238095Y-118740533D01*
X142190476Y-118550057D02*
X142238095Y-118502438D01*
X142238095Y-118502438D02*
X142333333Y-118454819D01*
X142333333Y-118454819D02*
X142571428Y-118454819D01*
X142571428Y-118454819D02*
X142666666Y-118502438D01*
X142666666Y-118502438D02*
X142714285Y-118550057D01*
X142714285Y-118550057D02*
X142761904Y-118645295D01*
X142761904Y-118645295D02*
X142761904Y-118740533D01*
X142761904Y-118740533D02*
X142714285Y-118883390D01*
X142714285Y-118883390D02*
X142142857Y-119454819D01*
X142142857Y-119454819D02*
X142761904Y-119454819D01*
X106161905Y-125059819D02*
X106161905Y-124059819D01*
X106161905Y-124059819D02*
X106400000Y-124059819D01*
X106400000Y-124059819D02*
X106542857Y-124107438D01*
X106542857Y-124107438D02*
X106638095Y-124202676D01*
X106638095Y-124202676D02*
X106685714Y-124297914D01*
X106685714Y-124297914D02*
X106733333Y-124488390D01*
X106733333Y-124488390D02*
X106733333Y-124631247D01*
X106733333Y-124631247D02*
X106685714Y-124821723D01*
X106685714Y-124821723D02*
X106638095Y-124916961D01*
X106638095Y-124916961D02*
X106542857Y-125012200D01*
X106542857Y-125012200D02*
X106400000Y-125059819D01*
X106400000Y-125059819D02*
X106161905Y-125059819D01*
X107638095Y-124059819D02*
X107161905Y-124059819D01*
X107161905Y-124059819D02*
X107114286Y-124536009D01*
X107114286Y-124536009D02*
X107161905Y-124488390D01*
X107161905Y-124488390D02*
X107257143Y-124440771D01*
X107257143Y-124440771D02*
X107495238Y-124440771D01*
X107495238Y-124440771D02*
X107590476Y-124488390D01*
X107590476Y-124488390D02*
X107638095Y-124536009D01*
X107638095Y-124536009D02*
X107685714Y-124631247D01*
X107685714Y-124631247D02*
X107685714Y-124869342D01*
X107685714Y-124869342D02*
X107638095Y-124964580D01*
X107638095Y-124964580D02*
X107590476Y-125012200D01*
X107590476Y-125012200D02*
X107495238Y-125059819D01*
X107495238Y-125059819D02*
X107257143Y-125059819D01*
X107257143Y-125059819D02*
X107161905Y-125012200D01*
X107161905Y-125012200D02*
X107114286Y-124964580D01*
X101333333Y-146859580D02*
X101285714Y-146907200D01*
X101285714Y-146907200D02*
X101142857Y-146954819D01*
X101142857Y-146954819D02*
X101047619Y-146954819D01*
X101047619Y-146954819D02*
X100904762Y-146907200D01*
X100904762Y-146907200D02*
X100809524Y-146811961D01*
X100809524Y-146811961D02*
X100761905Y-146716723D01*
X100761905Y-146716723D02*
X100714286Y-146526247D01*
X100714286Y-146526247D02*
X100714286Y-146383390D01*
X100714286Y-146383390D02*
X100761905Y-146192914D01*
X100761905Y-146192914D02*
X100809524Y-146097676D01*
X100809524Y-146097676D02*
X100904762Y-146002438D01*
X100904762Y-146002438D02*
X101047619Y-145954819D01*
X101047619Y-145954819D02*
X101142857Y-145954819D01*
X101142857Y-145954819D02*
X101285714Y-146002438D01*
X101285714Y-146002438D02*
X101333333Y-146050057D01*
X101666667Y-145954819D02*
X102285714Y-145954819D01*
X102285714Y-145954819D02*
X101952381Y-146335771D01*
X101952381Y-146335771D02*
X102095238Y-146335771D01*
X102095238Y-146335771D02*
X102190476Y-146383390D01*
X102190476Y-146383390D02*
X102238095Y-146431009D01*
X102238095Y-146431009D02*
X102285714Y-146526247D01*
X102285714Y-146526247D02*
X102285714Y-146764342D01*
X102285714Y-146764342D02*
X102238095Y-146859580D01*
X102238095Y-146859580D02*
X102190476Y-146907200D01*
X102190476Y-146907200D02*
X102095238Y-146954819D01*
X102095238Y-146954819D02*
X101809524Y-146954819D01*
X101809524Y-146954819D02*
X101714286Y-146907200D01*
X101714286Y-146907200D02*
X101666667Y-146859580D01*
X120359580Y-62142857D02*
X120407200Y-62190476D01*
X120407200Y-62190476D02*
X120454819Y-62333333D01*
X120454819Y-62333333D02*
X120454819Y-62428571D01*
X120454819Y-62428571D02*
X120407200Y-62571428D01*
X120407200Y-62571428D02*
X120311961Y-62666666D01*
X120311961Y-62666666D02*
X120216723Y-62714285D01*
X120216723Y-62714285D02*
X120026247Y-62761904D01*
X120026247Y-62761904D02*
X119883390Y-62761904D01*
X119883390Y-62761904D02*
X119692914Y-62714285D01*
X119692914Y-62714285D02*
X119597676Y-62666666D01*
X119597676Y-62666666D02*
X119502438Y-62571428D01*
X119502438Y-62571428D02*
X119454819Y-62428571D01*
X119454819Y-62428571D02*
X119454819Y-62333333D01*
X119454819Y-62333333D02*
X119502438Y-62190476D01*
X119502438Y-62190476D02*
X119550057Y-62142857D01*
X120454819Y-61190476D02*
X120454819Y-61761904D01*
X120454819Y-61476190D02*
X119454819Y-61476190D01*
X119454819Y-61476190D02*
X119597676Y-61571428D01*
X119597676Y-61571428D02*
X119692914Y-61666666D01*
X119692914Y-61666666D02*
X119740533Y-61761904D01*
X119454819Y-60857142D02*
X119454819Y-60190476D01*
X119454819Y-60190476D02*
X120454819Y-60619047D01*
X99966666Y-132651009D02*
X99633333Y-132651009D01*
X99633333Y-133174819D02*
X99633333Y-132174819D01*
X99633333Y-132174819D02*
X100109523Y-132174819D01*
X100823809Y-132651009D02*
X100966666Y-132698628D01*
X100966666Y-132698628D02*
X101014285Y-132746247D01*
X101014285Y-132746247D02*
X101061904Y-132841485D01*
X101061904Y-132841485D02*
X101061904Y-132984342D01*
X101061904Y-132984342D02*
X101014285Y-133079580D01*
X101014285Y-133079580D02*
X100966666Y-133127200D01*
X100966666Y-133127200D02*
X100871428Y-133174819D01*
X100871428Y-133174819D02*
X100490476Y-133174819D01*
X100490476Y-133174819D02*
X100490476Y-132174819D01*
X100490476Y-132174819D02*
X100823809Y-132174819D01*
X100823809Y-132174819D02*
X100919047Y-132222438D01*
X100919047Y-132222438D02*
X100966666Y-132270057D01*
X100966666Y-132270057D02*
X101014285Y-132365295D01*
X101014285Y-132365295D02*
X101014285Y-132460533D01*
X101014285Y-132460533D02*
X100966666Y-132555771D01*
X100966666Y-132555771D02*
X100919047Y-132603390D01*
X100919047Y-132603390D02*
X100823809Y-132651009D01*
X100823809Y-132651009D02*
X100490476Y-132651009D01*
X102014285Y-133174819D02*
X101442857Y-133174819D01*
X101728571Y-133174819D02*
X101728571Y-132174819D01*
X101728571Y-132174819D02*
X101633333Y-132317676D01*
X101633333Y-132317676D02*
X101538095Y-132412914D01*
X101538095Y-132412914D02*
X101442857Y-132460533D01*
X94666666Y-79454819D02*
X94666666Y-80169104D01*
X94666666Y-80169104D02*
X94619047Y-80311961D01*
X94619047Y-80311961D02*
X94523809Y-80407200D01*
X94523809Y-80407200D02*
X94380952Y-80454819D01*
X94380952Y-80454819D02*
X94285714Y-80454819D01*
X95142857Y-80454819D02*
X95142857Y-79454819D01*
X95142857Y-79454819D02*
X95523809Y-79454819D01*
X95523809Y-79454819D02*
X95619047Y-79502438D01*
X95619047Y-79502438D02*
X95666666Y-79550057D01*
X95666666Y-79550057D02*
X95714285Y-79645295D01*
X95714285Y-79645295D02*
X95714285Y-79788152D01*
X95714285Y-79788152D02*
X95666666Y-79883390D01*
X95666666Y-79883390D02*
X95619047Y-79931009D01*
X95619047Y-79931009D02*
X95523809Y-79978628D01*
X95523809Y-79978628D02*
X95142857Y-79978628D01*
X96095238Y-79550057D02*
X96142857Y-79502438D01*
X96142857Y-79502438D02*
X96238095Y-79454819D01*
X96238095Y-79454819D02*
X96476190Y-79454819D01*
X96476190Y-79454819D02*
X96571428Y-79502438D01*
X96571428Y-79502438D02*
X96619047Y-79550057D01*
X96619047Y-79550057D02*
X96666666Y-79645295D01*
X96666666Y-79645295D02*
X96666666Y-79740533D01*
X96666666Y-79740533D02*
X96619047Y-79883390D01*
X96619047Y-79883390D02*
X96047619Y-80454819D01*
X96047619Y-80454819D02*
X96666666Y-80454819D01*
X127557142Y-152154819D02*
X127223809Y-151678628D01*
X126985714Y-152154819D02*
X126985714Y-151154819D01*
X126985714Y-151154819D02*
X127366666Y-151154819D01*
X127366666Y-151154819D02*
X127461904Y-151202438D01*
X127461904Y-151202438D02*
X127509523Y-151250057D01*
X127509523Y-151250057D02*
X127557142Y-151345295D01*
X127557142Y-151345295D02*
X127557142Y-151488152D01*
X127557142Y-151488152D02*
X127509523Y-151583390D01*
X127509523Y-151583390D02*
X127461904Y-151631009D01*
X127461904Y-151631009D02*
X127366666Y-151678628D01*
X127366666Y-151678628D02*
X126985714Y-151678628D01*
X127938095Y-151250057D02*
X127985714Y-151202438D01*
X127985714Y-151202438D02*
X128080952Y-151154819D01*
X128080952Y-151154819D02*
X128319047Y-151154819D01*
X128319047Y-151154819D02*
X128414285Y-151202438D01*
X128414285Y-151202438D02*
X128461904Y-151250057D01*
X128461904Y-151250057D02*
X128509523Y-151345295D01*
X128509523Y-151345295D02*
X128509523Y-151440533D01*
X128509523Y-151440533D02*
X128461904Y-151583390D01*
X128461904Y-151583390D02*
X127890476Y-152154819D01*
X127890476Y-152154819D02*
X128509523Y-152154819D01*
X129414285Y-151154819D02*
X128938095Y-151154819D01*
X128938095Y-151154819D02*
X128890476Y-151631009D01*
X128890476Y-151631009D02*
X128938095Y-151583390D01*
X128938095Y-151583390D02*
X129033333Y-151535771D01*
X129033333Y-151535771D02*
X129271428Y-151535771D01*
X129271428Y-151535771D02*
X129366666Y-151583390D01*
X129366666Y-151583390D02*
X129414285Y-151631009D01*
X129414285Y-151631009D02*
X129461904Y-151726247D01*
X129461904Y-151726247D02*
X129461904Y-151964342D01*
X129461904Y-151964342D02*
X129414285Y-152059580D01*
X129414285Y-152059580D02*
X129366666Y-152107200D01*
X129366666Y-152107200D02*
X129271428Y-152154819D01*
X129271428Y-152154819D02*
X129033333Y-152154819D01*
X129033333Y-152154819D02*
X128938095Y-152107200D01*
X128938095Y-152107200D02*
X128890476Y-152059580D01*
X91638095Y-145054819D02*
X91638095Y-145864342D01*
X91638095Y-145864342D02*
X91685714Y-145959580D01*
X91685714Y-145959580D02*
X91733333Y-146007200D01*
X91733333Y-146007200D02*
X91828571Y-146054819D01*
X91828571Y-146054819D02*
X92019047Y-146054819D01*
X92019047Y-146054819D02*
X92114285Y-146007200D01*
X92114285Y-146007200D02*
X92161904Y-145959580D01*
X92161904Y-145959580D02*
X92209523Y-145864342D01*
X92209523Y-145864342D02*
X92209523Y-145054819D01*
X93114285Y-145054819D02*
X92923809Y-145054819D01*
X92923809Y-145054819D02*
X92828571Y-145102438D01*
X92828571Y-145102438D02*
X92780952Y-145150057D01*
X92780952Y-145150057D02*
X92685714Y-145292914D01*
X92685714Y-145292914D02*
X92638095Y-145483390D01*
X92638095Y-145483390D02*
X92638095Y-145864342D01*
X92638095Y-145864342D02*
X92685714Y-145959580D01*
X92685714Y-145959580D02*
X92733333Y-146007200D01*
X92733333Y-146007200D02*
X92828571Y-146054819D01*
X92828571Y-146054819D02*
X93019047Y-146054819D01*
X93019047Y-146054819D02*
X93114285Y-146007200D01*
X93114285Y-146007200D02*
X93161904Y-145959580D01*
X93161904Y-145959580D02*
X93209523Y-145864342D01*
X93209523Y-145864342D02*
X93209523Y-145626247D01*
X93209523Y-145626247D02*
X93161904Y-145531009D01*
X93161904Y-145531009D02*
X93114285Y-145483390D01*
X93114285Y-145483390D02*
X93019047Y-145435771D01*
X93019047Y-145435771D02*
X92828571Y-145435771D01*
X92828571Y-145435771D02*
X92733333Y-145483390D01*
X92733333Y-145483390D02*
X92685714Y-145531009D01*
X92685714Y-145531009D02*
X92638095Y-145626247D01*
X96994642Y-105409580D02*
X96947023Y-105457200D01*
X96947023Y-105457200D02*
X96804166Y-105504819D01*
X96804166Y-105504819D02*
X96708928Y-105504819D01*
X96708928Y-105504819D02*
X96566071Y-105457200D01*
X96566071Y-105457200D02*
X96470833Y-105361961D01*
X96470833Y-105361961D02*
X96423214Y-105266723D01*
X96423214Y-105266723D02*
X96375595Y-105076247D01*
X96375595Y-105076247D02*
X96375595Y-104933390D01*
X96375595Y-104933390D02*
X96423214Y-104742914D01*
X96423214Y-104742914D02*
X96470833Y-104647676D01*
X96470833Y-104647676D02*
X96566071Y-104552438D01*
X96566071Y-104552438D02*
X96708928Y-104504819D01*
X96708928Y-104504819D02*
X96804166Y-104504819D01*
X96804166Y-104504819D02*
X96947023Y-104552438D01*
X96947023Y-104552438D02*
X96994642Y-104600057D01*
X97947023Y-105504819D02*
X97375595Y-105504819D01*
X97661309Y-105504819D02*
X97661309Y-104504819D01*
X97661309Y-104504819D02*
X97566071Y-104647676D01*
X97566071Y-104647676D02*
X97470833Y-104742914D01*
X97470833Y-104742914D02*
X97375595Y-104790533D01*
X98423214Y-105504819D02*
X98613690Y-105504819D01*
X98613690Y-105504819D02*
X98708928Y-105457200D01*
X98708928Y-105457200D02*
X98756547Y-105409580D01*
X98756547Y-105409580D02*
X98851785Y-105266723D01*
X98851785Y-105266723D02*
X98899404Y-105076247D01*
X98899404Y-105076247D02*
X98899404Y-104695295D01*
X98899404Y-104695295D02*
X98851785Y-104600057D01*
X98851785Y-104600057D02*
X98804166Y-104552438D01*
X98804166Y-104552438D02*
X98708928Y-104504819D01*
X98708928Y-104504819D02*
X98518452Y-104504819D01*
X98518452Y-104504819D02*
X98423214Y-104552438D01*
X98423214Y-104552438D02*
X98375595Y-104600057D01*
X98375595Y-104600057D02*
X98327976Y-104695295D01*
X98327976Y-104695295D02*
X98327976Y-104933390D01*
X98327976Y-104933390D02*
X98375595Y-105028628D01*
X98375595Y-105028628D02*
X98423214Y-105076247D01*
X98423214Y-105076247D02*
X98518452Y-105123866D01*
X98518452Y-105123866D02*
X98708928Y-105123866D01*
X98708928Y-105123866D02*
X98804166Y-105076247D01*
X98804166Y-105076247D02*
X98851785Y-105028628D01*
X98851785Y-105028628D02*
X98899404Y-104933390D01*
X105699580Y-146666666D02*
X105747200Y-146714285D01*
X105747200Y-146714285D02*
X105794819Y-146857142D01*
X105794819Y-146857142D02*
X105794819Y-146952380D01*
X105794819Y-146952380D02*
X105747200Y-147095237D01*
X105747200Y-147095237D02*
X105651961Y-147190475D01*
X105651961Y-147190475D02*
X105556723Y-147238094D01*
X105556723Y-147238094D02*
X105366247Y-147285713D01*
X105366247Y-147285713D02*
X105223390Y-147285713D01*
X105223390Y-147285713D02*
X105032914Y-147238094D01*
X105032914Y-147238094D02*
X104937676Y-147190475D01*
X104937676Y-147190475D02*
X104842438Y-147095237D01*
X104842438Y-147095237D02*
X104794819Y-146952380D01*
X104794819Y-146952380D02*
X104794819Y-146857142D01*
X104794819Y-146857142D02*
X104842438Y-146714285D01*
X104842438Y-146714285D02*
X104890057Y-146666666D01*
X105128152Y-145809523D02*
X105794819Y-145809523D01*
X104747200Y-146047618D02*
X105461485Y-146285713D01*
X105461485Y-146285713D02*
X105461485Y-145666666D01*
X92761905Y-101254819D02*
X92761905Y-100254819D01*
X92761905Y-100254819D02*
X93000000Y-100254819D01*
X93000000Y-100254819D02*
X93142857Y-100302438D01*
X93142857Y-100302438D02*
X93238095Y-100397676D01*
X93238095Y-100397676D02*
X93285714Y-100492914D01*
X93285714Y-100492914D02*
X93333333Y-100683390D01*
X93333333Y-100683390D02*
X93333333Y-100826247D01*
X93333333Y-100826247D02*
X93285714Y-101016723D01*
X93285714Y-101016723D02*
X93238095Y-101111961D01*
X93238095Y-101111961D02*
X93142857Y-101207200D01*
X93142857Y-101207200D02*
X93000000Y-101254819D01*
X93000000Y-101254819D02*
X92761905Y-101254819D01*
X93666667Y-100254819D02*
X94285714Y-100254819D01*
X94285714Y-100254819D02*
X93952381Y-100635771D01*
X93952381Y-100635771D02*
X94095238Y-100635771D01*
X94095238Y-100635771D02*
X94190476Y-100683390D01*
X94190476Y-100683390D02*
X94238095Y-100731009D01*
X94238095Y-100731009D02*
X94285714Y-100826247D01*
X94285714Y-100826247D02*
X94285714Y-101064342D01*
X94285714Y-101064342D02*
X94238095Y-101159580D01*
X94238095Y-101159580D02*
X94190476Y-101207200D01*
X94190476Y-101207200D02*
X94095238Y-101254819D01*
X94095238Y-101254819D02*
X93809524Y-101254819D01*
X93809524Y-101254819D02*
X93714286Y-101207200D01*
X93714286Y-101207200D02*
X93666667Y-101159580D01*
X95022319Y-106382857D02*
X94546128Y-106716190D01*
X95022319Y-106954285D02*
X94022319Y-106954285D01*
X94022319Y-106954285D02*
X94022319Y-106573333D01*
X94022319Y-106573333D02*
X94069938Y-106478095D01*
X94069938Y-106478095D02*
X94117557Y-106430476D01*
X94117557Y-106430476D02*
X94212795Y-106382857D01*
X94212795Y-106382857D02*
X94355652Y-106382857D01*
X94355652Y-106382857D02*
X94450890Y-106430476D01*
X94450890Y-106430476D02*
X94498509Y-106478095D01*
X94498509Y-106478095D02*
X94546128Y-106573333D01*
X94546128Y-106573333D02*
X94546128Y-106954285D01*
X95022319Y-105430476D02*
X95022319Y-106001904D01*
X95022319Y-105716190D02*
X94022319Y-105716190D01*
X94022319Y-105716190D02*
X94165176Y-105811428D01*
X94165176Y-105811428D02*
X94260414Y-105906666D01*
X94260414Y-105906666D02*
X94308033Y-106001904D01*
X95022319Y-104954285D02*
X95022319Y-104763809D01*
X95022319Y-104763809D02*
X94974700Y-104668571D01*
X94974700Y-104668571D02*
X94927080Y-104620952D01*
X94927080Y-104620952D02*
X94784223Y-104525714D01*
X94784223Y-104525714D02*
X94593747Y-104478095D01*
X94593747Y-104478095D02*
X94212795Y-104478095D01*
X94212795Y-104478095D02*
X94117557Y-104525714D01*
X94117557Y-104525714D02*
X94069938Y-104573333D01*
X94069938Y-104573333D02*
X94022319Y-104668571D01*
X94022319Y-104668571D02*
X94022319Y-104859047D01*
X94022319Y-104859047D02*
X94069938Y-104954285D01*
X94069938Y-104954285D02*
X94117557Y-105001904D01*
X94117557Y-105001904D02*
X94212795Y-105049523D01*
X94212795Y-105049523D02*
X94450890Y-105049523D01*
X94450890Y-105049523D02*
X94546128Y-105001904D01*
X94546128Y-105001904D02*
X94593747Y-104954285D01*
X94593747Y-104954285D02*
X94641366Y-104859047D01*
X94641366Y-104859047D02*
X94641366Y-104668571D01*
X94641366Y-104668571D02*
X94593747Y-104573333D01*
X94593747Y-104573333D02*
X94546128Y-104525714D01*
X94546128Y-104525714D02*
X94450890Y-104478095D01*
%TO.C,R5*%
D12*
X105643641Y-142120000D02*
X105336359Y-142120000D01*
X105643641Y-142880000D02*
X105336359Y-142880000D01*
%TO.C,C14*%
X108865000Y-113161252D02*
X108865000Y-112638748D01*
X110335000Y-113161252D02*
X110335000Y-112638748D01*
%TO.C,U2*%
X102790000Y-59594100D02*
X102790000Y-60044100D01*
X102790000Y-59594100D02*
X115210000Y-59594100D01*
X102790000Y-67964100D02*
X102790000Y-69644100D01*
X102790000Y-75364100D02*
X102790000Y-75814100D01*
X102790000Y-75814100D02*
X115210000Y-75814100D01*
X115210000Y-59594100D02*
X115210000Y-60044100D01*
X115210000Y-67964100D02*
X115210000Y-69644100D01*
X115210000Y-75364100D02*
X115210000Y-75804100D01*
X102300000Y-60044100D02*
X102060000Y-59714100D01*
X102540000Y-59714100D01*
X102300000Y-60044100D01*
G36*
X102300000Y-60044100D02*
G01*
X102060000Y-59714100D01*
X102540000Y-59714100D01*
X102300000Y-60044100D01*
G37*
%TO.C,D2*%
X91955000Y-92830000D02*
X95045000Y-92830000D01*
X91955170Y-92830000D02*
G75*
G02*
X93500000Y-87280000I1544830J2560000D01*
G01*
X93500000Y-87280000D02*
G75*
G02*
X95044830Y-92830000I0J-2990000D01*
G01*
X96000000Y-90270000D02*
G75*
G02*
X91000000Y-90270000I-2500000J0D01*
G01*
X91000000Y-90270000D02*
G75*
G02*
X96000000Y-90270000I2500000J0D01*
G01*
%TO.C,R3*%
X129663641Y-144620000D02*
X129356359Y-144620000D01*
X129663641Y-145380000D02*
X129356359Y-145380000D01*
%TO.C,C5*%
X106140000Y-149107836D02*
X106140000Y-148892164D01*
X106860000Y-149107836D02*
X106860000Y-148892164D01*
%TO.C,C1*%
X103607836Y-144640000D02*
X103392164Y-144640000D01*
X103607836Y-145360000D02*
X103392164Y-145360000D01*
%TO.C,R17*%
X110720000Y-100093641D02*
X110720000Y-99786359D01*
X111480000Y-100093641D02*
X111480000Y-99786359D01*
%TO.C,C7*%
X103607836Y-150140000D02*
X103392164Y-150140000D01*
X103607836Y-150860000D02*
X103392164Y-150860000D01*
%TO.C,R28*%
X95477500Y-60762742D02*
X95477500Y-61237258D01*
X96522500Y-60762742D02*
X96522500Y-61237258D01*
%TO.C,R18*%
X99783859Y-97170000D02*
X100091141Y-97170000D01*
X99783859Y-97930000D02*
X100091141Y-97930000D01*
%TO.C,JP4*%
X97400000Y-65350000D02*
X97400000Y-63950000D01*
X98100000Y-63250000D02*
X98700000Y-63250000D01*
X98700000Y-66050000D02*
X98100000Y-66050000D01*
X99400000Y-63950000D02*
X99400000Y-65350000D01*
X97400000Y-63950000D02*
G75*
G02*
X98100000Y-63250000I699999J1D01*
G01*
X98100000Y-66050000D02*
G75*
G02*
X97400000Y-65350000I0J700000D01*
G01*
X98700000Y-63250000D02*
G75*
G02*
X99400000Y-63950000I1J-699999D01*
G01*
X99400000Y-65350000D02*
G75*
G02*
X98700000Y-66050000I-700000J0D01*
G01*
%TO.C,U5*%
D13*
X95577500Y-140020000D02*
X95577500Y-140020000D01*
X95577500Y-140020000D02*
X96597500Y-140020000D01*
X96597500Y-137740000D02*
X95577500Y-137740000D01*
X96597500Y-140020000D02*
X96597500Y-140020000D01*
D10*
X95317500Y-137680000D02*
G75*
G02*
X95157500Y-137680000I-80000J0D01*
G01*
X95157500Y-137680000D02*
G75*
G02*
X95317500Y-137680000I80000J0D01*
G01*
D14*
X95317500Y-137830000D02*
G75*
G02*
X95257500Y-137830000I-30000J0D01*
G01*
X95257500Y-137830000D02*
G75*
G02*
X95317500Y-137830000I30000J0D01*
G01*
%TO.C,J6*%
D12*
X132590000Y-149490000D02*
X133540000Y-149490000D01*
X132590000Y-149940000D02*
X132590000Y-149490000D01*
X132590000Y-153460000D02*
X132590000Y-153910000D01*
X132590000Y-153910000D02*
X137060000Y-153910000D01*
X133540000Y-149490000D02*
X133540000Y-148000000D01*
X137060000Y-149490000D02*
X136110000Y-149490000D01*
X137060000Y-149940000D02*
X137060000Y-149490000D01*
X137060000Y-153910000D02*
X137060000Y-153460000D01*
%TO.C,C10*%
X99892164Y-74840000D02*
X100107836Y-74840000D01*
X99892164Y-75560000D02*
X100107836Y-75560000D01*
%TO.C,R24*%
X95013641Y-142380000D02*
X94706359Y-142380000D01*
X95013641Y-143140000D02*
X94706359Y-143140000D01*
%TO.C,R6*%
X105653641Y-137120000D02*
X105346359Y-137120000D01*
X105653641Y-137880000D02*
X105346359Y-137880000D01*
%TO.C,R14*%
X117643641Y-64620000D02*
X117336359Y-64620000D01*
X117643641Y-65380000D02*
X117336359Y-65380000D01*
%TO.C,R16*%
X142763641Y-103570000D02*
X142456359Y-103570000D01*
X142763641Y-104330000D02*
X142456359Y-104330000D01*
%TO.C,D4*%
D13*
X129360000Y-129880000D02*
X129360000Y-129120000D01*
X129550000Y-131020000D02*
X130950000Y-131020000D01*
X129830000Y-128100000D02*
X130670000Y-128100000D01*
D14*
X131680000Y-130950000D02*
G75*
G02*
X131620000Y-130950000I-30000J0D01*
G01*
X131620000Y-130950000D02*
G75*
G02*
X131680000Y-130950000I30000J0D01*
G01*
D15*
X132410000Y-130460000D02*
G75*
G02*
X132110000Y-130460000I-150000J0D01*
G01*
X132110000Y-130460000D02*
G75*
G02*
X132410000Y-130460000I150000J0D01*
G01*
%TO.C,C8*%
D12*
X131640000Y-134607836D02*
X131640000Y-134392164D01*
X132360000Y-134607836D02*
X132360000Y-134392164D01*
%TO.C,R10*%
X97120000Y-89846359D02*
X97120000Y-90153641D01*
X97880000Y-89846359D02*
X97880000Y-90153641D01*
%TO.C,C9*%
X102640000Y-116372164D02*
X102640000Y-116587836D01*
X103360000Y-116372164D02*
X103360000Y-116587836D01*
%TO.C,C22*%
X92807836Y-137660000D02*
X92592164Y-137660000D01*
X92807836Y-138380000D02*
X92592164Y-138380000D01*
%TO.C,C21*%
X97092164Y-137140000D02*
X97307836Y-137140000D01*
X97092164Y-137860000D02*
X97307836Y-137860000D01*
%TO.C,D7*%
X93715000Y-62665000D02*
X93715000Y-64135000D01*
X93715000Y-64135000D02*
X96000000Y-64135000D01*
X96000000Y-62665000D02*
X93715000Y-62665000D01*
%TO.C,R9*%
X141728958Y-98336700D02*
X141254442Y-98336700D01*
X141728958Y-99381700D02*
X141254442Y-99381700D01*
%TO.C,C24*%
X98807836Y-138140000D02*
X98592164Y-138140000D01*
X98807836Y-138860000D02*
X98592164Y-138860000D01*
%TO.C,R4*%
X129653641Y-142120000D02*
X129346359Y-142120000D01*
X129653641Y-142880000D02*
X129346359Y-142880000D01*
%TO.C,U1*%
D16*
X108284000Y-133885500D02*
X108284000Y-151030500D01*
X110189000Y-152935500D02*
X124159000Y-152935500D01*
D17*
X112670000Y-153945500D02*
X112670000Y-152935500D01*
X121165272Y-154445500D02*
X113170000Y-154445500D01*
X121669000Y-152935500D02*
X121665272Y-153945772D01*
D16*
X124159000Y-131980500D02*
X110189000Y-131980500D01*
X126064000Y-133885500D02*
X126064000Y-151030500D01*
X108284000Y-133885500D02*
G75*
G02*
X110189000Y-131980500I1905000J0D01*
G01*
X110189000Y-152935500D02*
G75*
G02*
X108284000Y-151030500I0J1905000D01*
G01*
D17*
X113170000Y-154445500D02*
G75*
G02*
X112670000Y-153945500I0J500000D01*
G01*
X121665272Y-153945772D02*
G75*
G02*
X121165272Y-154445502I-500022J292D01*
G01*
D16*
X124159000Y-131980500D02*
G75*
G02*
X126064000Y-133885500I0J-1905000D01*
G01*
X126064000Y-151034500D02*
G75*
G02*
X124159000Y-152939500I-1905001J1D01*
G01*
D18*
X125252000Y-151802500D02*
G75*
G02*
X124748000Y-151802500I-252000J0D01*
G01*
X124748000Y-151802500D02*
G75*
G02*
X125252000Y-151802500I252000J0D01*
G01*
X126526000Y-152519500D02*
G75*
G02*
X126022000Y-152519500I-252000J0D01*
G01*
X126022000Y-152519500D02*
G75*
G02*
X126526000Y-152519500I252000J0D01*
G01*
%TO.C,R13*%
D12*
X99446359Y-71120000D02*
X99753641Y-71120000D01*
X99446359Y-71880000D02*
X99753641Y-71880000D01*
%TO.C,C23*%
X101407836Y-137360000D02*
X101192164Y-137360000D01*
X101407836Y-138080000D02*
X101192164Y-138080000D01*
%TO.C,Q1*%
X99277500Y-100390000D02*
X100797500Y-100390000D01*
X99277500Y-100440000D02*
X99277500Y-100390000D01*
X99277500Y-102340000D02*
X99277500Y-101560000D01*
X99277500Y-103510000D02*
X99277500Y-103460000D01*
X100797500Y-100390000D02*
X100797500Y-101390000D01*
X100797500Y-102510000D02*
X100797500Y-103510000D01*
X100797500Y-103510000D02*
X99277500Y-103510000D01*
X98737500Y-101570000D02*
X98977500Y-101900000D01*
X98497500Y-101900000D01*
X98737500Y-101570000D01*
G36*
X98977500Y-101900000D02*
G01*
X98497500Y-101900000D01*
X98737500Y-101570000D01*
X98977500Y-101900000D01*
G37*
%TO.C,C12*%
X112240000Y-112822164D02*
X112240000Y-113037836D01*
X112960000Y-112822164D02*
X112960000Y-113037836D01*
%TO.C,R8*%
X100120000Y-62553641D02*
X100120000Y-62246359D01*
X100880000Y-62553641D02*
X100880000Y-62246359D01*
%TO.C,Q4*%
X99877500Y-106565000D02*
X100057500Y-106565000D01*
X99877500Y-108465000D02*
X99877500Y-106565000D01*
X101917500Y-106565000D02*
X102097500Y-106565000D01*
X101917500Y-108785000D02*
X102097500Y-108785000D01*
X102097500Y-108785000D02*
X102097500Y-106565000D01*
X99927500Y-108785000D02*
X99927500Y-109065000D01*
X99647500Y-108785000D01*
X99927500Y-108785000D01*
G36*
X99927500Y-109065000D02*
G01*
X99647500Y-108785000D01*
X99927500Y-108785000D01*
X99927500Y-109065000D01*
G37*
%TO.C,C13*%
X112227836Y-108590000D02*
X112012164Y-108590000D01*
X112227836Y-109310000D02*
X112012164Y-109310000D01*
%TO.C,Q3*%
X99877500Y-109915000D02*
X100057500Y-109915000D01*
X99877500Y-111815000D02*
X99877500Y-109915000D01*
X101917500Y-109915000D02*
X102097500Y-109915000D01*
X101917500Y-112135000D02*
X102097500Y-112135000D01*
X102097500Y-112135000D02*
X102097500Y-109915000D01*
X99927500Y-112135000D02*
X99927500Y-112415000D01*
X99647500Y-112135000D01*
X99927500Y-112135000D01*
G36*
X99927500Y-112415000D02*
G01*
X99647500Y-112135000D01*
X99927500Y-112135000D01*
X99927500Y-112415000D01*
G37*
%TO.C,JP1*%
X91000000Y-83050000D02*
X91000000Y-81650000D01*
X91700000Y-80950000D02*
X92300000Y-80950000D01*
X92300000Y-83750000D02*
X91700000Y-83750000D01*
X93000000Y-81650000D02*
X93000000Y-83050000D01*
X91000000Y-81650000D02*
G75*
G02*
X91700000Y-80950000I699999J1D01*
G01*
X91700000Y-83750000D02*
G75*
G02*
X91000000Y-83050000I0J700000D01*
G01*
X92300000Y-80950000D02*
G75*
G02*
X93000000Y-81650000I1J-699999D01*
G01*
X93000000Y-83050000D02*
G75*
G02*
X92300000Y-83750000I-700000J0D01*
G01*
%TO.C,C15*%
X112207836Y-110090000D02*
X111992164Y-110090000D01*
X112207836Y-110810000D02*
X111992164Y-110810000D01*
%TO.C,R26*%
X128353641Y-148720000D02*
X128046359Y-148720000D01*
X128353641Y-149480000D02*
X128046359Y-149480000D01*
%TO.C,R20*%
X96557500Y-103296359D02*
X96557500Y-103603641D01*
X97317500Y-103296359D02*
X97317500Y-103603641D01*
%TO.C,C16*%
X116640000Y-61627836D02*
X116640000Y-61412164D01*
X117360000Y-61627836D02*
X117360000Y-61412164D01*
%TO.C,C18*%
X108865000Y-108011252D02*
X108865000Y-107488748D01*
X110335000Y-108011252D02*
X110335000Y-107488748D01*
%TO.C,JUMP*%
X141620000Y-82546359D02*
X141620000Y-82853641D01*
X142380000Y-82546359D02*
X142380000Y-82853641D01*
%TO.C,L2*%
X94538748Y-134510000D02*
X95061252Y-134510000D01*
X94538748Y-136730000D02*
X95061252Y-136730000D01*
%TO.C,R1*%
X129663641Y-137120000D02*
X129356359Y-137120000D01*
X129663641Y-137880000D02*
X129356359Y-137880000D01*
%TO.C,C20*%
X101277500Y-104562164D02*
X101277500Y-104777836D01*
X101997500Y-104562164D02*
X101997500Y-104777836D01*
%TO.C,SW1*%
X102250000Y-79500000D02*
X102250000Y-81000000D01*
X103500000Y-83500000D02*
X108000000Y-83500000D01*
X108000000Y-77000000D02*
X103500000Y-77000000D01*
X109250000Y-81000000D02*
X109250000Y-79500000D01*
%TO.C,J4*%
X103625000Y-57460000D02*
X104265000Y-57460000D01*
X103675000Y-54740000D02*
X106375000Y-54740000D01*
X104265000Y-57460000D02*
X104265000Y-58090000D01*
X106425000Y-57460000D02*
X105785000Y-57460000D01*
%TO.C,J3*%
X95160000Y-55110000D02*
X94050000Y-55110000D01*
X95160000Y-58360000D02*
X94050000Y-58360000D01*
X95750000Y-59410000D02*
X96250000Y-59410000D01*
X96000000Y-58910000D02*
X95750000Y-59410000D01*
X96250000Y-59410000D02*
X96000000Y-58910000D01*
X97950000Y-55110000D02*
X96840000Y-55110000D01*
X97950000Y-58360000D02*
X96840000Y-58360000D01*
%TO.C,TP1*%
X121200000Y-74600000D02*
G75*
G02*
X118200000Y-74600000I-1500000J0D01*
G01*
X118200000Y-74600000D02*
G75*
G02*
X121200000Y-74600000I1500000J0D01*
G01*
%TO.C,U4*%
X95637500Y-109205000D02*
X95637500Y-107845000D01*
X97437500Y-109410000D02*
X97437500Y-107840000D01*
X95637500Y-109525000D02*
X95637500Y-109805000D01*
X95357500Y-109525000D01*
X95637500Y-109525000D01*
G36*
X95637500Y-109805000D02*
G01*
X95357500Y-109525000D01*
X95637500Y-109525000D01*
X95637500Y-109805000D01*
G37*
%TO.C,R11*%
X98120000Y-94346359D02*
X98120000Y-94653641D01*
X98880000Y-94346359D02*
X98880000Y-94653641D01*
%TO.C,C25*%
X128307836Y-147540000D02*
X128092164Y-147540000D01*
X128307836Y-148260000D02*
X128092164Y-148260000D01*
%TO.C,R21*%
X112753641Y-105820000D02*
X112446359Y-105820000D01*
X112753641Y-106580000D02*
X112446359Y-106580000D01*
%TO.C,L1*%
X96990000Y-73337221D02*
X96990000Y-73662779D01*
X98010000Y-73337221D02*
X98010000Y-73662779D01*
%TO.C,J2*%
X90310000Y-113795000D02*
X90310000Y-129155000D01*
X90310000Y-113795000D02*
X98940000Y-113795000D01*
X90310000Y-113915000D02*
X98940000Y-113915000D01*
X90310000Y-114033095D02*
X98940000Y-114033095D01*
X90310000Y-114151190D02*
X98940000Y-114151190D01*
X90310000Y-114269286D02*
X98940000Y-114269286D01*
X90310000Y-114387381D02*
X98940000Y-114387381D01*
X90310000Y-114505476D02*
X98940000Y-114505476D01*
X90310000Y-114623571D02*
X98940000Y-114623571D01*
X90310000Y-114741667D02*
X98940000Y-114741667D01*
X90310000Y-114859762D02*
X98940000Y-114859762D01*
X90310000Y-114977857D02*
X98940000Y-114977857D01*
X90310000Y-115095952D02*
X98940000Y-115095952D01*
X90310000Y-115214048D02*
X98940000Y-115214048D01*
X90310000Y-115332143D02*
X98940000Y-115332143D01*
X90310000Y-115450238D02*
X98940000Y-115450238D01*
X90310000Y-115568333D02*
X98940000Y-115568333D01*
X90310000Y-115686429D02*
X98940000Y-115686429D01*
X90310000Y-115804524D02*
X98940000Y-115804524D01*
X90310000Y-115922619D02*
X98940000Y-115922619D01*
X90310000Y-116040714D02*
X98940000Y-116040714D01*
X90310000Y-116158810D02*
X98940000Y-116158810D01*
X90310000Y-116276905D02*
X98940000Y-116276905D01*
X90310000Y-116395000D02*
X98940000Y-116395000D01*
X90310000Y-118935000D02*
X98940000Y-118935000D01*
X90310000Y-121475000D02*
X98940000Y-121475000D01*
X90310000Y-124015000D02*
X98940000Y-124015000D01*
X90310000Y-126555000D02*
X98940000Y-126555000D01*
X90310000Y-129155000D02*
X98940000Y-129155000D01*
X98940000Y-113795000D02*
X98940000Y-129155000D01*
X98940000Y-114765000D02*
X99290000Y-114765000D01*
X98940000Y-115485000D02*
X99290000Y-115485000D01*
X98940000Y-117305000D02*
X99350000Y-117305000D01*
X98940000Y-118025000D02*
X99350000Y-118025000D01*
X98940000Y-119845000D02*
X99350000Y-119845000D01*
X98940000Y-120565000D02*
X99350000Y-120565000D01*
X98940000Y-122385000D02*
X99350000Y-122385000D01*
X98940000Y-123105000D02*
X99350000Y-123105000D01*
X98940000Y-124925000D02*
X99350000Y-124925000D01*
X98940000Y-125645000D02*
X99350000Y-125645000D01*
X98940000Y-127465000D02*
X99350000Y-127465000D01*
X98940000Y-128185000D02*
X99350000Y-128185000D01*
X100400000Y-113795000D02*
X101510000Y-113795000D01*
X101510000Y-113795000D02*
X101510000Y-115125000D01*
%TO.C,R7*%
X99346359Y-69620000D02*
X99653641Y-69620000D01*
X99346359Y-70380000D02*
X99653641Y-70380000D01*
%TO.C,R15*%
X142763641Y-107070000D02*
X142456359Y-107070000D01*
X142763641Y-107830000D02*
X142456359Y-107830000D01*
%TO.C,D8*%
X136715000Y-60765000D02*
X136715000Y-62235000D01*
X136715000Y-62235000D02*
X139000000Y-62235000D01*
X139000000Y-60765000D02*
X136715000Y-60765000D01*
%TO.C,J5*%
X138160000Y-55122500D02*
X137050000Y-55122500D01*
X138160000Y-58372500D02*
X137050000Y-58372500D01*
X138750000Y-59422500D02*
X139250000Y-59422500D01*
X139000000Y-58922500D02*
X138750000Y-59422500D01*
X139250000Y-59422500D02*
X139000000Y-58922500D01*
X140950000Y-55122500D02*
X139840000Y-55122500D01*
X140950000Y-58372500D02*
X139840000Y-58372500D01*
%TO.C,R23*%
X92770000Y-143313641D02*
X92770000Y-143006359D01*
X93530000Y-143313641D02*
X93530000Y-143006359D01*
%TO.C,J1*%
X133490000Y-137155000D02*
X133490000Y-135825000D01*
X134600000Y-137155000D02*
X133490000Y-137155000D01*
X136060000Y-127845000D02*
X135650000Y-127845000D01*
X136060000Y-128565000D02*
X135650000Y-128565000D01*
X136060000Y-130385000D02*
X135650000Y-130385000D01*
X136060000Y-131105000D02*
X135650000Y-131105000D01*
X136060000Y-132925000D02*
X135650000Y-132925000D01*
X136060000Y-133645000D02*
X135650000Y-133645000D01*
X136060000Y-135465000D02*
X135710000Y-135465000D01*
X136060000Y-136185000D02*
X135710000Y-136185000D01*
X136060000Y-137155000D02*
X136060000Y-126875000D01*
X144690000Y-126875000D02*
X136060000Y-126875000D01*
X144690000Y-129475000D02*
X136060000Y-129475000D01*
X144690000Y-132015000D02*
X136060000Y-132015000D01*
X144690000Y-134555000D02*
X136060000Y-134555000D01*
X144690000Y-134673095D02*
X136060000Y-134673095D01*
X144690000Y-134791190D02*
X136060000Y-134791190D01*
X144690000Y-134909286D02*
X136060000Y-134909286D01*
X144690000Y-135027381D02*
X136060000Y-135027381D01*
X144690000Y-135145476D02*
X136060000Y-135145476D01*
X144690000Y-135263571D02*
X136060000Y-135263571D01*
X144690000Y-135381667D02*
X136060000Y-135381667D01*
X144690000Y-135499762D02*
X136060000Y-135499762D01*
X144690000Y-135617857D02*
X136060000Y-135617857D01*
X144690000Y-135735952D02*
X136060000Y-135735952D01*
X144690000Y-135854048D02*
X136060000Y-135854048D01*
X144690000Y-135972143D02*
X136060000Y-135972143D01*
X144690000Y-136090238D02*
X136060000Y-136090238D01*
X144690000Y-136208333D02*
X136060000Y-136208333D01*
X144690000Y-136326429D02*
X136060000Y-136326429D01*
X144690000Y-136444524D02*
X136060000Y-136444524D01*
X144690000Y-136562619D02*
X136060000Y-136562619D01*
X144690000Y-136680714D02*
X136060000Y-136680714D01*
X144690000Y-136798810D02*
X136060000Y-136798810D01*
X144690000Y-136916905D02*
X136060000Y-136916905D01*
X144690000Y-137035000D02*
X136060000Y-137035000D01*
X144690000Y-137155000D02*
X136060000Y-137155000D01*
X144690000Y-137155000D02*
X144690000Y-126875000D01*
%TO.C,C11*%
X142472164Y-106090000D02*
X142687836Y-106090000D01*
X142472164Y-106810000D02*
X142687836Y-106810000D01*
%TO.C,U3*%
D13*
X114600000Y-78250000D02*
X114600000Y-82750000D01*
X114600000Y-84710000D02*
X114600000Y-85290000D01*
X114600000Y-87250000D02*
X114600000Y-87830000D01*
X114600000Y-89790000D02*
X114600000Y-95430000D01*
X114600000Y-97390000D02*
X114600000Y-97970000D01*
X114600000Y-99930000D02*
X114600000Y-100510000D01*
X114600000Y-102470000D02*
X114600000Y-103050000D01*
X114600000Y-105010000D02*
X114600000Y-105590000D01*
X114600000Y-107550000D02*
X114600000Y-108130000D01*
X114600000Y-110090000D02*
X114600000Y-110670000D01*
X114600000Y-112630000D02*
X114600000Y-113210000D01*
X114600000Y-115170000D02*
X114600000Y-116750000D01*
X114600000Y-116750000D02*
X138600000Y-116750000D01*
X117500000Y-79950000D02*
X117500000Y-114950000D01*
X117500000Y-114950000D02*
X134600000Y-114950000D01*
X130600000Y-79950000D02*
X117500000Y-79950000D01*
X130600000Y-84950000D02*
X130600000Y-79950000D01*
X132600000Y-78950000D02*
X136600000Y-78950000D01*
X132600000Y-82950000D02*
X132600000Y-78950000D01*
X134600000Y-84950000D02*
X130600000Y-84950000D01*
X134600000Y-114950000D02*
X134600000Y-84950000D01*
X136600000Y-78950000D02*
X136600000Y-82950000D01*
X136600000Y-82950000D02*
X132600000Y-82950000D01*
X138600000Y-78250000D02*
X114600000Y-78250000D01*
X138600000Y-82730000D02*
X138600000Y-78250000D01*
X138600000Y-85270000D02*
X138600000Y-84690000D01*
X138600000Y-87810000D02*
X138600000Y-87230000D01*
X138600000Y-95430000D02*
X138600000Y-89770000D01*
X138600000Y-97970000D02*
X138600000Y-97390000D01*
X138600000Y-100510000D02*
X138600000Y-99930000D01*
X138600000Y-103050000D02*
X138600000Y-102470000D01*
X138600000Y-105590000D02*
X138600000Y-105010000D01*
X138600000Y-108130000D02*
X138600000Y-107550000D01*
X138600000Y-110670000D02*
X138600000Y-110090000D01*
X138600000Y-113210000D02*
X138600000Y-112630000D01*
X138600000Y-116750000D02*
X138600000Y-115170000D01*
D19*
X113400000Y-83730000D02*
G75*
G02*
X112900000Y-83730000I-250000J0D01*
G01*
X112900000Y-83730000D02*
G75*
G02*
X113400000Y-83730000I250000J0D01*
G01*
D14*
X114630000Y-78270000D02*
G75*
G02*
X114570000Y-78270000I-30000J0D01*
G01*
X114570000Y-78270000D02*
G75*
G02*
X114630000Y-78270000I30000J0D01*
G01*
%TO.C,JP3*%
D12*
X139650000Y-123300000D02*
X139650000Y-122700000D01*
X140300000Y-122000000D02*
X143100000Y-122000000D01*
X143100000Y-124000000D02*
X140300000Y-124000000D01*
X143750000Y-122700000D02*
X143750000Y-123300000D01*
X139650000Y-122700000D02*
G75*
G02*
X140350000Y-122000000I700000J0D01*
G01*
X140350000Y-124000000D02*
G75*
G02*
X139650000Y-123300000I0J700000D01*
G01*
X143050000Y-122000000D02*
G75*
G02*
X143750000Y-122700000I1J-699999D01*
G01*
X143750000Y-123300000D02*
G75*
G02*
X143050000Y-124000000I-699999J-1D01*
G01*
%TO.C,C6*%
X105140000Y-149107836D02*
X105140000Y-148892164D01*
X105860000Y-149107836D02*
X105860000Y-148892164D01*
%TO.C,C2*%
X103607836Y-147640000D02*
X103392164Y-147640000D01*
X103607836Y-148360000D02*
X103392164Y-148360000D01*
%TO.C,R2*%
X129663641Y-139620000D02*
X129356359Y-139620000D01*
X129663641Y-140380000D02*
X129356359Y-140380000D01*
%TO.C,D6*%
X113560000Y-117375000D02*
X113560000Y-121675000D01*
X113560000Y-117375000D02*
X121220000Y-117375000D01*
X113560000Y-121675000D02*
X121220000Y-121675000D01*
%TO.C,R22*%
X95946359Y-140120000D02*
X96253641Y-140120000D01*
X95946359Y-140880000D02*
X96253641Y-140880000D01*
%TO.C,R12*%
X141737258Y-119977500D02*
X141262742Y-119977500D01*
X141737258Y-121022500D02*
X141262742Y-121022500D01*
%TO.C,D5*%
D13*
X102790000Y-125025000D02*
X102790000Y-124185000D01*
X104570000Y-125495000D02*
X103810000Y-125495000D01*
X105710000Y-125305000D02*
X105710000Y-123905000D01*
D15*
X105300000Y-122595000D02*
G75*
G02*
X105000000Y-122595000I-150000J0D01*
G01*
X105000000Y-122595000D02*
G75*
G02*
X105300000Y-122595000I150000J0D01*
G01*
D14*
X105670000Y-123205000D02*
G75*
G02*
X105610000Y-123205000I-30000J0D01*
G01*
X105610000Y-123205000D02*
G75*
G02*
X105670000Y-123205000I30000J0D01*
G01*
%TO.C,R27*%
D12*
X97037258Y-61377500D02*
X96562742Y-61377500D01*
X97037258Y-62422500D02*
X96562742Y-62422500D01*
%TO.C,C3*%
X103607836Y-146140000D02*
X103392164Y-146140000D01*
X103607836Y-146860000D02*
X103392164Y-146860000D01*
%TO.C,C17*%
X118140000Y-61607836D02*
X118140000Y-61392164D01*
X118860000Y-61607836D02*
X118860000Y-61392164D01*
%TO.C,FB1*%
X100290000Y-134757221D02*
X100290000Y-135082779D01*
X101310000Y-134757221D02*
X101310000Y-135082779D01*
%TO.C,JP2*%
X94500000Y-83050000D02*
X94500000Y-81650000D01*
X95200000Y-80950000D02*
X95800000Y-80950000D01*
X95800000Y-83750000D02*
X95200000Y-83750000D01*
X96500000Y-81650000D02*
X96500000Y-83050000D01*
X94500000Y-81650000D02*
G75*
G02*
X95200000Y-80950000I699999J1D01*
G01*
X95200000Y-83750000D02*
G75*
G02*
X94500000Y-83050000I0J700000D01*
G01*
X95800000Y-80950000D02*
G75*
G02*
X96500000Y-81650000I1J-699999D01*
G01*
X96500000Y-83050000D02*
G75*
G02*
X95800000Y-83750000I-700000J0D01*
G01*
%TO.C,R25*%
X128343641Y-149920000D02*
X128036359Y-149920000D01*
X128343641Y-150680000D02*
X128036359Y-150680000D01*
%TO.C,U6*%
X93740000Y-146250000D02*
X93740000Y-144950000D01*
X96060000Y-146250000D02*
X96060000Y-145200000D01*
X96060000Y-144840000D02*
X96060000Y-144560000D01*
X96340000Y-144840000D01*
X96060000Y-144840000D01*
G36*
X96340000Y-144840000D02*
G01*
X96060000Y-144840000D01*
X96060000Y-144560000D01*
X96340000Y-144840000D01*
G37*
%TO.C,C19*%
X97445336Y-105890000D02*
X97229664Y-105890000D01*
X97445336Y-106610000D02*
X97229664Y-106610000D01*
%TO.C,C4*%
X106140000Y-146607836D02*
X106140000Y-146392164D01*
X106860000Y-146607836D02*
X106860000Y-146392164D01*
%TO.C,D3*%
X91955000Y-99290000D02*
X95045000Y-99290000D01*
X91955170Y-99290000D02*
G75*
G02*
X93500000Y-93740000I1544830J2560000D01*
G01*
X93500000Y-93740000D02*
G75*
G02*
X95044830Y-99290000I0J-2990000D01*
G01*
X96000000Y-96730000D02*
G75*
G02*
X91000000Y-96730000I-2500000J0D01*
G01*
X91000000Y-96730000D02*
G75*
G02*
X96000000Y-96730000I2500000J0D01*
G01*
%TO.C,R19*%
X95357500Y-105893641D02*
X95357500Y-105586359D01*
X96117500Y-105893641D02*
X96117500Y-105586359D01*
%TD*%
%LPC*%
%TO.C,JP4*%
G36*
X97650000Y-64500000D02*
G01*
X99150000Y-64500000D01*
X99150000Y-64800000D01*
X97650000Y-64800000D01*
X97650000Y-64500000D01*
G37*
%TO.C,JP1*%
G36*
X91250000Y-82200000D02*
G01*
X92750000Y-82200000D01*
X92750000Y-82500000D01*
X91250000Y-82500000D01*
X91250000Y-82200000D01*
G37*
%TO.C,J4*%
G36*
X104085000Y-55000000D02*
G01*
X105965000Y-55000000D01*
X105965000Y-57090000D01*
X104085000Y-57090000D01*
X104085000Y-55000000D01*
G37*
%TO.C,JP3*%
G36*
X140950000Y-122250000D02*
G01*
X142450000Y-122250000D01*
X142450000Y-123750000D01*
X140950000Y-123750000D01*
X140950000Y-122250000D01*
G37*
%TO.C,JP2*%
G36*
X94750000Y-82200000D02*
G01*
X96250000Y-82200000D01*
X96250000Y-82500000D01*
X94750000Y-82500000D01*
X94750000Y-82200000D01*
G37*
%TD*%
D20*
%TO.C,R5*%
X106000000Y-142500000D03*
X104980000Y-142500000D03*
%TD*%
D21*
%TO.C,C14*%
X109600000Y-113850000D03*
X109600000Y-111950000D03*
%TD*%
D22*
%TO.C,U2*%
X103000000Y-60704100D03*
X103000000Y-61804100D03*
X103000000Y-62904100D03*
X103000000Y-64004100D03*
X103000000Y-65104100D03*
X103000000Y-66204100D03*
X103000000Y-67304100D03*
X103000000Y-70304100D03*
X103000000Y-71404100D03*
X103000000Y-72504100D03*
X103000000Y-73604100D03*
X103000000Y-74704100D03*
X115000000Y-74704100D03*
X115000000Y-73604100D03*
X115000000Y-72504100D03*
X115000000Y-71404100D03*
X115000000Y-70304100D03*
X115000000Y-67304100D03*
X115000000Y-66204100D03*
X115000000Y-65104100D03*
X115000000Y-64004100D03*
X115000000Y-62904100D03*
X115000000Y-61804100D03*
X115000000Y-60704100D03*
%TD*%
D23*
%TO.C,D2*%
X93500000Y-91540000D03*
D24*
X93500000Y-89000000D03*
%TD*%
D20*
%TO.C,R3*%
X130020000Y-145000000D03*
X129000000Y-145000000D03*
%TD*%
D25*
%TO.C,C5*%
X106500000Y-149480000D03*
X106500000Y-148520000D03*
%TD*%
D26*
%TO.C,C1*%
X103980000Y-145000000D03*
X103020000Y-145000000D03*
%TD*%
D27*
%TO.C,R17*%
X111100000Y-100450000D03*
X111100000Y-99430000D03*
%TD*%
D26*
%TO.C,C7*%
X103980000Y-150500000D03*
X103020000Y-150500000D03*
%TD*%
D28*
%TO.C,R28*%
X96000000Y-60175000D03*
X96000000Y-61825000D03*
%TD*%
D29*
%TO.C,R18*%
X99427500Y-97550000D03*
X100447500Y-97550000D03*
%TD*%
D30*
%TO.C,JP4*%
X98400000Y-64000000D03*
D31*
X98400000Y-65300000D03*
%TD*%
D32*
%TO.C,U5*%
X95447500Y-138130000D03*
X95447500Y-138630000D03*
X95447500Y-139130000D03*
X95447500Y-139630000D03*
X96727500Y-139630000D03*
X96727500Y-139130000D03*
X96727500Y-138630000D03*
X96727500Y-138130000D03*
%TD*%
D33*
%TO.C,J6*%
X134200000Y-148800000D03*
X135450000Y-148800000D03*
D34*
X131650000Y-151700000D03*
X138000000Y-151700000D03*
%TD*%
D35*
%TO.C,C10*%
X99520000Y-75200000D03*
X100480000Y-75200000D03*
%TD*%
D20*
%TO.C,R24*%
X95370000Y-142760000D03*
X94350000Y-142760000D03*
%TD*%
%TO.C,R6*%
X106010000Y-137500000D03*
X104990000Y-137500000D03*
%TD*%
%TO.C,R14*%
X118000000Y-65000000D03*
X116980000Y-65000000D03*
%TD*%
%TO.C,R16*%
X143120000Y-103950000D03*
X142100000Y-103950000D03*
%TD*%
D36*
%TO.C,H2*%
X92800000Y-66400000D03*
%TD*%
D37*
%TO.C,D4*%
X131350000Y-130450000D03*
X131350000Y-129500000D03*
X131350000Y-128550000D03*
X129150000Y-128550000D03*
X129150000Y-130450000D03*
%TD*%
D25*
%TO.C,C8*%
X132000000Y-134980000D03*
X132000000Y-134020000D03*
%TD*%
D38*
%TO.C,R10*%
X97500000Y-89490000D03*
X97500000Y-90510000D03*
%TD*%
D39*
%TO.C,C9*%
X103000000Y-116000000D03*
X103000000Y-116960000D03*
%TD*%
D26*
%TO.C,C22*%
X93180000Y-138020000D03*
X92220000Y-138020000D03*
%TD*%
D35*
%TO.C,C21*%
X96720000Y-137500000D03*
X97680000Y-137500000D03*
%TD*%
D40*
%TO.C,D7*%
X94412500Y-63400000D03*
X95987500Y-63400000D03*
%TD*%
D41*
%TO.C,R9*%
X142316700Y-98859200D03*
X140666700Y-98859200D03*
%TD*%
D26*
%TO.C,C24*%
X99180000Y-138500000D03*
X98220000Y-138500000D03*
%TD*%
D20*
%TO.C,R4*%
X130010000Y-142500000D03*
X128990000Y-142500000D03*
%TD*%
D42*
%TO.C,U1*%
X125229000Y-150018500D03*
X125229000Y-147478500D03*
X125229000Y-144938500D03*
X125229000Y-142398500D03*
X125229000Y-139858500D03*
X125229000Y-137318500D03*
X125229000Y-134778500D03*
X109064000Y-134778500D03*
X109064000Y-137318500D03*
X109064000Y-139858500D03*
X109064000Y-142398500D03*
X109064000Y-144938500D03*
X109064000Y-147478500D03*
X109064000Y-150018500D03*
D43*
X118447400Y-151040000D03*
X115907400Y-151040000D03*
X118447400Y-148500000D03*
X115907400Y-148500000D03*
X118447400Y-145960000D03*
X115907400Y-145960000D03*
X118447400Y-143420000D03*
X116000000Y-143476800D03*
D44*
X118955400Y-136866800D03*
X116415400Y-136866800D03*
%TD*%
D29*
%TO.C,R13*%
X99090000Y-71500000D03*
X100110000Y-71500000D03*
%TD*%
D26*
%TO.C,C23*%
X101780000Y-137720000D03*
X100820000Y-137720000D03*
%TD*%
D45*
%TO.C,Q1*%
X99100000Y-101000000D03*
X99100000Y-102900000D03*
X100975000Y-101950000D03*
%TD*%
D39*
%TO.C,C12*%
X112600000Y-112450000D03*
X112600000Y-113410000D03*
%TD*%
D27*
%TO.C,R8*%
X100500000Y-62910000D03*
X100500000Y-61890000D03*
%TD*%
D46*
%TO.C,Q4*%
X100337500Y-108650000D03*
X100987500Y-108650000D03*
X101637500Y-108650000D03*
X101637500Y-106700000D03*
X100987500Y-106700000D03*
X100337500Y-106700000D03*
D47*
X101637500Y-107580000D03*
D48*
X100662500Y-107675000D03*
%TD*%
D36*
%TO.C,H4*%
X141800000Y-151500000D03*
%TD*%
D26*
%TO.C,C13*%
X112600000Y-108950000D03*
X111640000Y-108950000D03*
%TD*%
D46*
%TO.C,Q3*%
X100337500Y-112000000D03*
X100987500Y-112000000D03*
X101637500Y-112000000D03*
X101637500Y-110050000D03*
X100987500Y-110050000D03*
X100337500Y-110050000D03*
D47*
X101637500Y-110930000D03*
D48*
X100662500Y-111025000D03*
%TD*%
D30*
%TO.C,JP1*%
X92000000Y-81700000D03*
D31*
X92000000Y-83000000D03*
%TD*%
D26*
%TO.C,C15*%
X112580000Y-110450000D03*
X111620000Y-110450000D03*
%TD*%
D20*
%TO.C,R26*%
X128710000Y-149100000D03*
X127690000Y-149100000D03*
%TD*%
D38*
%TO.C,R20*%
X96937500Y-102940000D03*
X96937500Y-103960000D03*
%TD*%
D25*
%TO.C,C16*%
X117000000Y-62000000D03*
X117000000Y-61040000D03*
%TD*%
D36*
%TO.C,H3*%
X92900000Y-151500000D03*
%TD*%
D21*
%TO.C,C18*%
X109600000Y-108700000D03*
X109600000Y-106800000D03*
%TD*%
D38*
%TO.C,JUMP*%
X142000000Y-82190000D03*
X142000000Y-83210000D03*
%TD*%
D49*
%TO.C,L2*%
X93637500Y-135620000D03*
X95962500Y-135620000D03*
%TD*%
D20*
%TO.C,R1*%
X130020000Y-137500000D03*
X129000000Y-137500000D03*
%TD*%
D39*
%TO.C,C20*%
X101637500Y-104190000D03*
X101637500Y-105150000D03*
%TD*%
D50*
%TO.C,SW1*%
X102500000Y-78000000D03*
X109000000Y-78000000D03*
X102500000Y-82500000D03*
X109000000Y-82500000D03*
%TD*%
D51*
%TO.C,J4*%
X105025000Y-57625000D03*
D52*
X103550000Y-56100000D03*
X106500000Y-56100000D03*
%TD*%
D53*
%TO.C,J3*%
X96000000Y-56650000D03*
D54*
X93175000Y-56900000D03*
X98825000Y-56900000D03*
%TD*%
D50*
%TO.C,TP1*%
X119700000Y-74600000D03*
%TD*%
D55*
%TO.C,U4*%
X96037500Y-109150000D03*
D56*
X96537500Y-109200000D03*
X97037500Y-109200000D03*
X97037500Y-108050000D03*
X96537500Y-108050000D03*
X96037500Y-108050000D03*
%TD*%
D38*
%TO.C,R11*%
X98500000Y-93990000D03*
X98500000Y-95010000D03*
%TD*%
D26*
%TO.C,C25*%
X128680000Y-147900000D03*
X127720000Y-147900000D03*
%TD*%
D20*
%TO.C,R21*%
X113110000Y-106200000D03*
X112090000Y-106200000D03*
%TD*%
D57*
%TO.C,L1*%
X97500000Y-72712500D03*
X97500000Y-74287500D03*
%TD*%
D58*
%TO.C,J2*%
X100400000Y-115125000D03*
D43*
X100400000Y-117665000D03*
X100400000Y-120205000D03*
X100400000Y-122745000D03*
X100400000Y-125285000D03*
X100400000Y-127825000D03*
%TD*%
D29*
%TO.C,R7*%
X98990000Y-70000000D03*
X100010000Y-70000000D03*
%TD*%
D20*
%TO.C,R15*%
X143120000Y-107450000D03*
X142100000Y-107450000D03*
%TD*%
D40*
%TO.C,D8*%
X137412500Y-61500000D03*
X138987500Y-61500000D03*
%TD*%
D53*
%TO.C,J5*%
X139000000Y-56662500D03*
D54*
X136175000Y-56912500D03*
X141825000Y-56912500D03*
%TD*%
D27*
%TO.C,R23*%
X93150000Y-143670000D03*
X93150000Y-142650000D03*
%TD*%
D58*
%TO.C,J1*%
X134600000Y-135825000D03*
D43*
X134600000Y-133285000D03*
X134600000Y-130745000D03*
X134600000Y-128205000D03*
%TD*%
D35*
%TO.C,C11*%
X142100000Y-106450000D03*
X143060000Y-106450000D03*
%TD*%
D59*
%TO.C,U3*%
X114950000Y-83730000D03*
X114950000Y-86270000D03*
X114950000Y-88810000D03*
X114950000Y-96410000D03*
X114950000Y-98950000D03*
X114950000Y-101490000D03*
X114950000Y-104030000D03*
X114950000Y-106570000D03*
X114950000Y-109110000D03*
X114950000Y-111650000D03*
X114950000Y-114190000D03*
X138250000Y-114190000D03*
X138250000Y-111650000D03*
X138250000Y-109110000D03*
X138250000Y-106570000D03*
X138250000Y-104030000D03*
X138250000Y-101490000D03*
X138250000Y-98950000D03*
X138250000Y-96410000D03*
X138250000Y-88790000D03*
X138250000Y-86250000D03*
X138250000Y-83710000D03*
%TD*%
D60*
%TO.C,JP3*%
X143000000Y-123000000D03*
D61*
X141700000Y-123000000D03*
D62*
X140400000Y-123000000D03*
%TD*%
D36*
%TO.C,H1*%
X124600000Y-57400000D03*
%TD*%
D25*
%TO.C,C6*%
X105500000Y-149480000D03*
X105500000Y-148520000D03*
%TD*%
D26*
%TO.C,C2*%
X103980000Y-148000000D03*
X103020000Y-148000000D03*
%TD*%
D20*
%TO.C,R2*%
X130020000Y-140000000D03*
X129000000Y-140000000D03*
%TD*%
D63*
%TO.C,D6*%
X115620000Y-119525000D03*
D64*
X121420000Y-119525000D03*
%TD*%
D29*
%TO.C,R22*%
X95590000Y-140500000D03*
X96610000Y-140500000D03*
%TD*%
D41*
%TO.C,R12*%
X142325000Y-120500000D03*
X140675000Y-120500000D03*
%TD*%
D65*
%TO.C,D5*%
X105140000Y-123505000D03*
X104190000Y-123505000D03*
X103240000Y-123505000D03*
X103240000Y-125705000D03*
X105140000Y-125705000D03*
%TD*%
D41*
%TO.C,R27*%
X97625000Y-61900000D03*
X95975000Y-61900000D03*
%TD*%
D26*
%TO.C,C3*%
X103980000Y-146500000D03*
X103020000Y-146500000D03*
%TD*%
D25*
%TO.C,C17*%
X118500000Y-61980000D03*
X118500000Y-61020000D03*
%TD*%
D57*
%TO.C,FB1*%
X100800000Y-134132500D03*
X100800000Y-135707500D03*
%TD*%
D30*
%TO.C,JP2*%
X95500000Y-81700000D03*
D31*
X95500000Y-83000000D03*
%TD*%
D20*
%TO.C,R25*%
X128700000Y-150300000D03*
X127680000Y-150300000D03*
%TD*%
D66*
%TO.C,U6*%
X95650000Y-144860000D03*
X95150000Y-144860000D03*
X94650000Y-144860000D03*
X94150000Y-144860000D03*
X94150000Y-146340000D03*
X94650000Y-146340000D03*
X95150000Y-146340000D03*
X95650000Y-146340000D03*
%TD*%
D26*
%TO.C,C19*%
X97817500Y-106250000D03*
X96857500Y-106250000D03*
%TD*%
D25*
%TO.C,C4*%
X106500000Y-146980000D03*
X106500000Y-146020000D03*
%TD*%
D23*
%TO.C,D3*%
X93500000Y-98000000D03*
D24*
X93500000Y-95460000D03*
%TD*%
D27*
%TO.C,R19*%
X95737500Y-106250000D03*
X95737500Y-105230000D03*
%TD*%
D67*
%TO.C,BT1*%
X122500000Y-65870000D03*
D68*
X138500000Y-74380000D03*
X122500000Y-129620000D03*
%TD*%
%LPD*%
M02*
