M48
; DRILL file KiCad 10.0.3 date 2026-05-22T18:31:41
; FORMAT={-:-/ absolute / inch / decimal}
; #@! TF.CreationDate,2026-05-22T18:31:41-04:00
; #@! TF.GenerationSoftware,Kicad,Pcbnew,10.0.3
; #@! TF.FileFunction,Plated,1,4,PTH
FMAT,2
INCH
; #@! TA.AperFunction,Plated,PTH,ViaDrill
T1C0.0118
; #@! TA.AperFunction,Plated,PTH,ComponentDrill
T2C0.0354
; #@! TA.AperFunction,Plated,PTH,ComponentDrill
T3C0.0394
; #@! TA.AperFunction,Plated,PTH,ComponentDrill
T4C0.0433
; #@! TA.AperFunction,Plated,PTH,ComponentDrill
T5C0.0866
%
G90
G05
T1
X3.5748Y-5.8898
X3.5787Y-2.7165
X3.5787Y-3.6732
X3.5984Y-2.7953
X3.5984Y-3.3661
X3.5984Y-4.0236
X3.6063Y-2.2441
X3.6063Y-2.2874
X3.6063Y-4.2087
X3.6102Y-2.1969
X3.6102Y-2.3346
X3.6102Y-5.5276
X3.622Y-3.1279
X3.622Y-5.374
X3.622Y-5.7598
X3.622Y-5.8268
X3.626Y-5.1732
X3.626Y-5.3228
X3.626Y-5.7126
X3.6311Y-5.4776
X3.6417Y-3.9724
X3.6457Y-2.7244
X3.6575Y-4.374
X3.6614Y-4.7402
X3.6614Y-4.9331
X3.6614Y-5.0433
X3.6654Y-2.3465
X3.6654Y-2.4213
X3.6654Y-4.6299
X3.6654Y-4.8268
X3.6654Y-5.2323
X3.6661Y-5.7
X3.6683Y-2.2402
X3.685Y-4.1063
X3.7008Y-2.9449
X3.7008Y-5.189
X3.7008Y-5.8268
X3.7107Y-2.7798
X3.7126Y-3.9567
X3.7126Y-5.5276
X3.7165Y-2.5472
X3.7165Y-5.4776
X3.7205Y-2.7008
X3.7283Y-2.189
X3.7283Y-2.2205
X3.7283Y-2.252
X3.7283Y-2.2874
X3.7402Y-2.3189
X3.7411Y-2.3762
X3.7411Y-2.4307
X3.7421Y-5.8012
X3.7441Y-2.8307
X3.7441Y-5.6457
X3.7466Y-2.3446
X3.7494Y-2.4668
X3.752Y-2.5512
X3.7528Y-2.5945
X3.7528Y-2.6378
X3.756Y-2.4016
X3.7677Y-2.7756
X3.7692Y-4.1429
X3.7792Y-2.6751
X3.7835Y-5.1693
X3.7874Y-3.6732
X3.8002Y-2.8563
X3.8031Y-5.8228
X3.8035Y-5.5315
X3.8063Y-2.3346
X3.8071Y-5.2165
X3.8071Y-5.685
X3.8071Y-5.7717
X3.8089Y-2.6214
X3.8091Y-2.7886
X3.8102Y-2.7166
X3.8106Y-2.5394
X3.8106Y-2.5787
X3.811Y-2.4685
X3.811Y-2.8937
X3.8118Y-2.752
X3.813Y-2.3067
X3.815Y-2.4016
X3.8189Y-2.3701
X3.8199Y-2.5043
X3.8268Y-2.2283
X3.8268Y-2.2795
X3.8268Y-5.9843
X3.8307Y-2.1929
X3.8307Y-3.8228
X3.8349Y-2.6553
X3.8435Y-2.4754
X3.8465Y-5.3858
X3.8504Y-2.3465
X3.852Y-2.3924
X3.8622Y-5.2953
X3.8629Y-2.7067
X3.8657Y-2.7319
X3.8661Y-3.0748
X3.8681Y-2.9823
X3.8694Y-2.8346
X3.8701Y-5.4134
X3.8723Y-2.4625
X3.8728Y-2.3689
X3.878Y-2.626
X3.878Y-5.563
X3.8816Y-2.433
X3.8819Y-5.3819
X3.8819Y-5.7992
X3.8858Y-2.9429
X3.8898Y-4.1457
X3.8898Y-5.8504
X3.8907Y-2.2402
X3.8945Y-2.3472
X3.8976Y-2.6811
X3.8976Y-4.1378
X3.8976Y-5.4252
X3.9001Y-2.8415
X3.9016Y-2.4173
X3.9055Y-4.1398
X3.9055Y-5.315
X3.9055Y-5.9449
X3.907Y-4.3051
X3.9094Y-3.2283
X3.9094Y-5.6811
X3.9114Y-2.871
X3.9161Y-2.3256
X3.9173Y-2.7835
X3.9182Y-2.9246
X3.9185Y-2.3989
X3.9331Y-2.3071
X3.9331Y-2.9921
X3.937Y-2.5197
X3.9404Y-3.36
X3.9409Y-2.1969
X3.9409Y-2.2402
X3.9449Y-2.374
X3.9449Y-2.871
X3.9488Y-2.9252
X3.9528Y-2.2913
X3.9528Y-5.8819
X3.9567Y-5.5197
X3.9646Y-5.6378
X3.9658Y-2.3516
X3.9679Y-2.5112
X3.9685Y-2.7795
X3.9685Y-5.2808
X3.9724Y-2.6417
X3.9724Y-2.8701
X3.9764Y-2.2835
X3.9764Y-2.9252
X3.9803Y-4.0118
X3.9803Y-4.0433
X3.9803Y-4.0748
X3.9803Y-4.1024
X3.9819Y-2.403
X3.9843Y-2.9882
X3.9843Y-5.5827
X3.9961Y-5.7677
X3.9961Y-5.8268
X3.9996Y-2.2805
X4.0Y-2.871
X4.0Y-5.7047
X4.0015Y-4.0669
X4.0039Y-2.3346
X4.0076Y-2.9249
X4.0118Y-3.5945
X4.0157Y-3.3386
X4.0236Y-2.2795
X4.0236Y-2.9882
X4.029Y-4.3051
X4.0315Y-2.3346
X4.0472Y-2.2795
X4.0591Y-2.3346
X4.0591Y-2.9724
X4.0591Y-3.4409
X4.063Y-2.7087
X4.0709Y-2.2795
X4.0748Y-4.2913
X4.0748Y-5.5945
X4.0827Y-2.3346
X4.0906Y-4.0669
X4.0945Y-3.9094
X4.0957Y-2.2719
X4.102Y-4.8624
X4.1063Y-3.5039
X4.1063Y-3.7717
X4.1122Y-3.0118
X4.1142Y-2.3268
X4.1142Y-2.3622
X4.1142Y-2.748
X4.1142Y-2.7756
X4.1142Y-2.8031
X4.1142Y-2.8307
X4.1142Y-2.8583
X4.1142Y-2.8898
X4.1142Y-2.9213
X4.1142Y-2.9488
X4.1142Y-4.6811
X4.1142Y-5.9764
X4.1181Y-3.9646
X4.126Y-4.0945
X4.1319Y-5.9035
X4.1321Y-2.3093
X4.1339Y-2.7126
X4.1378Y-5.7953
X4.1417Y-2.4134
X4.1417Y-2.6299
X4.1417Y-4.4803
X4.1437Y-4.4193
X4.1524Y-4.5394
X4.1599Y-5.1131
X4.1614Y-3.0945
X4.1614Y-3.1575
X4.1649Y-2.3013
X4.1732Y-2.5551
X4.1732Y-2.7795
X4.1732Y-5.689
X4.1735Y-2.9217
X4.189Y-2.3622
X4.1929Y-2.2835
X4.1956Y-2.7102
X4.1972Y-5.8894
X4.2035Y-4.7164
X4.2047Y-2.9961
X4.2244Y-2.4134
X4.2244Y-2.6142
X4.2244Y-3.4134
X4.2244Y-5.9062
X4.2283Y-2.8701
X4.2598Y-2.3583
X4.2598Y-4.4843
X4.2622Y-2.5463
X4.2638Y-4.3307
X4.2717Y-2.689
X4.2717Y-4.3622
X4.2717Y-4.4449
X4.2835Y-2.8071
X4.2835Y-3.3622
X4.2874Y-3.6929
X4.2874Y-3.7717
X4.2913Y-2.4134
X4.2913Y-2.9291
X4.2913Y-5.8062
X4.3012Y-4.5472
X4.315Y-2.8504
X4.315Y-4.2795
X4.315Y-4.4075
X4.315Y-4.4823
X4.3189Y-4.3425
X4.3192Y-2.6255
X4.3263Y-3.5203
X4.3307Y-2.7441
X4.3504Y-2.374
X4.3504Y-2.4173
X4.3519Y-3.1496
X4.3583Y-2.2756
X4.3661Y-2.5551
X4.3819Y-5.1496
X4.3858Y-5.4173
X4.3858Y-5.4803
X4.3858Y-5.5669
X4.3898Y-4.9685
X4.3898Y-5.7244
X4.3898Y-5.7677
X4.3898Y-5.7992
X4.3898Y-5.8307
X4.3898Y-5.8622
X4.3898Y-5.8898
X4.3898Y-5.937
X4.3898Y-2.9846
X4.3937Y-4.5118
X4.3976Y-2.2008
X4.3976Y-4.3189
X4.3976Y-4.4173
X4.4094Y-2.7598
X4.4094Y-2.9173
X4.4094Y-3.0354
X4.413Y-4.1811
X4.4173Y-4.622
X4.4252Y-3.5039
X4.4252Y-3.7205
X4.4252Y-4.2323
X4.4291Y-2.5669
X4.4291Y-2.8504
X4.4331Y-3.5787
X4.4331Y-4.063
X4.4331Y-4.2894
X4.4331Y-4.4272
X4.4331Y-5.2205
X4.4409Y-2.3661
X4.4409Y-4.1102
X4.4449Y-2.4173
X4.4449Y-2.6929
X4.4724Y-5.9724
X4.4783Y-4.6654
X4.4803Y-5.9331
X4.4843Y-5.8622
X4.4921Y-5.5906
X4.4921Y-5.7795
X4.498Y-4.5669
X4.5039Y-5.5157
X4.5118Y-3.0157
X4.5177Y-4.813
X4.5197Y-2.248
X4.5256Y-4.3012
X4.5256Y-4.3898
X4.5276Y-2.4765
X4.5285Y-2.6937
X4.5354Y-5.2953
X4.5374Y-4.7047
X4.563Y-5.5591
X4.5709Y-4.9134
X4.5768Y-4.5571
X4.5945Y-2.7598
X4.5984Y-5.0984
X4.6142Y-5.5197
X4.6181Y-2.9646
X4.622Y-2.1772
X4.6693Y-3.0354
X4.6811Y-3.3898
X4.6949Y-4.8917
X4.7047Y-3.1201
X4.7047Y-3.248
X4.7047Y-3.4961
X4.7047Y-3.6181
X4.7126Y-5.5157
X4.7205Y-2.5669
X4.7283Y-2.2441
X4.7323Y-5.8268
X4.7362Y-5.9567
X4.752Y-3.7559
X4.7677Y-4.2638
X4.7756Y-3.8465
X4.7795Y-5.2953
X4.7803Y-4.7057
X4.7874Y-3.3661
X4.7953Y-4.4646
X4.8071Y-3.2638
X4.811Y-2.9724
X4.8189Y-4.9173
X4.8307Y-5.9055
X4.8386Y-3.6535
X4.8386Y-4.0827
X4.8425Y-4.6654
X4.8425Y-5.811
X4.8465Y-3.9252
X4.8622Y-3.0315
X4.874Y-3.2205
X4.878Y-3.4094
X4.8819Y-3.5118
X4.9173Y-4.248
X4.9213Y-4.7146
X4.9291Y-2.8465
X4.9291Y-3.8307
X4.9311Y-3.1201
X4.9311Y-4.6555
X4.937Y-3.6969
X4.9409Y-2.7087
X4.9449Y-4.8819
X4.9567Y-2.9528
X4.9567Y-4.4291
X4.9685Y-3.5
X4.9724Y-2.1772
X4.9724Y-4.0236
X4.9803Y-3.2835
X4.9921Y-3.7362
X4.9921Y-5.6516
X5.0039Y-3.6181
X5.0098Y-3.0413
X5.0197Y-3.189
X5.0315Y-2.2323
X5.0315Y-2.7717
X5.0394Y-2.626
X5.0512Y-4.8622
X5.0551Y-4.2283
X5.0551Y-6.0157
X5.0591Y-3.1201
X5.074Y-5.2164
X5.0827Y-4.6772
X5.0827Y-5.1358
X5.0906Y-3.3346
X5.1024Y-3.8307
X5.1063Y-4.4882
X5.1181Y-3.4252
X5.1181Y-5.3289
X5.122Y-2.2717
X5.126Y-2.189
X5.126Y-4.0591
X5.126Y-4.6496
X5.1335Y-3.5358
X5.1378Y-2.4531
X5.1378Y-2.8051
X5.1378Y-4.3031
X5.1417Y-2.6535
X5.1417Y-3.685
X5.1417Y-3.8937
X5.1496Y-5.7717
X5.1772Y-3.2205
X5.1772Y-5.8268
X5.1791Y-5.6929
X5.1969Y-5.3289
X5.2008Y-2.8976
X5.2047Y-5.1969
X5.2165Y-4.3937
X5.223Y-4.1662
X5.2244Y-2.2008
X5.2244Y-3.7756
X5.2283Y-2.9882
X5.2441Y-3.4173
X5.2441Y-5.0984
X5.2461Y-2.7165
X5.248Y-3.5157
X5.2559Y-6.0
X5.2677Y-5.9331
X5.2717Y-3.1969
X5.2795Y-4.7008
X5.2874Y-2.185
X5.2874Y-2.2992
X5.2913Y-3.8465
X5.2913Y-4.5512
X5.3031Y-2.3898
X5.3051Y-2.874
X5.3071Y-4.0
X5.315Y-4.2638
X5.3228Y-2.5787
X5.3268Y-4.4764
X5.3425Y-5.9291
X5.3445Y-5.6476
X5.3465Y-6.0039
X5.3543Y-3.2776
X5.3543Y-3.3465
X5.3543Y-3.3957
X5.3543Y-3.4547
X5.3543Y-3.5138
X5.3612Y-2.2406
X5.3622Y-2.4331
X5.3622Y-2.7126
X5.3622Y-2.9961
X5.3622Y-3.7645
X5.3819Y-2.4961
X5.3819Y-2.6299
X5.4055Y-2.3701
X5.4055Y-2.4724
X5.4173Y-4.5787
X5.4213Y-2.2283
X5.4252Y-2.189
X5.4252Y-2.2717
X5.4291Y-3.2402
X5.4328Y-4.0457
X5.4331Y-5.7953
X5.4409Y-2.7087
X5.4409Y-2.748
X5.4429Y-3.2957
X5.4429Y-4.2957
X5.4429Y-4.4957
X5.4435Y-2.3908
X5.4449Y-2.3504
X5.4457Y-2.3116
X5.4457Y-2.4544
X5.4457Y-2.5039
X5.4457Y-2.5551
X5.4457Y-2.6063
X5.4457Y-2.6496
X5.4488Y-5.622
X5.4567Y-3.6693
X5.4584Y-3.7957
X5.4606Y-2.7874
X5.4606Y-3.0433
X5.4606Y-4.5433
X5.4685Y-4.4606
X5.4724Y-3.1811
X5.4724Y-5.5
X5.487Y-2.8162
X5.4882Y-3.5748
X5.5Y-2.3543
X5.5Y-2.4606
X5.5Y-2.4882
X5.5Y-2.5236
X5.5Y-2.5512
X5.5Y-2.5827
X5.5Y-2.6142
X5.5Y-2.6496
X5.502Y-2.3925
X5.5039Y-2.311
X5.5059Y-3.3655
X5.5118Y-2.4252
X5.5118Y-2.689
X5.5118Y-2.7244
X5.5118Y-3.4252
X5.5165Y-2.8543
X5.5222Y-4.7921
X5.5234Y-2.7768
X5.5236Y-2.1929
X5.5236Y-2.2323
X5.5236Y-2.2717
X5.5411Y-5.2164
X5.5437Y-3.4062
X5.5492Y-3.3288
X5.5551Y-5.7323
X5.5563Y-2.8098
X5.5583Y-3.2391
X5.5591Y-2.8937
X5.5608Y-4.2946
X5.563Y-3.5276
X5.5633Y-3.2993
X5.5638Y-2.9409
X5.5638Y-2.9921
X5.5638Y-3.0669
X5.5638Y-3.1417
X5.5638Y-3.2008
X5.5694Y-3.3843
X5.5827Y-5.4685
X5.5837Y-2.2406
X5.5866Y-2.5118
X5.5906Y-2.4016
X5.5906Y-3.4449
X5.5945Y-2.8465
X5.5945Y-3.7205
X5.5949Y-3.3577
X5.5984Y-3.9646
X5.6063Y-5.6102
X5.6135Y-3.3209
X5.6157Y-2.8962
X5.6173Y-3.0039
X5.6173Y-3.0472
X5.6173Y-3.1654
X5.6181Y-2.7205
X5.6181Y-2.9567
X5.6181Y-3.1181
X5.622Y-5.7835
X5.6228Y-3.2339
X5.6228Y-3.2728
X5.626Y-2.622
X5.6339Y-4.3504
X5.6346Y-4.2303
X5.6378Y-3.6142
X5.6378Y-4.0315
X5.6417Y-4.5157
X5.6496Y-3.3937
X5.6535Y-2.2835
X5.6535Y-5.0039
X5.6535Y-5.1339
X5.6535Y-5.2677
X5.6575Y-2.1929
X5.6575Y-4.6535
X5.6614Y-2.4094
X5.6614Y-2.9921
X5.6614Y-3.126
X5.6654Y-2.4803
X5.6693Y-2.7795
X5.6693Y-3.2835
T2
X3.6811Y-3.5039
X3.6811Y-3.6039
X3.6811Y-3.7583
X3.6811Y-3.8583
T3
X3.9528Y-4.5325
X3.9528Y-4.6325
X3.9528Y-4.7325
X3.9528Y-4.8325
X3.9528Y-4.9325
X3.9528Y-5.0325
X4.7126Y-2.937
X5.2992Y-5.0474
X5.2992Y-5.1474
X5.2992Y-5.2474
X5.2992Y-5.3474
T4
X4.0354Y-3.0709
X4.0354Y-3.248
X4.2913Y-3.0709
X4.2913Y-3.248
T5
X3.6535Y-2.6142
X3.6575Y-5.9646
X4.9055Y-2.2598
X5.5827Y-5.9646
M30
