%TF.GenerationSoftware,KiCad,Pcbnew,10.0.3*%
%TF.CreationDate,2026-05-22T18:31:41-04:00*%
%TF.ProjectId,meshtastic,6d657368-7461-4737-9469-632e6b696361,rev?*%
%TF.SameCoordinates,Original*%
%TF.FileFunction,Other,Comment*%
%FSLAX46Y46*%
G04 Gerber Fmt 4.6, Leading zero omitted, Abs format (unit mm)*
G04 Created by KiCad (PCBNEW 10.0.3) date 2026-05-22 18:31:41*
%MOMM*%
%LPD*%
G01*
G04 APERTURE LIST*
%ADD10C,0.150000*%
%ADD11C,0.200000*%
%ADD12C,0.300000*%
%ADD13C,0.500000*%
G04 APERTURE END LIST*
D10*
X86809523Y-50581009D02*
X86952380Y-50628628D01*
X86952380Y-50628628D02*
X86999999Y-50676247D01*
X86999999Y-50676247D02*
X87047618Y-50771485D01*
X87047618Y-50771485D02*
X87047618Y-50914342D01*
X87047618Y-50914342D02*
X86999999Y-51009580D01*
X86999999Y-51009580D02*
X86952380Y-51057200D01*
X86952380Y-51057200D02*
X86857142Y-51104819D01*
X86857142Y-51104819D02*
X86476190Y-51104819D01*
X86476190Y-51104819D02*
X86476190Y-50104819D01*
X86476190Y-50104819D02*
X86809523Y-50104819D01*
X86809523Y-50104819D02*
X86904761Y-50152438D01*
X86904761Y-50152438D02*
X86952380Y-50200057D01*
X86952380Y-50200057D02*
X86999999Y-50295295D01*
X86999999Y-50295295D02*
X86999999Y-50390533D01*
X86999999Y-50390533D02*
X86952380Y-50485771D01*
X86952380Y-50485771D02*
X86904761Y-50533390D01*
X86904761Y-50533390D02*
X86809523Y-50581009D01*
X86809523Y-50581009D02*
X86476190Y-50581009D01*
X87619047Y-51104819D02*
X87523809Y-51057200D01*
X87523809Y-51057200D02*
X87476190Y-51009580D01*
X87476190Y-51009580D02*
X87428571Y-50914342D01*
X87428571Y-50914342D02*
X87428571Y-50628628D01*
X87428571Y-50628628D02*
X87476190Y-50533390D01*
X87476190Y-50533390D02*
X87523809Y-50485771D01*
X87523809Y-50485771D02*
X87619047Y-50438152D01*
X87619047Y-50438152D02*
X87761904Y-50438152D01*
X87761904Y-50438152D02*
X87857142Y-50485771D01*
X87857142Y-50485771D02*
X87904761Y-50533390D01*
X87904761Y-50533390D02*
X87952380Y-50628628D01*
X87952380Y-50628628D02*
X87952380Y-50914342D01*
X87952380Y-50914342D02*
X87904761Y-51009580D01*
X87904761Y-51009580D02*
X87857142Y-51057200D01*
X87857142Y-51057200D02*
X87761904Y-51104819D01*
X87761904Y-51104819D02*
X87619047Y-51104819D01*
X88809523Y-51104819D02*
X88809523Y-50581009D01*
X88809523Y-50581009D02*
X88761904Y-50485771D01*
X88761904Y-50485771D02*
X88666666Y-50438152D01*
X88666666Y-50438152D02*
X88476190Y-50438152D01*
X88476190Y-50438152D02*
X88380952Y-50485771D01*
X88809523Y-51057200D02*
X88714285Y-51104819D01*
X88714285Y-51104819D02*
X88476190Y-51104819D01*
X88476190Y-51104819D02*
X88380952Y-51057200D01*
X88380952Y-51057200D02*
X88333333Y-50961961D01*
X88333333Y-50961961D02*
X88333333Y-50866723D01*
X88333333Y-50866723D02*
X88380952Y-50771485D01*
X88380952Y-50771485D02*
X88476190Y-50723866D01*
X88476190Y-50723866D02*
X88714285Y-50723866D01*
X88714285Y-50723866D02*
X88809523Y-50676247D01*
X89285714Y-51104819D02*
X89285714Y-50438152D01*
X89285714Y-50628628D02*
X89333333Y-50533390D01*
X89333333Y-50533390D02*
X89380952Y-50485771D01*
X89380952Y-50485771D02*
X89476190Y-50438152D01*
X89476190Y-50438152D02*
X89571428Y-50438152D01*
X90333333Y-51104819D02*
X90333333Y-50104819D01*
X90333333Y-51057200D02*
X90238095Y-51104819D01*
X90238095Y-51104819D02*
X90047619Y-51104819D01*
X90047619Y-51104819D02*
X89952381Y-51057200D01*
X89952381Y-51057200D02*
X89904762Y-51009580D01*
X89904762Y-51009580D02*
X89857143Y-50914342D01*
X89857143Y-50914342D02*
X89857143Y-50628628D01*
X89857143Y-50628628D02*
X89904762Y-50533390D01*
X89904762Y-50533390D02*
X89952381Y-50485771D01*
X89952381Y-50485771D02*
X90047619Y-50438152D01*
X90047619Y-50438152D02*
X90238095Y-50438152D01*
X90238095Y-50438152D02*
X90333333Y-50485771D01*
X91428572Y-50104819D02*
X92000000Y-50104819D01*
X91714286Y-51104819D02*
X91714286Y-50104819D01*
X92333334Y-51104819D02*
X92333334Y-50104819D01*
X92761905Y-51104819D02*
X92761905Y-50581009D01*
X92761905Y-50581009D02*
X92714286Y-50485771D01*
X92714286Y-50485771D02*
X92619048Y-50438152D01*
X92619048Y-50438152D02*
X92476191Y-50438152D01*
X92476191Y-50438152D02*
X92380953Y-50485771D01*
X92380953Y-50485771D02*
X92333334Y-50533390D01*
X93238096Y-51104819D02*
X93238096Y-50438152D01*
X93238096Y-50104819D02*
X93190477Y-50152438D01*
X93190477Y-50152438D02*
X93238096Y-50200057D01*
X93238096Y-50200057D02*
X93285715Y-50152438D01*
X93285715Y-50152438D02*
X93238096Y-50104819D01*
X93238096Y-50104819D02*
X93238096Y-50200057D01*
X94142857Y-51057200D02*
X94047619Y-51104819D01*
X94047619Y-51104819D02*
X93857143Y-51104819D01*
X93857143Y-51104819D02*
X93761905Y-51057200D01*
X93761905Y-51057200D02*
X93714286Y-51009580D01*
X93714286Y-51009580D02*
X93666667Y-50914342D01*
X93666667Y-50914342D02*
X93666667Y-50628628D01*
X93666667Y-50628628D02*
X93714286Y-50533390D01*
X93714286Y-50533390D02*
X93761905Y-50485771D01*
X93761905Y-50485771D02*
X93857143Y-50438152D01*
X93857143Y-50438152D02*
X94047619Y-50438152D01*
X94047619Y-50438152D02*
X94142857Y-50485771D01*
X94571429Y-51104819D02*
X94571429Y-50104819D01*
X94666667Y-50723866D02*
X94952381Y-51104819D01*
X94952381Y-50438152D02*
X94571429Y-50819104D01*
X95380953Y-50438152D02*
X95380953Y-51104819D01*
X95380953Y-50533390D02*
X95428572Y-50485771D01*
X95428572Y-50485771D02*
X95523810Y-50438152D01*
X95523810Y-50438152D02*
X95666667Y-50438152D01*
X95666667Y-50438152D02*
X95761905Y-50485771D01*
X95761905Y-50485771D02*
X95809524Y-50581009D01*
X95809524Y-50581009D02*
X95809524Y-51104819D01*
X96666667Y-51057200D02*
X96571429Y-51104819D01*
X96571429Y-51104819D02*
X96380953Y-51104819D01*
X96380953Y-51104819D02*
X96285715Y-51057200D01*
X96285715Y-51057200D02*
X96238096Y-50961961D01*
X96238096Y-50961961D02*
X96238096Y-50581009D01*
X96238096Y-50581009D02*
X96285715Y-50485771D01*
X96285715Y-50485771D02*
X96380953Y-50438152D01*
X96380953Y-50438152D02*
X96571429Y-50438152D01*
X96571429Y-50438152D02*
X96666667Y-50485771D01*
X96666667Y-50485771D02*
X96714286Y-50581009D01*
X96714286Y-50581009D02*
X96714286Y-50676247D01*
X96714286Y-50676247D02*
X96238096Y-50771485D01*
X97095239Y-51057200D02*
X97190477Y-51104819D01*
X97190477Y-51104819D02*
X97380953Y-51104819D01*
X97380953Y-51104819D02*
X97476191Y-51057200D01*
X97476191Y-51057200D02*
X97523810Y-50961961D01*
X97523810Y-50961961D02*
X97523810Y-50914342D01*
X97523810Y-50914342D02*
X97476191Y-50819104D01*
X97476191Y-50819104D02*
X97380953Y-50771485D01*
X97380953Y-50771485D02*
X97238096Y-50771485D01*
X97238096Y-50771485D02*
X97142858Y-50723866D01*
X97142858Y-50723866D02*
X97095239Y-50628628D01*
X97095239Y-50628628D02*
X97095239Y-50581009D01*
X97095239Y-50581009D02*
X97142858Y-50485771D01*
X97142858Y-50485771D02*
X97238096Y-50438152D01*
X97238096Y-50438152D02*
X97380953Y-50438152D01*
X97380953Y-50438152D02*
X97476191Y-50485771D01*
X97904763Y-51057200D02*
X98000001Y-51104819D01*
X98000001Y-51104819D02*
X98190477Y-51104819D01*
X98190477Y-51104819D02*
X98285715Y-51057200D01*
X98285715Y-51057200D02*
X98333334Y-50961961D01*
X98333334Y-50961961D02*
X98333334Y-50914342D01*
X98333334Y-50914342D02*
X98285715Y-50819104D01*
X98285715Y-50819104D02*
X98190477Y-50771485D01*
X98190477Y-50771485D02*
X98047620Y-50771485D01*
X98047620Y-50771485D02*
X97952382Y-50723866D01*
X97952382Y-50723866D02*
X97904763Y-50628628D01*
X97904763Y-50628628D02*
X97904763Y-50581009D01*
X97904763Y-50581009D02*
X97952382Y-50485771D01*
X97952382Y-50485771D02*
X98047620Y-50438152D01*
X98047620Y-50438152D02*
X98190477Y-50438152D01*
X98190477Y-50438152D02*
X98285715Y-50485771D01*
X98761906Y-51009580D02*
X98809525Y-51057200D01*
X98809525Y-51057200D02*
X98761906Y-51104819D01*
X98761906Y-51104819D02*
X98714287Y-51057200D01*
X98714287Y-51057200D02*
X98761906Y-51009580D01*
X98761906Y-51009580D02*
X98761906Y-51104819D01*
X98761906Y-50485771D02*
X98809525Y-50533390D01*
X98809525Y-50533390D02*
X98761906Y-50581009D01*
X98761906Y-50581009D02*
X98714287Y-50533390D01*
X98714287Y-50533390D02*
X98761906Y-50485771D01*
X98761906Y-50485771D02*
X98761906Y-50581009D01*
X100523810Y-51104819D02*
X99952382Y-51104819D01*
X100238096Y-51104819D02*
X100238096Y-50104819D01*
X100238096Y-50104819D02*
X100142858Y-50247676D01*
X100142858Y-50247676D02*
X100047620Y-50342914D01*
X100047620Y-50342914D02*
X99952382Y-50390533D01*
X100952382Y-51009580D02*
X101000001Y-51057200D01*
X101000001Y-51057200D02*
X100952382Y-51104819D01*
X100952382Y-51104819D02*
X100904763Y-51057200D01*
X100904763Y-51057200D02*
X100952382Y-51009580D01*
X100952382Y-51009580D02*
X100952382Y-51104819D01*
X101904762Y-50104819D02*
X101428572Y-50104819D01*
X101428572Y-50104819D02*
X101380953Y-50581009D01*
X101380953Y-50581009D02*
X101428572Y-50533390D01*
X101428572Y-50533390D02*
X101523810Y-50485771D01*
X101523810Y-50485771D02*
X101761905Y-50485771D01*
X101761905Y-50485771D02*
X101857143Y-50533390D01*
X101857143Y-50533390D02*
X101904762Y-50581009D01*
X101904762Y-50581009D02*
X101952381Y-50676247D01*
X101952381Y-50676247D02*
X101952381Y-50914342D01*
X101952381Y-50914342D02*
X101904762Y-51009580D01*
X101904762Y-51009580D02*
X101857143Y-51057200D01*
X101857143Y-51057200D02*
X101761905Y-51104819D01*
X101761905Y-51104819D02*
X101523810Y-51104819D01*
X101523810Y-51104819D02*
X101428572Y-51057200D01*
X101428572Y-51057200D02*
X101380953Y-51009580D01*
X102285715Y-50104819D02*
X102952381Y-50104819D01*
X102952381Y-50104819D02*
X102523810Y-51104819D01*
X103333334Y-51104819D02*
X103333334Y-50438152D01*
X103333334Y-50533390D02*
X103380953Y-50485771D01*
X103380953Y-50485771D02*
X103476191Y-50438152D01*
X103476191Y-50438152D02*
X103619048Y-50438152D01*
X103619048Y-50438152D02*
X103714286Y-50485771D01*
X103714286Y-50485771D02*
X103761905Y-50581009D01*
X103761905Y-50581009D02*
X103761905Y-51104819D01*
X103761905Y-50581009D02*
X103809524Y-50485771D01*
X103809524Y-50485771D02*
X103904762Y-50438152D01*
X103904762Y-50438152D02*
X104047619Y-50438152D01*
X104047619Y-50438152D02*
X104142858Y-50485771D01*
X104142858Y-50485771D02*
X104190477Y-50581009D01*
X104190477Y-50581009D02*
X104190477Y-51104819D01*
X104666667Y-51104819D02*
X104666667Y-50438152D01*
X104666667Y-50533390D02*
X104714286Y-50485771D01*
X104714286Y-50485771D02*
X104809524Y-50438152D01*
X104809524Y-50438152D02*
X104952381Y-50438152D01*
X104952381Y-50438152D02*
X105047619Y-50485771D01*
X105047619Y-50485771D02*
X105095238Y-50581009D01*
X105095238Y-50581009D02*
X105095238Y-51104819D01*
X105095238Y-50581009D02*
X105142857Y-50485771D01*
X105142857Y-50485771D02*
X105238095Y-50438152D01*
X105238095Y-50438152D02*
X105380952Y-50438152D01*
X105380952Y-50438152D02*
X105476191Y-50485771D01*
X105476191Y-50485771D02*
X105523810Y-50581009D01*
X105523810Y-50581009D02*
X105523810Y-51104819D01*
X129309523Y-50431009D02*
X129452380Y-50478628D01*
X129452380Y-50478628D02*
X129499999Y-50526247D01*
X129499999Y-50526247D02*
X129547618Y-50621485D01*
X129547618Y-50621485D02*
X129547618Y-50764342D01*
X129547618Y-50764342D02*
X129499999Y-50859580D01*
X129499999Y-50859580D02*
X129452380Y-50907200D01*
X129452380Y-50907200D02*
X129357142Y-50954819D01*
X129357142Y-50954819D02*
X128976190Y-50954819D01*
X128976190Y-50954819D02*
X128976190Y-49954819D01*
X128976190Y-49954819D02*
X129309523Y-49954819D01*
X129309523Y-49954819D02*
X129404761Y-50002438D01*
X129404761Y-50002438D02*
X129452380Y-50050057D01*
X129452380Y-50050057D02*
X129499999Y-50145295D01*
X129499999Y-50145295D02*
X129499999Y-50240533D01*
X129499999Y-50240533D02*
X129452380Y-50335771D01*
X129452380Y-50335771D02*
X129404761Y-50383390D01*
X129404761Y-50383390D02*
X129309523Y-50431009D01*
X129309523Y-50431009D02*
X128976190Y-50431009D01*
X130119047Y-50954819D02*
X130023809Y-50907200D01*
X130023809Y-50907200D02*
X129976190Y-50859580D01*
X129976190Y-50859580D02*
X129928571Y-50764342D01*
X129928571Y-50764342D02*
X129928571Y-50478628D01*
X129928571Y-50478628D02*
X129976190Y-50383390D01*
X129976190Y-50383390D02*
X130023809Y-50335771D01*
X130023809Y-50335771D02*
X130119047Y-50288152D01*
X130119047Y-50288152D02*
X130261904Y-50288152D01*
X130261904Y-50288152D02*
X130357142Y-50335771D01*
X130357142Y-50335771D02*
X130404761Y-50383390D01*
X130404761Y-50383390D02*
X130452380Y-50478628D01*
X130452380Y-50478628D02*
X130452380Y-50764342D01*
X130452380Y-50764342D02*
X130404761Y-50859580D01*
X130404761Y-50859580D02*
X130357142Y-50907200D01*
X130357142Y-50907200D02*
X130261904Y-50954819D01*
X130261904Y-50954819D02*
X130119047Y-50954819D01*
X131309523Y-50954819D02*
X131309523Y-50431009D01*
X131309523Y-50431009D02*
X131261904Y-50335771D01*
X131261904Y-50335771D02*
X131166666Y-50288152D01*
X131166666Y-50288152D02*
X130976190Y-50288152D01*
X130976190Y-50288152D02*
X130880952Y-50335771D01*
X131309523Y-50907200D02*
X131214285Y-50954819D01*
X131214285Y-50954819D02*
X130976190Y-50954819D01*
X130976190Y-50954819D02*
X130880952Y-50907200D01*
X130880952Y-50907200D02*
X130833333Y-50811961D01*
X130833333Y-50811961D02*
X130833333Y-50716723D01*
X130833333Y-50716723D02*
X130880952Y-50621485D01*
X130880952Y-50621485D02*
X130976190Y-50573866D01*
X130976190Y-50573866D02*
X131214285Y-50573866D01*
X131214285Y-50573866D02*
X131309523Y-50526247D01*
X131785714Y-50954819D02*
X131785714Y-50288152D01*
X131785714Y-50478628D02*
X131833333Y-50383390D01*
X131833333Y-50383390D02*
X131880952Y-50335771D01*
X131880952Y-50335771D02*
X131976190Y-50288152D01*
X131976190Y-50288152D02*
X132071428Y-50288152D01*
X132833333Y-50954819D02*
X132833333Y-49954819D01*
X132833333Y-50907200D02*
X132738095Y-50954819D01*
X132738095Y-50954819D02*
X132547619Y-50954819D01*
X132547619Y-50954819D02*
X132452381Y-50907200D01*
X132452381Y-50907200D02*
X132404762Y-50859580D01*
X132404762Y-50859580D02*
X132357143Y-50764342D01*
X132357143Y-50764342D02*
X132357143Y-50478628D01*
X132357143Y-50478628D02*
X132404762Y-50383390D01*
X132404762Y-50383390D02*
X132452381Y-50335771D01*
X132452381Y-50335771D02*
X132547619Y-50288152D01*
X132547619Y-50288152D02*
X132738095Y-50288152D01*
X132738095Y-50288152D02*
X132833333Y-50335771D01*
X133928572Y-49954819D02*
X134500000Y-49954819D01*
X134214286Y-50954819D02*
X134214286Y-49954819D01*
X134833334Y-50954819D02*
X134833334Y-49954819D01*
X135261905Y-50954819D02*
X135261905Y-50431009D01*
X135261905Y-50431009D02*
X135214286Y-50335771D01*
X135214286Y-50335771D02*
X135119048Y-50288152D01*
X135119048Y-50288152D02*
X134976191Y-50288152D01*
X134976191Y-50288152D02*
X134880953Y-50335771D01*
X134880953Y-50335771D02*
X134833334Y-50383390D01*
X135738096Y-50954819D02*
X135738096Y-50288152D01*
X135738096Y-49954819D02*
X135690477Y-50002438D01*
X135690477Y-50002438D02*
X135738096Y-50050057D01*
X135738096Y-50050057D02*
X135785715Y-50002438D01*
X135785715Y-50002438D02*
X135738096Y-49954819D01*
X135738096Y-49954819D02*
X135738096Y-50050057D01*
X136642857Y-50907200D02*
X136547619Y-50954819D01*
X136547619Y-50954819D02*
X136357143Y-50954819D01*
X136357143Y-50954819D02*
X136261905Y-50907200D01*
X136261905Y-50907200D02*
X136214286Y-50859580D01*
X136214286Y-50859580D02*
X136166667Y-50764342D01*
X136166667Y-50764342D02*
X136166667Y-50478628D01*
X136166667Y-50478628D02*
X136214286Y-50383390D01*
X136214286Y-50383390D02*
X136261905Y-50335771D01*
X136261905Y-50335771D02*
X136357143Y-50288152D01*
X136357143Y-50288152D02*
X136547619Y-50288152D01*
X136547619Y-50288152D02*
X136642857Y-50335771D01*
X137071429Y-50954819D02*
X137071429Y-49954819D01*
X137166667Y-50573866D02*
X137452381Y-50954819D01*
X137452381Y-50288152D02*
X137071429Y-50669104D01*
X137880953Y-50288152D02*
X137880953Y-50954819D01*
X137880953Y-50383390D02*
X137928572Y-50335771D01*
X137928572Y-50335771D02*
X138023810Y-50288152D01*
X138023810Y-50288152D02*
X138166667Y-50288152D01*
X138166667Y-50288152D02*
X138261905Y-50335771D01*
X138261905Y-50335771D02*
X138309524Y-50431009D01*
X138309524Y-50431009D02*
X138309524Y-50954819D01*
X139166667Y-50907200D02*
X139071429Y-50954819D01*
X139071429Y-50954819D02*
X138880953Y-50954819D01*
X138880953Y-50954819D02*
X138785715Y-50907200D01*
X138785715Y-50907200D02*
X138738096Y-50811961D01*
X138738096Y-50811961D02*
X138738096Y-50431009D01*
X138738096Y-50431009D02*
X138785715Y-50335771D01*
X138785715Y-50335771D02*
X138880953Y-50288152D01*
X138880953Y-50288152D02*
X139071429Y-50288152D01*
X139071429Y-50288152D02*
X139166667Y-50335771D01*
X139166667Y-50335771D02*
X139214286Y-50431009D01*
X139214286Y-50431009D02*
X139214286Y-50526247D01*
X139214286Y-50526247D02*
X138738096Y-50621485D01*
X139595239Y-50907200D02*
X139690477Y-50954819D01*
X139690477Y-50954819D02*
X139880953Y-50954819D01*
X139880953Y-50954819D02*
X139976191Y-50907200D01*
X139976191Y-50907200D02*
X140023810Y-50811961D01*
X140023810Y-50811961D02*
X140023810Y-50764342D01*
X140023810Y-50764342D02*
X139976191Y-50669104D01*
X139976191Y-50669104D02*
X139880953Y-50621485D01*
X139880953Y-50621485D02*
X139738096Y-50621485D01*
X139738096Y-50621485D02*
X139642858Y-50573866D01*
X139642858Y-50573866D02*
X139595239Y-50478628D01*
X139595239Y-50478628D02*
X139595239Y-50431009D01*
X139595239Y-50431009D02*
X139642858Y-50335771D01*
X139642858Y-50335771D02*
X139738096Y-50288152D01*
X139738096Y-50288152D02*
X139880953Y-50288152D01*
X139880953Y-50288152D02*
X139976191Y-50335771D01*
X140404763Y-50907200D02*
X140500001Y-50954819D01*
X140500001Y-50954819D02*
X140690477Y-50954819D01*
X140690477Y-50954819D02*
X140785715Y-50907200D01*
X140785715Y-50907200D02*
X140833334Y-50811961D01*
X140833334Y-50811961D02*
X140833334Y-50764342D01*
X140833334Y-50764342D02*
X140785715Y-50669104D01*
X140785715Y-50669104D02*
X140690477Y-50621485D01*
X140690477Y-50621485D02*
X140547620Y-50621485D01*
X140547620Y-50621485D02*
X140452382Y-50573866D01*
X140452382Y-50573866D02*
X140404763Y-50478628D01*
X140404763Y-50478628D02*
X140404763Y-50431009D01*
X140404763Y-50431009D02*
X140452382Y-50335771D01*
X140452382Y-50335771D02*
X140547620Y-50288152D01*
X140547620Y-50288152D02*
X140690477Y-50288152D01*
X140690477Y-50288152D02*
X140785715Y-50335771D01*
X141261906Y-50859580D02*
X141309525Y-50907200D01*
X141309525Y-50907200D02*
X141261906Y-50954819D01*
X141261906Y-50954819D02*
X141214287Y-50907200D01*
X141214287Y-50907200D02*
X141261906Y-50859580D01*
X141261906Y-50859580D02*
X141261906Y-50954819D01*
X141261906Y-50335771D02*
X141309525Y-50383390D01*
X141309525Y-50383390D02*
X141261906Y-50431009D01*
X141261906Y-50431009D02*
X141214287Y-50383390D01*
X141214287Y-50383390D02*
X141261906Y-50335771D01*
X141261906Y-50335771D02*
X141261906Y-50431009D01*
X143023810Y-50954819D02*
X142452382Y-50954819D01*
X142738096Y-50954819D02*
X142738096Y-49954819D01*
X142738096Y-49954819D02*
X142642858Y-50097676D01*
X142642858Y-50097676D02*
X142547620Y-50192914D01*
X142547620Y-50192914D02*
X142452382Y-50240533D01*
X143452382Y-50859580D02*
X143500001Y-50907200D01*
X143500001Y-50907200D02*
X143452382Y-50954819D01*
X143452382Y-50954819D02*
X143404763Y-50907200D01*
X143404763Y-50907200D02*
X143452382Y-50859580D01*
X143452382Y-50859580D02*
X143452382Y-50954819D01*
X144404762Y-49954819D02*
X143928572Y-49954819D01*
X143928572Y-49954819D02*
X143880953Y-50431009D01*
X143880953Y-50431009D02*
X143928572Y-50383390D01*
X143928572Y-50383390D02*
X144023810Y-50335771D01*
X144023810Y-50335771D02*
X144261905Y-50335771D01*
X144261905Y-50335771D02*
X144357143Y-50383390D01*
X144357143Y-50383390D02*
X144404762Y-50431009D01*
X144404762Y-50431009D02*
X144452381Y-50526247D01*
X144452381Y-50526247D02*
X144452381Y-50764342D01*
X144452381Y-50764342D02*
X144404762Y-50859580D01*
X144404762Y-50859580D02*
X144357143Y-50907200D01*
X144357143Y-50907200D02*
X144261905Y-50954819D01*
X144261905Y-50954819D02*
X144023810Y-50954819D01*
X144023810Y-50954819D02*
X143928572Y-50907200D01*
X143928572Y-50907200D02*
X143880953Y-50859580D01*
X144785715Y-49954819D02*
X145452381Y-49954819D01*
X145452381Y-49954819D02*
X145023810Y-50954819D01*
X145833334Y-50954819D02*
X145833334Y-50288152D01*
X145833334Y-50383390D02*
X145880953Y-50335771D01*
X145880953Y-50335771D02*
X145976191Y-50288152D01*
X145976191Y-50288152D02*
X146119048Y-50288152D01*
X146119048Y-50288152D02*
X146214286Y-50335771D01*
X146214286Y-50335771D02*
X146261905Y-50431009D01*
X146261905Y-50431009D02*
X146261905Y-50954819D01*
X146261905Y-50431009D02*
X146309524Y-50335771D01*
X146309524Y-50335771D02*
X146404762Y-50288152D01*
X146404762Y-50288152D02*
X146547619Y-50288152D01*
X146547619Y-50288152D02*
X146642858Y-50335771D01*
X146642858Y-50335771D02*
X146690477Y-50431009D01*
X146690477Y-50431009D02*
X146690477Y-50954819D01*
X147166667Y-50954819D02*
X147166667Y-50288152D01*
X147166667Y-50383390D02*
X147214286Y-50335771D01*
X147214286Y-50335771D02*
X147309524Y-50288152D01*
X147309524Y-50288152D02*
X147452381Y-50288152D01*
X147452381Y-50288152D02*
X147547619Y-50335771D01*
X147547619Y-50335771D02*
X147595238Y-50431009D01*
X147595238Y-50431009D02*
X147595238Y-50954819D01*
X147595238Y-50431009D02*
X147642857Y-50335771D01*
X147642857Y-50335771D02*
X147738095Y-50288152D01*
X147738095Y-50288152D02*
X147880952Y-50288152D01*
X147880952Y-50288152D02*
X147976191Y-50335771D01*
X147976191Y-50335771D02*
X148023810Y-50431009D01*
X148023810Y-50431009D02*
X148023810Y-50954819D01*
%TO.C,U5*%
D11*
X95427500Y-138120000D02*
G75*
G02*
X95227500Y-138120000I-100000J0D01*
G01*
X95227500Y-138120000D02*
G75*
G02*
X95427500Y-138120000I100000J0D01*
G01*
%TO.C,H2*%
D10*
X94700000Y-66400000D02*
G75*
G02*
X90900000Y-66400000I-1900000J0D01*
G01*
X90900000Y-66400000D02*
G75*
G02*
X94700000Y-66400000I1900000J0D01*
G01*
%TO.C,D4*%
D12*
X131510000Y-130750000D02*
G75*
G02*
X131210000Y-130750000I-150000J0D01*
G01*
X131210000Y-130750000D02*
G75*
G02*
X131510000Y-130750000I150000J0D01*
G01*
%TO.C,H4*%
D10*
X143700000Y-151500000D02*
G75*
G02*
X139900000Y-151500000I-1900000J0D01*
G01*
X139900000Y-151500000D02*
G75*
G02*
X143700000Y-151500000I1900000J0D01*
G01*
%TO.C,H3*%
X94800000Y-151500000D02*
G75*
G02*
X91000000Y-151500000I-1900000J0D01*
G01*
X91000000Y-151500000D02*
G75*
G02*
X94800000Y-151500000I1900000J0D01*
G01*
%TO.C,U3*%
D13*
X113400000Y-83730000D02*
G75*
G02*
X112900000Y-83730000I-250000J0D01*
G01*
X112900000Y-83730000D02*
G75*
G02*
X113400000Y-83730000I250000J0D01*
G01*
%TO.C,H1*%
D10*
X126500000Y-57400000D02*
G75*
G02*
X122700000Y-57400000I-1900000J0D01*
G01*
X122700000Y-57400000D02*
G75*
G02*
X126500000Y-57400000I1900000J0D01*
G01*
%TO.C,D5*%
D12*
X105590000Y-123495000D02*
G75*
G02*
X105290000Y-123495000I-150000J0D01*
G01*
X105290000Y-123495000D02*
G75*
G02*
X105590000Y-123495000I150000J0D01*
G01*
%TD*%
M02*
