%TF.GenerationSoftware,KiCad,Pcbnew,10.0.3*%
%TF.CreationDate,2026-05-22T18:31:41-04:00*%
%TF.ProjectId,meshtastic,6d657368-7461-4737-9469-632e6b696361,rev?*%
%TF.SameCoordinates,Original*%
%TF.FileFunction,Copper,L4,Bot*%
%TF.FilePolarity,Positive*%
%FSLAX46Y46*%
G04 Gerber Fmt 4.6, Leading zero omitted, Abs format (unit mm)*
G04 Created by KiCad (PCBNEW 10.0.3) date 2026-05-22 18:31:41*
%MOMM*%
%LPD*%
G01*
G04 APERTURE LIST*
G04 Aperture macros list*
%AMRoundRect*
0 Rectangle with rounded corners*
0 $1 Rounding radius*
0 $2 $3 $4 $5 $6 $7 $8 $9 X,Y pos of 4 corners*
0 Add a 4 corners polygon primitive as box body*
4,1,4,$2,$3,$4,$5,$6,$7,$8,$9,$2,$3,0*
0 Add four circle primitives for the rounded corners*
1,1,$1+$1,$2,$3*
1,1,$1+$1,$4,$5*
1,1,$1+$1,$6,$7*
1,1,$1+$1,$8,$9*
0 Add four rect primitives between the rounded corners*
20,1,$1+$1,$2,$3,$4,$5,0*
20,1,$1+$1,$4,$5,$6,$7,0*
20,1,$1+$1,$6,$7,$8,$9,0*
20,1,$1+$1,$8,$9,$2,$3,0*%
G04 Aperture macros list end*
%TA.AperFunction,ComponentPad*%
%ADD10R,1.800000X1.800000*%
%TD*%
%TA.AperFunction,ComponentPad*%
%ADD11C,1.800000*%
%TD*%
%TA.AperFunction,ComponentPad*%
%ADD12C,3.800000*%
%TD*%
%TA.AperFunction,ComponentPad*%
%ADD13C,2.000000*%
%TD*%
%TA.AperFunction,SMDPad,CuDef*%
%ADD14RoundRect,0.250000X0.425000X1.600000X-0.425000X1.600000X-0.425000X-1.600000X0.425000X-1.600000X0*%
%TD*%
%TA.AperFunction,ComponentPad*%
%ADD15R,1.700000X1.700000*%
%TD*%
%TA.AperFunction,ComponentPad*%
%ADD16C,1.700000*%
%TD*%
%TA.AperFunction,SMDPad,CuDef*%
%ADD17RoundRect,0.250003X-2.999997X3.499997X-2.999997X-3.499997X2.999997X-3.499997X2.999997X3.499997X0*%
%TD*%
%TA.AperFunction,ViaPad*%
%ADD18C,0.600000*%
%TD*%
%TA.AperFunction,Conductor*%
%ADD19C,0.500000*%
%TD*%
%TA.AperFunction,Conductor*%
%ADD20C,0.300000*%
%TD*%
%TA.AperFunction,Conductor*%
%ADD21C,0.800000*%
%TD*%
%TA.AperFunction,Conductor*%
%ADD22C,0.600000*%
%TD*%
G04 APERTURE END LIST*
D10*
%TO.P,D2,1,K_1*%
%TO.N,GND*%
X93500000Y-91540000D03*
D11*
%TO.P,D2,2,A_2*%
%TO.N,Net-(D2-A)*%
X93500000Y-89000000D03*
%TD*%
D12*
%TO.P,H2,1,1_1*%
%TO.N,GND*%
X92800000Y-66400000D03*
%TD*%
%TO.P,H4,1,1_1*%
%TO.N,GND*%
X141800000Y-151500000D03*
%TD*%
%TO.P,H3,1,1_1*%
%TO.N,GND*%
X92900000Y-151500000D03*
%TD*%
D13*
%TO.P,SW1,1,1_1*%
%TO.N,GND*%
X102500000Y-78000000D03*
X109000000Y-78000000D03*
%TO.P,SW1,2,2_2*%
%TO.N,Net-(U2-~{SAFEBOOT})*%
X102500000Y-82500000D03*
X109000000Y-82500000D03*
%TD*%
D14*
%TO.P,J3,2,Ext_2*%
%TO.N,GND*%
X93175000Y-56900000D03*
X98825000Y-56900000D03*
%TD*%
D13*
%TO.P,TP1,1,1_1*%
%TO.N,Net-(U2-LNA_EN)*%
X119700000Y-74600000D03*
%TD*%
D15*
%TO.P,J2,1,Pin_1_1*%
%TO.N,+3V3*%
X100400000Y-115125000D03*
D16*
%TO.P,J2,2,Pin_2_2*%
%TO.N,GND*%
X100400000Y-117665000D03*
%TO.P,J2,3,Pin_3_3*%
%TO.N,/SCK*%
X100400000Y-120205000D03*
%TO.P,J2,4,Pin_4_4*%
%TO.N,/MOSI*%
X100400000Y-122745000D03*
%TO.P,J2,5,Pin_5_5*%
%TO.N,/MISO*%
X100400000Y-125285000D03*
%TO.P,J2,6,Pin_6_6*%
%TO.N,/CS_BUS*%
X100400000Y-127825000D03*
%TD*%
D14*
%TO.P,J5,2,Ext_2*%
%TO.N,GND*%
X136175000Y-56912500D03*
X141825000Y-56912500D03*
%TD*%
D15*
%TO.P,J1,1,Pin_1_1*%
%TO.N,+3V3*%
X134600000Y-135825000D03*
D16*
%TO.P,J1,2,Pin_2_2*%
%TO.N,GND*%
X134600000Y-133285000D03*
%TO.P,J1,3,Pin_3_3*%
%TO.N,/SDA_I2C*%
X134600000Y-130745000D03*
%TO.P,J1,4,Pin_4_4*%
%TO.N,/SCL_I2C*%
X134600000Y-128205000D03*
%TD*%
D12*
%TO.P,H1,1,1_1*%
%TO.N,GND*%
X124600000Y-57400000D03*
%TD*%
D10*
%TO.P,D3,1,K_1*%
%TO.N,GND*%
X93500000Y-98000000D03*
D11*
%TO.P,D3,2,A_2*%
%TO.N,Net-(D3-A)*%
X93500000Y-95460000D03*
%TD*%
D17*
%TO.P,BT1,1,+_1*%
%TO.N,Net-(BT1-+)*%
X130500000Y-62310000D03*
%TO.P,BT1,2,-_2*%
%TO.N,-BATT*%
X130500000Y-141690000D03*
%TD*%
D18*
%TO.N,GND*%
X102200000Y-57900000D03*
X136700000Y-66800000D03*
X90800000Y-149600000D03*
X103500000Y-142100000D03*
X110700000Y-57800000D03*
X104800000Y-104000000D03*
X97300000Y-97100000D03*
X96200000Y-93300000D03*
X90900000Y-93300000D03*
X91400000Y-85500000D03*
X143600000Y-133800000D03*
X143600000Y-130400000D03*
X143600000Y-127100000D03*
X143800000Y-79400000D03*
X143800000Y-76000000D03*
X144000000Y-70600000D03*
X143900000Y-63000000D03*
X126300000Y-55300000D03*
X117400000Y-55300000D03*
X111700000Y-55900000D03*
X130200000Y-55600000D03*
X130600000Y-67400000D03*
X127800000Y-70400000D03*
X132800000Y-75900000D03*
X125900000Y-75000000D03*
X102000000Y-84800000D03*
X108800000Y-85400000D03*
X107300000Y-86700000D03*
X104300000Y-89000000D03*
X101900000Y-91300000D03*
X130200000Y-118100000D03*
X129100000Y-118800000D03*
X122400000Y-124900000D03*
X128300000Y-123500000D03*
X125600000Y-124000000D03*
X116100000Y-124800000D03*
X116800000Y-129500000D03*
X121400000Y-134500000D03*
X115200000Y-134500000D03*
X123000000Y-147600000D03*
X122700000Y-150000000D03*
X133500000Y-152400000D03*
X135800000Y-152500000D03*
X133800000Y-150700000D03*
X135700000Y-150600000D03*
X138000000Y-147200000D03*
X138400000Y-142800000D03*
X139000000Y-139700000D03*
X143700000Y-118200000D03*
X143300000Y-114700000D03*
X143100000Y-110500000D03*
X142100000Y-94500000D03*
X143200000Y-91800000D03*
X108900000Y-95800000D03*
X108900000Y-93800000D03*
X104600000Y-100700000D03*
X104300000Y-95800000D03*
X92900000Y-111100000D03*
X93100000Y-117600000D03*
X93000000Y-120400000D03*
X93100000Y-122600000D03*
X93000000Y-125300000D03*
X93000000Y-128100000D03*
X92000000Y-136500000D03*
X92100000Y-135200000D03*
%TO.N,+5V*%
X99200000Y-135000000D03*
X98100000Y-134500000D03*
%TO.N,GND*%
X98600000Y-136700000D03*
X111400000Y-141400000D03*
X111400000Y-139200000D03*
X111400000Y-137600000D03*
X114400000Y-140100000D03*
X111500000Y-145400000D03*
X111500000Y-150800000D03*
X111500000Y-149600000D03*
X111500000Y-148900000D03*
X111500000Y-148100000D03*
X111500000Y-147300000D03*
X111500000Y-146500000D03*
X108200000Y-113900000D03*
X108500000Y-112900000D03*
X108500000Y-110800000D03*
X108300000Y-110000000D03*
X109700000Y-110300000D03*
X99900000Y-58600000D03*
X101000000Y-58000000D03*
X102800000Y-57900000D03*
X104500000Y-59100000D03*
X102400000Y-59300000D03*
X103100000Y-59300000D03*
X97800000Y-59600000D03*
X96680000Y-59300000D03*
X98357085Y-62548650D03*
X97625580Y-62875000D03*
X98593539Y-61797416D03*
X99100000Y-61400000D03*
X99530833Y-60930833D03*
X96900000Y-61000000D03*
X97840902Y-60768143D03*
X98369167Y-60169167D03*
X98919167Y-59619167D03*
X96800000Y-62700000D03*
%TO.N,/MOSI*%
X119900000Y-65200000D03*
X137994000Y-102760000D03*
%TO.N,+5V*%
X109600000Y-113850000D03*
X109600000Y-108700000D03*
X114950000Y-111500000D03*
X112600000Y-108950000D03*
X111700000Y-112200000D03*
X143120000Y-107450000D03*
X112600000Y-112450000D03*
X114950000Y-109250000D03*
X111300000Y-130800000D03*
X115250000Y-119500000D03*
X111500000Y-126200000D03*
X113750000Y-118500000D03*
X100800000Y-134132500D03*
%TO.N,GND*%
X140811237Y-86517845D03*
X140300000Y-57700000D03*
X132200000Y-132000000D03*
X142900000Y-66600000D03*
X130600000Y-98900000D03*
X95000000Y-58900000D03*
X142820000Y-83128993D03*
X140000000Y-69200000D03*
X140000000Y-87000000D03*
X98825000Y-56900000D03*
X114250000Y-116000000D03*
X95300000Y-64800000D03*
X103700000Y-59300000D03*
X96790000Y-65500000D03*
X135200000Y-65500000D03*
X104500000Y-72600000D03*
X100730833Y-59730833D03*
X139700000Y-65600000D03*
X128400000Y-152800000D03*
X139369167Y-71530833D03*
X101500000Y-146500000D03*
X91700000Y-59300000D03*
X123000000Y-118500000D03*
X134300000Y-55500000D03*
X111600000Y-114600000D03*
X108259190Y-64675576D03*
X139400000Y-90800000D03*
X98250000Y-75750000D03*
X138900000Y-113300000D03*
X100400000Y-58200000D03*
X100100000Y-55800000D03*
X126500000Y-83400000D03*
X121800000Y-113400000D03*
X112000000Y-74100000D03*
X94000000Y-148000000D03*
X142680000Y-77400000D03*
X142820000Y-82141722D03*
X99469167Y-59069167D03*
X97200000Y-56600000D03*
X104000000Y-99300000D03*
X96750880Y-70830880D03*
X104190000Y-123505000D03*
X91400000Y-102200000D03*
X119500000Y-88800000D03*
X124900000Y-107900000D03*
X140000000Y-61600000D03*
X94300000Y-140400000D03*
X109000000Y-61300000D03*
X136175000Y-56912500D03*
X139700000Y-64100000D03*
X134300000Y-58400000D03*
X106000000Y-64900000D03*
X96700000Y-132500000D03*
X99900000Y-76000000D03*
X135000000Y-108300000D03*
X142700000Y-75100000D03*
X96600000Y-147900000D03*
X92600000Y-69200000D03*
X109000000Y-147478500D03*
X105000000Y-68900000D03*
X92500000Y-100900000D03*
X104954293Y-58657374D03*
X104500000Y-151800000D03*
X91700000Y-140400000D03*
X112500000Y-72400000D03*
X142800000Y-146900000D03*
X100200000Y-72924100D03*
X105250000Y-112250000D03*
X140000000Y-68300000D03*
X94400000Y-64700000D03*
X105200000Y-66800000D03*
X94000000Y-74800000D03*
X96800000Y-73500000D03*
X104500000Y-118900000D03*
X118600000Y-77100000D03*
X141180000Y-82274146D03*
X138250000Y-114190000D03*
X128000000Y-66700000D03*
X139800000Y-58700000D03*
X96778709Y-69000831D03*
X142400000Y-142500000D03*
X104500000Y-74900000D03*
X104500000Y-71200000D03*
X140949018Y-84550711D03*
X111700000Y-109700000D03*
X130600000Y-93600000D03*
X139700000Y-64800000D03*
X125500000Y-68800000D03*
X139849770Y-85484791D03*
X103900000Y-103300000D03*
X95320000Y-65900000D03*
X100700000Y-143200000D03*
X106006233Y-74210411D03*
X127800000Y-56700000D03*
X136000000Y-86250000D03*
X96746341Y-66584729D03*
X132665342Y-105821398D03*
X96700000Y-144400000D03*
X123900000Y-86600000D03*
X107300000Y-66400000D03*
X112400000Y-89000000D03*
X130000000Y-87000000D03*
X97405947Y-67444314D03*
X96700000Y-146600000D03*
X142700000Y-79200000D03*
X112600000Y-103200000D03*
X133300000Y-89300000D03*
X93175000Y-56900000D03*
X134400000Y-97700000D03*
X125200000Y-97300000D03*
X132100000Y-73600000D03*
X130500000Y-71250000D03*
X115900000Y-141200000D03*
X113800000Y-150700000D03*
X136700000Y-63400000D03*
X141200000Y-73500000D03*
X136200000Y-76100000D03*
X101200000Y-141800000D03*
X95234890Y-62656629D03*
X120700000Y-95400000D03*
X121300000Y-97700000D03*
X119500000Y-82500000D03*
X138320000Y-67300000D03*
X95320000Y-67000000D03*
X111500025Y-75807832D03*
X95992404Y-67948656D03*
X141320000Y-76000000D03*
X119250000Y-124250000D03*
X137900000Y-82300000D03*
X104500000Y-70500000D03*
X108200000Y-59900000D03*
X99500000Y-70700000D03*
X92000000Y-148000000D03*
X125250000Y-118250000D03*
X122900000Y-92800000D03*
X95403290Y-61000001D03*
X101200000Y-75900000D03*
X97000000Y-60200000D03*
X97700000Y-136800000D03*
X94700000Y-56400000D03*
X92000000Y-146300000D03*
X100785331Y-63785331D03*
X130800000Y-146600000D03*
X106500000Y-58000000D03*
X138700000Y-70800000D03*
X143600000Y-58000000D03*
X129700000Y-114000000D03*
X105700000Y-80200000D03*
X101500000Y-148000000D03*
X96525000Y-72550000D03*
X104500000Y-69800000D03*
X109600000Y-111950000D03*
X102200000Y-75900000D03*
X131500000Y-81800000D03*
X140300000Y-55700000D03*
X98500000Y-66700000D03*
X100900000Y-72900000D03*
X140293620Y-70531954D03*
X91600000Y-57000000D03*
X94000000Y-131800000D03*
X98500000Y-141300000D03*
X105100000Y-147200000D03*
X126200000Y-88900000D03*
X95025000Y-60355684D03*
X123800000Y-81800000D03*
X141900000Y-63800000D03*
X120200000Y-148000000D03*
X136000000Y-83250000D03*
X114100000Y-142000000D03*
X96820000Y-69900000D03*
X138320000Y-62341927D03*
X94700000Y-55600000D03*
X121420000Y-119525000D03*
X98300000Y-137500000D03*
X98190000Y-69390880D03*
X139700000Y-67300000D03*
X135300000Y-113700000D03*
X132700000Y-95900000D03*
X129300000Y-84700000D03*
X104500000Y-71900000D03*
X105200000Y-113800000D03*
X110900000Y-64900000D03*
X112400000Y-107500000D03*
X101600000Y-72924100D03*
X137300000Y-62800000D03*
X105470000Y-115300000D03*
X95164520Y-59553850D03*
X127100000Y-91900000D03*
X138200000Y-69800000D03*
X142000000Y-61000000D03*
X100800000Y-70600000D03*
X98800000Y-148600000D03*
X104500000Y-73400000D03*
X136000000Y-87750000D03*
X130200000Y-103100000D03*
X104500000Y-74200000D03*
X101600000Y-144900000D03*
X142000000Y-87500000D03*
X129600000Y-97300000D03*
X103200000Y-68800000D03*
X143700000Y-55700000D03*
X92100000Y-131400000D03*
X93100000Y-61500000D03*
X96100000Y-131300000D03*
X138320000Y-66200000D03*
X139000000Y-80800000D03*
X138264383Y-60725721D03*
X133250000Y-69000000D03*
X104450000Y-76500000D03*
X107400000Y-72900000D03*
X133900000Y-81200000D03*
X140118754Y-72500000D03*
X136200000Y-68900000D03*
X101700000Y-59300000D03*
X112000000Y-70100000D03*
X99300000Y-82000000D03*
X100100000Y-56900000D03*
X140300000Y-56700000D03*
X105200000Y-61300000D03*
X108800000Y-71300000D03*
X112400000Y-94500000D03*
X95100000Y-143400000D03*
X105788544Y-58452946D03*
X95025000Y-61740338D03*
X108500000Y-68300000D03*
X139700000Y-63200000D03*
X141130833Y-71369167D03*
X109600000Y-72400000D03*
X125400000Y-93900000D03*
X112600000Y-90900000D03*
X126800000Y-94900000D03*
X98600000Y-147300000D03*
X136000000Y-85000000D03*
X97200000Y-152000000D03*
X123500000Y-77000000D03*
X142680000Y-76300000D03*
X112500000Y-65200000D03*
X139700000Y-59800000D03*
X101590935Y-57923526D03*
X112000000Y-77100000D03*
X98116843Y-68750000D03*
X91700000Y-55800000D03*
X127250000Y-77250000D03*
X142700000Y-69100000D03*
X109707519Y-66687145D03*
X121100000Y-108300000D03*
X94700000Y-58100000D03*
X144000000Y-83400000D03*
X127500000Y-81000000D03*
X134800000Y-101600000D03*
X142680000Y-80400000D03*
X118900000Y-86100000D03*
X132700000Y-55900000D03*
X138320000Y-64900000D03*
X114100000Y-146800000D03*
X138300000Y-59700000D03*
X137700000Y-56600000D03*
X117300000Y-75300000D03*
X97025000Y-63609756D03*
X136200000Y-61800000D03*
X116250000Y-115750000D03*
X131500000Y-148000000D03*
X114750000Y-122250000D03*
X91400000Y-71000000D03*
X107300000Y-61300000D03*
X138700000Y-77300000D03*
X105700000Y-78600000D03*
X142582218Y-84350630D03*
X94500000Y-68600000D03*
X134700000Y-60700000D03*
X139751898Y-60770596D03*
X103100000Y-75500000D03*
X138250000Y-83710000D03*
X142109726Y-85285960D03*
X98282559Y-71998201D03*
X109250000Y-115500000D03*
X141320000Y-81300000D03*
X141300000Y-89600000D03*
X106000000Y-70600000D03*
X122900000Y-103700000D03*
X142639516Y-73564321D03*
X121600000Y-85500000D03*
X141461666Y-85961666D03*
X99300000Y-144300000D03*
X130100000Y-57700000D03*
X101000000Y-74300000D03*
X94300000Y-100500000D03*
X100200000Y-60300000D03*
X91600000Y-58100000D03*
X110500000Y-61400000D03*
X141320000Y-74700000D03*
X141825000Y-56912500D03*
X106569472Y-68839523D03*
X100300000Y-74300000D03*
X137300000Y-60200000D03*
X99523251Y-74284099D03*
X130500000Y-109300000D03*
X141100000Y-145600000D03*
X141800000Y-138900000D03*
X138700000Y-115400000D03*
X133200000Y-129500000D03*
X101792182Y-74291478D03*
X103100000Y-87400000D03*
X122100000Y-82900000D03*
X119500000Y-91900000D03*
X125200000Y-72300000D03*
X97300000Y-55700000D03*
X132500000Y-111600000D03*
X119700000Y-140100000D03*
X136000000Y-89250000D03*
X141320000Y-79800000D03*
X125900000Y-112500000D03*
X99350000Y-72924100D03*
X138320000Y-63600000D03*
X142100000Y-72300000D03*
X106000000Y-144500000D03*
X123100000Y-99700000D03*
X133200000Y-86800000D03*
X112800000Y-104400000D03*
X104500000Y-60000000D03*
X106800000Y-76100000D03*
X126300000Y-102200000D03*
X97200000Y-57900000D03*
X138200000Y-68800000D03*
X95700000Y-70500000D03*
X137800000Y-57700000D03*
X125250000Y-79250000D03*
X110000000Y-69700000D03*
X134400000Y-115600000D03*
X93100000Y-132900000D03*
X104030797Y-57705459D03*
X114800000Y-57100000D03*
X120100000Y-57000000D03*
X120300000Y-151300000D03*
X112900000Y-68400000D03*
X96849877Y-58591314D03*
X112900000Y-61400000D03*
X92100000Y-145100000D03*
X103500000Y-109000000D03*
X143500000Y-86200000D03*
X112800000Y-60100000D03*
X119500000Y-79250000D03*
X139700000Y-66400000D03*
X138320000Y-58714788D03*
X96790000Y-64500000D03*
X94700000Y-57200000D03*
X124000000Y-89200000D03*
X103400000Y-57900000D03*
X138600000Y-93200000D03*
X113900000Y-148900000D03*
X141320000Y-77900000D03*
X137800000Y-55600000D03*
X139700000Y-62500000D03*
X141309065Y-83802932D03*
X106400000Y-60000000D03*
X98200000Y-78100000D03*
X128500000Y-79250000D03*
X99000000Y-137800000D03*
X109000000Y-74400000D03*
X93100000Y-59600000D03*
X110500000Y-60300000D03*
X99200000Y-151000000D03*
X125000000Y-119750000D03*
X95737500Y-105230000D03*
X90900000Y-69000000D03*
X143800000Y-61200000D03*
X128400000Y-107400000D03*
X134750000Y-73000000D03*
%TO.N,Net-(U2-~{SAFEBOOT})*%
X101141000Y-61035900D03*
%TO.N,/GNSS/PPS*%
X95100000Y-71900000D03*
X100900000Y-67100000D03*
%TO.N,/CS_GPS*%
X126800001Y-143551842D03*
X110538000Y-80000000D03*
X115024000Y-68419500D03*
%TO.N,/SCK*%
X134100000Y-119400000D03*
X109888000Y-89415100D03*
X106770000Y-119797000D03*
X116700000Y-70100000D03*
%TO.N,+3V3*%
X132000000Y-135354000D03*
X99000000Y-68100000D03*
X100086000Y-85343100D03*
X100000000Y-64000000D03*
X112600000Y-132600000D03*
X112200000Y-117400000D03*
X130000000Y-135354000D03*
X115000000Y-62904100D03*
X129100000Y-130450000D03*
X140743000Y-132497000D03*
X92000000Y-79448900D03*
X94252700Y-70607600D03*
%TO.N,VBUS*%
X100400000Y-149400000D03*
X93118964Y-144781036D03*
X106610000Y-149590000D03*
X107300000Y-150018500D03*
X104950000Y-149950000D03*
%TO.N,-BATT*%
X99000000Y-105100000D03*
X99200000Y-105150000D03*
X131549997Y-144600000D03*
X98800000Y-105300000D03*
%TO.N,/TR_CTRL*%
X92230000Y-139130000D03*
X112090000Y-106200000D03*
X94400000Y-139130000D03*
X91600000Y-106900000D03*
%TO.N,Net-(U5-VOUT)*%
X100500000Y-140200000D03*
X96610000Y-140500000D03*
%TO.N,Net-(BT1-+)*%
X135750000Y-143450000D03*
X101100000Y-102700000D03*
X114600000Y-76600000D03*
X101100000Y-104200000D03*
X101100000Y-101900000D03*
X130500000Y-62310000D03*
X101637500Y-103300000D03*
X101100000Y-103500000D03*
%TO.N,Net-(C10-Pad1)*%
X99062895Y-72174490D03*
X98700000Y-74750000D03*
%TO.N,/MISO*%
X122200000Y-75500000D03*
X143200000Y-102400000D03*
X130390381Y-89809619D03*
X136200000Y-95619239D03*
%TO.N,/SCL_I2C*%
X128880000Y-132497000D03*
%TO.N,Net-(JP3-B)*%
X142200000Y-100700000D03*
X140264000Y-121719000D03*
%TO.N,/CS_LORA*%
X138644000Y-96410000D03*
X141244000Y-109082000D03*
%TO.N,/CS_BUS*%
X113600000Y-151700000D03*
X105662000Y-129873000D03*
%TO.N,/BUSY_LORA*%
X137600000Y-116300000D03*
X117200000Y-140200000D03*
X138250000Y-109110000D03*
%TO.N,+BATT*%
X95050000Y-147350000D03*
X93600000Y-104300000D03*
%TO.N,Net-(Q4-G)*%
X99237500Y-109350000D03*
X102337500Y-109350000D03*
%TD*%
%TO.N,+3V3*%
D19*
X132000000Y-135354000D02*
X130000000Y-135354000D01*
X132000000Y-135354000D02*
X132988000Y-135354000D01*
X132988000Y-135354000D02*
X133459000Y-135825000D01*
X133459000Y-135825000D02*
X134600000Y-135825000D01*
%TO.N,Net-(U5-VOUT)*%
X100100000Y-140600000D02*
X96710000Y-140600000D01*
X100500000Y-140200000D02*
X100100000Y-140600000D01*
X96710000Y-140600000D02*
X96610000Y-140500000D01*
%TO.N,/GNSS/PPS*%
D20*
X100900000Y-67100000D02*
X100900000Y-67601000D01*
X100900000Y-67601000D02*
X96601000Y-71900000D01*
X96601000Y-71900000D02*
X95100000Y-71900000D01*
%TO.N,/MOSI*%
X119900000Y-65200000D02*
X119900000Y-65500000D01*
X119900000Y-65500000D02*
X137000000Y-82600000D01*
X137000000Y-82600000D02*
X137000000Y-101700000D01*
X137000000Y-101700000D02*
X137994000Y-102694000D01*
X137994000Y-102694000D02*
X137994000Y-102760000D01*
X105045000Y-122745000D02*
X109574000Y-127274000D01*
X109574000Y-127274000D02*
X129390000Y-127274000D01*
X136900000Y-119764000D02*
X136900000Y-103854000D01*
X129390000Y-127274000D02*
X136900000Y-119764000D01*
X100400000Y-122745000D02*
X105045000Y-122745000D01*
X136900000Y-103854000D02*
X137994000Y-102760000D01*
%TO.N,+5V*%
X109850000Y-108950000D02*
X109600000Y-108700000D01*
X112600000Y-108950000D02*
X109850000Y-108950000D01*
%TO.N,Net-(U2-~{SAFEBOOT})*%
X101551000Y-61445900D02*
X101551000Y-68800000D01*
X101551000Y-70892200D02*
X103800000Y-73141200D01*
X101551000Y-68800000D02*
X101551000Y-70892200D01*
X101141000Y-61035900D02*
X101551000Y-61445900D01*
X103800000Y-75600000D02*
X103800000Y-76900000D01*
X109000000Y-82500000D02*
X102500000Y-82500000D01*
X103800000Y-76900000D02*
X104300000Y-77400000D01*
X104300000Y-80700000D02*
X102500000Y-82500000D01*
X104300000Y-77400000D02*
X104300000Y-80700000D01*
X103800000Y-73141200D02*
X103800000Y-75600000D01*
%TO.N,/CS_GPS*%
X110538000Y-72862000D02*
X114980500Y-68419500D01*
X114980500Y-68419500D02*
X115024000Y-68419500D01*
X110538000Y-80000000D02*
X110538000Y-72862000D01*
%TO.N,/SCK*%
X115744000Y-74365800D02*
X115744000Y-83559900D01*
X116700000Y-70100000D02*
X116700000Y-73409800D01*
X116700000Y-73409800D02*
X115744000Y-74365800D01*
X108473000Y-121500000D02*
X106770000Y-119797000D01*
X132000000Y-121500000D02*
X108473000Y-121500000D01*
X134100000Y-119400000D02*
X132000000Y-121500000D01*
X115744000Y-83559900D02*
X109888000Y-89415100D01*
%TO.N,+3V3*%
D19*
X134600000Y-135825000D02*
X137414000Y-135825000D01*
D21*
X100400000Y-115125000D02*
X100475000Y-115200000D01*
D22*
X92000000Y-79448900D02*
X94448900Y-79448900D01*
D20*
X96760300Y-68100000D02*
X94252700Y-70607600D01*
X99000000Y-68100000D02*
X96760300Y-68100000D01*
D21*
X111500000Y-116700000D02*
X112200000Y-117400000D01*
D19*
X137414000Y-135825000D02*
X140743000Y-132497000D01*
D21*
X104900000Y-116700000D02*
X111500000Y-116700000D01*
X100475000Y-115200000D02*
X103400000Y-115200000D01*
X103400000Y-115200000D02*
X104900000Y-116700000D01*
D22*
X94448900Y-79448900D02*
X100086000Y-85086000D01*
X100086000Y-85086000D02*
X100086000Y-85343100D01*
%TO.N,/TR_CTRL*%
D20*
X92400000Y-106100000D02*
X111990000Y-106100000D01*
X94400000Y-139130000D02*
X92230000Y-139130000D01*
X91600000Y-106900000D02*
X92400000Y-106100000D01*
X111990000Y-106100000D02*
X112090000Y-106200000D01*
%TO.N,Net-(BT1-+)*%
D22*
X112100000Y-79100000D02*
X112100000Y-84300000D01*
X101100000Y-95300000D02*
X101100000Y-101900000D01*
X112100000Y-84300000D02*
X101100000Y-95300000D01*
X114600000Y-76600000D02*
X112100000Y-79100000D01*
%TO.N,Net-(C10-Pad1)*%
D20*
X98969944Y-72267441D02*
X98932560Y-72267441D01*
X98932560Y-72267441D02*
X98700000Y-72500001D01*
X98700000Y-72500001D02*
X98700000Y-74750000D01*
X99062895Y-72174490D02*
X98969944Y-72267441D01*
%TO.N,/MISO*%
X136200000Y-95619239D02*
X130390381Y-89809619D01*
X130390381Y-89809619D02*
X122200000Y-81619239D01*
X122200000Y-81619239D02*
X122200000Y-75500000D01*
%TO.N,/SCL_I2C*%
X133171000Y-128205000D02*
X128880000Y-132497000D01*
X134600000Y-128205000D02*
X133171000Y-128205000D01*
%TO.N,Net-(JP3-B)*%
X142200000Y-100700000D02*
X142179000Y-100721000D01*
X142179000Y-100721000D02*
X142179000Y-119804000D01*
X142179000Y-119804000D02*
X140264000Y-121719000D01*
%TO.N,/CS_LORA*%
X138644000Y-96410000D02*
X139910000Y-96410000D01*
X139910000Y-96410000D02*
X141244000Y-97744000D01*
X141244000Y-97744000D02*
X141244000Y-109082000D01*
%TO.N,/CS_BUS*%
X102448000Y-129873000D02*
X100400000Y-127825000D01*
X112900000Y-136916000D02*
X105857000Y-129873000D01*
X105662000Y-129873000D02*
X102448000Y-129873000D01*
X105857000Y-129873000D02*
X105662000Y-129873000D01*
X112900000Y-151000000D02*
X112900000Y-136916000D01*
X113600000Y-151700000D02*
X112900000Y-151000000D01*
%TO.N,/BUSY_LORA*%
X138250000Y-109110000D02*
X138190000Y-109110000D01*
X137600000Y-109700000D02*
X137600000Y-116300000D01*
X138190000Y-109110000D02*
X137600000Y-109700000D01*
%TO.N,Net-(Q4-G)*%
X99237500Y-109350000D02*
X102337500Y-109350000D01*
%TD*%
%TA.AperFunction,Conductor*%
%TO.N,GND*%
G36*
X92083445Y-54720185D02*
G01*
X92129200Y-54772989D01*
X92139144Y-54842147D01*
X92121945Y-54889597D01*
X92065643Y-54980875D01*
X92065641Y-54980880D01*
X92010494Y-55147302D01*
X92010493Y-55147309D01*
X92000000Y-55250013D01*
X92000000Y-55350000D01*
X91800000Y-55300000D01*
X91800000Y-58549986D01*
X91800000Y-74684108D01*
X91800000Y-76500000D01*
X99900000Y-76500000D01*
X102381948Y-76500000D01*
X102148752Y-76536934D01*
X101924197Y-76609897D01*
X101713830Y-76717084D01*
X101630894Y-76777340D01*
X102329766Y-77476212D01*
X102287708Y-77487482D01*
X102162292Y-77559890D01*
X102059890Y-77662292D01*
X101987482Y-77787708D01*
X101976212Y-77829766D01*
X101277340Y-77130894D01*
X101217084Y-77213830D01*
X101109897Y-77424197D01*
X101036934Y-77648752D01*
X101000000Y-77881947D01*
X101000000Y-78118052D01*
X101036934Y-78351247D01*
X101109897Y-78575802D01*
X101217087Y-78786174D01*
X101277338Y-78869104D01*
X101277340Y-78869105D01*
X101976212Y-78170233D01*
X101987482Y-78212292D01*
X102059890Y-78337708D01*
X102162292Y-78440110D01*
X102287708Y-78512518D01*
X102329764Y-78523787D01*
X101630893Y-79222658D01*
X101713828Y-79282914D01*
X101924197Y-79390102D01*
X102148752Y-79463065D01*
X102148751Y-79463065D01*
X102381948Y-79500000D01*
X102618052Y-79500000D01*
X102851247Y-79463065D01*
X103075802Y-79390102D01*
X103286171Y-79282914D01*
X103452614Y-79161986D01*
X103518420Y-79138506D01*
X103586474Y-79154331D01*
X103635169Y-79204437D01*
X103649500Y-79262304D01*
X103649500Y-80379191D01*
X103629815Y-80446230D01*
X103613181Y-80466872D01*
X103050193Y-81029859D01*
X102988870Y-81063344D01*
X102924194Y-81060109D01*
X102851370Y-81036447D01*
X102618097Y-80999500D01*
X102618092Y-80999500D01*
X102381908Y-80999500D01*
X102381903Y-80999500D01*
X102148631Y-81036446D01*
X101924003Y-81109433D01*
X101713566Y-81216657D01*
X101604550Y-81295862D01*
X101522490Y-81355483D01*
X101522488Y-81355485D01*
X101522487Y-81355485D01*
X101355485Y-81522487D01*
X101355485Y-81522488D01*
X101355483Y-81522490D01*
X101295862Y-81604550D01*
X101216657Y-81713566D01*
X101109433Y-81924003D01*
X101036446Y-82148631D01*
X100999500Y-82381902D01*
X100999500Y-82618097D01*
X101036446Y-82851368D01*
X101109433Y-83075996D01*
X101181893Y-83218205D01*
X101216657Y-83286433D01*
X101355483Y-83477510D01*
X101522490Y-83644517D01*
X101713567Y-83783343D01*
X101812991Y-83834002D01*
X101924003Y-83890566D01*
X101924005Y-83890566D01*
X101924008Y-83890568D01*
X102044412Y-83929689D01*
X102148631Y-83963553D01*
X102381903Y-84000500D01*
X102381908Y-84000500D01*
X102618097Y-84000500D01*
X102851368Y-83963553D01*
X103075992Y-83890568D01*
X103286433Y-83783343D01*
X103477510Y-83644517D01*
X103644517Y-83477510D01*
X103783343Y-83286433D01*
X103818107Y-83218205D01*
X103866082Y-83167409D01*
X103928592Y-83150500D01*
X107571408Y-83150500D01*
X107638447Y-83170185D01*
X107681893Y-83218205D01*
X107716657Y-83286433D01*
X107855483Y-83477510D01*
X108022490Y-83644517D01*
X108213567Y-83783343D01*
X108312991Y-83834002D01*
X108424003Y-83890566D01*
X108424005Y-83890566D01*
X108424008Y-83890568D01*
X108544412Y-83929689D01*
X108648631Y-83963553D01*
X108881903Y-84000500D01*
X108881908Y-84000500D01*
X109118097Y-84000500D01*
X109351368Y-83963553D01*
X109575992Y-83890568D01*
X109786433Y-83783343D01*
X109977510Y-83644517D01*
X110144517Y-83477510D01*
X110283343Y-83286433D01*
X110390568Y-83075992D01*
X110463553Y-82851368D01*
X110466442Y-82833127D01*
X110500500Y-82618097D01*
X110500500Y-82381902D01*
X110463553Y-82148631D01*
X110390566Y-81924003D01*
X110283342Y-81713566D01*
X110144517Y-81522490D01*
X109977510Y-81355483D01*
X109786433Y-81216657D01*
X109575996Y-81109433D01*
X109351368Y-81036446D01*
X109118097Y-80999500D01*
X109118092Y-80999500D01*
X108881908Y-80999500D01*
X108881903Y-80999500D01*
X108648631Y-81036446D01*
X108424003Y-81109433D01*
X108213566Y-81216657D01*
X108104550Y-81295862D01*
X108022490Y-81355483D01*
X108022488Y-81355485D01*
X108022487Y-81355485D01*
X107855485Y-81522487D01*
X107855485Y-81522488D01*
X107855483Y-81522490D01*
X107795862Y-81604550D01*
X107716657Y-81713566D01*
X107681893Y-81781795D01*
X107633918Y-81832591D01*
X107571408Y-81849500D01*
X104369808Y-81849500D01*
X104302769Y-81829815D01*
X104257014Y-81777011D01*
X104247070Y-81707853D01*
X104276095Y-81644297D01*
X104282127Y-81637819D01*
X104805271Y-81114675D01*
X104805276Y-81114670D01*
X104841732Y-81060109D01*
X104876464Y-81008129D01*
X104880038Y-80999500D01*
X104925501Y-80889744D01*
X104943253Y-80800500D01*
X104950500Y-80764069D01*
X104950500Y-77335931D01*
X104950500Y-77335928D01*
X104925502Y-77210261D01*
X104925501Y-77210260D01*
X104925501Y-77210256D01*
X104876465Y-77091873D01*
X104875042Y-77089744D01*
X104805277Y-76985331D01*
X104805275Y-76985329D01*
X104805273Y-76985326D01*
X104486819Y-76666872D01*
X104453334Y-76605549D01*
X104450500Y-76579191D01*
X104450500Y-76500000D01*
X108881948Y-76500000D01*
X108648752Y-76536934D01*
X108424197Y-76609897D01*
X108213830Y-76717084D01*
X108130894Y-76777340D01*
X108829766Y-77476212D01*
X108787708Y-77487482D01*
X108662292Y-77559890D01*
X108559890Y-77662292D01*
X108487482Y-77787708D01*
X108476212Y-77829766D01*
X107777340Y-77130894D01*
X107717084Y-77213830D01*
X107609897Y-77424197D01*
X107536934Y-77648752D01*
X107500000Y-77881947D01*
X107500000Y-78118052D01*
X107536934Y-78351247D01*
X107609897Y-78575802D01*
X107717087Y-78786174D01*
X107777338Y-78869104D01*
X107777340Y-78869105D01*
X108476212Y-78170233D01*
X108487482Y-78212292D01*
X108559890Y-78337708D01*
X108662292Y-78440110D01*
X108787708Y-78512518D01*
X108829764Y-78523787D01*
X108130893Y-79222658D01*
X108213828Y-79282914D01*
X108424197Y-79390102D01*
X108648752Y-79463065D01*
X108648751Y-79463065D01*
X108881948Y-79500000D01*
X109118052Y-79500000D01*
X109351247Y-79463065D01*
X109575802Y-79390102D01*
X109707205Y-79323150D01*
X109709910Y-79322641D01*
X109711989Y-79320841D01*
X109744038Y-79316232D01*
X109775874Y-79310254D01*
X109778423Y-79311288D01*
X109781147Y-79310897D01*
X109810605Y-79324350D01*
X109840615Y-79336530D01*
X109842200Y-79338779D01*
X109844703Y-79339922D01*
X109862211Y-79367165D01*
X109880872Y-79393637D01*
X109881444Y-79397093D01*
X109882477Y-79398700D01*
X109887500Y-79433635D01*
X109887500Y-79495064D01*
X109867815Y-79562103D01*
X109866603Y-79563954D01*
X109828608Y-79620817D01*
X109828602Y-79620828D01*
X109768264Y-79766498D01*
X109768261Y-79766510D01*
X109737500Y-79921153D01*
X109737500Y-80078846D01*
X109768261Y-80233489D01*
X109768264Y-80233501D01*
X109828602Y-80379172D01*
X109828609Y-80379185D01*
X109916210Y-80510288D01*
X109916213Y-80510292D01*
X110027707Y-80621786D01*
X110027711Y-80621789D01*
X110158814Y-80709390D01*
X110158827Y-80709397D01*
X110290819Y-80764069D01*
X110304503Y-80769737D01*
X110459153Y-80800499D01*
X110459156Y-80800500D01*
X110459158Y-80800500D01*
X110616844Y-80800500D01*
X110616845Y-80800499D01*
X110771497Y-80769737D01*
X110917179Y-80709394D01*
X111048289Y-80621789D01*
X111048292Y-80621786D01*
X111087819Y-80582260D01*
X111149142Y-80548775D01*
X111218834Y-80553759D01*
X111274767Y-80595631D01*
X111299184Y-80661095D01*
X111299500Y-80669941D01*
X111299500Y-83917060D01*
X111279815Y-83984099D01*
X111263181Y-84004741D01*
X100589711Y-94678211D01*
X100541948Y-94725974D01*
X100478209Y-94789712D01*
X100390609Y-94920814D01*
X100390602Y-94920827D01*
X100330264Y-95066498D01*
X100330261Y-95066510D01*
X100299500Y-95221153D01*
X100299500Y-101978846D01*
X100330261Y-102133489D01*
X100330264Y-102133501D01*
X100379574Y-102252548D01*
X100387043Y-102322018D01*
X100379574Y-102347452D01*
X100330264Y-102466498D01*
X100330261Y-102466510D01*
X100299500Y-102621153D01*
X100299500Y-102778846D01*
X100330261Y-102933489D01*
X100330264Y-102933501D01*
X100379574Y-103052548D01*
X100387043Y-103122018D01*
X100379574Y-103147452D01*
X100330264Y-103266498D01*
X100330261Y-103266510D01*
X100299500Y-103421153D01*
X100299500Y-103578846D01*
X100330260Y-103733488D01*
X100330262Y-103733493D01*
X100330263Y-103733497D01*
X100358865Y-103802549D01*
X100366333Y-103872018D01*
X100358865Y-103897447D01*
X100348784Y-103921789D01*
X100330262Y-103966506D01*
X100330260Y-103966511D01*
X100299500Y-104121153D01*
X100299500Y-104278846D01*
X100330261Y-104433489D01*
X100330264Y-104433501D01*
X100390602Y-104579172D01*
X100390609Y-104579185D01*
X100478210Y-104710288D01*
X100478213Y-104710292D01*
X100589707Y-104821786D01*
X100589711Y-104821789D01*
X100720814Y-104909390D01*
X100720827Y-104909397D01*
X100866498Y-104969735D01*
X100866503Y-104969737D01*
X101021153Y-105000499D01*
X101021156Y-105000500D01*
X101021158Y-105000500D01*
X101178844Y-105000500D01*
X101178845Y-105000499D01*
X101333497Y-104969737D01*
X101451592Y-104920821D01*
X101479172Y-104909397D01*
X101479172Y-104909396D01*
X101479179Y-104909394D01*
X101610289Y-104821789D01*
X101721789Y-104710289D01*
X101809394Y-104579179D01*
X101869737Y-104433497D01*
X101900500Y-104278842D01*
X101900500Y-104140370D01*
X101920185Y-104073331D01*
X101972989Y-104027576D01*
X101977011Y-104025824D01*
X102016679Y-104009394D01*
X102147789Y-103921789D01*
X102259289Y-103810289D01*
X102346894Y-103679179D01*
X102407237Y-103533497D01*
X102438000Y-103378842D01*
X102438000Y-103221158D01*
X102438000Y-103221155D01*
X102437999Y-103221153D01*
X102421692Y-103139172D01*
X102407237Y-103066503D01*
X102376994Y-102993489D01*
X102346897Y-102920827D01*
X102346890Y-102920814D01*
X102259289Y-102789711D01*
X102259286Y-102789707D01*
X102147792Y-102678213D01*
X102147788Y-102678210D01*
X102016685Y-102590609D01*
X102016676Y-102590604D01*
X101944678Y-102560782D01*
X101890275Y-102516941D01*
X101876638Y-102491357D01*
X101872651Y-102481157D01*
X101869737Y-102466503D01*
X101819951Y-102346310D01*
X101819493Y-102345136D01*
X101816562Y-102311529D01*
X101812956Y-102277983D01*
X101813481Y-102276192D01*
X101813424Y-102275531D01*
X101813994Y-102274446D01*
X101820425Y-102252548D01*
X101836287Y-102214251D01*
X101869737Y-102133497D01*
X101900500Y-101978842D01*
X101900500Y-95682940D01*
X101920185Y-95615901D01*
X101936819Y-95595259D01*
X112721786Y-84810292D01*
X112721789Y-84810289D01*
X112809394Y-84679179D01*
X112869737Y-84533497D01*
X112900500Y-84378842D01*
X112900500Y-79482940D01*
X112920185Y-79415901D01*
X112936819Y-79395259D01*
X114881819Y-77450259D01*
X114943142Y-77416774D01*
X115012834Y-77421758D01*
X115068767Y-77463630D01*
X115093184Y-77529094D01*
X115093500Y-77537940D01*
X115093500Y-83239060D01*
X115073815Y-83306099D01*
X115057175Y-83326747D01*
X109785124Y-88598077D01*
X109723799Y-88631558D01*
X109721642Y-88632007D01*
X109654506Y-88645361D01*
X109654500Y-88645363D01*
X109508827Y-88705702D01*
X109508814Y-88705709D01*
X109377711Y-88793310D01*
X109377707Y-88793313D01*
X109266213Y-88904807D01*
X109266210Y-88904811D01*
X109178609Y-89035914D01*
X109178602Y-89035927D01*
X109118264Y-89181598D01*
X109118261Y-89181610D01*
X109087500Y-89336253D01*
X109087500Y-89493946D01*
X109118261Y-89648589D01*
X109118264Y-89648601D01*
X109178602Y-89794272D01*
X109178609Y-89794285D01*
X109266210Y-89925388D01*
X109266213Y-89925392D01*
X109377707Y-90036886D01*
X109377711Y-90036889D01*
X109508814Y-90124490D01*
X109508827Y-90124497D01*
X109654498Y-90184835D01*
X109654503Y-90184837D01*
X109809153Y-90215599D01*
X109809156Y-90215600D01*
X109809158Y-90215600D01*
X109966844Y-90215600D01*
X109966845Y-90215599D01*
X110121497Y-90184837D01*
X110267179Y-90124494D01*
X110398289Y-90036889D01*
X110509789Y-89925389D01*
X110597394Y-89794279D01*
X110657737Y-89648597D01*
X110671067Y-89581576D01*
X110703451Y-89519669D01*
X110704918Y-89518174D01*
X116158652Y-84065186D01*
X116158669Y-84065176D01*
X116197984Y-84025860D01*
X116247768Y-83976084D01*
X116248979Y-83974916D01*
X116249227Y-83974624D01*
X116249248Y-83974604D01*
X116249256Y-83974589D01*
X116249270Y-83974574D01*
X116249276Y-83974569D01*
X116249280Y-83974562D01*
X116249343Y-83974489D01*
X116249917Y-83973610D01*
X116258830Y-83960269D01*
X116285189Y-83920821D01*
X116320444Y-83868066D01*
X116320448Y-83868054D01*
X116320456Y-83868039D01*
X116320465Y-83868027D01*
X116320472Y-83868008D01*
X116320476Y-83868002D01*
X116320541Y-83867842D01*
X116346156Y-83806003D01*
X116369388Y-83749925D01*
X116369491Y-83749683D01*
X116369496Y-83749666D01*
X116369499Y-83749646D01*
X116369501Y-83749644D01*
X116383708Y-83678219D01*
X116383711Y-83678213D01*
X116383710Y-83678213D01*
X116386106Y-83666167D01*
X116394495Y-83624013D01*
X116394495Y-83624006D01*
X116394498Y-83623976D01*
X116394500Y-83623969D01*
X116394500Y-83550500D01*
X116394504Y-83495876D01*
X116394500Y-83495855D01*
X116394500Y-74686607D01*
X116414185Y-74619568D01*
X116430819Y-74598926D01*
X116547843Y-74481902D01*
X118199500Y-74481902D01*
X118199500Y-74718097D01*
X118236446Y-74951368D01*
X118309433Y-75175996D01*
X118416657Y-75386433D01*
X118555483Y-75577510D01*
X118722490Y-75744517D01*
X118913567Y-75883343D01*
X119012991Y-75934002D01*
X119124003Y-75990566D01*
X119124005Y-75990566D01*
X119124008Y-75990568D01*
X119244412Y-76029689D01*
X119348631Y-76063553D01*
X119581903Y-76100500D01*
X119581908Y-76100500D01*
X119818097Y-76100500D01*
X120051368Y-76063553D01*
X120275992Y-75990568D01*
X120486433Y-75883343D01*
X120677510Y-75744517D01*
X120844517Y-75577510D01*
X120983343Y-75386433D01*
X121090568Y-75175992D01*
X121163553Y-74951368D01*
X121175140Y-74878210D01*
X121200500Y-74718097D01*
X121200500Y-74481902D01*
X121163553Y-74248631D01*
X121090566Y-74024003D01*
X120988899Y-73824472D01*
X120983343Y-73813567D01*
X120844517Y-73622490D01*
X120677510Y-73455483D01*
X120486433Y-73316657D01*
X120469360Y-73307958D01*
X120275996Y-73209433D01*
X120051368Y-73136446D01*
X119818097Y-73099500D01*
X119818092Y-73099500D01*
X119581908Y-73099500D01*
X119581903Y-73099500D01*
X119348631Y-73136446D01*
X119124003Y-73209433D01*
X118913566Y-73316657D01*
X118834191Y-73374327D01*
X118722490Y-73455483D01*
X118722488Y-73455485D01*
X118722487Y-73455485D01*
X118555485Y-73622487D01*
X118555485Y-73622488D01*
X118555483Y-73622490D01*
X118495862Y-73704550D01*
X118416657Y-73813566D01*
X118309433Y-74024003D01*
X118236446Y-74248631D01*
X118199500Y-74481902D01*
X116547843Y-74481902D01*
X117205273Y-73824472D01*
X117205276Y-73824469D01*
X117276465Y-73717927D01*
X117325501Y-73599544D01*
X117325510Y-73599500D01*
X117350500Y-73473869D01*
X117350500Y-70604935D01*
X117370185Y-70537896D01*
X117371366Y-70536090D01*
X117409394Y-70479179D01*
X117469737Y-70333497D01*
X117500500Y-70178842D01*
X117500500Y-70021158D01*
X117500500Y-70021155D01*
X117500499Y-70021153D01*
X117493469Y-69985810D01*
X117469737Y-69866503D01*
X117469735Y-69866498D01*
X117409397Y-69720827D01*
X117409390Y-69720814D01*
X117321789Y-69589711D01*
X117321786Y-69589707D01*
X117210292Y-69478213D01*
X117210288Y-69478210D01*
X117079185Y-69390609D01*
X117079172Y-69390602D01*
X116933501Y-69330264D01*
X116933489Y-69330261D01*
X116778845Y-69299500D01*
X116778842Y-69299500D01*
X116621158Y-69299500D01*
X116621155Y-69299500D01*
X116466510Y-69330261D01*
X116466498Y-69330264D01*
X116320827Y-69390602D01*
X116320814Y-69390609D01*
X116189711Y-69478210D01*
X116189707Y-69478213D01*
X116078213Y-69589707D01*
X116078210Y-69589711D01*
X115990609Y-69720814D01*
X115990602Y-69720827D01*
X115930264Y-69866498D01*
X115930261Y-69866510D01*
X115899500Y-70021153D01*
X115899500Y-70178846D01*
X115930261Y-70333489D01*
X115930264Y-70333501D01*
X115990602Y-70479172D01*
X115990606Y-70479179D01*
X116028602Y-70536044D01*
X116049480Y-70602721D01*
X116049500Y-70604935D01*
X116049500Y-73088992D01*
X116029815Y-73156031D01*
X116013181Y-73176673D01*
X115238722Y-73951131D01*
X115226960Y-73968735D01*
X115215248Y-73986265D01*
X115203700Y-74003548D01*
X115167534Y-74057673D01*
X115118499Y-74176055D01*
X115118497Y-74176061D01*
X115093500Y-74301728D01*
X115093500Y-75752380D01*
X115073815Y-75819419D01*
X115021011Y-75865174D01*
X114951853Y-75875118D01*
X114922048Y-75866941D01*
X114833501Y-75830264D01*
X114833489Y-75830261D01*
X114678845Y-75799500D01*
X114678842Y-75799500D01*
X114521158Y-75799500D01*
X114521155Y-75799500D01*
X114366510Y-75830261D01*
X114366498Y-75830264D01*
X114220827Y-75890602D01*
X114220814Y-75890609D01*
X114089711Y-75978210D01*
X114089707Y-75978213D01*
X113800000Y-76267920D01*
X113800000Y-70519945D01*
X115072630Y-69247315D01*
X115133951Y-69213832D01*
X115136118Y-69213381D01*
X115146041Y-69211406D01*
X115257497Y-69189237D01*
X115403179Y-69128894D01*
X115534289Y-69041289D01*
X115645789Y-68929789D01*
X115733394Y-68798679D01*
X115793737Y-68652997D01*
X115824500Y-68498342D01*
X115824500Y-68340658D01*
X115824500Y-68340655D01*
X115824499Y-68340653D01*
X115803616Y-68235670D01*
X115793737Y-68186003D01*
X115793735Y-68185998D01*
X115733397Y-68040327D01*
X115733390Y-68040314D01*
X115645789Y-67909211D01*
X115645786Y-67909207D01*
X115534292Y-67797713D01*
X115534288Y-67797710D01*
X115403185Y-67710109D01*
X115403172Y-67710102D01*
X115257501Y-67649764D01*
X115257489Y-67649761D01*
X115102845Y-67619000D01*
X115102842Y-67619000D01*
X114945158Y-67619000D01*
X114945155Y-67619000D01*
X114790510Y-67649761D01*
X114790498Y-67649764D01*
X114644827Y-67710102D01*
X114644814Y-67710109D01*
X114513711Y-67797710D01*
X114513707Y-67797713D01*
X114402213Y-67909207D01*
X114402210Y-67909211D01*
X114314609Y-68040314D01*
X114314602Y-68040327D01*
X114254263Y-68186000D01*
X114254262Y-68186005D01*
X114251721Y-68198780D01*
X114219335Y-68260690D01*
X114217785Y-68262267D01*
X113800000Y-68680052D01*
X113800000Y-62825253D01*
X114199500Y-62825253D01*
X114199500Y-62982946D01*
X114230261Y-63137589D01*
X114230264Y-63137601D01*
X114290602Y-63283272D01*
X114290609Y-63283285D01*
X114378210Y-63414388D01*
X114378213Y-63414392D01*
X114489707Y-63525886D01*
X114489711Y-63525889D01*
X114620814Y-63613490D01*
X114620827Y-63613497D01*
X114766498Y-63673835D01*
X114766503Y-63673837D01*
X114921153Y-63704599D01*
X114921156Y-63704600D01*
X114921158Y-63704600D01*
X115078844Y-63704600D01*
X115078845Y-63704599D01*
X115233497Y-63673837D01*
X115346166Y-63627167D01*
X115379172Y-63613497D01*
X115379172Y-63613496D01*
X115379179Y-63613494D01*
X115510289Y-63525889D01*
X115621789Y-63414389D01*
X115709394Y-63283279D01*
X115769737Y-63137597D01*
X115800500Y-62982942D01*
X115800500Y-62825258D01*
X115800500Y-62825255D01*
X115800499Y-62825253D01*
X115769738Y-62670610D01*
X115769737Y-62670603D01*
X115769735Y-62670598D01*
X115709397Y-62524927D01*
X115709390Y-62524914D01*
X115621789Y-62393811D01*
X115621786Y-62393807D01*
X115510292Y-62282313D01*
X115510288Y-62282310D01*
X115379185Y-62194709D01*
X115379172Y-62194702D01*
X115233501Y-62134364D01*
X115233489Y-62134361D01*
X115078845Y-62103600D01*
X115078842Y-62103600D01*
X114921158Y-62103600D01*
X114921155Y-62103600D01*
X114766510Y-62134361D01*
X114766498Y-62134364D01*
X114620827Y-62194702D01*
X114620814Y-62194709D01*
X114489711Y-62282310D01*
X114489707Y-62282313D01*
X114378213Y-62393807D01*
X114378210Y-62393811D01*
X114290609Y-62524914D01*
X114290602Y-62524927D01*
X114230264Y-62670598D01*
X114230261Y-62670610D01*
X114199500Y-62825253D01*
X113800000Y-62825253D01*
X113800000Y-58772221D01*
X107185012Y-58894721D01*
X107183038Y-58759986D01*
X126749500Y-58759986D01*
X126749500Y-65860013D01*
X126760000Y-65962793D01*
X126760001Y-65962795D01*
X126815186Y-66129332D01*
X126907289Y-66278654D01*
X127031346Y-66402711D01*
X127180668Y-66494814D01*
X127347205Y-66549999D01*
X127449994Y-66560500D01*
X127449999Y-66560500D01*
X133550001Y-66560500D01*
X133550006Y-66560500D01*
X133652795Y-66549999D01*
X133819332Y-66494814D01*
X133968654Y-66402711D01*
X134092711Y-66278654D01*
X134184814Y-66129332D01*
X134239999Y-65962795D01*
X134250500Y-65860006D01*
X134250500Y-58759994D01*
X134239999Y-58657205D01*
X134184814Y-58490668D01*
X134092711Y-58341346D01*
X133968654Y-58217289D01*
X133819332Y-58125186D01*
X133652795Y-58070001D01*
X133652793Y-58070000D01*
X133550013Y-58059500D01*
X133550006Y-58059500D01*
X127449994Y-58059500D01*
X127449986Y-58059500D01*
X127347206Y-58070000D01*
X127347205Y-58070001D01*
X127264672Y-58097349D01*
X127180670Y-58125185D01*
X127180665Y-58125187D01*
X127031344Y-58217290D01*
X126907290Y-58341344D01*
X126815187Y-58490665D01*
X126815186Y-58490668D01*
X126760001Y-58657205D01*
X126760001Y-58657206D01*
X126760000Y-58657206D01*
X126749500Y-58759986D01*
X107183038Y-58759986D01*
X107127940Y-55000000D01*
X99940694Y-55000000D01*
X99934358Y-54980880D01*
X99934356Y-54980875D01*
X99878055Y-54889597D01*
X99859615Y-54822204D01*
X99880538Y-54755541D01*
X99934180Y-54710771D01*
X99983594Y-54700500D01*
X135024116Y-54700500D01*
X135091155Y-54720185D01*
X135136910Y-54772989D01*
X135146854Y-54842147D01*
X135129655Y-54889597D01*
X135065643Y-54993375D01*
X135065641Y-54993380D01*
X135010494Y-55159802D01*
X135055812Y-55023040D01*
X134600000Y-55031481D01*
X134600000Y-58562486D01*
X134600000Y-74253788D01*
X134600000Y-79206807D01*
X134526229Y-79206282D01*
X129657364Y-74337418D01*
X122760863Y-67440917D01*
X122727378Y-67379594D01*
X122732362Y-67309902D01*
X122774234Y-67253969D01*
X122822365Y-67233632D01*
X122822040Y-67232276D01*
X122826768Y-67231139D01*
X122826780Y-67231138D01*
X123035686Y-67163260D01*
X123231401Y-67063538D01*
X123331174Y-66991049D01*
X123409101Y-66934433D01*
X123409103Y-66934430D01*
X123409107Y-66934428D01*
X123564428Y-66779107D01*
X123564430Y-66779103D01*
X123564433Y-66779101D01*
X123621049Y-66701174D01*
X123693538Y-66601401D01*
X123793260Y-66405686D01*
X123861138Y-66196780D01*
X123895500Y-65979828D01*
X123895500Y-65760172D01*
X123861138Y-65543220D01*
X123793260Y-65334314D01*
X123693538Y-65138599D01*
X123685242Y-65127181D01*
X123564433Y-64960898D01*
X123409101Y-64805566D01*
X123231404Y-64676464D01*
X123231403Y-64676463D01*
X123231401Y-64676462D01*
X123035686Y-64576740D01*
X122826780Y-64508862D01*
X122826778Y-64508861D01*
X122826777Y-64508861D01*
X122660120Y-64482465D01*
X122609828Y-64474500D01*
X122390172Y-64474500D01*
X122339879Y-64482465D01*
X122173223Y-64508861D01*
X121964311Y-64576741D01*
X121768595Y-64676464D01*
X121590898Y-64805566D01*
X121435566Y-64960898D01*
X121306464Y-65138595D01*
X121206741Y-65334311D01*
X121138861Y-65543223D01*
X121137724Y-65547960D01*
X121136065Y-65547561D01*
X121109282Y-65604015D01*
X121049960Y-65640929D01*
X120980097Y-65639910D01*
X120929082Y-65609136D01*
X120730491Y-65410545D01*
X120697006Y-65349222D01*
X120696556Y-65298667D01*
X120700500Y-65278844D01*
X120700500Y-65121155D01*
X120700499Y-65121153D01*
X120669738Y-64966510D01*
X120669737Y-64966503D01*
X120667413Y-64960893D01*
X120609397Y-64820827D01*
X120609390Y-64820814D01*
X120521789Y-64689711D01*
X120521786Y-64689707D01*
X120410292Y-64578213D01*
X120410288Y-64578210D01*
X120279185Y-64490609D01*
X120279172Y-64490602D01*
X120133501Y-64430264D01*
X120133489Y-64430261D01*
X119978845Y-64399500D01*
X119978842Y-64399500D01*
X119821158Y-64399500D01*
X119821155Y-64399500D01*
X119666510Y-64430261D01*
X119666498Y-64430264D01*
X119520827Y-64490602D01*
X119520814Y-64490609D01*
X119389711Y-64578210D01*
X119389707Y-64578213D01*
X119278213Y-64689707D01*
X119278210Y-64689711D01*
X119190609Y-64820814D01*
X119190602Y-64820827D01*
X119130264Y-64966498D01*
X119130261Y-64966510D01*
X119099500Y-65121153D01*
X119099500Y-65278846D01*
X119130261Y-65433489D01*
X119130264Y-65433501D01*
X119190602Y-65579172D01*
X119190609Y-65579185D01*
X119281595Y-65715354D01*
X119280965Y-65715774D01*
X119294935Y-65739085D01*
X119323532Y-65808122D01*
X119394726Y-65914673D01*
X119394727Y-65914674D01*
X132673138Y-79193084D01*
X122850500Y-79123126D01*
X122850500Y-76004935D01*
X122870185Y-75937896D01*
X122871366Y-75936090D01*
X122909394Y-75879179D01*
X122969737Y-75733497D01*
X123000500Y-75578842D01*
X123000500Y-75421158D01*
X123000500Y-75421155D01*
X123000499Y-75421153D01*
X122969738Y-75266510D01*
X122969737Y-75266503D01*
X122932248Y-75175996D01*
X122909397Y-75120827D01*
X122909390Y-75120814D01*
X122821789Y-74989711D01*
X122821786Y-74989707D01*
X122710292Y-74878213D01*
X122710288Y-74878210D01*
X122579185Y-74790609D01*
X122579172Y-74790602D01*
X122433501Y-74730264D01*
X122433489Y-74730261D01*
X122278845Y-74699500D01*
X122278842Y-74699500D01*
X122121158Y-74699500D01*
X122121155Y-74699500D01*
X121966510Y-74730261D01*
X121966498Y-74730264D01*
X121820827Y-74790602D01*
X121820814Y-74790609D01*
X121689711Y-74878210D01*
X121689707Y-74878213D01*
X121578213Y-74989707D01*
X121578210Y-74989711D01*
X121490609Y-75120814D01*
X121490602Y-75120827D01*
X121430264Y-75266498D01*
X121430261Y-75266510D01*
X121399500Y-75421153D01*
X121399500Y-75578846D01*
X121430261Y-75733489D01*
X121430264Y-75733501D01*
X121490602Y-75879172D01*
X121490606Y-75879179D01*
X121528602Y-75936044D01*
X121549480Y-76002721D01*
X121549500Y-76004935D01*
X121549500Y-79113860D01*
X116495338Y-79077865D01*
X116227895Y-114953842D01*
X135628467Y-115098467D01*
X135762424Y-96289614D01*
X135820814Y-96328629D01*
X135820827Y-96328636D01*
X135926395Y-96372363D01*
X135966503Y-96388976D01*
X136121153Y-96419738D01*
X136121156Y-96419739D01*
X136225500Y-96419739D01*
X136292539Y-96439424D01*
X136338294Y-96492228D01*
X136349500Y-96543739D01*
X136349500Y-101764070D01*
X136361329Y-101823534D01*
X136361329Y-101823536D01*
X136374497Y-101889736D01*
X136374499Y-101889744D01*
X136414348Y-101985949D01*
X136423535Y-102008127D01*
X136451918Y-102050606D01*
X136494726Y-102114673D01*
X137019372Y-102639319D01*
X137052857Y-102700642D01*
X137047873Y-102770334D01*
X137019372Y-102814681D01*
X136394723Y-103439330D01*
X136374408Y-103469736D01*
X136374407Y-103469737D01*
X136323534Y-103545874D01*
X136274499Y-103664255D01*
X136274497Y-103664261D01*
X136249500Y-103789928D01*
X136249500Y-119443192D01*
X136229815Y-119510231D01*
X136213181Y-119530873D01*
X129156873Y-126587181D01*
X129095550Y-126620666D01*
X129069192Y-126623500D01*
X112376614Y-126623500D01*
X112309575Y-126603815D01*
X112263820Y-126551011D01*
X112253876Y-126481853D01*
X112262053Y-126452047D01*
X112269737Y-126433497D01*
X112300500Y-126278842D01*
X112300500Y-126121158D01*
X112300500Y-126121155D01*
X112300499Y-126121153D01*
X112269737Y-125966503D01*
X112269735Y-125966498D01*
X112209397Y-125820827D01*
X112209390Y-125820814D01*
X112121789Y-125689711D01*
X112121786Y-125689707D01*
X112010292Y-125578213D01*
X112010288Y-125578210D01*
X111879185Y-125490609D01*
X111879172Y-125490602D01*
X111733501Y-125430264D01*
X111733489Y-125430261D01*
X111578845Y-125399500D01*
X111578842Y-125399500D01*
X111421158Y-125399500D01*
X111421155Y-125399500D01*
X111266510Y-125430261D01*
X111266498Y-125430264D01*
X111120827Y-125490602D01*
X111120814Y-125490609D01*
X110989711Y-125578210D01*
X110989707Y-125578213D01*
X110878213Y-125689707D01*
X110878210Y-125689711D01*
X110790609Y-125820814D01*
X110790602Y-125820827D01*
X110730264Y-125966498D01*
X110730261Y-125966510D01*
X110699500Y-126121153D01*
X110699500Y-126278846D01*
X110730261Y-126433489D01*
X110730263Y-126433497D01*
X110734826Y-126444514D01*
X110737947Y-126452047D01*
X110745416Y-126521516D01*
X110714141Y-126583995D01*
X110654053Y-126619648D01*
X110623386Y-126623500D01*
X109894807Y-126623500D01*
X109827768Y-126603815D01*
X109807126Y-126587181D01*
X105459674Y-122239727D01*
X105459673Y-122239726D01*
X105459669Y-122239723D01*
X105353127Y-122168535D01*
X105249236Y-122125502D01*
X105234744Y-122119499D01*
X105234738Y-122119497D01*
X105109071Y-122094500D01*
X105109069Y-122094500D01*
X101659618Y-122094500D01*
X101592579Y-122074815D01*
X101558900Y-122040408D01*
X101557915Y-122041125D01*
X101430109Y-121865213D01*
X101279786Y-121714890D01*
X101107820Y-121589951D01*
X101107115Y-121589591D01*
X101099054Y-121585485D01*
X101048259Y-121537512D01*
X101031463Y-121469692D01*
X101053999Y-121403556D01*
X101099054Y-121364515D01*
X101107816Y-121360051D01*
X101135670Y-121339814D01*
X101279786Y-121235109D01*
X101279788Y-121235106D01*
X101279792Y-121235104D01*
X101430104Y-121084792D01*
X101430106Y-121084788D01*
X101430109Y-121084786D01*
X101555048Y-120912820D01*
X101555047Y-120912820D01*
X101555051Y-120912816D01*
X101651557Y-120723412D01*
X101717246Y-120521243D01*
X101750500Y-120311287D01*
X101750500Y-120098713D01*
X101717246Y-119888757D01*
X101661813Y-119718153D01*
X105969500Y-119718153D01*
X105969500Y-119875846D01*
X106000261Y-120030489D01*
X106000264Y-120030501D01*
X106060602Y-120176172D01*
X106060609Y-120176185D01*
X106148210Y-120307288D01*
X106148213Y-120307292D01*
X106259707Y-120418786D01*
X106259711Y-120418789D01*
X106390814Y-120506390D01*
X106390827Y-120506397D01*
X106478230Y-120542599D01*
X106536503Y-120566737D01*
X106603580Y-120580079D01*
X106665488Y-120612461D01*
X106667068Y-120614014D01*
X108058325Y-122005272D01*
X108058326Y-122005273D01*
X108058329Y-122005275D01*
X108058331Y-122005277D01*
X108164873Y-122076465D01*
X108283256Y-122125501D01*
X108283260Y-122125501D01*
X108283261Y-122125502D01*
X108408928Y-122150500D01*
X108408931Y-122150500D01*
X132064071Y-122150500D01*
X132148615Y-122133682D01*
X132189744Y-122125501D01*
X132308127Y-122076465D01*
X132414669Y-122005277D01*
X134202931Y-120217013D01*
X134264252Y-120183530D01*
X134266317Y-120183099D01*
X134333497Y-120169737D01*
X134479179Y-120109394D01*
X134610289Y-120021789D01*
X134721789Y-119910289D01*
X134809394Y-119779179D01*
X134869737Y-119633497D01*
X134900500Y-119478842D01*
X134900500Y-119321158D01*
X134900500Y-119321155D01*
X134900499Y-119321153D01*
X134878269Y-119209397D01*
X134869737Y-119166503D01*
X134841410Y-119098115D01*
X134809397Y-119020827D01*
X134809390Y-119020814D01*
X134721789Y-118889711D01*
X134721786Y-118889707D01*
X134610292Y-118778213D01*
X134610288Y-118778210D01*
X134479185Y-118690609D01*
X134479172Y-118690602D01*
X134333501Y-118630264D01*
X134333489Y-118630261D01*
X134178845Y-118599500D01*
X134178842Y-118599500D01*
X134021158Y-118599500D01*
X134021155Y-118599500D01*
X133866510Y-118630261D01*
X133866498Y-118630264D01*
X133720827Y-118690602D01*
X133720814Y-118690609D01*
X133589711Y-118778210D01*
X133589707Y-118778213D01*
X133478213Y-118889707D01*
X133478210Y-118889711D01*
X133390609Y-119020814D01*
X133390602Y-119020827D01*
X133330264Y-119166498D01*
X133330261Y-119166508D01*
X133316920Y-119233579D01*
X133284535Y-119295490D01*
X133282984Y-119297068D01*
X131766873Y-120813181D01*
X131705550Y-120846666D01*
X131679192Y-120849500D01*
X108793808Y-120849500D01*
X108726769Y-120829815D01*
X108706127Y-120813181D01*
X107587015Y-119694069D01*
X107553530Y-119632746D01*
X107553093Y-119630652D01*
X107539737Y-119563503D01*
X107504671Y-119478846D01*
X107479397Y-119417827D01*
X107479390Y-119417814D01*
X107391789Y-119286711D01*
X107391786Y-119286707D01*
X107280292Y-119175213D01*
X107280288Y-119175210D01*
X107149185Y-119087609D01*
X107149172Y-119087602D01*
X107003501Y-119027264D01*
X107003489Y-119027261D01*
X106848845Y-118996500D01*
X106848842Y-118996500D01*
X106691158Y-118996500D01*
X106691155Y-118996500D01*
X106536510Y-119027261D01*
X106536498Y-119027264D01*
X106390827Y-119087602D01*
X106390814Y-119087609D01*
X106259711Y-119175210D01*
X106259707Y-119175213D01*
X106148213Y-119286707D01*
X106148210Y-119286711D01*
X106060609Y-119417814D01*
X106060602Y-119417827D01*
X106000264Y-119563498D01*
X106000261Y-119563510D01*
X105969500Y-119718153D01*
X101661813Y-119718153D01*
X101651557Y-119686588D01*
X101555051Y-119497184D01*
X101555049Y-119497181D01*
X101555048Y-119497179D01*
X101430109Y-119325213D01*
X101279786Y-119174890D01*
X101107817Y-119049949D01*
X101098504Y-119045204D01*
X101047707Y-118997230D01*
X101030912Y-118929409D01*
X101053449Y-118863274D01*
X101098507Y-118824232D01*
X101107555Y-118819622D01*
X101161716Y-118780270D01*
X101161717Y-118780270D01*
X100529408Y-118147962D01*
X100592993Y-118130925D01*
X100707007Y-118065099D01*
X100800099Y-117972007D01*
X100865925Y-117857993D01*
X100882962Y-117794408D01*
X101515270Y-118426717D01*
X101515270Y-118426716D01*
X101554622Y-118372554D01*
X101651095Y-118183217D01*
X101716757Y-117981130D01*
X101716757Y-117981127D01*
X101750000Y-117771246D01*
X101750000Y-117558753D01*
X101716757Y-117348872D01*
X101716757Y-117348869D01*
X101651095Y-117146782D01*
X101554624Y-116957449D01*
X101515270Y-116903282D01*
X101515269Y-116903282D01*
X100882962Y-117535590D01*
X100865925Y-117472007D01*
X100800099Y-117357993D01*
X100707007Y-117264901D01*
X100592993Y-117199075D01*
X100529409Y-117182037D01*
X101199627Y-116511818D01*
X101260950Y-116478333D01*
X101287307Y-116475499D01*
X101297872Y-116475499D01*
X101357483Y-116469091D01*
X101492331Y-116418796D01*
X101607546Y-116332546D01*
X101693796Y-116217331D01*
X101707285Y-116181166D01*
X101749157Y-116125233D01*
X101814621Y-116100816D01*
X101823467Y-116100500D01*
X102975638Y-116100500D01*
X103042677Y-116120185D01*
X103063319Y-116136819D01*
X104200536Y-117274035D01*
X104275370Y-117348869D01*
X104325966Y-117399465D01*
X104473446Y-117498009D01*
X104473459Y-117498016D01*
X104596363Y-117548923D01*
X104637334Y-117565894D01*
X104679935Y-117574368D01*
X104811305Y-117600500D01*
X104811308Y-117600500D01*
X104811309Y-117600500D01*
X111075638Y-117600500D01*
X111142677Y-117620185D01*
X111163319Y-117636819D01*
X111625960Y-118099460D01*
X111625964Y-118099463D01*
X111773446Y-118198008D01*
X111773452Y-118198011D01*
X111773453Y-118198012D01*
X111937334Y-118265894D01*
X112111303Y-118300498D01*
X112111307Y-118300499D01*
X112111308Y-118300499D01*
X112288692Y-118300499D01*
X112288693Y-118300498D01*
X112462666Y-118265894D01*
X112626546Y-118198012D01*
X112774035Y-118099463D01*
X112803399Y-118070098D01*
X112864720Y-118036614D01*
X112934412Y-118041598D01*
X112990346Y-118083468D01*
X113014764Y-118148932D01*
X113005642Y-118205231D01*
X112980263Y-118266503D01*
X112980261Y-118266510D01*
X112949500Y-118421153D01*
X112949500Y-118578846D01*
X112980261Y-118733489D01*
X112980264Y-118733501D01*
X113040602Y-118879172D01*
X113040609Y-118879185D01*
X113128210Y-119010288D01*
X113128213Y-119010292D01*
X113239707Y-119121786D01*
X113239711Y-119121789D01*
X113370814Y-119209390D01*
X113370827Y-119209397D01*
X113508683Y-119266498D01*
X113516503Y-119269737D01*
X113671153Y-119300499D01*
X113671156Y-119300500D01*
X113671158Y-119300500D01*
X113828844Y-119300500D01*
X113828845Y-119300499D01*
X113983497Y-119269737D01*
X114129179Y-119209394D01*
X114260289Y-119121789D01*
X114297331Y-119084747D01*
X114358653Y-119051261D01*
X114428345Y-119056245D01*
X114484279Y-119098115D01*
X114508697Y-119163579D01*
X114499575Y-119219878D01*
X114480263Y-119266502D01*
X114480261Y-119266510D01*
X114449500Y-119421153D01*
X114449500Y-119578846D01*
X114480261Y-119733489D01*
X114480264Y-119733501D01*
X114540602Y-119879172D01*
X114540609Y-119879185D01*
X114628210Y-120010288D01*
X114628213Y-120010292D01*
X114739707Y-120121786D01*
X114739711Y-120121789D01*
X114870814Y-120209390D01*
X114870827Y-120209397D01*
X115016498Y-120269735D01*
X115016503Y-120269737D01*
X115171153Y-120300499D01*
X115171156Y-120300500D01*
X115171158Y-120300500D01*
X115328844Y-120300500D01*
X115328845Y-120300499D01*
X115483497Y-120269737D01*
X115629179Y-120209394D01*
X115760289Y-120121789D01*
X115871789Y-120010289D01*
X115959394Y-119879179D01*
X116019737Y-119733497D01*
X116050500Y-119578842D01*
X116050500Y-119421158D01*
X116050500Y-119421155D01*
X116050499Y-119421153D01*
X116031414Y-119325208D01*
X116019737Y-119266503D01*
X116006100Y-119233579D01*
X115959397Y-119120827D01*
X115959390Y-119120814D01*
X115871789Y-118989711D01*
X115871786Y-118989707D01*
X115760292Y-118878213D01*
X115760288Y-118878210D01*
X115629185Y-118790609D01*
X115629172Y-118790602D01*
X115483501Y-118730264D01*
X115483489Y-118730261D01*
X115328845Y-118699500D01*
X115328842Y-118699500D01*
X115171158Y-118699500D01*
X115171155Y-118699500D01*
X115016510Y-118730261D01*
X115016498Y-118730264D01*
X114870827Y-118790602D01*
X114870814Y-118790609D01*
X114739711Y-118878210D01*
X114739706Y-118878214D01*
X114702666Y-118915254D01*
X114641343Y-118948739D01*
X114571651Y-118943753D01*
X114515718Y-118901881D01*
X114491302Y-118836417D01*
X114500424Y-118780121D01*
X114519737Y-118733497D01*
X114550500Y-118578842D01*
X114550500Y-118421158D01*
X114550500Y-118421155D01*
X114550499Y-118421153D01*
X114519738Y-118266510D01*
X114519737Y-118266503D01*
X114491368Y-118198013D01*
X114459397Y-118120827D01*
X114459390Y-118120814D01*
X114371789Y-117989711D01*
X114371786Y-117989707D01*
X114260292Y-117878213D01*
X114260288Y-117878210D01*
X114129185Y-117790609D01*
X114129172Y-117790602D01*
X113983501Y-117730264D01*
X113983489Y-117730261D01*
X113828845Y-117699500D01*
X113828842Y-117699500D01*
X113671158Y-117699500D01*
X113671155Y-117699500D01*
X113516510Y-117730261D01*
X113516498Y-117730264D01*
X113370827Y-117790602D01*
X113370814Y-117790609D01*
X113239711Y-117878210D01*
X113239710Y-117878210D01*
X113231373Y-117886548D01*
X113170048Y-117920030D01*
X113100357Y-117915043D01*
X113044425Y-117873170D01*
X113020011Y-117807704D01*
X113029133Y-117751413D01*
X113065894Y-117662666D01*
X113100499Y-117488691D01*
X113100499Y-117311308D01*
X113065894Y-117137334D01*
X112998012Y-116973453D01*
X112998011Y-116973452D01*
X112998008Y-116973446D01*
X112899463Y-116825964D01*
X112899460Y-116825960D01*
X112074041Y-116000540D01*
X112074040Y-116000539D01*
X112074036Y-116000536D01*
X112014959Y-115961063D01*
X111926547Y-115901987D01*
X111844606Y-115868046D01*
X111762666Y-115834105D01*
X111762658Y-115834103D01*
X111588696Y-115799500D01*
X111588692Y-115799500D01*
X111588691Y-115799500D01*
X105324361Y-115799500D01*
X105257322Y-115779815D01*
X105236680Y-115763181D01*
X103974041Y-114500540D01*
X103974040Y-114500539D01*
X103974036Y-114500536D01*
X103914959Y-114461063D01*
X103826547Y-114401987D01*
X103744606Y-114368046D01*
X103725886Y-114360292D01*
X103662666Y-114334105D01*
X103662658Y-114334103D01*
X103488696Y-114299500D01*
X103488692Y-114299500D01*
X103488691Y-114299500D01*
X101869664Y-114299500D01*
X101802625Y-114279815D01*
X101756870Y-114227011D01*
X101746374Y-114188754D01*
X101746170Y-114186857D01*
X101744091Y-114167517D01*
X101693796Y-114032669D01*
X101693795Y-114032668D01*
X101693793Y-114032664D01*
X101607547Y-113917455D01*
X101607544Y-113917452D01*
X101536597Y-113864341D01*
X101536584Y-113864332D01*
X101492331Y-113831204D01*
X101492328Y-113831202D01*
X101357482Y-113780908D01*
X101357483Y-113780908D01*
X101297883Y-113774501D01*
X101297881Y-113774500D01*
X101297873Y-113774500D01*
X101297864Y-113774500D01*
X99502129Y-113774500D01*
X99502123Y-113774501D01*
X99442516Y-113780908D01*
X99307671Y-113831202D01*
X99307664Y-113831206D01*
X99192455Y-113917452D01*
X99192452Y-113917455D01*
X99106206Y-114032664D01*
X99106202Y-114032671D01*
X99055908Y-114167517D01*
X99049501Y-114227116D01*
X99049500Y-114227135D01*
X99049500Y-116022870D01*
X99049501Y-116022876D01*
X99055908Y-116082483D01*
X99106202Y-116217328D01*
X99106206Y-116217335D01*
X99192452Y-116332544D01*
X99192455Y-116332547D01*
X99307664Y-116418793D01*
X99307671Y-116418797D01*
X99352618Y-116435561D01*
X99442517Y-116469091D01*
X99502127Y-116475500D01*
X99512685Y-116475499D01*
X99579723Y-116495179D01*
X99600372Y-116511818D01*
X100270591Y-117182037D01*
X100207007Y-117199075D01*
X100092993Y-117264901D01*
X99999901Y-117357993D01*
X99934075Y-117472007D01*
X99917037Y-117535591D01*
X99284728Y-116903282D01*
X99284727Y-116903282D01*
X99245380Y-116957439D01*
X99148904Y-117146782D01*
X99083242Y-117348869D01*
X99083242Y-117348872D01*
X99050000Y-117558753D01*
X99050000Y-117771246D01*
X99083242Y-117981127D01*
X99083242Y-117981130D01*
X99148904Y-118183217D01*
X99245375Y-118372550D01*
X99284728Y-118426716D01*
X99917037Y-117794408D01*
X99934075Y-117857993D01*
X99999901Y-117972007D01*
X100092993Y-118065099D01*
X100207007Y-118130925D01*
X100270590Y-118147962D01*
X99638282Y-118780269D01*
X99638282Y-118780270D01*
X99692452Y-118819626D01*
X99692451Y-118819626D01*
X99701495Y-118824234D01*
X99752292Y-118872208D01*
X99769087Y-118940029D01*
X99746550Y-119006164D01*
X99701499Y-119045202D01*
X99692182Y-119049949D01*
X99520213Y-119174890D01*
X99369890Y-119325213D01*
X99244951Y-119497179D01*
X99148444Y-119686585D01*
X99082753Y-119888760D01*
X99049500Y-120098713D01*
X99049500Y-120311286D01*
X99080402Y-120506397D01*
X99082754Y-120521243D01*
X99112897Y-120614014D01*
X99148444Y-120723414D01*
X99244951Y-120912820D01*
X99369890Y-121084786D01*
X99520213Y-121235109D01*
X99692182Y-121360050D01*
X99700946Y-121364516D01*
X99751742Y-121412491D01*
X99768536Y-121480312D01*
X99745998Y-121546447D01*
X99700946Y-121585484D01*
X99692182Y-121589949D01*
X99520213Y-121714890D01*
X99369890Y-121865213D01*
X99244951Y-122037179D01*
X99148444Y-122226585D01*
X99082753Y-122428760D01*
X99049500Y-122638713D01*
X99049500Y-122851286D01*
X99082753Y-123061239D01*
X99148444Y-123263414D01*
X99244951Y-123452820D01*
X99369890Y-123624786D01*
X99520213Y-123775109D01*
X99692182Y-123900050D01*
X99700946Y-123904516D01*
X99751742Y-123952491D01*
X99768536Y-124020312D01*
X99745998Y-124086447D01*
X99700946Y-124125484D01*
X99692182Y-124129949D01*
X99520213Y-124254890D01*
X99369890Y-124405213D01*
X99244951Y-124577179D01*
X99148444Y-124766585D01*
X99082753Y-124968760D01*
X99049500Y-125178713D01*
X99049500Y-125391286D01*
X99082753Y-125601239D01*
X99148444Y-125803414D01*
X99244951Y-125992820D01*
X99369890Y-126164786D01*
X99520213Y-126315109D01*
X99692182Y-126440050D01*
X99700946Y-126444516D01*
X99751742Y-126492491D01*
X99768536Y-126560312D01*
X99745998Y-126626447D01*
X99700946Y-126665484D01*
X99692182Y-126669949D01*
X99520213Y-126794890D01*
X99369890Y-126945213D01*
X99244951Y-127117179D01*
X99148444Y-127306585D01*
X99082753Y-127508760D01*
X99052508Y-127699724D01*
X99049500Y-127718713D01*
X99049500Y-127931287D01*
X99082754Y-128141243D01*
X99091849Y-128169235D01*
X99148444Y-128343414D01*
X99244951Y-128532820D01*
X99369890Y-128704786D01*
X99520213Y-128855109D01*
X99692179Y-128980048D01*
X99692181Y-128980049D01*
X99692184Y-128980051D01*
X99881588Y-129076557D01*
X100083757Y-129142246D01*
X100293713Y-129175500D01*
X100293714Y-129175500D01*
X100506286Y-129175500D01*
X100506287Y-129175500D01*
X100616111Y-129158105D01*
X100721055Y-129141484D01*
X100721315Y-129143128D01*
X100783852Y-129146250D01*
X100830711Y-129175657D01*
X102033324Y-130378271D01*
X102033327Y-130378274D01*
X102033330Y-130378276D01*
X102097004Y-130420821D01*
X102139873Y-130449465D01*
X102258256Y-130498501D01*
X102258260Y-130498501D01*
X102258261Y-130498502D01*
X102383928Y-130523500D01*
X102383931Y-130523500D01*
X105157065Y-130523500D01*
X105224104Y-130543185D01*
X105225909Y-130544366D01*
X105282821Y-130582394D01*
X105282823Y-130582395D01*
X105282827Y-130582397D01*
X105418788Y-130638713D01*
X105428503Y-130642737D01*
X105583153Y-130673499D01*
X105583156Y-130673500D01*
X105583158Y-130673500D01*
X105686192Y-130673500D01*
X105753231Y-130693185D01*
X105773873Y-130709819D01*
X112213181Y-137149127D01*
X112246666Y-137210450D01*
X112249500Y-137236808D01*
X112249500Y-151064070D01*
X112261329Y-151123534D01*
X112261329Y-151123536D01*
X112274497Y-151189736D01*
X112274499Y-151189744D01*
X112323534Y-151308125D01*
X112394726Y-151414673D01*
X112394727Y-151414674D01*
X112782984Y-151802930D01*
X112816469Y-151864253D01*
X112816920Y-151866420D01*
X112830261Y-151933489D01*
X112830264Y-151933501D01*
X112890602Y-152079172D01*
X112890609Y-152079185D01*
X112978210Y-152210288D01*
X112978213Y-152210292D01*
X113089707Y-152321786D01*
X113089711Y-152321789D01*
X113220814Y-152409390D01*
X113220827Y-152409397D01*
X113366498Y-152469735D01*
X113366503Y-152469737D01*
X113521153Y-152500499D01*
X113521156Y-152500500D01*
X113521158Y-152500500D01*
X113678844Y-152500500D01*
X113678845Y-152500499D01*
X113833497Y-152469737D01*
X113979179Y-152409394D01*
X114110289Y-152321789D01*
X114221789Y-152210289D01*
X114309394Y-152079179D01*
X114369737Y-151933497D01*
X114400500Y-151778842D01*
X114400500Y-151621158D01*
X114400500Y-151621155D01*
X114400499Y-151621153D01*
X114369738Y-151466510D01*
X114369737Y-151466503D01*
X114348269Y-151414674D01*
X114309397Y-151320827D01*
X114309390Y-151320814D01*
X114221789Y-151189711D01*
X114221786Y-151189707D01*
X114110292Y-151078213D01*
X114110288Y-151078210D01*
X113979185Y-150990609D01*
X113979172Y-150990602D01*
X113833501Y-150930264D01*
X113833489Y-150930261D01*
X113766420Y-150916920D01*
X113749663Y-150908155D01*
X113731184Y-150904135D01*
X113706145Y-150885390D01*
X113704509Y-150884535D01*
X113702930Y-150882984D01*
X113586819Y-150766873D01*
X113553334Y-150705550D01*
X113550500Y-150679192D01*
X113550500Y-143472995D01*
X125999501Y-143472995D01*
X125999501Y-143630688D01*
X126030262Y-143785331D01*
X126030265Y-143785343D01*
X126090603Y-143931014D01*
X126090610Y-143931027D01*
X126178211Y-144062130D01*
X126178214Y-144062134D01*
X126289708Y-144173628D01*
X126289712Y-144173631D01*
X126420815Y-144261232D01*
X126420828Y-144261239D01*
X126566499Y-144321577D01*
X126566504Y-144321579D01*
X126649691Y-144338126D01*
X126711602Y-144370510D01*
X126746176Y-144431226D01*
X126749500Y-144459743D01*
X126749500Y-145240013D01*
X126760000Y-145342793D01*
X126760001Y-145342795D01*
X126815186Y-145509332D01*
X126907289Y-145658654D01*
X127031346Y-145782711D01*
X127180668Y-145874814D01*
X127347205Y-145929999D01*
X127449994Y-145940500D01*
X127449999Y-145940500D01*
X133550001Y-145940500D01*
X133550006Y-145940500D01*
X133652795Y-145929999D01*
X133819332Y-145874814D01*
X133968654Y-145782711D01*
X134092711Y-145658654D01*
X134184814Y-145509332D01*
X134239999Y-145342795D01*
X134250500Y-145240006D01*
X134250500Y-143371153D01*
X134949500Y-143371153D01*
X134949500Y-143528846D01*
X134980261Y-143683489D01*
X134980264Y-143683501D01*
X135040602Y-143829172D01*
X135040609Y-143829185D01*
X135128210Y-143960288D01*
X135128213Y-143960292D01*
X135239707Y-144071786D01*
X135239711Y-144071789D01*
X135370814Y-144159390D01*
X135370827Y-144159397D01*
X135516498Y-144219735D01*
X135516503Y-144219737D01*
X135671153Y-144250499D01*
X135671156Y-144250500D01*
X135671158Y-144250500D01*
X135828844Y-144250500D01*
X135828845Y-144250499D01*
X135983497Y-144219737D01*
X136129179Y-144159394D01*
X136129401Y-144159246D01*
X136130941Y-144158216D01*
X136260289Y-144071789D01*
X136371789Y-143960289D01*
X136459394Y-143829179D01*
X136519737Y-143683497D01*
X136550500Y-143528842D01*
X136550500Y-143371158D01*
X136550500Y-143371155D01*
X136550499Y-143371153D01*
X136519738Y-143216510D01*
X136519737Y-143216503D01*
X136501575Y-143172656D01*
X136459397Y-143070827D01*
X136459390Y-143070814D01*
X136371789Y-142939711D01*
X136371786Y-142939707D01*
X136260292Y-142828213D01*
X136260288Y-142828210D01*
X136129185Y-142740609D01*
X136129172Y-142740602D01*
X135983501Y-142680264D01*
X135983489Y-142680261D01*
X135828845Y-142649500D01*
X135828842Y-142649500D01*
X135671158Y-142649500D01*
X135671155Y-142649500D01*
X135516510Y-142680261D01*
X135516498Y-142680264D01*
X135370827Y-142740602D01*
X135370814Y-142740609D01*
X135239711Y-142828210D01*
X135239707Y-142828213D01*
X135128213Y-142939707D01*
X135128210Y-142939711D01*
X135040609Y-143070814D01*
X135040602Y-143070827D01*
X134980264Y-143216498D01*
X134980261Y-143216510D01*
X134949500Y-143371153D01*
X134250500Y-143371153D01*
X134250500Y-138139994D01*
X134239999Y-138037205D01*
X134184814Y-137870668D01*
X134092711Y-137721346D01*
X133968654Y-137597289D01*
X133819332Y-137505186D01*
X133652795Y-137450001D01*
X133652793Y-137450000D01*
X133550013Y-137439500D01*
X133550006Y-137439500D01*
X127449994Y-137439500D01*
X127449986Y-137439500D01*
X127347206Y-137450000D01*
X127347205Y-137450001D01*
X127264672Y-137477349D01*
X127180670Y-137505185D01*
X127180665Y-137505187D01*
X127031344Y-137597290D01*
X126907290Y-137721344D01*
X126815187Y-137870665D01*
X126815186Y-137870668D01*
X126760001Y-138037205D01*
X126760001Y-138037206D01*
X126760000Y-138037206D01*
X126749500Y-138139986D01*
X126749500Y-142643940D01*
X126729815Y-142710979D01*
X126677011Y-142756734D01*
X126649692Y-142765557D01*
X126566509Y-142782103D01*
X126566499Y-142782106D01*
X126420828Y-142842444D01*
X126420815Y-142842451D01*
X126289712Y-142930052D01*
X126289708Y-142930055D01*
X126178214Y-143041549D01*
X126178211Y-143041553D01*
X126090610Y-143172656D01*
X126090603Y-143172669D01*
X126030265Y-143318340D01*
X126030262Y-143318352D01*
X125999501Y-143472995D01*
X113550500Y-143472995D01*
X113550500Y-140121153D01*
X116399500Y-140121153D01*
X116399500Y-140278846D01*
X116430261Y-140433489D01*
X116430264Y-140433501D01*
X116490602Y-140579172D01*
X116490609Y-140579185D01*
X116578210Y-140710288D01*
X116578213Y-140710292D01*
X116689707Y-140821786D01*
X116689711Y-140821789D01*
X116820814Y-140909390D01*
X116820827Y-140909397D01*
X116966498Y-140969735D01*
X116966503Y-140969737D01*
X117121153Y-141000499D01*
X117121156Y-141000500D01*
X117121158Y-141000500D01*
X117278844Y-141000500D01*
X117278845Y-141000499D01*
X117433497Y-140969737D01*
X117579179Y-140909394D01*
X117710289Y-140821789D01*
X117821789Y-140710289D01*
X117909394Y-140579179D01*
X117969737Y-140433497D01*
X118000500Y-140278842D01*
X118000500Y-140121158D01*
X118000500Y-140121155D01*
X118000499Y-140121153D01*
X117974353Y-139989711D01*
X117969737Y-139966503D01*
X117954824Y-139930499D01*
X117909397Y-139820827D01*
X117909390Y-139820814D01*
X117821789Y-139689711D01*
X117821786Y-139689707D01*
X117710292Y-139578213D01*
X117710288Y-139578210D01*
X117579185Y-139490609D01*
X117579172Y-139490602D01*
X117433501Y-139430264D01*
X117433489Y-139430261D01*
X117278845Y-139399500D01*
X117278842Y-139399500D01*
X117121158Y-139399500D01*
X117121155Y-139399500D01*
X116966510Y-139430261D01*
X116966498Y-139430264D01*
X116820827Y-139490602D01*
X116820814Y-139490609D01*
X116689711Y-139578210D01*
X116689707Y-139578213D01*
X116578213Y-139689707D01*
X116578210Y-139689711D01*
X116490609Y-139820814D01*
X116490602Y-139820827D01*
X116430264Y-139966498D01*
X116430261Y-139966510D01*
X116399500Y-140121153D01*
X113550500Y-140121153D01*
X113550500Y-136851928D01*
X113525502Y-136726261D01*
X113525501Y-136726260D01*
X113525501Y-136726256D01*
X113476465Y-136607873D01*
X113472634Y-136602139D01*
X113472630Y-136602133D01*
X113472630Y-136602132D01*
X113405277Y-136501331D01*
X113405272Y-136501325D01*
X112260694Y-135356747D01*
X109506693Y-132602747D01*
X109425099Y-132521153D01*
X111799500Y-132521153D01*
X111799500Y-132678846D01*
X111830261Y-132833489D01*
X111830264Y-132833501D01*
X111890602Y-132979172D01*
X111890609Y-132979185D01*
X111978210Y-133110288D01*
X111978213Y-133110292D01*
X112089707Y-133221786D01*
X112089711Y-133221789D01*
X112220814Y-133309390D01*
X112220827Y-133309397D01*
X112366498Y-133369735D01*
X112366503Y-133369737D01*
X112521153Y-133400499D01*
X112521156Y-133400500D01*
X112521158Y-133400500D01*
X112678844Y-133400500D01*
X112678845Y-133400499D01*
X112833497Y-133369737D01*
X112979179Y-133309394D01*
X113110289Y-133221789D01*
X113221789Y-133110289D01*
X113309394Y-132979179D01*
X113369737Y-132833497D01*
X113400500Y-132678842D01*
X113400500Y-132521158D01*
X113400500Y-132521155D01*
X113400499Y-132521153D01*
X113383613Y-132436257D01*
X113380012Y-132418153D01*
X128079500Y-132418153D01*
X128079500Y-132575846D01*
X128110261Y-132730489D01*
X128110264Y-132730501D01*
X128170602Y-132876172D01*
X128170609Y-132876185D01*
X128258210Y-133007288D01*
X128258213Y-133007292D01*
X128369707Y-133118786D01*
X128369711Y-133118789D01*
X128500814Y-133206390D01*
X128500827Y-133206397D01*
X128589452Y-133243106D01*
X128646503Y-133266737D01*
X128801153Y-133297499D01*
X128801156Y-133297500D01*
X128801158Y-133297500D01*
X128958844Y-133297500D01*
X128958845Y-133297499D01*
X129113497Y-133266737D01*
X129259179Y-133206394D01*
X129390289Y-133118789D01*
X129398790Y-133110288D01*
X129422879Y-133086200D01*
X129501786Y-133007292D01*
X129501789Y-133007289D01*
X129589394Y-132876179D01*
X129649737Y-132730497D01*
X129663100Y-132663312D01*
X129695484Y-132601405D01*
X129696981Y-132599880D01*
X133316295Y-128979722D01*
X133377612Y-128946232D01*
X133447304Y-128951208D01*
X133503242Y-128993073D01*
X133504302Y-128994510D01*
X133569890Y-129084786D01*
X133720213Y-129235109D01*
X133892182Y-129360050D01*
X133900946Y-129364516D01*
X133951742Y-129412491D01*
X133968536Y-129480312D01*
X133945998Y-129546447D01*
X133900946Y-129585484D01*
X133892182Y-129589949D01*
X133720213Y-129714890D01*
X133569890Y-129865213D01*
X133444951Y-130037179D01*
X133348444Y-130226585D01*
X133282753Y-130428760D01*
X133271707Y-130498502D01*
X133249500Y-130638713D01*
X133249500Y-130851287D01*
X133282754Y-131061243D01*
X133342026Y-131243664D01*
X133348444Y-131263414D01*
X133444951Y-131452820D01*
X133569890Y-131624786D01*
X133720213Y-131775109D01*
X133892179Y-131900048D01*
X133892181Y-131900049D01*
X133892184Y-131900051D01*
X133901493Y-131904794D01*
X133952290Y-131952766D01*
X133969087Y-132020587D01*
X133946552Y-132086722D01*
X133901505Y-132125760D01*
X133892446Y-132130376D01*
X133892440Y-132130380D01*
X133838282Y-132169727D01*
X133838282Y-132169728D01*
X134470591Y-132802037D01*
X134407007Y-132819075D01*
X134292993Y-132884901D01*
X134199901Y-132977993D01*
X134134075Y-133092007D01*
X134117037Y-133155591D01*
X133484728Y-132523282D01*
X133484727Y-132523282D01*
X133445380Y-132577439D01*
X133348904Y-132766782D01*
X133283242Y-132968869D01*
X133283242Y-132968872D01*
X133250000Y-133178753D01*
X133250000Y-133391246D01*
X133283242Y-133601127D01*
X133283242Y-133601130D01*
X133348904Y-133803217D01*
X133445375Y-133992550D01*
X133484728Y-134046716D01*
X134117037Y-133414408D01*
X134134075Y-133477993D01*
X134199901Y-133592007D01*
X134292993Y-133685099D01*
X134407007Y-133750925D01*
X134470590Y-133767962D01*
X133800370Y-134438181D01*
X133739047Y-134471666D01*
X133712698Y-134474500D01*
X133702134Y-134474500D01*
X133702123Y-134474501D01*
X133642516Y-134480908D01*
X133507671Y-134531202D01*
X133507664Y-134531206D01*
X133392457Y-134617451D01*
X133386180Y-134623728D01*
X133383935Y-134621483D01*
X133338067Y-134653572D01*
X133268252Y-134656315D01*
X133251041Y-134650620D01*
X133206913Y-134632342D01*
X133206907Y-134632340D01*
X133061920Y-134603500D01*
X133061918Y-134603500D01*
X132304604Y-134603500D01*
X132257155Y-134594062D01*
X132233497Y-134584263D01*
X132233493Y-134584262D01*
X132233488Y-134584260D01*
X132078845Y-134553500D01*
X132078842Y-134553500D01*
X131921158Y-134553500D01*
X131921155Y-134553500D01*
X131766511Y-134584260D01*
X131766506Y-134584262D01*
X131766504Y-134584262D01*
X131766503Y-134584263D01*
X131742844Y-134594062D01*
X131695396Y-134603500D01*
X130304604Y-134603500D01*
X130257155Y-134594062D01*
X130233497Y-134584263D01*
X130233493Y-134584262D01*
X130233488Y-134584260D01*
X130078845Y-134553500D01*
X130078842Y-134553500D01*
X129921158Y-134553500D01*
X129921155Y-134553500D01*
X129766510Y-134584261D01*
X129766498Y-134584264D01*
X129620827Y-134644602D01*
X129620814Y-134644609D01*
X129489711Y-134732210D01*
X129489707Y-134732213D01*
X129378213Y-134843707D01*
X129378210Y-134843711D01*
X129290609Y-134974814D01*
X129290602Y-134974827D01*
X129230264Y-135120498D01*
X129230261Y-135120510D01*
X129199500Y-135275153D01*
X129199500Y-135432846D01*
X129230261Y-135587489D01*
X129230264Y-135587501D01*
X129290602Y-135733172D01*
X129290609Y-135733185D01*
X129378210Y-135864288D01*
X129378213Y-135864292D01*
X129489707Y-135975786D01*
X129489711Y-135975789D01*
X129620814Y-136063390D01*
X129620827Y-136063397D01*
X129720060Y-136104500D01*
X129766503Y-136123737D01*
X129921153Y-136154499D01*
X129921156Y-136154500D01*
X129921158Y-136154500D01*
X130078844Y-136154500D01*
X130078845Y-136154499D01*
X130155152Y-136139320D01*
X130233488Y-136123739D01*
X130233489Y-136123738D01*
X130233497Y-136123737D01*
X130257155Y-136113937D01*
X130304604Y-136104500D01*
X131695396Y-136104500D01*
X131742844Y-136113937D01*
X131766503Y-136123737D01*
X131766508Y-136123738D01*
X131766511Y-136123739D01*
X131921153Y-136154499D01*
X131921156Y-136154500D01*
X131921158Y-136154500D01*
X132078844Y-136154500D01*
X132078845Y-136154499D01*
X132155152Y-136139320D01*
X132233488Y-136123739D01*
X132233489Y-136123738D01*
X132233497Y-136123737D01*
X132257155Y-136113937D01*
X132304604Y-136104500D01*
X132625770Y-136104500D01*
X132692809Y-136124185D01*
X132713451Y-136140819D01*
X132980578Y-136407946D01*
X132980581Y-136407948D01*
X132980585Y-136407952D01*
X132984734Y-136410724D01*
X133103505Y-136490084D01*
X133130658Y-136501331D01*
X133139554Y-136505016D01*
X133139556Y-136505017D01*
X133172952Y-136518850D01*
X133227356Y-136562691D01*
X133249421Y-136628985D01*
X133249500Y-136633410D01*
X133249500Y-136722869D01*
X133249501Y-136722876D01*
X133255908Y-136782483D01*
X133306202Y-136917328D01*
X133306206Y-136917335D01*
X133392452Y-137032544D01*
X133392455Y-137032547D01*
X133507664Y-137118793D01*
X133507671Y-137118797D01*
X133642517Y-137169091D01*
X133642516Y-137169091D01*
X133649444Y-137169835D01*
X133702127Y-137175500D01*
X135497872Y-137175499D01*
X135557483Y-137169091D01*
X135692331Y-137118796D01*
X135807546Y-137032546D01*
X135893796Y-136917331D01*
X135944091Y-136782483D01*
X135950500Y-136722873D01*
X135950500Y-136699500D01*
X135970185Y-136632461D01*
X136022989Y-136586706D01*
X136074500Y-136575500D01*
X137413887Y-136575500D01*
X137487805Y-136575511D01*
X137487860Y-136575500D01*
X137487918Y-136575500D01*
X137560795Y-136561003D01*
X137560811Y-136561004D01*
X137560811Y-136561000D01*
X137560812Y-136561000D01*
X137632804Y-136546691D01*
X137632809Y-136546688D01*
X137632813Y-136546688D01*
X137632909Y-136546659D01*
X137632910Y-136546658D01*
X137632913Y-136546658D01*
X137663047Y-136534175D01*
X137701057Y-136518432D01*
X137701064Y-136518428D01*
X137769394Y-136490138D01*
X137769395Y-136490136D01*
X137769446Y-136490116D01*
X137769492Y-136490085D01*
X137769495Y-136490084D01*
X137831518Y-136448641D01*
X137892328Y-136408023D01*
X137892333Y-136408017D01*
X137892352Y-136408005D01*
X137892393Y-136407972D01*
X137892410Y-136407954D01*
X137892416Y-136407951D01*
X137945561Y-136354805D01*
X141058197Y-133243104D01*
X141098411Y-133216239D01*
X141109253Y-133211747D01*
X141122179Y-133206394D01*
X141253289Y-133118789D01*
X141364789Y-133007289D01*
X141452394Y-132876179D01*
X141512737Y-132730497D01*
X141543500Y-132575842D01*
X141543500Y-132418158D01*
X141543500Y-132418155D01*
X141543499Y-132418153D01*
X141512737Y-132263503D01*
X141495055Y-132220814D01*
X141452397Y-132117827D01*
X141452390Y-132117814D01*
X141364789Y-131986711D01*
X141364786Y-131986707D01*
X141253292Y-131875213D01*
X141253288Y-131875210D01*
X141122185Y-131787609D01*
X141122172Y-131787602D01*
X140976501Y-131727264D01*
X140976489Y-131727261D01*
X140821845Y-131696500D01*
X140821842Y-131696500D01*
X140664158Y-131696500D01*
X140664155Y-131696500D01*
X140509510Y-131727261D01*
X140509498Y-131727264D01*
X140363827Y-131787602D01*
X140363814Y-131787609D01*
X140232711Y-131875210D01*
X140232707Y-131875213D01*
X140121213Y-131986707D01*
X140121207Y-131986715D01*
X140033607Y-132117818D01*
X140033604Y-132117822D01*
X140023850Y-132141371D01*
X139996959Y-132181608D01*
X137887332Y-134290602D01*
X137244742Y-134933000D01*
X137139516Y-135038194D01*
X137078188Y-135071670D01*
X137051848Y-135074500D01*
X136074499Y-135074500D01*
X136007460Y-135054815D01*
X135961705Y-135002011D01*
X135950499Y-134950500D01*
X135950499Y-134927129D01*
X135950498Y-134927123D01*
X135949856Y-134921153D01*
X135944091Y-134867517D01*
X135935210Y-134843707D01*
X135893797Y-134732671D01*
X135893793Y-134732664D01*
X135807547Y-134617455D01*
X135807544Y-134617452D01*
X135692335Y-134531206D01*
X135692328Y-134531202D01*
X135557482Y-134480908D01*
X135557483Y-134480908D01*
X135497883Y-134474501D01*
X135497881Y-134474500D01*
X135497873Y-134474500D01*
X135497865Y-134474500D01*
X135487309Y-134474500D01*
X135420270Y-134454815D01*
X135399628Y-134438181D01*
X134729408Y-133767962D01*
X134792993Y-133750925D01*
X134907007Y-133685099D01*
X135000099Y-133592007D01*
X135065925Y-133477993D01*
X135082962Y-133414409D01*
X135715270Y-134046717D01*
X135715270Y-134046716D01*
X135754622Y-133992554D01*
X135851095Y-133803217D01*
X135916757Y-133601130D01*
X135916757Y-133601127D01*
X135950000Y-133391246D01*
X135950000Y-133178753D01*
X135916757Y-132968872D01*
X135916757Y-132968869D01*
X135851095Y-132766782D01*
X135754624Y-132577449D01*
X135715270Y-132523282D01*
X135715269Y-132523282D01*
X135082962Y-133155590D01*
X135065925Y-133092007D01*
X135000099Y-132977993D01*
X134907007Y-132884901D01*
X134792993Y-132819075D01*
X134729409Y-132802037D01*
X135361716Y-132169728D01*
X135307547Y-132130373D01*
X135307547Y-132130372D01*
X135298500Y-132125763D01*
X135247706Y-132077788D01*
X135230912Y-132009966D01*
X135253451Y-131943832D01*
X135298508Y-131904793D01*
X135307816Y-131900051D01*
X135403872Y-131830263D01*
X135479786Y-131775109D01*
X135479788Y-131775106D01*
X135479792Y-131775104D01*
X135630104Y-131624792D01*
X135630106Y-131624788D01*
X135630109Y-131624786D01*
X135755048Y-131452820D01*
X135755047Y-131452820D01*
X135755051Y-131452816D01*
X135851557Y-131263412D01*
X135917246Y-131061243D01*
X135950500Y-130851287D01*
X135950500Y-130638713D01*
X135917246Y-130428757D01*
X135851557Y-130226588D01*
X135755051Y-130037184D01*
X135755049Y-130037181D01*
X135755048Y-130037179D01*
X135630109Y-129865213D01*
X135479786Y-129714890D01*
X135307820Y-129589951D01*
X135307115Y-129589591D01*
X135299054Y-129585485D01*
X135248259Y-129537512D01*
X135231463Y-129469692D01*
X135253999Y-129403556D01*
X135299054Y-129364515D01*
X135307816Y-129360051D01*
X135457620Y-129251213D01*
X135479786Y-129235109D01*
X135479788Y-129235106D01*
X135479792Y-129235104D01*
X135630104Y-129084792D01*
X135630106Y-129084788D01*
X135630109Y-129084786D01*
X135755048Y-128912820D01*
X135755047Y-128912820D01*
X135755051Y-128912816D01*
X135851557Y-128723412D01*
X135917246Y-128521243D01*
X135950500Y-128311287D01*
X135950500Y-128098713D01*
X135917246Y-127888757D01*
X135851557Y-127686588D01*
X135755051Y-127497184D01*
X135755049Y-127497181D01*
X135755048Y-127497179D01*
X135630109Y-127325213D01*
X135479786Y-127174890D01*
X135307820Y-127049951D01*
X135118414Y-126953444D01*
X135118413Y-126953443D01*
X135118412Y-126953443D01*
X134916243Y-126887754D01*
X134916241Y-126887753D01*
X134916240Y-126887753D01*
X134754957Y-126862208D01*
X134706287Y-126854500D01*
X134493713Y-126854500D01*
X134445042Y-126862208D01*
X134283760Y-126887753D01*
X134081585Y-126953444D01*
X133892179Y-127049951D01*
X133720213Y-127174890D01*
X133569890Y-127325213D01*
X133442085Y-127501125D01*
X133440740Y-127500148D01*
X133438408Y-127502257D01*
X133434095Y-127511703D01*
X133412939Y-127525298D01*
X133394295Y-127542166D01*
X133382491Y-127544866D01*
X133375317Y-127549477D01*
X133340382Y-127554500D01*
X133241187Y-127554500D01*
X133241024Y-127554492D01*
X133175196Y-127554500D01*
X133106931Y-127554500D01*
X133106928Y-127554500D01*
X133106870Y-127554505D01*
X133047286Y-127566364D01*
X133047275Y-127566366D01*
X132981255Y-127579499D01*
X132981193Y-127579517D01*
X132961094Y-127587844D01*
X132919733Y-127604982D01*
X132862873Y-127628535D01*
X132862844Y-127628554D01*
X132862806Y-127628570D01*
X132862683Y-127628651D01*
X132862683Y-127628652D01*
X132802812Y-127668666D01*
X132802811Y-127668665D01*
X132802113Y-127669132D01*
X132756331Y-127699724D01*
X132756308Y-127699746D01*
X132756272Y-127699771D01*
X132755962Y-127700080D01*
X132755962Y-127700081D01*
X132704823Y-127751231D01*
X132704822Y-127751230D01*
X132696153Y-127759900D01*
X132665724Y-127790331D01*
X132665707Y-127790354D01*
X132661903Y-127794160D01*
X130095244Y-130361418D01*
X130033925Y-130394910D01*
X129964233Y-130389934D01*
X129908295Y-130348069D01*
X129885936Y-130297938D01*
X129877177Y-130253910D01*
X129869737Y-130216503D01*
X129853876Y-130178210D01*
X129809397Y-130070827D01*
X129809390Y-130070814D01*
X129721789Y-129939711D01*
X129721786Y-129939707D01*
X129610292Y-129828213D01*
X129610288Y-129828210D01*
X129479185Y-129740609D01*
X129479172Y-129740602D01*
X129333501Y-129680264D01*
X129333489Y-129680261D01*
X129178845Y-129649500D01*
X129178842Y-129649500D01*
X129021158Y-129649500D01*
X129021155Y-129649500D01*
X128866510Y-129680261D01*
X128866498Y-129680264D01*
X128720827Y-129740602D01*
X128720814Y-129740609D01*
X128589711Y-129828210D01*
X128589707Y-129828213D01*
X128478213Y-129939707D01*
X128478210Y-129939711D01*
X128390609Y-130070814D01*
X128390602Y-130070827D01*
X128330264Y-130216498D01*
X128330261Y-130216510D01*
X128299500Y-130371153D01*
X128299500Y-130528846D01*
X128330261Y-130683489D01*
X128330264Y-130683501D01*
X128390602Y-130829172D01*
X128390609Y-130829185D01*
X128478210Y-130960288D01*
X128478213Y-130960292D01*
X128589707Y-131071786D01*
X128589711Y-131071789D01*
X128720814Y-131159390D01*
X128720827Y-131159397D01*
X128866498Y-131219735D01*
X128866503Y-131219737D01*
X128866507Y-131219737D01*
X128866508Y-131219738D01*
X128948149Y-131235978D01*
X129010060Y-131268363D01*
X129044634Y-131329079D01*
X129040894Y-131398848D01*
X129011648Y-131445266D01*
X128776974Y-131679994D01*
X128715655Y-131713486D01*
X128713476Y-131713940D01*
X128646507Y-131727261D01*
X128646498Y-131727264D01*
X128500827Y-131787602D01*
X128500814Y-131787609D01*
X128369711Y-131875210D01*
X128369707Y-131875213D01*
X128258213Y-131986707D01*
X128258210Y-131986711D01*
X128170609Y-132117814D01*
X128170602Y-132117827D01*
X128110264Y-132263498D01*
X128110261Y-132263510D01*
X128079500Y-132418153D01*
X113380012Y-132418153D01*
X113369738Y-132366508D01*
X113369737Y-132366507D01*
X113369737Y-132366503D01*
X113369735Y-132366498D01*
X113309397Y-132220827D01*
X113309390Y-132220814D01*
X113221789Y-132089711D01*
X113221786Y-132089707D01*
X113110292Y-131978213D01*
X113110288Y-131978210D01*
X112979185Y-131890609D01*
X112979172Y-131890602D01*
X112833501Y-131830264D01*
X112833489Y-131830261D01*
X112678845Y-131799500D01*
X112678842Y-131799500D01*
X112521158Y-131799500D01*
X112521155Y-131799500D01*
X112366510Y-131830261D01*
X112366498Y-131830264D01*
X112220827Y-131890602D01*
X112220814Y-131890609D01*
X112089711Y-131978210D01*
X112089707Y-131978213D01*
X111978213Y-132089707D01*
X111978210Y-132089711D01*
X111890609Y-132220814D01*
X111890602Y-132220827D01*
X111830264Y-132366498D01*
X111830261Y-132366510D01*
X111799500Y-132521153D01*
X109425099Y-132521153D01*
X107625099Y-130721153D01*
X110499500Y-130721153D01*
X110499500Y-130878846D01*
X110530261Y-131033489D01*
X110530264Y-131033501D01*
X110590602Y-131179172D01*
X110590609Y-131179185D01*
X110678210Y-131310288D01*
X110678213Y-131310292D01*
X110789707Y-131421786D01*
X110789711Y-131421789D01*
X110920814Y-131509390D01*
X110920827Y-131509397D01*
X111007989Y-131545500D01*
X111066503Y-131569737D01*
X111221153Y-131600499D01*
X111221156Y-131600500D01*
X111221158Y-131600500D01*
X111378844Y-131600500D01*
X111378845Y-131600499D01*
X111533497Y-131569737D01*
X111671550Y-131512554D01*
X111679172Y-131509397D01*
X111679172Y-131509396D01*
X111679179Y-131509394D01*
X111810289Y-131421789D01*
X111921789Y-131310289D01*
X112009394Y-131179179D01*
X112069737Y-131033497D01*
X112100500Y-130878842D01*
X112100500Y-130721158D01*
X112100500Y-130721155D01*
X112100499Y-130721153D01*
X112069737Y-130566503D01*
X112060581Y-130544398D01*
X112009397Y-130420827D01*
X112009390Y-130420814D01*
X111921789Y-130289711D01*
X111921786Y-130289707D01*
X111810292Y-130178213D01*
X111810288Y-130178210D01*
X111679185Y-130090609D01*
X111679172Y-130090602D01*
X111533501Y-130030264D01*
X111533489Y-130030261D01*
X111378845Y-129999500D01*
X111378842Y-129999500D01*
X111221158Y-129999500D01*
X111221155Y-129999500D01*
X111066510Y-130030261D01*
X111066498Y-130030264D01*
X110920827Y-130090602D01*
X110920814Y-130090609D01*
X110789711Y-130178210D01*
X110789707Y-130178213D01*
X110678213Y-130289707D01*
X110678210Y-130289711D01*
X110590609Y-130420814D01*
X110590602Y-130420827D01*
X110530264Y-130566498D01*
X110530261Y-130566510D01*
X110499500Y-130721153D01*
X107625099Y-130721153D01*
X106326924Y-129422978D01*
X106311502Y-129404187D01*
X106311080Y-129403556D01*
X106283789Y-129362711D01*
X106283787Y-129362708D01*
X106172292Y-129251213D01*
X106172288Y-129251210D01*
X106041185Y-129163609D01*
X106041172Y-129163602D01*
X105895501Y-129103264D01*
X105895489Y-129103261D01*
X105740845Y-129072500D01*
X105740842Y-129072500D01*
X105583158Y-129072500D01*
X105583155Y-129072500D01*
X105428510Y-129103261D01*
X105428498Y-129103264D01*
X105282827Y-129163602D01*
X105282820Y-129163606D01*
X105265020Y-129175500D01*
X105225955Y-129201602D01*
X105159279Y-129222480D01*
X105157065Y-129222500D01*
X102768808Y-129222500D01*
X102701769Y-129202815D01*
X102681127Y-129186181D01*
X101750657Y-128255711D01*
X101717172Y-128194388D01*
X101717689Y-128146245D01*
X101716484Y-128146055D01*
X101750500Y-127931286D01*
X101750500Y-127718713D01*
X101742573Y-127668665D01*
X101717246Y-127508757D01*
X101651557Y-127306588D01*
X101555051Y-127117184D01*
X101555049Y-127117181D01*
X101555048Y-127117179D01*
X101430109Y-126945213D01*
X101279786Y-126794890D01*
X101107820Y-126669951D01*
X101107115Y-126669591D01*
X101099054Y-126665485D01*
X101048259Y-126617512D01*
X101031463Y-126549692D01*
X101053999Y-126483556D01*
X101099054Y-126444515D01*
X101107816Y-126440051D01*
X101129789Y-126424086D01*
X101279786Y-126315109D01*
X101279788Y-126315106D01*
X101279792Y-126315104D01*
X101430104Y-126164792D01*
X101430106Y-126164788D01*
X101430109Y-126164786D01*
X101555048Y-125992820D01*
X101555047Y-125992820D01*
X101555051Y-125992816D01*
X101651557Y-125803412D01*
X101717246Y-125601243D01*
X101750500Y-125391287D01*
X101750500Y-125178713D01*
X101717246Y-124968757D01*
X101651557Y-124766588D01*
X101555051Y-124577184D01*
X101555049Y-124577181D01*
X101555048Y-124577179D01*
X101430109Y-124405213D01*
X101279786Y-124254890D01*
X101107820Y-124129951D01*
X101107115Y-124129591D01*
X101099054Y-124125485D01*
X101048259Y-124077512D01*
X101031463Y-124009692D01*
X101053999Y-123943556D01*
X101099054Y-123904515D01*
X101107816Y-123900051D01*
X101129789Y-123884086D01*
X101279786Y-123775109D01*
X101279788Y-123775106D01*
X101279792Y-123775104D01*
X101430104Y-123624792D01*
X101430106Y-123624788D01*
X101430109Y-123624786D01*
X101557915Y-123448875D01*
X101559259Y-123449851D01*
X101605705Y-123407834D01*
X101659618Y-123395500D01*
X104724192Y-123395500D01*
X104791231Y-123415185D01*
X104811873Y-123431819D01*
X109068724Y-127688669D01*
X109131285Y-127751230D01*
X109159332Y-127779277D01*
X109265866Y-127850461D01*
X109265872Y-127850464D01*
X109265873Y-127850465D01*
X109384256Y-127899501D01*
X109384260Y-127899501D01*
X109384261Y-127899502D01*
X109509928Y-127924500D01*
X109509931Y-127924500D01*
X121181349Y-127924500D01*
X121248388Y-127944185D01*
X121294143Y-127996989D01*
X121304087Y-128066147D01*
X121275062Y-128129703D01*
X121256838Y-128146872D01*
X121245740Y-128155388D01*
X121227702Y-128169229D01*
X121227697Y-128169235D01*
X121049227Y-128347705D01*
X120895568Y-128547954D01*
X120895566Y-128547958D01*
X120769372Y-128766535D01*
X120769363Y-128766552D01*
X120672773Y-128999741D01*
X120607446Y-129243548D01*
X120574500Y-129493788D01*
X120574500Y-129746211D01*
X120607446Y-129996451D01*
X120672773Y-130240258D01*
X120769363Y-130473447D01*
X120769372Y-130473464D01*
X120895566Y-130692041D01*
X120895568Y-130692045D01*
X121049227Y-130892294D01*
X121049235Y-130892303D01*
X121227697Y-131070765D01*
X121227705Y-131070772D01*
X121427954Y-131224431D01*
X121427958Y-131224433D01*
X121646535Y-131350627D01*
X121646552Y-131350636D01*
X121762946Y-131398848D01*
X121879740Y-131447226D01*
X122123548Y-131512554D01*
X122373796Y-131545500D01*
X122373803Y-131545500D01*
X122626197Y-131545500D01*
X122626204Y-131545500D01*
X122876452Y-131512554D01*
X123120260Y-131447226D01*
X123353454Y-131350633D01*
X123526891Y-131250500D01*
X123572041Y-131224433D01*
X123572045Y-131224431D01*
X123656798Y-131159397D01*
X123772294Y-131070773D01*
X123772298Y-131070768D01*
X123772303Y-131070765D01*
X123950765Y-130892303D01*
X123950768Y-130892298D01*
X123950773Y-130892294D01*
X124104430Y-130692046D01*
X124109364Y-130683501D01*
X124176912Y-130566503D01*
X124230633Y-130473454D01*
X124327226Y-130240260D01*
X124392554Y-129996452D01*
X124425500Y-129746204D01*
X124425500Y-129493796D01*
X124392554Y-129243548D01*
X124327226Y-128999740D01*
X124267315Y-128855104D01*
X124230636Y-128766552D01*
X124230627Y-128766535D01*
X124104433Y-128547958D01*
X124104431Y-128547954D01*
X123950772Y-128347705D01*
X123950765Y-128347697D01*
X123772297Y-128169229D01*
X123763129Y-128162194D01*
X123743163Y-128146874D01*
X123701962Y-128090448D01*
X123697807Y-128020702D01*
X123732019Y-127959782D01*
X123793737Y-127927029D01*
X123818651Y-127924500D01*
X129454071Y-127924500D01*
X129538615Y-127907682D01*
X129579744Y-127899501D01*
X129698127Y-127850465D01*
X129804669Y-127779277D01*
X137405277Y-120178669D01*
X137476465Y-120072127D01*
X137525501Y-119953744D01*
X137538427Y-119888762D01*
X137550500Y-119828071D01*
X137550500Y-117224500D01*
X137570185Y-117157461D01*
X137622989Y-117111706D01*
X137674500Y-117100500D01*
X137678844Y-117100500D01*
X137678845Y-117100499D01*
X137833497Y-117069737D01*
X137979179Y-117009394D01*
X138110289Y-116921789D01*
X138221789Y-116810289D01*
X138309394Y-116679179D01*
X138369737Y-116533497D01*
X138400500Y-116378842D01*
X138400500Y-116221158D01*
X138400500Y-116221155D01*
X138400499Y-116221153D01*
X138376499Y-116100500D01*
X138369737Y-116066503D01*
X138351664Y-116022870D01*
X138309397Y-115920828D01*
X138309396Y-115920827D01*
X138309394Y-115920821D01*
X138271396Y-115863953D01*
X138250520Y-115797276D01*
X138250500Y-115795064D01*
X138250500Y-110027847D01*
X138270185Y-109960808D01*
X138322989Y-109915053D01*
X138350309Y-109906230D01*
X138366291Y-109903050D01*
X138483497Y-109879737D01*
X138629179Y-109819394D01*
X138760289Y-109731789D01*
X138871789Y-109620289D01*
X138959394Y-109489179D01*
X138967448Y-109469736D01*
X138973067Y-109456166D01*
X139019737Y-109343497D01*
X139050500Y-109188842D01*
X139050500Y-109031158D01*
X139050500Y-109031155D01*
X139050499Y-109031153D01*
X139038497Y-108970814D01*
X139019737Y-108876503D01*
X139017386Y-108870827D01*
X138959397Y-108730827D01*
X138959390Y-108730814D01*
X138871789Y-108599711D01*
X138871786Y-108599707D01*
X138760292Y-108488213D01*
X138760288Y-108488210D01*
X138629185Y-108400609D01*
X138629172Y-108400602D01*
X138483501Y-108340264D01*
X138483489Y-108340261D01*
X138328845Y-108309500D01*
X138328842Y-108309500D01*
X138171158Y-108309500D01*
X138171155Y-108309500D01*
X138016510Y-108340261D01*
X138016498Y-108340264D01*
X137870827Y-108400602D01*
X137870814Y-108400609D01*
X137743391Y-108485751D01*
X137676713Y-108506629D01*
X137609333Y-108488144D01*
X137562643Y-108436165D01*
X137550500Y-108382649D01*
X137550500Y-104174807D01*
X137570185Y-104107768D01*
X137586815Y-104087130D01*
X138096931Y-103577013D01*
X138158252Y-103543530D01*
X138160317Y-103543099D01*
X138227497Y-103529737D01*
X138372351Y-103469737D01*
X138373172Y-103469397D01*
X138373172Y-103469396D01*
X138373179Y-103469394D01*
X138504289Y-103381789D01*
X138615789Y-103270289D01*
X138703394Y-103139179D01*
X138763737Y-102993497D01*
X138794500Y-102838842D01*
X138794500Y-102681158D01*
X138794500Y-102681155D01*
X138794499Y-102681153D01*
X138785020Y-102633501D01*
X138763737Y-102526503D01*
X138743996Y-102478844D01*
X138703397Y-102380827D01*
X138703390Y-102380814D01*
X138615789Y-102249711D01*
X138615786Y-102249707D01*
X138504292Y-102138213D01*
X138504288Y-102138210D01*
X138373185Y-102050609D01*
X138373172Y-102050602D01*
X138221870Y-101987932D01*
X138222691Y-101985949D01*
X138180717Y-101960771D01*
X137686819Y-101466873D01*
X137653334Y-101405550D01*
X137650500Y-101379192D01*
X137650500Y-96726675D01*
X137670185Y-96659636D01*
X137722989Y-96613881D01*
X137792147Y-96603937D01*
X137855703Y-96632962D01*
X137889061Y-96679223D01*
X137934602Y-96789172D01*
X137934609Y-96789185D01*
X138022210Y-96920288D01*
X138022213Y-96920292D01*
X138133707Y-97031786D01*
X138133711Y-97031789D01*
X138264814Y-97119390D01*
X138264827Y-97119397D01*
X138410498Y-97179735D01*
X138410503Y-97179737D01*
X138565153Y-97210499D01*
X138565156Y-97210500D01*
X138565158Y-97210500D01*
X138722844Y-97210500D01*
X138722845Y-97210499D01*
X138877497Y-97179737D01*
X139023179Y-97119394D01*
X139080044Y-97081397D01*
X139146721Y-97060520D01*
X139148935Y-97060500D01*
X139589192Y-97060500D01*
X139656231Y-97080185D01*
X139676873Y-97096819D01*
X140557181Y-97977127D01*
X140590666Y-98038450D01*
X140593500Y-98064808D01*
X140593500Y-108577064D01*
X140573815Y-108644103D01*
X140572603Y-108645954D01*
X140534608Y-108702817D01*
X140534602Y-108702828D01*
X140474264Y-108848498D01*
X140474261Y-108848510D01*
X140443500Y-109003153D01*
X140443500Y-109160846D01*
X140474261Y-109315489D01*
X140474264Y-109315501D01*
X140534602Y-109461172D01*
X140534609Y-109461185D01*
X140622210Y-109592288D01*
X140622213Y-109592292D01*
X140733707Y-109703786D01*
X140733711Y-109703789D01*
X140864814Y-109791390D01*
X140864827Y-109791397D01*
X141010498Y-109851735D01*
X141010503Y-109851737D01*
X141111311Y-109871789D01*
X141165153Y-109882499D01*
X141165156Y-109882500D01*
X141165158Y-109882500D01*
X141322843Y-109882500D01*
X141349004Y-109877296D01*
X141380308Y-109871069D01*
X141449899Y-109877296D01*
X141505077Y-109920158D01*
X141528322Y-109986047D01*
X141528500Y-109992686D01*
X141528500Y-119483191D01*
X141508815Y-119550230D01*
X141492181Y-119570872D01*
X140161068Y-120901984D01*
X140099745Y-120935469D01*
X140097579Y-120935920D01*
X140030508Y-120949261D01*
X140030498Y-120949264D01*
X139884827Y-121009602D01*
X139884814Y-121009609D01*
X139753711Y-121097210D01*
X139753707Y-121097213D01*
X139642213Y-121208707D01*
X139642210Y-121208711D01*
X139554609Y-121339814D01*
X139554602Y-121339827D01*
X139494264Y-121485498D01*
X139494261Y-121485510D01*
X139463500Y-121640153D01*
X139463500Y-121797846D01*
X139494261Y-121952489D01*
X139494264Y-121952501D01*
X139554602Y-122098172D01*
X139554609Y-122098185D01*
X139642210Y-122229288D01*
X139642213Y-122229292D01*
X139753707Y-122340786D01*
X139753711Y-122340789D01*
X139884814Y-122428390D01*
X139884827Y-122428397D01*
X140030498Y-122488735D01*
X140030503Y-122488737D01*
X140185153Y-122519499D01*
X140185156Y-122519500D01*
X140185158Y-122519500D01*
X140342844Y-122519500D01*
X140342845Y-122519499D01*
X140497497Y-122488737D01*
X140610166Y-122442067D01*
X140643172Y-122428397D01*
X140643172Y-122428396D01*
X140643179Y-122428394D01*
X140774289Y-122340789D01*
X140885789Y-122229289D01*
X140973394Y-122098179D01*
X141033737Y-121952497D01*
X141047079Y-121885416D01*
X141079463Y-121823509D01*
X141080958Y-121821986D01*
X142684277Y-120218669D01*
X142755465Y-120112127D01*
X142804501Y-119993744D01*
X142807938Y-119976465D01*
X142827290Y-119879179D01*
X142829500Y-119868071D01*
X142829500Y-108359493D01*
X142849185Y-108292454D01*
X142901989Y-108246699D01*
X142971147Y-108236755D01*
X142977692Y-108237876D01*
X143041155Y-108250500D01*
X143041158Y-108250500D01*
X143198844Y-108250500D01*
X143198845Y-108250499D01*
X143353497Y-108219737D01*
X143499179Y-108159394D01*
X143630289Y-108071789D01*
X143741789Y-107960289D01*
X143829394Y-107829179D01*
X143889737Y-107683497D01*
X143920500Y-107528842D01*
X143920500Y-107371158D01*
X143920500Y-107371155D01*
X143920499Y-107371153D01*
X143902204Y-107279179D01*
X143889737Y-107216503D01*
X143855357Y-107133501D01*
X143829397Y-107070827D01*
X143829390Y-107070814D01*
X143741789Y-106939711D01*
X143741786Y-106939707D01*
X143630292Y-106828213D01*
X143630288Y-106828210D01*
X143499185Y-106740609D01*
X143499172Y-106740602D01*
X143353501Y-106680264D01*
X143353489Y-106680261D01*
X143198845Y-106649500D01*
X143198842Y-106649500D01*
X143041158Y-106649500D01*
X142977690Y-106662124D01*
X142908099Y-106655895D01*
X142852922Y-106613032D01*
X142829678Y-106547142D01*
X142829500Y-106540506D01*
X142829500Y-103293579D01*
X142849185Y-103226540D01*
X142901989Y-103180785D01*
X142971147Y-103170841D01*
X142977668Y-103171957D01*
X143066453Y-103189618D01*
X143121156Y-103200500D01*
X143121158Y-103200500D01*
X143278844Y-103200500D01*
X143278845Y-103200499D01*
X143433497Y-103169737D01*
X143579179Y-103109394D01*
X143710289Y-103021789D01*
X143821789Y-102910289D01*
X143909394Y-102779179D01*
X143969737Y-102633497D01*
X144000500Y-102478842D01*
X144000500Y-102321158D01*
X144000500Y-102321155D01*
X144000499Y-102321153D01*
X143991208Y-102274446D01*
X143969737Y-102166503D01*
X143956062Y-102133489D01*
X143909397Y-102020827D01*
X143909390Y-102020814D01*
X143821789Y-101889711D01*
X143821786Y-101889707D01*
X143710292Y-101778213D01*
X143710288Y-101778210D01*
X143579185Y-101690609D01*
X143579172Y-101690602D01*
X143433501Y-101630264D01*
X143433489Y-101630261D01*
X143278845Y-101599500D01*
X143278842Y-101599500D01*
X143121158Y-101599500D01*
X143121155Y-101599500D01*
X142977691Y-101628037D01*
X142908100Y-101621810D01*
X142852922Y-101578947D01*
X142829678Y-101513057D01*
X142829500Y-101506420D01*
X142829500Y-101236363D01*
X142849185Y-101169324D01*
X142850361Y-101167527D01*
X142909394Y-101079179D01*
X142969737Y-100933497D01*
X143000500Y-100778842D01*
X143000500Y-100621158D01*
X143000500Y-100621155D01*
X143000499Y-100621153D01*
X142969738Y-100466510D01*
X142969737Y-100466503D01*
X142969735Y-100466498D01*
X142909397Y-100320827D01*
X142909390Y-100320814D01*
X142821789Y-100189711D01*
X142821786Y-100189707D01*
X142710292Y-100078213D01*
X142710288Y-100078210D01*
X142579185Y-99990609D01*
X142579172Y-99990602D01*
X142433501Y-99930264D01*
X142433489Y-99930261D01*
X142278845Y-99899500D01*
X142278842Y-99899500D01*
X142121158Y-99899500D01*
X142121153Y-99899500D01*
X142042691Y-99915107D01*
X141973099Y-99908880D01*
X141917922Y-99866016D01*
X141894678Y-99800127D01*
X141894500Y-99793490D01*
X141894500Y-97679928D01*
X141869502Y-97554261D01*
X141869501Y-97554260D01*
X141869501Y-97554256D01*
X141820465Y-97435873D01*
X141749277Y-97329331D01*
X141749275Y-97329329D01*
X141749273Y-97329326D01*
X140324673Y-95904726D01*
X140324669Y-95904723D01*
X140218127Y-95833535D01*
X140099744Y-95784499D01*
X140099738Y-95784497D01*
X139974071Y-95759500D01*
X139974069Y-95759500D01*
X139148935Y-95759500D01*
X139081896Y-95739815D01*
X139080090Y-95738633D01*
X139023179Y-95700606D01*
X139023172Y-95700602D01*
X138877501Y-95640264D01*
X138877489Y-95640261D01*
X138722845Y-95609500D01*
X138722842Y-95609500D01*
X138565158Y-95609500D01*
X138565155Y-95609500D01*
X138410510Y-95640261D01*
X138410498Y-95640264D01*
X138264827Y-95700602D01*
X138264814Y-95700609D01*
X138133711Y-95788210D01*
X138133707Y-95788213D01*
X138022213Y-95899707D01*
X138022210Y-95899711D01*
X137934609Y-96030814D01*
X137934602Y-96030827D01*
X137889061Y-96140776D01*
X137845220Y-96195180D01*
X137778926Y-96217245D01*
X137711227Y-96199966D01*
X137663616Y-96148829D01*
X137650500Y-96093324D01*
X137650500Y-89600000D01*
X142900000Y-89600000D01*
X142900000Y-58887323D01*
X142934356Y-58831624D01*
X142934358Y-58831619D01*
X142989505Y-58665197D01*
X142989506Y-58665190D01*
X142999999Y-58562486D01*
X143000000Y-58562473D01*
X143000000Y-57162500D01*
X142075000Y-57162500D01*
X142075000Y-57036500D01*
X142063794Y-56984989D01*
X142018039Y-56932185D01*
X141951000Y-56912500D01*
X141825000Y-56912500D01*
X141825000Y-56786500D01*
X141813794Y-56734989D01*
X141768039Y-56682185D01*
X141701000Y-56662500D01*
X142999999Y-56662500D01*
X142999999Y-55262528D01*
X142999998Y-55262513D01*
X142989505Y-55159802D01*
X142934358Y-54993380D01*
X142934356Y-54993375D01*
X142870345Y-54889597D01*
X142851905Y-54822204D01*
X142872828Y-54755541D01*
X142926470Y-54710771D01*
X142975884Y-54700500D01*
X143960118Y-54700500D01*
X143993908Y-54700500D01*
X144006061Y-54701097D01*
X144016051Y-54702080D01*
X144143824Y-54714665D01*
X144167654Y-54719404D01*
X144294274Y-54757814D01*
X144316722Y-54767113D01*
X144433407Y-54829482D01*
X144453618Y-54842987D01*
X144555891Y-54926920D01*
X144573079Y-54944108D01*
X144657012Y-55046381D01*
X144670517Y-55066592D01*
X144732883Y-55183269D01*
X144742186Y-55205728D01*
X144780593Y-55332339D01*
X144785335Y-55356180D01*
X144798903Y-55493938D01*
X144799500Y-55506092D01*
X144799500Y-153493907D01*
X144798903Y-153506060D01*
X144798903Y-153506061D01*
X144785335Y-153643819D01*
X144780593Y-153667660D01*
X144742186Y-153794271D01*
X144732883Y-153816730D01*
X144670517Y-153933407D01*
X144657012Y-153953618D01*
X144573079Y-154055891D01*
X144555891Y-154073079D01*
X144453618Y-154157012D01*
X144433407Y-154170517D01*
X144316730Y-154232883D01*
X144294271Y-154242186D01*
X144167660Y-154280593D01*
X144143819Y-154285335D01*
X144006062Y-154298903D01*
X143993908Y-154299500D01*
X91006092Y-154299500D01*
X90993938Y-154298903D01*
X90856180Y-154285335D01*
X90832339Y-154280593D01*
X90705728Y-154242186D01*
X90683272Y-154232884D01*
X90566592Y-154170517D01*
X90546381Y-154157012D01*
X90444108Y-154073079D01*
X90426920Y-154055891D01*
X90342987Y-153953618D01*
X90329482Y-153933407D01*
X90267113Y-153816722D01*
X90257813Y-153794271D01*
X90219404Y-153667654D01*
X90214665Y-153643824D01*
X90201097Y-153506060D01*
X90200500Y-153493907D01*
X90200500Y-149321153D01*
X99599500Y-149321153D01*
X99599500Y-149478846D01*
X99630261Y-149633489D01*
X99630264Y-149633501D01*
X99690602Y-149779172D01*
X99690609Y-149779185D01*
X99778210Y-149910288D01*
X99778213Y-149910292D01*
X99889707Y-150021786D01*
X99889711Y-150021789D01*
X100020814Y-150109390D01*
X100020827Y-150109397D01*
X100166498Y-150169735D01*
X100166503Y-150169737D01*
X100321153Y-150200499D01*
X100321156Y-150200500D01*
X100321158Y-150200500D01*
X100478844Y-150200500D01*
X100478845Y-150200499D01*
X100633497Y-150169737D01*
X100779179Y-150109394D01*
X100910289Y-150021789D01*
X101021789Y-149910289D01*
X101047939Y-149871153D01*
X104149500Y-149871153D01*
X104149500Y-150028846D01*
X104180261Y-150183489D01*
X104180264Y-150183501D01*
X104240602Y-150329172D01*
X104240609Y-150329185D01*
X104328210Y-150460288D01*
X104328213Y-150460292D01*
X104439707Y-150571786D01*
X104439711Y-150571789D01*
X104570814Y-150659390D01*
X104570827Y-150659397D01*
X104682252Y-150705550D01*
X104716503Y-150719737D01*
X104871153Y-150750499D01*
X104871156Y-150750500D01*
X104871158Y-150750500D01*
X105028844Y-150750500D01*
X105028845Y-150750499D01*
X105183497Y-150719737D01*
X105329179Y-150659394D01*
X105460289Y-150571789D01*
X105571789Y-150460289D01*
X105659394Y-150329179D01*
X105719737Y-150183497D01*
X105735677Y-150103362D01*
X105768061Y-150041451D01*
X105828777Y-150006877D01*
X105898546Y-150010616D01*
X105955219Y-150051482D01*
X105960396Y-150058662D01*
X105988210Y-150100288D01*
X105988213Y-150100292D01*
X106099707Y-150211786D01*
X106099711Y-150211789D01*
X106230814Y-150299390D01*
X106230827Y-150299397D01*
X106302743Y-150329185D01*
X106376503Y-150359737D01*
X106481048Y-150380532D01*
X106531147Y-150390498D01*
X106531148Y-150390498D01*
X106531158Y-150390500D01*
X106531167Y-150390500D01*
X106531284Y-150390512D01*
X106531351Y-150390539D01*
X106537132Y-150391689D01*
X106536914Y-150392784D01*
X106596073Y-150416668D01*
X106622241Y-150445025D01*
X106678210Y-150528788D01*
X106678213Y-150528792D01*
X106789707Y-150640286D01*
X106789711Y-150640289D01*
X106920814Y-150727890D01*
X106920827Y-150727897D01*
X107014925Y-150766873D01*
X107066503Y-150788237D01*
X107221153Y-150818999D01*
X107221156Y-150819000D01*
X107221158Y-150819000D01*
X107378844Y-150819000D01*
X107378845Y-150818999D01*
X107533497Y-150788237D01*
X107679179Y-150727894D01*
X107810289Y-150640289D01*
X107921789Y-150528789D01*
X108009394Y-150397679D01*
X108012352Y-150390539D01*
X108050103Y-150299397D01*
X108069737Y-150251997D01*
X108100500Y-150097342D01*
X108100500Y-149939658D01*
X108100500Y-149939655D01*
X108100499Y-149939653D01*
X108069738Y-149785010D01*
X108069737Y-149785003D01*
X108067322Y-149779172D01*
X108009397Y-149639327D01*
X108009390Y-149639314D01*
X107921789Y-149508211D01*
X107921786Y-149508207D01*
X107810292Y-149396713D01*
X107810288Y-149396710D01*
X107679185Y-149309109D01*
X107679172Y-149309102D01*
X107533501Y-149248764D01*
X107533489Y-149248761D01*
X107378841Y-149217999D01*
X107378697Y-149217985D01*
X107378626Y-149217956D01*
X107372868Y-149216811D01*
X107373085Y-149215718D01*
X107313912Y-149191820D01*
X107287758Y-149163474D01*
X107231789Y-149079711D01*
X107231786Y-149079707D01*
X107120292Y-148968213D01*
X107120288Y-148968210D01*
X106989185Y-148880609D01*
X106989172Y-148880602D01*
X106843501Y-148820264D01*
X106843489Y-148820261D01*
X106688845Y-148789500D01*
X106688842Y-148789500D01*
X106531158Y-148789500D01*
X106531155Y-148789500D01*
X106376510Y-148820261D01*
X106376498Y-148820264D01*
X106230827Y-148880602D01*
X106230814Y-148880609D01*
X106099711Y-148968210D01*
X106099707Y-148968213D01*
X105988213Y-149079707D01*
X105988210Y-149079711D01*
X105900609Y-149210814D01*
X105900602Y-149210827D01*
X105840264Y-149356498D01*
X105840261Y-149356508D01*
X105824322Y-149436638D01*
X105791936Y-149498549D01*
X105731220Y-149533123D01*
X105661451Y-149529382D01*
X105604779Y-149488515D01*
X105599603Y-149481337D01*
X105571789Y-149439711D01*
X105571786Y-149439707D01*
X105460292Y-149328213D01*
X105460288Y-149328210D01*
X105329185Y-149240609D01*
X105329172Y-149240602D01*
X105183501Y-149180264D01*
X105183489Y-149180261D01*
X105028845Y-149149500D01*
X105028842Y-149149500D01*
X104871158Y-149149500D01*
X104871155Y-149149500D01*
X104716510Y-149180261D01*
X104716498Y-149180264D01*
X104570827Y-149240602D01*
X104570814Y-149240609D01*
X104439711Y-149328210D01*
X104439707Y-149328213D01*
X104328213Y-149439707D01*
X104328210Y-149439711D01*
X104240609Y-149570814D01*
X104240602Y-149570827D01*
X104180264Y-149716498D01*
X104180261Y-149716510D01*
X104149500Y-149871153D01*
X101047939Y-149871153D01*
X101109394Y-149779179D01*
X101169737Y-149633497D01*
X101200500Y-149478842D01*
X101200500Y-149321158D01*
X101200500Y-149321155D01*
X101200499Y-149321153D01*
X101186100Y-149248764D01*
X101169737Y-149166503D01*
X101133787Y-149079711D01*
X101109397Y-149020827D01*
X101109390Y-149020814D01*
X101021789Y-148889711D01*
X101021786Y-148889707D01*
X100910292Y-148778213D01*
X100910288Y-148778210D01*
X100779185Y-148690609D01*
X100779172Y-148690602D01*
X100633501Y-148630264D01*
X100633489Y-148630261D01*
X100478845Y-148599500D01*
X100478842Y-148599500D01*
X100321158Y-148599500D01*
X100321155Y-148599500D01*
X100166510Y-148630261D01*
X100166498Y-148630264D01*
X100020827Y-148690602D01*
X100020814Y-148690609D01*
X99889711Y-148778210D01*
X99889707Y-148778213D01*
X99778213Y-148889707D01*
X99778210Y-148889711D01*
X99690609Y-149020814D01*
X99690602Y-149020827D01*
X99630264Y-149166498D01*
X99630261Y-149166510D01*
X99599500Y-149321153D01*
X90200500Y-149321153D01*
X90200500Y-147271153D01*
X94249500Y-147271153D01*
X94249500Y-147428846D01*
X94280261Y-147583489D01*
X94280264Y-147583501D01*
X94340602Y-147729172D01*
X94340609Y-147729185D01*
X94428210Y-147860288D01*
X94428213Y-147860292D01*
X94539707Y-147971786D01*
X94539711Y-147971789D01*
X94670814Y-148059390D01*
X94670827Y-148059397D01*
X94816498Y-148119735D01*
X94816503Y-148119737D01*
X94971153Y-148150499D01*
X94971156Y-148150500D01*
X94971158Y-148150500D01*
X95128844Y-148150500D01*
X95128845Y-148150499D01*
X95283497Y-148119737D01*
X95429179Y-148059394D01*
X95560289Y-147971789D01*
X95671789Y-147860289D01*
X95759394Y-147729179D01*
X95819737Y-147583497D01*
X95850500Y-147428842D01*
X95850500Y-147271158D01*
X95850500Y-147271155D01*
X95850499Y-147271153D01*
X95819738Y-147116510D01*
X95819737Y-147116503D01*
X95819735Y-147116498D01*
X95759397Y-146970827D01*
X95759390Y-146970814D01*
X95671789Y-146839711D01*
X95671786Y-146839707D01*
X95560292Y-146728213D01*
X95560288Y-146728210D01*
X95429185Y-146640609D01*
X95429172Y-146640602D01*
X95283501Y-146580264D01*
X95283489Y-146580261D01*
X95128845Y-146549500D01*
X95128842Y-146549500D01*
X94971158Y-146549500D01*
X94971155Y-146549500D01*
X94816510Y-146580261D01*
X94816498Y-146580264D01*
X94670827Y-146640602D01*
X94670814Y-146640609D01*
X94539711Y-146728210D01*
X94539707Y-146728213D01*
X94428213Y-146839707D01*
X94428210Y-146839711D01*
X94340609Y-146970814D01*
X94340602Y-146970827D01*
X94280264Y-147116498D01*
X94280261Y-147116510D01*
X94249500Y-147271153D01*
X90200500Y-147271153D01*
X90200500Y-144702189D01*
X92318464Y-144702189D01*
X92318464Y-144859882D01*
X92349225Y-145014525D01*
X92349228Y-145014537D01*
X92409566Y-145160208D01*
X92409573Y-145160221D01*
X92497174Y-145291324D01*
X92497177Y-145291328D01*
X92608671Y-145402822D01*
X92608675Y-145402825D01*
X92739778Y-145490426D01*
X92739791Y-145490433D01*
X92885462Y-145550771D01*
X92885467Y-145550773D01*
X93040117Y-145581535D01*
X93040120Y-145581536D01*
X93040122Y-145581536D01*
X93197808Y-145581536D01*
X93197809Y-145581535D01*
X93352461Y-145550773D01*
X93498143Y-145490430D01*
X93629253Y-145402825D01*
X93740753Y-145291325D01*
X93828358Y-145160215D01*
X93888701Y-145014533D01*
X93919464Y-144859878D01*
X93919464Y-144702194D01*
X93919464Y-144702191D01*
X93919463Y-144702189D01*
X93888702Y-144547546D01*
X93888701Y-144547539D01*
X93840523Y-144431226D01*
X93828361Y-144401863D01*
X93828354Y-144401850D01*
X93740753Y-144270747D01*
X93740750Y-144270743D01*
X93629256Y-144159249D01*
X93629252Y-144159246D01*
X93498149Y-144071645D01*
X93498136Y-144071638D01*
X93352465Y-144011300D01*
X93352453Y-144011297D01*
X93197809Y-143980536D01*
X93197806Y-143980536D01*
X93040122Y-143980536D01*
X93040119Y-143980536D01*
X92885474Y-144011297D01*
X92885462Y-144011300D01*
X92739791Y-144071638D01*
X92739778Y-144071645D01*
X92608675Y-144159246D01*
X92608671Y-144159249D01*
X92497177Y-144270743D01*
X92497174Y-144270747D01*
X92409573Y-144401850D01*
X92409566Y-144401863D01*
X92349228Y-144547534D01*
X92349225Y-144547546D01*
X92318464Y-144702189D01*
X90200500Y-144702189D01*
X90200500Y-140421153D01*
X95809500Y-140421153D01*
X95809500Y-140578846D01*
X95840261Y-140733489D01*
X95840264Y-140733501D01*
X95900602Y-140879172D01*
X95900609Y-140879185D01*
X95988210Y-141010288D01*
X95988213Y-141010292D01*
X96099707Y-141121786D01*
X96099711Y-141121789D01*
X96230814Y-141209390D01*
X96230827Y-141209397D01*
X96325664Y-141248679D01*
X96347097Y-141260134D01*
X96354505Y-141265084D01*
X96491087Y-141321658D01*
X96491091Y-141321658D01*
X96491092Y-141321659D01*
X96636079Y-141350500D01*
X96636082Y-141350500D01*
X100173920Y-141350500D01*
X100271462Y-141331096D01*
X100318913Y-141321658D01*
X100455495Y-141265084D01*
X100504729Y-141232186D01*
X100578416Y-141182952D01*
X100815297Y-140946068D01*
X100855525Y-140919190D01*
X100879179Y-140909394D01*
X101010289Y-140821789D01*
X101121789Y-140710289D01*
X101209394Y-140579179D01*
X101269737Y-140433497D01*
X101300500Y-140278842D01*
X101300500Y-140121158D01*
X101300500Y-140121155D01*
X101300499Y-140121153D01*
X101274353Y-139989711D01*
X101269737Y-139966503D01*
X101254824Y-139930499D01*
X101209397Y-139820827D01*
X101209390Y-139820814D01*
X101121789Y-139689711D01*
X101121786Y-139689707D01*
X101010292Y-139578213D01*
X101010288Y-139578210D01*
X100879185Y-139490609D01*
X100879172Y-139490602D01*
X100733501Y-139430264D01*
X100733489Y-139430261D01*
X100578845Y-139399500D01*
X100578842Y-139399500D01*
X100421158Y-139399500D01*
X100421155Y-139399500D01*
X100266510Y-139430261D01*
X100266498Y-139430264D01*
X100120827Y-139490602D01*
X100120814Y-139490609D01*
X99989711Y-139578210D01*
X99989707Y-139578213D01*
X99878210Y-139689710D01*
X99808266Y-139794391D01*
X99754654Y-139839196D01*
X99705164Y-139849500D01*
X97114935Y-139849500D01*
X97047896Y-139829815D01*
X97046090Y-139828633D01*
X96989179Y-139790606D01*
X96989172Y-139790602D01*
X96843501Y-139730264D01*
X96843489Y-139730261D01*
X96688845Y-139699500D01*
X96688842Y-139699500D01*
X96531158Y-139699500D01*
X96531155Y-139699500D01*
X96376510Y-139730261D01*
X96376498Y-139730264D01*
X96230827Y-139790602D01*
X96230814Y-139790609D01*
X96099711Y-139878210D01*
X96099707Y-139878213D01*
X95988213Y-139989707D01*
X95988210Y-139989711D01*
X95900609Y-140120814D01*
X95900602Y-140120827D01*
X95840264Y-140266498D01*
X95840261Y-140266510D01*
X95809500Y-140421153D01*
X90200500Y-140421153D01*
X90200500Y-139051153D01*
X91429500Y-139051153D01*
X91429500Y-139208846D01*
X91460261Y-139363489D01*
X91460264Y-139363501D01*
X91520602Y-139509172D01*
X91520609Y-139509185D01*
X91608210Y-139640288D01*
X91608213Y-139640292D01*
X91719707Y-139751786D01*
X91719711Y-139751789D01*
X91850814Y-139839390D01*
X91850827Y-139839397D01*
X91944534Y-139878211D01*
X91996503Y-139899737D01*
X92151153Y-139930499D01*
X92151156Y-139930500D01*
X92151158Y-139930500D01*
X92308844Y-139930500D01*
X92308845Y-139930499D01*
X92463497Y-139899737D01*
X92609179Y-139839394D01*
X92666044Y-139801397D01*
X92732721Y-139780520D01*
X92734935Y-139780500D01*
X93895065Y-139780500D01*
X93962104Y-139800185D01*
X93963909Y-139801366D01*
X94020821Y-139839394D01*
X94020823Y-139839395D01*
X94020827Y-139839397D01*
X94114534Y-139878211D01*
X94166503Y-139899737D01*
X94321153Y-139930499D01*
X94321156Y-139930500D01*
X94321158Y-139930500D01*
X94478844Y-139930500D01*
X94478845Y-139930499D01*
X94633497Y-139899737D01*
X94779179Y-139839394D01*
X94910289Y-139751789D01*
X95021789Y-139640289D01*
X95109394Y-139509179D01*
X95169737Y-139363497D01*
X95200500Y-139208842D01*
X95200500Y-139051158D01*
X95200500Y-139051155D01*
X95200499Y-139051153D01*
X95169738Y-138896510D01*
X95169737Y-138896503D01*
X95169735Y-138896498D01*
X95109397Y-138750827D01*
X95109390Y-138750814D01*
X95021789Y-138619711D01*
X95021786Y-138619707D01*
X94910292Y-138508213D01*
X94910288Y-138508210D01*
X94779185Y-138420609D01*
X94779172Y-138420602D01*
X94633501Y-138360264D01*
X94633489Y-138360261D01*
X94478845Y-138329500D01*
X94478842Y-138329500D01*
X94321158Y-138329500D01*
X94321155Y-138329500D01*
X94166510Y-138360261D01*
X94166498Y-138360264D01*
X94020827Y-138420602D01*
X94020820Y-138420606D01*
X93991928Y-138439911D01*
X93963955Y-138458602D01*
X93897279Y-138479480D01*
X93895065Y-138479500D01*
X92734935Y-138479500D01*
X92667896Y-138459815D01*
X92666090Y-138458633D01*
X92609179Y-138420606D01*
X92609172Y-138420602D01*
X92463501Y-138360264D01*
X92463489Y-138360261D01*
X92308845Y-138329500D01*
X92308842Y-138329500D01*
X92151158Y-138329500D01*
X92151155Y-138329500D01*
X91996510Y-138360261D01*
X91996498Y-138360264D01*
X91850827Y-138420602D01*
X91850814Y-138420609D01*
X91719711Y-138508210D01*
X91719707Y-138508213D01*
X91608213Y-138619707D01*
X91608210Y-138619711D01*
X91520609Y-138750814D01*
X91520602Y-138750827D01*
X91460264Y-138896498D01*
X91460261Y-138896510D01*
X91429500Y-139051153D01*
X90200500Y-139051153D01*
X90200500Y-134421153D01*
X97299500Y-134421153D01*
X97299500Y-134578846D01*
X97330261Y-134733489D01*
X97330264Y-134733501D01*
X97390602Y-134879172D01*
X97390609Y-134879185D01*
X97478210Y-135010288D01*
X97478213Y-135010292D01*
X97589707Y-135121786D01*
X97589711Y-135121789D01*
X97720814Y-135209390D01*
X97720827Y-135209397D01*
X97864842Y-135269049D01*
X97866503Y-135269737D01*
X98021153Y-135300499D01*
X98021156Y-135300500D01*
X98021158Y-135300500D01*
X98178844Y-135300500D01*
X98306269Y-135275153D01*
X98333497Y-135269737D01*
X98333497Y-135269736D01*
X98336955Y-135269049D01*
X98406547Y-135275276D01*
X98461724Y-135318139D01*
X98475708Y-135343213D01*
X98490604Y-135379175D01*
X98490609Y-135379185D01*
X98578210Y-135510288D01*
X98578213Y-135510292D01*
X98689707Y-135621786D01*
X98689711Y-135621789D01*
X98820814Y-135709390D01*
X98820827Y-135709397D01*
X98966498Y-135769735D01*
X98966503Y-135769737D01*
X99121153Y-135800499D01*
X99121156Y-135800500D01*
X99121158Y-135800500D01*
X99278844Y-135800500D01*
X99278845Y-135800499D01*
X99433497Y-135769737D01*
X99579179Y-135709394D01*
X99710289Y-135621789D01*
X99821789Y-135510289D01*
X99909394Y-135379179D01*
X99969737Y-135233497D01*
X100000500Y-135078842D01*
X100000500Y-134921158D01*
X100000500Y-134921155D01*
X100000499Y-134921153D01*
X99969738Y-134766508D01*
X99969737Y-134766507D01*
X99969737Y-134766503D01*
X99969735Y-134766498D01*
X99968795Y-134763399D01*
X99968779Y-134761687D01*
X99968549Y-134760528D01*
X99968768Y-134760484D01*
X99968165Y-134693532D01*
X100005408Y-134634416D01*
X100068699Y-134604819D01*
X100137945Y-134614139D01*
X100175133Y-134639712D01*
X100289707Y-134754286D01*
X100289711Y-134754289D01*
X100420814Y-134841890D01*
X100420827Y-134841897D01*
X100510850Y-134879185D01*
X100566503Y-134902237D01*
X100661600Y-134921153D01*
X100721153Y-134932999D01*
X100721156Y-134933000D01*
X100721158Y-134933000D01*
X100878844Y-134933000D01*
X100878845Y-134932999D01*
X101033497Y-134902237D01*
X101146166Y-134855567D01*
X101179172Y-134841897D01*
X101179172Y-134841896D01*
X101179179Y-134841894D01*
X101310289Y-134754289D01*
X101421789Y-134642789D01*
X101509394Y-134511679D01*
X101569737Y-134365997D01*
X101600500Y-134211342D01*
X101600500Y-134053658D01*
X101600500Y-134053655D01*
X101600499Y-134053653D01*
X101599119Y-134046716D01*
X101569737Y-133899003D01*
X101561124Y-133878210D01*
X101509397Y-133753327D01*
X101509390Y-133753314D01*
X101421789Y-133622211D01*
X101421786Y-133622207D01*
X101310292Y-133510713D01*
X101310288Y-133510710D01*
X101179185Y-133423109D01*
X101179172Y-133423102D01*
X101033501Y-133362764D01*
X101033489Y-133362761D01*
X100878845Y-133332000D01*
X100878842Y-133332000D01*
X100721158Y-133332000D01*
X100721155Y-133332000D01*
X100566510Y-133362761D01*
X100566498Y-133362764D01*
X100420827Y-133423102D01*
X100420814Y-133423109D01*
X100289711Y-133510710D01*
X100289707Y-133510713D01*
X100178213Y-133622207D01*
X100178210Y-133622211D01*
X100090609Y-133753314D01*
X100090602Y-133753327D01*
X100030264Y-133898998D01*
X100030261Y-133899010D01*
X99999500Y-134053653D01*
X99999500Y-134211346D01*
X100030261Y-134365992D01*
X100031207Y-134369109D01*
X100031222Y-134370822D01*
X100031451Y-134371972D01*
X100031232Y-134372015D01*
X100031832Y-134438976D01*
X99994584Y-134498089D01*
X99931291Y-134527681D01*
X99862046Y-134518356D01*
X99824866Y-134492787D01*
X99710292Y-134378213D01*
X99710288Y-134378210D01*
X99579185Y-134290609D01*
X99579172Y-134290602D01*
X99433501Y-134230264D01*
X99433489Y-134230261D01*
X99278845Y-134199500D01*
X99278842Y-134199500D01*
X99121158Y-134199500D01*
X99121153Y-134199500D01*
X98963043Y-134230950D01*
X98893451Y-134224723D01*
X98838274Y-134181860D01*
X98824291Y-134156785D01*
X98809397Y-134120826D01*
X98809390Y-134120814D01*
X98721789Y-133989711D01*
X98721786Y-133989707D01*
X98610292Y-133878213D01*
X98610288Y-133878210D01*
X98479185Y-133790609D01*
X98479172Y-133790602D01*
X98333501Y-133730264D01*
X98333489Y-133730261D01*
X98178845Y-133699500D01*
X98178842Y-133699500D01*
X98021158Y-133699500D01*
X98021155Y-133699500D01*
X97866510Y-133730261D01*
X97866498Y-133730264D01*
X97720827Y-133790602D01*
X97720814Y-133790609D01*
X97589711Y-133878210D01*
X97589707Y-133878213D01*
X97478213Y-133989707D01*
X97478210Y-133989711D01*
X97390609Y-134120814D01*
X97390602Y-134120827D01*
X97330264Y-134266498D01*
X97330261Y-134266510D01*
X97299500Y-134421153D01*
X90200500Y-134421153D01*
X90200500Y-113771153D01*
X108799500Y-113771153D01*
X108799500Y-113928846D01*
X108830261Y-114083489D01*
X108830264Y-114083501D01*
X108890602Y-114229172D01*
X108890609Y-114229185D01*
X108978210Y-114360288D01*
X108978213Y-114360292D01*
X109089707Y-114471786D01*
X109089711Y-114471789D01*
X109220814Y-114559390D01*
X109220827Y-114559397D01*
X109366498Y-114619735D01*
X109366503Y-114619737D01*
X109521153Y-114650499D01*
X109521156Y-114650500D01*
X109521158Y-114650500D01*
X109678844Y-114650500D01*
X109678845Y-114650499D01*
X109833497Y-114619737D01*
X109979179Y-114559394D01*
X110110289Y-114471789D01*
X110221789Y-114360289D01*
X110309394Y-114229179D01*
X110369737Y-114083497D01*
X110400500Y-113928842D01*
X110400500Y-113771158D01*
X110400500Y-113771155D01*
X110400499Y-113771153D01*
X110369738Y-113616510D01*
X110369737Y-113616503D01*
X110369735Y-113616498D01*
X110309397Y-113470827D01*
X110309390Y-113470814D01*
X110221789Y-113339711D01*
X110221786Y-113339707D01*
X110110292Y-113228213D01*
X110110288Y-113228210D01*
X109979185Y-113140609D01*
X109979172Y-113140602D01*
X109833501Y-113080264D01*
X109833489Y-113080261D01*
X109678845Y-113049500D01*
X109678842Y-113049500D01*
X109521158Y-113049500D01*
X109521155Y-113049500D01*
X109366510Y-113080261D01*
X109366498Y-113080264D01*
X109220827Y-113140602D01*
X109220814Y-113140609D01*
X109089711Y-113228210D01*
X109089707Y-113228213D01*
X108978213Y-113339707D01*
X108978210Y-113339711D01*
X108890609Y-113470814D01*
X108890602Y-113470827D01*
X108830264Y-113616498D01*
X108830261Y-113616510D01*
X108799500Y-113771153D01*
X90200500Y-113771153D01*
X90200500Y-112121153D01*
X110899500Y-112121153D01*
X110899500Y-112278846D01*
X110930261Y-112433489D01*
X110930264Y-112433501D01*
X110990602Y-112579172D01*
X110990609Y-112579185D01*
X111078210Y-112710288D01*
X111078213Y-112710292D01*
X111189707Y-112821786D01*
X111189711Y-112821789D01*
X111320814Y-112909390D01*
X111320827Y-112909397D01*
X111466498Y-112969735D01*
X111466503Y-112969737D01*
X111621153Y-113000499D01*
X111621156Y-113000500D01*
X111621158Y-113000500D01*
X111778844Y-113000500D01*
X111778845Y-113000499D01*
X111815803Y-112993147D01*
X111913667Y-112973682D01*
X111983258Y-112979909D01*
X112025539Y-113007618D01*
X112089707Y-113071786D01*
X112089711Y-113071789D01*
X112220814Y-113159390D01*
X112220827Y-113159397D01*
X112366498Y-113219735D01*
X112366503Y-113219737D01*
X112521153Y-113250499D01*
X112521156Y-113250500D01*
X112521158Y-113250500D01*
X112678844Y-113250500D01*
X112678845Y-113250499D01*
X112833497Y-113219737D01*
X112979179Y-113159394D01*
X113110289Y-113071789D01*
X113221789Y-112960289D01*
X113309394Y-112829179D01*
X113369737Y-112683497D01*
X113400500Y-112528842D01*
X113400500Y-112371158D01*
X113400500Y-112371155D01*
X113400499Y-112371153D01*
X113380326Y-112269737D01*
X113369737Y-112216503D01*
X113366791Y-112209390D01*
X113309397Y-112070827D01*
X113309390Y-112070814D01*
X113221789Y-111939711D01*
X113221786Y-111939707D01*
X113110292Y-111828213D01*
X113110288Y-111828210D01*
X112979185Y-111740609D01*
X112979172Y-111740602D01*
X112833501Y-111680264D01*
X112833489Y-111680261D01*
X112678845Y-111649500D01*
X112678842Y-111649500D01*
X112521158Y-111649500D01*
X112521155Y-111649500D01*
X112386333Y-111676318D01*
X112385105Y-111676208D01*
X112384002Y-111676759D01*
X112350398Y-111673102D01*
X112316742Y-111670091D01*
X112315367Y-111669290D01*
X112314542Y-111669201D01*
X112310047Y-111666193D01*
X112284212Y-111651153D01*
X112279103Y-111647025D01*
X112210289Y-111578211D01*
X112115755Y-111515045D01*
X112079185Y-111490609D01*
X112079172Y-111490602D01*
X111933501Y-111430264D01*
X111933489Y-111430261D01*
X111887701Y-111421153D01*
X114149500Y-111421153D01*
X114149500Y-111578846D01*
X114180261Y-111733489D01*
X114180264Y-111733501D01*
X114240602Y-111879172D01*
X114240609Y-111879185D01*
X114328210Y-112010288D01*
X114328213Y-112010292D01*
X114439707Y-112121786D01*
X114439711Y-112121789D01*
X114570814Y-112209390D01*
X114570827Y-112209397D01*
X114716498Y-112269735D01*
X114716503Y-112269737D01*
X114871153Y-112300499D01*
X114871156Y-112300500D01*
X114871158Y-112300500D01*
X115028844Y-112300500D01*
X115028845Y-112300499D01*
X115183497Y-112269737D01*
X115329179Y-112209394D01*
X115460289Y-112121789D01*
X115571789Y-112010289D01*
X115659394Y-111879179D01*
X115719737Y-111733497D01*
X115750500Y-111578842D01*
X115750500Y-111421158D01*
X115750500Y-111421155D01*
X115750499Y-111421153D01*
X115719738Y-111266510D01*
X115719737Y-111266503D01*
X115719735Y-111266498D01*
X115659397Y-111120827D01*
X115659390Y-111120814D01*
X115571789Y-110989711D01*
X115571786Y-110989707D01*
X115460292Y-110878213D01*
X115460288Y-110878210D01*
X115329185Y-110790609D01*
X115329172Y-110790602D01*
X115183501Y-110730264D01*
X115183489Y-110730261D01*
X115028845Y-110699500D01*
X115028842Y-110699500D01*
X114871158Y-110699500D01*
X114871155Y-110699500D01*
X114716510Y-110730261D01*
X114716498Y-110730264D01*
X114570827Y-110790602D01*
X114570814Y-110790609D01*
X114439711Y-110878210D01*
X114439707Y-110878213D01*
X114328213Y-110989707D01*
X114328210Y-110989711D01*
X114240609Y-111120814D01*
X114240602Y-111120827D01*
X114180264Y-111266498D01*
X114180261Y-111266510D01*
X114149500Y-111421153D01*
X111887701Y-111421153D01*
X111778845Y-111399500D01*
X111778842Y-111399500D01*
X111621158Y-111399500D01*
X111621155Y-111399500D01*
X111466510Y-111430261D01*
X111466498Y-111430264D01*
X111320827Y-111490602D01*
X111320814Y-111490609D01*
X111189711Y-111578210D01*
X111189707Y-111578213D01*
X111078213Y-111689707D01*
X111078210Y-111689711D01*
X110990609Y-111820814D01*
X110990602Y-111820827D01*
X110930264Y-111966498D01*
X110930261Y-111966510D01*
X110899500Y-112121153D01*
X90200500Y-112121153D01*
X90200500Y-109271153D01*
X98437000Y-109271153D01*
X98437000Y-109428846D01*
X98467761Y-109583489D01*
X98467764Y-109583501D01*
X98528102Y-109729172D01*
X98528109Y-109729185D01*
X98615710Y-109860288D01*
X98615713Y-109860292D01*
X98727207Y-109971786D01*
X98727211Y-109971789D01*
X98858314Y-110059390D01*
X98858327Y-110059397D01*
X99003998Y-110119735D01*
X99004003Y-110119737D01*
X99158653Y-110150499D01*
X99158656Y-110150500D01*
X99158658Y-110150500D01*
X99316344Y-110150500D01*
X99316345Y-110150499D01*
X99470997Y-110119737D01*
X99616679Y-110059394D01*
X99673544Y-110021397D01*
X99740221Y-110000520D01*
X99742435Y-110000500D01*
X101832565Y-110000500D01*
X101899604Y-110020185D01*
X101901409Y-110021366D01*
X101958321Y-110059394D01*
X101958323Y-110059395D01*
X101958327Y-110059397D01*
X102103998Y-110119735D01*
X102104003Y-110119737D01*
X102258653Y-110150499D01*
X102258656Y-110150500D01*
X102258658Y-110150500D01*
X102416344Y-110150500D01*
X102416345Y-110150499D01*
X102570997Y-110119737D01*
X102716679Y-110059394D01*
X102847789Y-109971789D01*
X102959289Y-109860289D01*
X103046894Y-109729179D01*
X103107237Y-109583497D01*
X103138000Y-109428842D01*
X103138000Y-109271158D01*
X103138000Y-109271155D01*
X103137999Y-109271153D01*
X103121627Y-109188846D01*
X103107237Y-109116503D01*
X103107235Y-109116498D01*
X103046897Y-108970827D01*
X103046890Y-108970814D01*
X102959289Y-108839711D01*
X102959286Y-108839707D01*
X102847789Y-108728210D01*
X102832759Y-108718168D01*
X102716685Y-108640609D01*
X102716672Y-108640602D01*
X102669717Y-108621153D01*
X108799500Y-108621153D01*
X108799500Y-108778846D01*
X108830261Y-108933489D01*
X108830264Y-108933501D01*
X108890602Y-109079172D01*
X108890609Y-109079185D01*
X108978210Y-109210288D01*
X108978213Y-109210292D01*
X109089707Y-109321786D01*
X109089711Y-109321789D01*
X109220814Y-109409390D01*
X109220827Y-109409397D01*
X109308230Y-109445599D01*
X109366503Y-109469737D01*
X109471134Y-109490549D01*
X109515853Y-109509079D01*
X109517612Y-109510255D01*
X109517613Y-109510255D01*
X109517614Y-109510256D01*
X109541873Y-109526465D01*
X109660256Y-109575501D01*
X109660260Y-109575501D01*
X109660261Y-109575502D01*
X109785928Y-109600500D01*
X109785931Y-109600500D01*
X112095065Y-109600500D01*
X112162104Y-109620185D01*
X112163909Y-109621366D01*
X112220821Y-109659394D01*
X112220823Y-109659395D01*
X112220827Y-109659397D01*
X112366498Y-109719735D01*
X112366503Y-109719737D01*
X112521153Y-109750499D01*
X112521156Y-109750500D01*
X112521158Y-109750500D01*
X112678844Y-109750500D01*
X112678845Y-109750499D01*
X112833497Y-109719737D01*
X112979179Y-109659394D01*
X113110289Y-109571789D01*
X113221789Y-109460289D01*
X113309394Y-109329179D01*
X113369737Y-109183497D01*
X113372193Y-109171153D01*
X114149500Y-109171153D01*
X114149500Y-109328846D01*
X114180261Y-109483489D01*
X114180264Y-109483501D01*
X114240602Y-109629172D01*
X114240609Y-109629185D01*
X114328210Y-109760288D01*
X114328213Y-109760292D01*
X114439707Y-109871786D01*
X114439711Y-109871789D01*
X114570814Y-109959390D01*
X114570827Y-109959397D01*
X114716498Y-110019735D01*
X114716503Y-110019737D01*
X114871153Y-110050499D01*
X114871156Y-110050500D01*
X114871158Y-110050500D01*
X115028844Y-110050500D01*
X115028845Y-110050499D01*
X115183497Y-110019737D01*
X115329179Y-109959394D01*
X115460289Y-109871789D01*
X115571789Y-109760289D01*
X115659394Y-109629179D01*
X115719737Y-109483497D01*
X115750500Y-109328842D01*
X115750500Y-109171158D01*
X115750500Y-109171155D01*
X115750499Y-109171153D01*
X115732204Y-109079179D01*
X115719737Y-109016503D01*
X115685352Y-108933489D01*
X115659397Y-108870827D01*
X115659390Y-108870814D01*
X115571789Y-108739711D01*
X115571786Y-108739707D01*
X115460292Y-108628213D01*
X115460288Y-108628210D01*
X115329185Y-108540609D01*
X115329172Y-108540602D01*
X115183501Y-108480264D01*
X115183489Y-108480261D01*
X115028845Y-108449500D01*
X115028842Y-108449500D01*
X114871158Y-108449500D01*
X114871155Y-108449500D01*
X114716510Y-108480261D01*
X114716498Y-108480264D01*
X114570827Y-108540602D01*
X114570814Y-108540609D01*
X114439711Y-108628210D01*
X114439707Y-108628213D01*
X114328213Y-108739707D01*
X114328210Y-108739711D01*
X114240609Y-108870814D01*
X114240602Y-108870827D01*
X114180264Y-109016498D01*
X114180261Y-109016510D01*
X114149500Y-109171153D01*
X113372193Y-109171153D01*
X113374243Y-109160846D01*
X113378216Y-109140874D01*
X113378216Y-109140873D01*
X113400499Y-109028846D01*
X113400500Y-109028844D01*
X113400500Y-108871155D01*
X113400499Y-108871153D01*
X113374353Y-108739711D01*
X113369737Y-108716503D01*
X113362686Y-108699480D01*
X113309397Y-108570827D01*
X113309390Y-108570814D01*
X113221789Y-108439711D01*
X113221786Y-108439707D01*
X113110292Y-108328213D01*
X113110288Y-108328210D01*
X112979185Y-108240609D01*
X112979172Y-108240602D01*
X112833501Y-108180264D01*
X112833489Y-108180261D01*
X112678845Y-108149500D01*
X112678842Y-108149500D01*
X112521158Y-108149500D01*
X112521155Y-108149500D01*
X112366510Y-108180261D01*
X112366498Y-108180264D01*
X112220827Y-108240602D01*
X112220820Y-108240606D01*
X112191928Y-108259911D01*
X112163955Y-108278602D01*
X112097279Y-108299480D01*
X112095065Y-108299500D01*
X110361427Y-108299500D01*
X110294388Y-108279815D01*
X110258325Y-108244390D01*
X110221792Y-108189715D01*
X110221786Y-108189707D01*
X110110292Y-108078213D01*
X110110288Y-108078210D01*
X109979185Y-107990609D01*
X109979172Y-107990602D01*
X109833501Y-107930264D01*
X109833489Y-107930261D01*
X109678845Y-107899500D01*
X109678842Y-107899500D01*
X109521158Y-107899500D01*
X109521155Y-107899500D01*
X109366510Y-107930261D01*
X109366498Y-107930264D01*
X109220827Y-107990602D01*
X109220814Y-107990609D01*
X109089711Y-108078210D01*
X109089707Y-108078213D01*
X108978213Y-108189707D01*
X108978210Y-108189711D01*
X108890609Y-108320814D01*
X108890602Y-108320827D01*
X108830264Y-108466498D01*
X108830261Y-108466510D01*
X108799500Y-108621153D01*
X102669717Y-108621153D01*
X102571001Y-108580264D01*
X102570989Y-108580261D01*
X102416345Y-108549500D01*
X102416342Y-108549500D01*
X102258658Y-108549500D01*
X102258655Y-108549500D01*
X102104010Y-108580261D01*
X102103998Y-108580264D01*
X101958327Y-108640602D01*
X101958320Y-108640606D01*
X101929428Y-108659911D01*
X101901455Y-108678602D01*
X101834779Y-108699480D01*
X101832565Y-108699500D01*
X99742435Y-108699500D01*
X99675396Y-108679815D01*
X99673590Y-108678633D01*
X99616679Y-108640606D01*
X99616672Y-108640602D01*
X99471001Y-108580264D01*
X99470989Y-108580261D01*
X99316345Y-108549500D01*
X99316342Y-108549500D01*
X99158658Y-108549500D01*
X99158655Y-108549500D01*
X99004010Y-108580261D01*
X99003998Y-108580264D01*
X98858327Y-108640602D01*
X98858314Y-108640609D01*
X98727211Y-108728210D01*
X98727207Y-108728213D01*
X98615713Y-108839707D01*
X98615710Y-108839711D01*
X98528109Y-108970814D01*
X98528102Y-108970827D01*
X98467764Y-109116498D01*
X98467761Y-109116510D01*
X98437000Y-109271153D01*
X90200500Y-109271153D01*
X90200500Y-106821153D01*
X90799500Y-106821153D01*
X90799500Y-106978846D01*
X90830261Y-107133489D01*
X90830264Y-107133501D01*
X90890602Y-107279172D01*
X90890609Y-107279185D01*
X90978210Y-107410288D01*
X90978213Y-107410292D01*
X91089707Y-107521786D01*
X91089711Y-107521789D01*
X91220814Y-107609390D01*
X91220827Y-107609397D01*
X91366498Y-107669735D01*
X91366503Y-107669737D01*
X91521153Y-107700499D01*
X91521156Y-107700500D01*
X91521158Y-107700500D01*
X91678844Y-107700500D01*
X91678845Y-107700499D01*
X91833497Y-107669737D01*
X91979179Y-107609394D01*
X92110289Y-107521789D01*
X92221789Y-107410289D01*
X92309394Y-107279179D01*
X92369737Y-107133497D01*
X92383079Y-107066416D01*
X92415463Y-107004509D01*
X92416902Y-107003042D01*
X92633128Y-106786816D01*
X92694450Y-106753334D01*
X92720808Y-106750500D01*
X111457060Y-106750500D01*
X111524099Y-106770185D01*
X111544742Y-106786820D01*
X111579707Y-106821786D01*
X111579711Y-106821789D01*
X111710814Y-106909390D01*
X111710827Y-106909397D01*
X111784013Y-106939711D01*
X111856503Y-106969737D01*
X112011153Y-107000499D01*
X112011156Y-107000500D01*
X112011158Y-107000500D01*
X112168844Y-107000500D01*
X112168845Y-107000499D01*
X112323497Y-106969737D01*
X112469179Y-106909394D01*
X112600289Y-106821789D01*
X112711789Y-106710289D01*
X112799394Y-106579179D01*
X112859737Y-106433497D01*
X112890500Y-106278842D01*
X112890500Y-106121158D01*
X112890500Y-106121155D01*
X112890499Y-106121153D01*
X112859738Y-105966510D01*
X112859737Y-105966503D01*
X112859735Y-105966498D01*
X112799397Y-105820827D01*
X112799390Y-105820814D01*
X112711789Y-105689711D01*
X112711786Y-105689707D01*
X112600292Y-105578213D01*
X112600288Y-105578210D01*
X112469185Y-105490609D01*
X112469172Y-105490602D01*
X112323501Y-105430264D01*
X112323489Y-105430261D01*
X112168845Y-105399500D01*
X112168842Y-105399500D01*
X112011158Y-105399500D01*
X112011155Y-105399500D01*
X111856511Y-105430260D01*
X111856506Y-105430262D01*
X111856504Y-105430262D01*
X111856503Y-105430263D01*
X111832844Y-105440062D01*
X111785396Y-105449500D01*
X100107703Y-105449500D01*
X100040664Y-105429815D01*
X99994909Y-105377011D01*
X99984965Y-105307853D01*
X99986086Y-105301309D01*
X100000499Y-105228846D01*
X100000500Y-105228844D01*
X100000500Y-105071155D01*
X100000499Y-105071153D01*
X99980326Y-104969737D01*
X99969737Y-104916503D01*
X99966791Y-104909390D01*
X99909397Y-104770827D01*
X99909390Y-104770814D01*
X99821789Y-104639711D01*
X99821786Y-104639707D01*
X99710292Y-104528213D01*
X99710288Y-104528210D01*
X99579185Y-104440609D01*
X99579172Y-104440602D01*
X99433501Y-104380264D01*
X99433489Y-104380261D01*
X99292933Y-104352303D01*
X99269671Y-104345247D01*
X99233497Y-104330263D01*
X99233489Y-104330261D01*
X99078845Y-104299500D01*
X99078842Y-104299500D01*
X98921158Y-104299500D01*
X98921155Y-104299500D01*
X98766510Y-104330261D01*
X98766498Y-104330264D01*
X98620827Y-104390602D01*
X98620814Y-104390609D01*
X98489712Y-104478209D01*
X98378208Y-104589714D01*
X98378204Y-104589719D01*
X98356463Y-104622256D01*
X98322256Y-104656463D01*
X98289719Y-104678204D01*
X98289714Y-104678208D01*
X98178209Y-104789712D01*
X98090609Y-104920814D01*
X98090602Y-104920827D01*
X98030264Y-105066498D01*
X98030261Y-105066510D01*
X97999500Y-105221153D01*
X97999500Y-105325500D01*
X97979815Y-105392539D01*
X97927011Y-105438294D01*
X97875500Y-105449500D01*
X92335929Y-105449500D01*
X92210261Y-105474497D01*
X92210255Y-105474499D01*
X92091874Y-105523534D01*
X91985326Y-105594726D01*
X91497068Y-106082984D01*
X91435745Y-106116469D01*
X91433579Y-106116920D01*
X91366508Y-106130261D01*
X91366498Y-106130264D01*
X91220827Y-106190602D01*
X91220814Y-106190609D01*
X91089711Y-106278210D01*
X91089707Y-106278213D01*
X90978213Y-106389707D01*
X90978210Y-106389711D01*
X90890609Y-106520814D01*
X90890602Y-106520827D01*
X90830264Y-106666498D01*
X90830261Y-106666510D01*
X90799500Y-106821153D01*
X90200500Y-106821153D01*
X90200500Y-104221153D01*
X92799500Y-104221153D01*
X92799500Y-104378846D01*
X92830261Y-104533489D01*
X92830264Y-104533501D01*
X92890602Y-104679172D01*
X92890609Y-104679185D01*
X92978210Y-104810288D01*
X92978213Y-104810292D01*
X93089707Y-104921786D01*
X93089711Y-104921789D01*
X93220814Y-105009390D01*
X93220827Y-105009397D01*
X93358683Y-105066498D01*
X93366503Y-105069737D01*
X93521153Y-105100499D01*
X93521156Y-105100500D01*
X93521158Y-105100500D01*
X93678844Y-105100500D01*
X93678845Y-105100499D01*
X93833497Y-105069737D01*
X93979179Y-105009394D01*
X94110289Y-104921789D01*
X94221789Y-104810289D01*
X94309394Y-104679179D01*
X94369737Y-104533497D01*
X94400500Y-104378842D01*
X94400500Y-104221158D01*
X94400500Y-104221155D01*
X94400499Y-104221153D01*
X94384430Y-104140370D01*
X94369737Y-104066503D01*
X94346080Y-104009390D01*
X94309397Y-103920827D01*
X94309390Y-103920814D01*
X94221789Y-103789711D01*
X94221786Y-103789707D01*
X94110292Y-103678213D01*
X94110288Y-103678210D01*
X93979185Y-103590609D01*
X93979172Y-103590602D01*
X93833501Y-103530264D01*
X93833489Y-103530261D01*
X93678845Y-103499500D01*
X93678842Y-103499500D01*
X93521158Y-103499500D01*
X93521155Y-103499500D01*
X93366510Y-103530261D01*
X93366498Y-103530264D01*
X93220827Y-103590602D01*
X93220814Y-103590609D01*
X93089711Y-103678210D01*
X93089707Y-103678213D01*
X92978213Y-103789707D01*
X92978210Y-103789711D01*
X92890609Y-103920814D01*
X92890602Y-103920827D01*
X92830264Y-104066498D01*
X92830261Y-104066510D01*
X92799500Y-104221153D01*
X90200500Y-104221153D01*
X90200500Y-95349778D01*
X92099500Y-95349778D01*
X92099500Y-95570222D01*
X92105721Y-95609500D01*
X92133985Y-95787952D01*
X92202103Y-95997603D01*
X92202104Y-95997606D01*
X92302187Y-96194025D01*
X92431752Y-96372358D01*
X92431756Y-96372363D01*
X92482316Y-96422923D01*
X92515801Y-96484246D01*
X92510817Y-96553938D01*
X92468945Y-96609871D01*
X92437969Y-96626785D01*
X92357918Y-96656643D01*
X92357906Y-96656649D01*
X92242812Y-96742809D01*
X92242809Y-96742812D01*
X92156649Y-96857906D01*
X92156645Y-96857913D01*
X92106403Y-96992620D01*
X92106401Y-96992627D01*
X92100000Y-97052155D01*
X92100000Y-97750000D01*
X93124722Y-97750000D01*
X93080667Y-97826306D01*
X93050000Y-97940756D01*
X93050000Y-98059244D01*
X93080667Y-98173694D01*
X93124722Y-98250000D01*
X92100000Y-98250000D01*
X92100000Y-98947844D01*
X92106401Y-99007372D01*
X92106403Y-99007379D01*
X92156645Y-99142086D01*
X92156649Y-99142093D01*
X92242809Y-99257187D01*
X92242812Y-99257190D01*
X92357906Y-99343350D01*
X92357913Y-99343354D01*
X92492620Y-99393596D01*
X92492627Y-99393598D01*
X92552155Y-99399999D01*
X92552172Y-99400000D01*
X93250000Y-99400000D01*
X93250000Y-98375277D01*
X93326306Y-98419333D01*
X93440756Y-98450000D01*
X93559244Y-98450000D01*
X93673694Y-98419333D01*
X93750000Y-98375277D01*
X93750000Y-99400000D01*
X94447828Y-99400000D01*
X94447844Y-99399999D01*
X94507372Y-99393598D01*
X94507379Y-99393596D01*
X94642086Y-99343354D01*
X94642093Y-99343350D01*
X94757187Y-99257190D01*
X94757190Y-99257187D01*
X94843350Y-99142093D01*
X94843354Y-99142086D01*
X94893596Y-99007379D01*
X94893598Y-99007372D01*
X94899999Y-98947844D01*
X94900000Y-98947827D01*
X94900000Y-98250000D01*
X93875278Y-98250000D01*
X93919333Y-98173694D01*
X93950000Y-98059244D01*
X93950000Y-97940756D01*
X93919333Y-97826306D01*
X93875278Y-97750000D01*
X94900000Y-97750000D01*
X94900000Y-97052172D01*
X94899999Y-97052155D01*
X94893598Y-96992627D01*
X94893596Y-96992620D01*
X94843354Y-96857913D01*
X94843350Y-96857906D01*
X94757190Y-96742812D01*
X94757187Y-96742809D01*
X94642093Y-96656649D01*
X94642087Y-96656646D01*
X94562030Y-96626786D01*
X94506097Y-96584914D01*
X94481680Y-96519450D01*
X94496532Y-96451177D01*
X94517681Y-96422925D01*
X94568242Y-96372365D01*
X94697815Y-96194022D01*
X94797895Y-95997606D01*
X94866015Y-95787951D01*
X94900500Y-95570222D01*
X94900500Y-95349778D01*
X94866015Y-95132049D01*
X94797895Y-94922394D01*
X94797895Y-94922393D01*
X94763237Y-94854375D01*
X94697815Y-94725978D01*
X94663111Y-94678212D01*
X94568247Y-94547641D01*
X94568243Y-94547636D01*
X94412363Y-94391756D01*
X94412358Y-94391752D01*
X94234025Y-94262187D01*
X94234024Y-94262186D01*
X94234022Y-94262185D01*
X94171096Y-94230122D01*
X94037606Y-94162104D01*
X94037603Y-94162103D01*
X93827952Y-94093985D01*
X93719086Y-94076742D01*
X93610222Y-94059500D01*
X93389778Y-94059500D01*
X93317201Y-94070995D01*
X93172047Y-94093985D01*
X92962396Y-94162103D01*
X92962393Y-94162104D01*
X92765974Y-94262187D01*
X92587641Y-94391752D01*
X92587636Y-94391756D01*
X92431756Y-94547636D01*
X92431752Y-94547641D01*
X92302187Y-94725974D01*
X92202104Y-94922393D01*
X92202103Y-94922396D01*
X92133985Y-95132047D01*
X92133985Y-95132049D01*
X92099500Y-95349778D01*
X90200500Y-95349778D01*
X90200500Y-88889778D01*
X92099500Y-88889778D01*
X92099500Y-89110221D01*
X92133985Y-89327952D01*
X92202103Y-89537603D01*
X92202104Y-89537606D01*
X92258654Y-89648589D01*
X92288257Y-89706688D01*
X92302187Y-89734025D01*
X92431752Y-89912358D01*
X92431756Y-89912363D01*
X92482316Y-89962923D01*
X92515801Y-90024246D01*
X92510817Y-90093938D01*
X92468945Y-90149871D01*
X92437969Y-90166785D01*
X92357918Y-90196643D01*
X92357906Y-90196649D01*
X92242812Y-90282809D01*
X92242809Y-90282812D01*
X92156649Y-90397906D01*
X92156645Y-90397913D01*
X92106403Y-90532620D01*
X92106401Y-90532627D01*
X92100000Y-90592155D01*
X92100000Y-91290000D01*
X93124722Y-91290000D01*
X93080667Y-91366306D01*
X93050000Y-91480756D01*
X93050000Y-91599244D01*
X93080667Y-91713694D01*
X93124722Y-91790000D01*
X92100000Y-91790000D01*
X92100000Y-92487844D01*
X92106401Y-92547372D01*
X92106403Y-92547379D01*
X92156645Y-92682086D01*
X92156649Y-92682093D01*
X92242809Y-92797187D01*
X92242812Y-92797190D01*
X92357906Y-92883350D01*
X92357913Y-92883354D01*
X92492620Y-92933596D01*
X92492627Y-92933598D01*
X92552155Y-92939999D01*
X92552172Y-92940000D01*
X93250000Y-92940000D01*
X93250000Y-91915277D01*
X93326306Y-91959333D01*
X93440756Y-91990000D01*
X93559244Y-91990000D01*
X93673694Y-91959333D01*
X93750000Y-91915277D01*
X93750000Y-92940000D01*
X94447828Y-92940000D01*
X94447844Y-92939999D01*
X94507372Y-92933598D01*
X94507379Y-92933596D01*
X94642086Y-92883354D01*
X94642093Y-92883350D01*
X94757187Y-92797190D01*
X94757190Y-92797187D01*
X94843350Y-92682093D01*
X94843354Y-92682086D01*
X94893596Y-92547379D01*
X94893598Y-92547372D01*
X94899999Y-92487844D01*
X94900000Y-92487827D01*
X94900000Y-91790000D01*
X93875278Y-91790000D01*
X93919333Y-91713694D01*
X93950000Y-91599244D01*
X93950000Y-91480756D01*
X93919333Y-91366306D01*
X93875278Y-91290000D01*
X94900000Y-91290000D01*
X94900000Y-90592172D01*
X94899999Y-90592155D01*
X94893598Y-90532627D01*
X94893596Y-90532620D01*
X94843354Y-90397913D01*
X94843350Y-90397906D01*
X94757190Y-90282812D01*
X94757187Y-90282809D01*
X94642093Y-90196649D01*
X94642087Y-90196646D01*
X94562030Y-90166786D01*
X94506097Y-90124914D01*
X94481680Y-90059450D01*
X94496532Y-89991177D01*
X94517681Y-89962925D01*
X94568242Y-89912365D01*
X94697815Y-89734022D01*
X94797895Y-89537606D01*
X94866015Y-89327951D01*
X94900500Y-89110222D01*
X94900500Y-88889778D01*
X94866015Y-88672049D01*
X94797895Y-88462394D01*
X94797895Y-88462393D01*
X94763237Y-88394375D01*
X94697815Y-88265978D01*
X94681260Y-88243192D01*
X94568247Y-88087641D01*
X94568243Y-88087636D01*
X94412363Y-87931756D01*
X94412358Y-87931752D01*
X94234025Y-87802187D01*
X94234024Y-87802186D01*
X94234022Y-87802185D01*
X94171096Y-87770122D01*
X94037606Y-87702104D01*
X94037603Y-87702103D01*
X93827952Y-87633985D01*
X93719086Y-87616742D01*
X93610222Y-87599500D01*
X93389778Y-87599500D01*
X93317201Y-87610995D01*
X93172047Y-87633985D01*
X92962396Y-87702103D01*
X92962393Y-87702104D01*
X92765974Y-87802187D01*
X92587641Y-87931752D01*
X92587636Y-87931756D01*
X92431756Y-88087636D01*
X92431752Y-88087641D01*
X92302187Y-88265974D01*
X92202104Y-88462393D01*
X92202103Y-88462396D01*
X92133985Y-88672047D01*
X92099500Y-88889778D01*
X90200500Y-88889778D01*
X90200500Y-79370053D01*
X91199500Y-79370053D01*
X91199500Y-79527746D01*
X91230261Y-79682389D01*
X91230264Y-79682401D01*
X91290602Y-79828072D01*
X91290609Y-79828085D01*
X91378210Y-79959188D01*
X91378213Y-79959192D01*
X91489707Y-80070686D01*
X91489711Y-80070689D01*
X91620814Y-80158290D01*
X91620827Y-80158297D01*
X91766498Y-80218635D01*
X91766503Y-80218637D01*
X91921153Y-80249399D01*
X91921156Y-80249400D01*
X91921158Y-80249400D01*
X94065960Y-80249400D01*
X94132999Y-80269085D01*
X94153641Y-80285719D01*
X99257817Y-85389894D01*
X99291302Y-85451217D01*
X99291753Y-85453383D01*
X99316261Y-85576591D01*
X99316264Y-85576601D01*
X99376602Y-85722272D01*
X99376609Y-85722285D01*
X99464210Y-85853388D01*
X99464213Y-85853392D01*
X99575707Y-85964886D01*
X99575711Y-85964889D01*
X99706814Y-86052490D01*
X99706827Y-86052497D01*
X99852498Y-86112835D01*
X99852503Y-86112837D01*
X100007153Y-86143599D01*
X100007156Y-86143600D01*
X100007158Y-86143600D01*
X100164844Y-86143600D01*
X100164845Y-86143599D01*
X100319497Y-86112837D01*
X100465179Y-86052494D01*
X100596289Y-85964889D01*
X100707789Y-85853389D01*
X100795394Y-85722279D01*
X100855737Y-85576597D01*
X100886500Y-85421942D01*
X100886500Y-85007158D01*
X100886500Y-85007155D01*
X100886499Y-85007153D01*
X100855738Y-84852510D01*
X100855737Y-84852503D01*
X100838251Y-84810288D01*
X100795397Y-84706827D01*
X100795390Y-84706814D01*
X100707789Y-84575711D01*
X100707786Y-84575707D01*
X100591970Y-84459891D01*
X100591947Y-84459870D01*
X94959192Y-78827113D01*
X94959188Y-78827110D01*
X94828085Y-78739509D01*
X94828072Y-78739502D01*
X94682401Y-78679164D01*
X94682389Y-78679161D01*
X94527745Y-78648400D01*
X94527742Y-78648400D01*
X91921158Y-78648400D01*
X91921155Y-78648400D01*
X91766510Y-78679161D01*
X91766498Y-78679164D01*
X91620827Y-78739502D01*
X91620814Y-78739509D01*
X91489711Y-78827110D01*
X91489707Y-78827113D01*
X91378213Y-78938607D01*
X91378210Y-78938611D01*
X91290609Y-79069714D01*
X91290602Y-79069727D01*
X91230264Y-79215398D01*
X91230261Y-79215410D01*
X91199500Y-79370053D01*
X90200500Y-79370053D01*
X90200500Y-55506092D01*
X90201097Y-55493939D01*
X90209805Y-55405519D01*
X90214665Y-55356171D01*
X90219404Y-55332347D01*
X90257815Y-55205721D01*
X90267111Y-55183280D01*
X90329485Y-55066586D01*
X90342987Y-55046381D01*
X90386488Y-54993375D01*
X90426924Y-54944103D01*
X90444103Y-54926924D01*
X90546382Y-54842985D01*
X90566586Y-54829485D01*
X90683280Y-54767111D01*
X90705721Y-54757815D01*
X90832347Y-54719404D01*
X90856173Y-54714665D01*
X90985170Y-54701960D01*
X90993939Y-54701097D01*
X91006092Y-54700500D01*
X91039882Y-54700500D01*
X92016406Y-54700500D01*
X92083445Y-54720185D01*
G37*
%TD.AperFunction*%
%TA.AperFunction,Conductor*%
G36*
X136349500Y-94549430D02*
G01*
X136329815Y-94616469D01*
X136277011Y-94662224D01*
X136207853Y-94672168D01*
X136144297Y-94643143D01*
X136137819Y-94637111D01*
X135776765Y-94276057D01*
X135810069Y-89600000D01*
X136349500Y-89600000D01*
X136349500Y-94549430D01*
G37*
%TD.AperFunction*%
%TA.AperFunction,Conductor*%
G36*
X112201365Y-77866557D02*
G01*
X111589711Y-78478211D01*
X111555404Y-78512518D01*
X111478209Y-78589712D01*
X111415602Y-78683411D01*
X111361990Y-78728216D01*
X111292665Y-78736923D01*
X111229637Y-78706768D01*
X111192918Y-78647325D01*
X111188500Y-78614520D01*
X111188500Y-76500000D01*
X113567921Y-76500000D01*
X112201365Y-77866557D01*
G37*
%TD.AperFunction*%
%TA.AperFunction,Conductor*%
G36*
X109887500Y-76566364D02*
G01*
X109867815Y-76633403D01*
X109815011Y-76679158D01*
X109745853Y-76689102D01*
X109707206Y-76676849D01*
X109575805Y-76609898D01*
X109351247Y-76536934D01*
X109351248Y-76536934D01*
X109118052Y-76500000D01*
X109887500Y-76500000D01*
X109887500Y-76566364D01*
G37*
%TD.AperFunction*%
%TA.AperFunction,Conductor*%
G36*
X103129815Y-76530209D02*
G01*
X103077011Y-76575964D01*
X103007853Y-76585908D01*
X102987183Y-76581101D01*
X102851252Y-76536935D01*
X102851248Y-76536934D01*
X102618052Y-76500000D01*
X103138685Y-76500000D01*
X103129815Y-76530209D01*
G37*
%TD.AperFunction*%
%TA.AperFunction,Conductor*%
G36*
X140104433Y-75452041D02*
G01*
X140104431Y-75452045D01*
X140097778Y-75460713D01*
X140104430Y-75452046D01*
X140104433Y-75452041D01*
G37*
%TD.AperFunction*%
%TA.AperFunction,Conductor*%
G36*
X99862038Y-57150000D02*
G01*
X99075000Y-57150000D01*
X99075000Y-57024000D01*
X99063794Y-56972489D01*
X99018039Y-56919685D01*
X98951000Y-56900000D01*
X98825000Y-56900000D01*
X98825000Y-56774000D01*
X98813794Y-56722489D01*
X98768039Y-56669685D01*
X98701000Y-56650000D01*
X99852778Y-56650000D01*
X99862038Y-57150000D01*
G37*
%TD.AperFunction*%
%TA.AperFunction,Conductor*%
G36*
X97733445Y-54720185D02*
G01*
X97779200Y-54772989D01*
X97789144Y-54842147D01*
X97771945Y-54889597D01*
X97715643Y-54980875D01*
X97715641Y-54980880D01*
X97660494Y-55147302D01*
X97660493Y-55147309D01*
X97650000Y-55250013D01*
X97650000Y-55300000D01*
X94349999Y-55300000D01*
X94349999Y-55250028D01*
X94349998Y-55250013D01*
X94339505Y-55147302D01*
X94284358Y-54980880D01*
X94284356Y-54980875D01*
X94228055Y-54889597D01*
X94209615Y-54822204D01*
X94230538Y-54755541D01*
X94284180Y-54710771D01*
X94333594Y-54700500D01*
X97666406Y-54700500D01*
X97733445Y-54720185D01*
G37*
%TD.AperFunction*%
%TA.AperFunction,Conductor*%
G36*
X140741155Y-54720185D02*
G01*
X140786910Y-54772989D01*
X140796854Y-54842147D01*
X140779655Y-54889597D01*
X140715643Y-54993375D01*
X140762529Y-54917360D01*
X137277279Y-54981901D01*
X137284356Y-54993375D01*
X137220345Y-54889597D01*
X137201905Y-54822204D01*
X137222828Y-54755541D01*
X137276470Y-54710771D01*
X137325884Y-54700500D01*
X140674116Y-54700500D01*
X140741155Y-54720185D01*
G37*
%TD.AperFunction*%
%TD*%
%TA.AperFunction,Conductor*%
%TO.N,GND*%
G36*
X136613181Y-82708863D02*
G01*
X136646666Y-82770186D01*
X136649500Y-82796544D01*
X136649500Y-89600000D01*
X134600000Y-89600000D01*
X134600000Y-80695682D01*
X136613181Y-82708863D01*
G37*
%TD.AperFunction*%
%TA.AperFunction,Conductor*%
G36*
X140715643Y-54993375D02*
G01*
X140715641Y-54993380D01*
X140660494Y-55159802D01*
X140660493Y-55159809D01*
X140650000Y-55262513D01*
X140650000Y-56662500D01*
X141701000Y-56662500D01*
X141768039Y-56682185D01*
X141813794Y-56734989D01*
X141825000Y-56786500D01*
X141825000Y-56912500D01*
X141951000Y-56912500D01*
X142018039Y-56932185D01*
X142063794Y-56984989D01*
X142075000Y-57036500D01*
X142075000Y-59262499D01*
X142299972Y-59262499D01*
X142299986Y-59262498D01*
X142402697Y-59252005D01*
X142569119Y-59196858D01*
X142569124Y-59196856D01*
X142718345Y-59104815D01*
X142842315Y-58980845D01*
X142900000Y-58887323D01*
X142900000Y-89600000D01*
X137350500Y-89600000D01*
X137350500Y-82553856D01*
X137326614Y-82464712D01*
X137280470Y-82384788D01*
X134600000Y-79704318D01*
X134600000Y-74253788D01*
X136574500Y-74253788D01*
X136574500Y-74506211D01*
X136607446Y-74756451D01*
X136672773Y-75000258D01*
X136769363Y-75233447D01*
X136769372Y-75233464D01*
X136895566Y-75452041D01*
X136895568Y-75452045D01*
X137049227Y-75652294D01*
X137049235Y-75652303D01*
X137227697Y-75830765D01*
X137227705Y-75830772D01*
X137427954Y-75984431D01*
X137427958Y-75984433D01*
X137646535Y-76110627D01*
X137646552Y-76110636D01*
X137775758Y-76164154D01*
X137879740Y-76207226D01*
X138123548Y-76272554D01*
X138373796Y-76305500D01*
X138373803Y-76305500D01*
X138626197Y-76305500D01*
X138626204Y-76305500D01*
X138876452Y-76272554D01*
X139120260Y-76207226D01*
X139353454Y-76110633D01*
X139572041Y-75984433D01*
X139572045Y-75984431D01*
X139609842Y-75955427D01*
X139772294Y-75830773D01*
X139772298Y-75830768D01*
X139772303Y-75830765D01*
X139950765Y-75652303D01*
X139950768Y-75652298D01*
X139950773Y-75652294D01*
X140104430Y-75452046D01*
X140230633Y-75233454D01*
X140327226Y-75000260D01*
X140392554Y-74756452D01*
X140425500Y-74506204D01*
X140425500Y-74253796D01*
X140392554Y-74003548D01*
X140327226Y-73759740D01*
X140284154Y-73655758D01*
X140230636Y-73526552D01*
X140230627Y-73526535D01*
X140104433Y-73307958D01*
X140104431Y-73307954D01*
X139950772Y-73107705D01*
X139950765Y-73107697D01*
X139772303Y-72929235D01*
X139772294Y-72929227D01*
X139572045Y-72775568D01*
X139572041Y-72775566D01*
X139353464Y-72649372D01*
X139353447Y-72649363D01*
X139120258Y-72552773D01*
X138965690Y-72511357D01*
X138876452Y-72487446D01*
X138845171Y-72483327D01*
X138626211Y-72454500D01*
X138626204Y-72454500D01*
X138373796Y-72454500D01*
X138373788Y-72454500D01*
X138123548Y-72487446D01*
X137879741Y-72552773D01*
X137646552Y-72649363D01*
X137646535Y-72649372D01*
X137427958Y-72775566D01*
X137427954Y-72775568D01*
X137227705Y-72929227D01*
X137049227Y-73107705D01*
X136895568Y-73307954D01*
X136895566Y-73307958D01*
X136769372Y-73526535D01*
X136769363Y-73526552D01*
X136672773Y-73759741D01*
X136607446Y-74003548D01*
X136574500Y-74253788D01*
X134600000Y-74253788D01*
X134600000Y-58562486D01*
X135000001Y-58562486D01*
X135010494Y-58665197D01*
X135065641Y-58831619D01*
X135065643Y-58831624D01*
X135157684Y-58980845D01*
X135281654Y-59104815D01*
X135430875Y-59196856D01*
X135430880Y-59196858D01*
X135597302Y-59252005D01*
X135597309Y-59252006D01*
X135700019Y-59262499D01*
X135924999Y-59262499D01*
X136425000Y-59262499D01*
X136649972Y-59262499D01*
X136649986Y-59262498D01*
X136752697Y-59252005D01*
X136919119Y-59196858D01*
X136919124Y-59196856D01*
X137068345Y-59104815D01*
X137192315Y-58980845D01*
X137284356Y-58831624D01*
X137284358Y-58831619D01*
X137339505Y-58665197D01*
X137339506Y-58665190D01*
X137349999Y-58562486D01*
X140650001Y-58562486D01*
X140660494Y-58665197D01*
X140715641Y-58831619D01*
X140715643Y-58831624D01*
X140807684Y-58980845D01*
X140931654Y-59104815D01*
X141080875Y-59196856D01*
X141080880Y-59196858D01*
X141247302Y-59252005D01*
X141247309Y-59252006D01*
X141350019Y-59262499D01*
X141574999Y-59262499D01*
X141575000Y-59262498D01*
X141575000Y-57162500D01*
X140650001Y-57162500D01*
X140650001Y-58562486D01*
X137349999Y-58562486D01*
X137350000Y-58562473D01*
X137350000Y-57162500D01*
X136425000Y-57162500D01*
X136425000Y-59262499D01*
X135924999Y-59262499D01*
X135925000Y-59262498D01*
X135925000Y-57162500D01*
X135000001Y-57162500D01*
X135000001Y-58562486D01*
X134600000Y-58562486D01*
X134600000Y-55031481D01*
X135055812Y-55023040D01*
X135010494Y-55159802D01*
X135010493Y-55159809D01*
X135000000Y-55262513D01*
X135000000Y-56662500D01*
X137349999Y-56662500D01*
X137349999Y-55262528D01*
X137349998Y-55262513D01*
X137339505Y-55159802D01*
X137284358Y-54993380D01*
X137284356Y-54993375D01*
X137277279Y-54981901D01*
X140762529Y-54917360D01*
X140715643Y-54993375D01*
G37*
%TD.AperFunction*%
%TD*%
%TA.AperFunction,Conductor*%
%TO.N,GND*%
G36*
X107185012Y-58894721D02*
G01*
X99900000Y-59029629D01*
X99900000Y-58874823D01*
X99894154Y-58884300D01*
X99822223Y-55000000D01*
X107127940Y-55000000D01*
X107185012Y-58894721D01*
G37*
%TD.AperFunction*%
%TD*%
%TA.AperFunction,Conductor*%
%TO.N,GND*%
G36*
X101119834Y-67979362D02*
G01*
X101175767Y-68021234D01*
X101200184Y-68086698D01*
X101200500Y-68095544D01*
X101200500Y-70938343D01*
X101224386Y-71027487D01*
X101224387Y-71027490D01*
X101270527Y-71107408D01*
X101270529Y-71107411D01*
X101270530Y-71107412D01*
X102343588Y-72180470D01*
X103413181Y-73250062D01*
X103446666Y-73311385D01*
X103449500Y-73337743D01*
X103449500Y-76500000D01*
X99900000Y-76500000D01*
X99900000Y-69096682D01*
X100988819Y-68007863D01*
X101050142Y-67974378D01*
X101119834Y-67979362D01*
G37*
%TD.AperFunction*%
%TA.AperFunction,Conductor*%
G36*
X113800000Y-69104317D02*
G01*
X110257531Y-72646786D01*
X110257527Y-72646791D01*
X110241249Y-72674988D01*
X110241247Y-72674991D01*
X110211388Y-72726706D01*
X110211387Y-72726709D01*
X110187500Y-72815856D01*
X110187500Y-76500000D01*
X104150500Y-76500000D01*
X104150500Y-73095058D01*
X104150500Y-73095056D01*
X104126614Y-73005912D01*
X104118296Y-72991505D01*
X104080473Y-72925994D01*
X104080470Y-72925991D01*
X104080469Y-72925988D01*
X104015212Y-72860731D01*
X101937819Y-70783337D01*
X101904334Y-70722014D01*
X101901500Y-70695656D01*
X101901500Y-61399758D01*
X101901500Y-61399756D01*
X101877614Y-61310612D01*
X101831470Y-61230688D01*
X101677819Y-61077037D01*
X101644334Y-61015714D01*
X101641500Y-60989356D01*
X101641500Y-60970010D01*
X101641500Y-60970008D01*
X101607392Y-60842714D01*
X101541500Y-60728586D01*
X101448314Y-60635400D01*
X101391250Y-60602454D01*
X101334187Y-60569508D01*
X101270539Y-60552454D01*
X101206892Y-60535400D01*
X101075108Y-60535400D01*
X100947812Y-60569508D01*
X100833686Y-60635400D01*
X100833683Y-60635402D01*
X100740502Y-60728583D01*
X100740500Y-60728586D01*
X100674608Y-60842712D01*
X100640500Y-60970008D01*
X100640500Y-61101791D01*
X100674608Y-61229087D01*
X100707554Y-61286150D01*
X100740500Y-61343214D01*
X100833686Y-61436400D01*
X100947814Y-61502292D01*
X101075108Y-61536400D01*
X101076500Y-61536400D01*
X101077630Y-61536731D01*
X101083168Y-61537461D01*
X101083054Y-61538324D01*
X101143539Y-61556085D01*
X101189294Y-61608889D01*
X101200500Y-61660400D01*
X101200500Y-66500763D01*
X101180815Y-66567802D01*
X101128011Y-66613557D01*
X101058853Y-66623501D01*
X101044409Y-66620538D01*
X100965892Y-66599500D01*
X100834108Y-66599500D01*
X100706812Y-66633608D01*
X100592686Y-66699500D01*
X100592683Y-66699502D01*
X100499502Y-66792683D01*
X100499500Y-66792686D01*
X100433608Y-66906812D01*
X100399500Y-67034108D01*
X100399500Y-67165891D01*
X100433609Y-67293188D01*
X100433609Y-67293189D01*
X100487980Y-67387362D01*
X100504453Y-67455262D01*
X100481600Y-67521289D01*
X100468274Y-67537043D01*
X99900000Y-68105317D01*
X99900000Y-64491360D01*
X99934108Y-64500500D01*
X99934111Y-64500500D01*
X100065890Y-64500500D01*
X100065892Y-64500500D01*
X100193186Y-64466392D01*
X100307314Y-64400500D01*
X100400500Y-64307314D01*
X100466392Y-64193186D01*
X100500500Y-64065892D01*
X100500500Y-63934108D01*
X100466392Y-63806814D01*
X100400500Y-63692686D01*
X100307314Y-63599500D01*
X100250250Y-63566554D01*
X100193187Y-63533608D01*
X100129539Y-63516554D01*
X100065892Y-63499500D01*
X99934108Y-63499500D01*
X99900000Y-63508639D01*
X99900000Y-59029629D01*
X113800000Y-58772221D01*
X113800000Y-69104317D01*
G37*
%TD.AperFunction*%
%TA.AperFunction,Conductor*%
G36*
X113800000Y-76500000D02*
G01*
X110888500Y-76500000D01*
X110888500Y-73058544D01*
X110908185Y-72991505D01*
X110924819Y-72970863D01*
X113800000Y-70095682D01*
X113800000Y-76500000D01*
G37*
%TD.AperFunction*%
%TD*%
%TA.AperFunction,Conductor*%
%TO.N,GND*%
G36*
X97650000Y-56650000D02*
G01*
X98701000Y-56650000D01*
X98768039Y-56669685D01*
X98813794Y-56722489D01*
X98825000Y-56774000D01*
X98825000Y-56900000D01*
X98951000Y-56900000D01*
X99018039Y-56919685D01*
X99063794Y-56972489D01*
X99075000Y-57024000D01*
X99075000Y-59249999D01*
X99299972Y-59249999D01*
X99299986Y-59249998D01*
X99402697Y-59239505D01*
X99569119Y-59184358D01*
X99569124Y-59184356D01*
X99718345Y-59092315D01*
X99842315Y-58968345D01*
X99900000Y-58874823D01*
X99900000Y-63508638D01*
X99806812Y-63533608D01*
X99692686Y-63599500D01*
X99692683Y-63599502D01*
X99599502Y-63692683D01*
X99599500Y-63692686D01*
X99533608Y-63806812D01*
X99499500Y-63934108D01*
X99499500Y-64065891D01*
X99533608Y-64193187D01*
X99566554Y-64250250D01*
X99599500Y-64307314D01*
X99692686Y-64400500D01*
X99806814Y-64466392D01*
X99900000Y-64491360D01*
X99900000Y-68105317D01*
X99703674Y-68301643D01*
X99642351Y-68335128D01*
X99572659Y-68330144D01*
X99516726Y-68288272D01*
X99492309Y-68222808D01*
X99496218Y-68181870D01*
X99500500Y-68165892D01*
X99500500Y-68034108D01*
X99466392Y-67906814D01*
X99400500Y-67792686D01*
X99307314Y-67699500D01*
X99250250Y-67666554D01*
X99193187Y-67633608D01*
X99129539Y-67616554D01*
X99065892Y-67599500D01*
X98934108Y-67599500D01*
X98806812Y-67633608D01*
X98692686Y-67699500D01*
X98692683Y-67699502D01*
X98679005Y-67713181D01*
X98617682Y-67746666D01*
X98591324Y-67749500D01*
X96714156Y-67749500D01*
X96625012Y-67773386D01*
X96625009Y-67773387D01*
X96545091Y-67819527D01*
X96545086Y-67819531D01*
X94293837Y-70070781D01*
X94232514Y-70104266D01*
X94206156Y-70107100D01*
X94186808Y-70107100D01*
X94059512Y-70141208D01*
X93945386Y-70207100D01*
X93945383Y-70207102D01*
X93852202Y-70300283D01*
X93852200Y-70300286D01*
X93786308Y-70414412D01*
X93752200Y-70541708D01*
X93752200Y-70673491D01*
X93786308Y-70800787D01*
X93819254Y-70857850D01*
X93852200Y-70914914D01*
X93945386Y-71008100D01*
X94059514Y-71073992D01*
X94186808Y-71108100D01*
X94186810Y-71108100D01*
X94318590Y-71108100D01*
X94318592Y-71108100D01*
X94445886Y-71073992D01*
X94560014Y-71008100D01*
X94653200Y-70914914D01*
X94719092Y-70800786D01*
X94753200Y-70673492D01*
X94753200Y-70654144D01*
X94772885Y-70587105D01*
X94789519Y-70566463D01*
X96869163Y-68486819D01*
X96930486Y-68453334D01*
X96956844Y-68450500D01*
X98591324Y-68450500D01*
X98658363Y-68470185D01*
X98679005Y-68486819D01*
X98692686Y-68500500D01*
X98806814Y-68566392D01*
X98934108Y-68600500D01*
X98934110Y-68600500D01*
X99065890Y-68600500D01*
X99065892Y-68600500D01*
X99081868Y-68596219D01*
X99151716Y-68597880D01*
X99209579Y-68637041D01*
X99237085Y-68701269D01*
X99225500Y-68770172D01*
X99201643Y-68803674D01*
X96492137Y-71513181D01*
X96430814Y-71546666D01*
X96404456Y-71549500D01*
X95508676Y-71549500D01*
X95441637Y-71529815D01*
X95420995Y-71513181D01*
X95407316Y-71499502D01*
X95407314Y-71499500D01*
X95350250Y-71466554D01*
X95293187Y-71433608D01*
X95229539Y-71416554D01*
X95165892Y-71399500D01*
X95034108Y-71399500D01*
X94906812Y-71433608D01*
X94792686Y-71499500D01*
X94792683Y-71499502D01*
X94699502Y-71592683D01*
X94699500Y-71592686D01*
X94633608Y-71706812D01*
X94599500Y-71834108D01*
X94599500Y-71965891D01*
X94633608Y-72093187D01*
X94661747Y-72141924D01*
X94699500Y-72207314D01*
X94792686Y-72300500D01*
X94891521Y-72357563D01*
X94903900Y-72364710D01*
X94906814Y-72366392D01*
X95034108Y-72400500D01*
X95034110Y-72400500D01*
X95165890Y-72400500D01*
X95165892Y-72400500D01*
X95293186Y-72366392D01*
X95407314Y-72300500D01*
X95420995Y-72286819D01*
X95482318Y-72253334D01*
X95508676Y-72250500D01*
X96647142Y-72250500D01*
X96647144Y-72250500D01*
X96736288Y-72226614D01*
X96745497Y-72221297D01*
X96816212Y-72180470D01*
X99900000Y-69096682D01*
X99900000Y-76500000D01*
X91800000Y-76500000D01*
X91800000Y-74684108D01*
X98199500Y-74684108D01*
X98199500Y-74815891D01*
X98233608Y-74943187D01*
X98266554Y-75000250D01*
X98299500Y-75057314D01*
X98392686Y-75150500D01*
X98506814Y-75216392D01*
X98634108Y-75250500D01*
X98634110Y-75250500D01*
X98765890Y-75250500D01*
X98765892Y-75250500D01*
X98893186Y-75216392D01*
X99007314Y-75150500D01*
X99100500Y-75057314D01*
X99166392Y-74943186D01*
X99200500Y-74815892D01*
X99200500Y-74684108D01*
X99166392Y-74556814D01*
X99100500Y-74442686D01*
X99086819Y-74429005D01*
X99053334Y-74367682D01*
X99050500Y-74341324D01*
X99050500Y-72791115D01*
X99070185Y-72724076D01*
X99122989Y-72678321D01*
X99142400Y-72671342D01*
X99256081Y-72640882D01*
X99370209Y-72574990D01*
X99463395Y-72481804D01*
X99529287Y-72367676D01*
X99563395Y-72240382D01*
X99563395Y-72108598D01*
X99529287Y-71981304D01*
X99463395Y-71867176D01*
X99370209Y-71773990D01*
X99313145Y-71741044D01*
X99256082Y-71708098D01*
X99192434Y-71691044D01*
X99128787Y-71673990D01*
X98997003Y-71673990D01*
X98869707Y-71708098D01*
X98755581Y-71773990D01*
X98755578Y-71773992D01*
X98662397Y-71867173D01*
X98662395Y-71867176D01*
X98596503Y-71981302D01*
X98575342Y-72060277D01*
X98566525Y-72093187D01*
X98560292Y-72116448D01*
X98558138Y-72115871D01*
X98555027Y-72122902D01*
X98552047Y-72141958D01*
X98537345Y-72162857D01*
X98534558Y-72169155D01*
X98532601Y-72171412D01*
X98530166Y-72174152D01*
X98419530Y-72284789D01*
X98402905Y-72313585D01*
X98396598Y-72324508D01*
X98396596Y-72324511D01*
X98373388Y-72364707D01*
X98373387Y-72364710D01*
X98373386Y-72364712D01*
X98373386Y-72364713D01*
X98372936Y-72366392D01*
X98349500Y-72453857D01*
X98349500Y-74341324D01*
X98329815Y-74408363D01*
X98313181Y-74429005D01*
X98299502Y-74442683D01*
X98299500Y-74442686D01*
X98233608Y-74556812D01*
X98199500Y-74684108D01*
X91800000Y-74684108D01*
X91800000Y-58549986D01*
X92000001Y-58549986D01*
X92010494Y-58652697D01*
X92065641Y-58819119D01*
X92065643Y-58819124D01*
X92157684Y-58968345D01*
X92281654Y-59092315D01*
X92430875Y-59184356D01*
X92430880Y-59184358D01*
X92597302Y-59239505D01*
X92597309Y-59239506D01*
X92700019Y-59249999D01*
X92924999Y-59249999D01*
X93425000Y-59249999D01*
X93649972Y-59249999D01*
X93649986Y-59249998D01*
X93752697Y-59239505D01*
X93919119Y-59184358D01*
X93919124Y-59184356D01*
X94068345Y-59092315D01*
X94192315Y-58968345D01*
X94284356Y-58819124D01*
X94284358Y-58819119D01*
X94339505Y-58652697D01*
X94339506Y-58652690D01*
X94349999Y-58549986D01*
X97650001Y-58549986D01*
X97660494Y-58652697D01*
X97715641Y-58819119D01*
X97715643Y-58819124D01*
X97807684Y-58968345D01*
X97931654Y-59092315D01*
X98080875Y-59184356D01*
X98080880Y-59184358D01*
X98247302Y-59239505D01*
X98247309Y-59239506D01*
X98350019Y-59249999D01*
X98574999Y-59249999D01*
X98575000Y-59249998D01*
X98575000Y-57150000D01*
X97650001Y-57150000D01*
X97650001Y-58549986D01*
X94349999Y-58549986D01*
X94350000Y-58549973D01*
X94350000Y-57150000D01*
X93425000Y-57150000D01*
X93425000Y-59249999D01*
X92924999Y-59249999D01*
X92925000Y-59249998D01*
X92925000Y-57150000D01*
X92000001Y-57150000D01*
X92000001Y-58549986D01*
X91800000Y-58549986D01*
X91800000Y-55300000D01*
X92000000Y-55350000D01*
X92000000Y-56650000D01*
X94349999Y-56650000D01*
X94349999Y-55300000D01*
X97650000Y-55300000D01*
X97650000Y-56650000D01*
G37*
%TD.AperFunction*%
%TD*%
%TA.AperFunction,Conductor*%
%TO.N,GND*%
G36*
X121849500Y-79115997D02*
G01*
X121849500Y-81665382D01*
X121873386Y-81754526D01*
X121873387Y-81754529D01*
X121919527Y-81834447D01*
X121919531Y-81834452D01*
X129853562Y-89768482D01*
X129887047Y-89829805D01*
X129889881Y-89856163D01*
X129889881Y-89875510D01*
X129923989Y-90002806D01*
X129956935Y-90059869D01*
X129989881Y-90116933D01*
X130083067Y-90210119D01*
X130197195Y-90276011D01*
X130324489Y-90310119D01*
X130343837Y-90310119D01*
X130410876Y-90329804D01*
X130431518Y-90346438D01*
X135663181Y-95578101D01*
X135696666Y-95639424D01*
X135699500Y-95665782D01*
X135699500Y-95685130D01*
X135733608Y-95812426D01*
X135765431Y-95867544D01*
X135628467Y-115098467D01*
X116227895Y-114953842D01*
X116495338Y-79077865D01*
X121849500Y-79115997D01*
G37*
%TD.AperFunction*%
%TA.AperFunction,Conductor*%
G36*
X133100446Y-79196128D02*
G01*
X135864480Y-81960162D01*
X135773765Y-94697322D01*
X130927200Y-89850756D01*
X130893715Y-89789433D01*
X130890881Y-89763075D01*
X130890881Y-89743729D01*
X130890881Y-89743727D01*
X130856773Y-89616433D01*
X130790881Y-89502305D01*
X130697695Y-89409119D01*
X130628089Y-89368932D01*
X130583568Y-89343227D01*
X130519920Y-89326173D01*
X130456273Y-89309119D01*
X130456272Y-89309119D01*
X130436925Y-89309119D01*
X130369886Y-89289434D01*
X130349244Y-89272800D01*
X122586819Y-81510375D01*
X122553334Y-81449052D01*
X122550500Y-81422694D01*
X122550500Y-79120990D01*
X133100446Y-79196128D01*
G37*
%TD.AperFunction*%
%TA.AperFunction,Conductor*%
G36*
X135884025Y-79215953D02*
G01*
X135871491Y-80975809D01*
X134098921Y-79203239D01*
X135884025Y-79215953D01*
G37*
%TD.AperFunction*%
%TD*%
M02*
