%TF.GenerationSoftware,KiCad,Pcbnew,10.0.3*%
%TF.CreationDate,2026-05-22T18:31:41-04:00*%
%TF.ProjectId,meshtastic,6d657368-7461-4737-9469-632e6b696361,rev?*%
%TF.SameCoordinates,Original*%
%TF.FileFunction,Legend,Bot*%
%TF.FilePolarity,Positive*%
%FSLAX46Y46*%
G04 Gerber Fmt 4.6, Leading zero omitted, Abs format (unit mm)*
G04 Created by KiCad (PCBNEW 10.0.3) date 2026-05-22 18:31:41*
%MOMM*%
%LPD*%
G01*
G04 APERTURE LIST*
G04 Aperture macros list*
%AMRoundRect*
0 Rectangle with rounded corners*
0 $1 Rounding radius*
0 $2 $3 $4 $5 $6 $7 $8 $9 X,Y pos of 4 corners*
0 Add a 4 corners polygon primitive as box body*
4,1,4,$2,$3,$4,$5,$6,$7,$8,$9,$2,$3,0*
0 Add four circle primitives for the rounded corners*
1,1,$1+$1,$2,$3*
1,1,$1+$1,$4,$5*
1,1,$1+$1,$6,$7*
1,1,$1+$1,$8,$9*
0 Add four rect primitives between the rounded corners*
20,1,$1+$1,$2,$3,$4,$5,0*
20,1,$1+$1,$4,$5,$6,$7,0*
20,1,$1+$1,$6,$7,$8,$9,0*
20,1,$1+$1,$8,$9,$2,$3,0*%
G04 Aperture macros list end*
%ADD10C,0.150000*%
%ADD11C,0.120000*%
%ADD12R,1.800000X1.800000*%
%ADD13C,1.800000*%
%ADD14C,3.800000*%
%ADD15C,2.000000*%
%ADD16RoundRect,0.250000X0.425000X1.600000X-0.425000X1.600000X-0.425000X-1.600000X0.425000X-1.600000X0*%
%ADD17R,1.700000X1.700000*%
%ADD18C,1.700000*%
%ADD19C,2.390000*%
%ADD20C,3.450000*%
%ADD21RoundRect,0.250003X-2.999997X3.499997X-2.999997X-3.499997X2.999997X-3.499997X2.999997X3.499997X0*%
G04 APERTURE END LIST*
D10*
X118901009Y-101214285D02*
X118948628Y-101357142D01*
X118948628Y-101357142D02*
X118996247Y-101404761D01*
X118996247Y-101404761D02*
X119091485Y-101452380D01*
X119091485Y-101452380D02*
X119234342Y-101452380D01*
X119234342Y-101452380D02*
X119329580Y-101404761D01*
X119329580Y-101404761D02*
X119377200Y-101357142D01*
X119377200Y-101357142D02*
X119424819Y-101261904D01*
X119424819Y-101261904D02*
X119424819Y-100880952D01*
X119424819Y-100880952D02*
X118424819Y-100880952D01*
X118424819Y-100880952D02*
X118424819Y-101214285D01*
X118424819Y-101214285D02*
X118472438Y-101309523D01*
X118472438Y-101309523D02*
X118520057Y-101357142D01*
X118520057Y-101357142D02*
X118615295Y-101404761D01*
X118615295Y-101404761D02*
X118710533Y-101404761D01*
X118710533Y-101404761D02*
X118805771Y-101357142D01*
X118805771Y-101357142D02*
X118853390Y-101309523D01*
X118853390Y-101309523D02*
X118901009Y-101214285D01*
X118901009Y-101214285D02*
X118901009Y-100880952D01*
X118424819Y-101738095D02*
X118424819Y-102309523D01*
X119424819Y-102023809D02*
X118424819Y-102023809D01*
X119424819Y-103166666D02*
X119424819Y-102595238D01*
X119424819Y-102880952D02*
X118424819Y-102880952D01*
X118424819Y-102880952D02*
X118567676Y-102785714D01*
X118567676Y-102785714D02*
X118662914Y-102690476D01*
X118662914Y-102690476D02*
X118710533Y-102595238D01*
X125655533Y-61238095D02*
X125655533Y-62761905D01*
X126417438Y-62000000D02*
X124893628Y-62000000D01*
%TO.C,BT1*%
D11*
X119815000Y-63110000D02*
X119815000Y-140890000D01*
X119815000Y-140890000D02*
X126990000Y-140890000D01*
X126990000Y-63110000D02*
X119815000Y-63110000D01*
X134010000Y-140890000D02*
X141185000Y-140890000D01*
X141185000Y-63110000D02*
X134010000Y-63110000D01*
X141185000Y-140890000D02*
X141185000Y-63110000D01*
%TD*%
%LPC*%
D12*
%TO.C,D2*%
X93500000Y-91540000D03*
D13*
X93500000Y-89000000D03*
%TD*%
D14*
%TO.C,H2*%
X92800000Y-66400000D03*
%TD*%
%TO.C,H4*%
X141800000Y-151500000D03*
%TD*%
%TO.C,H3*%
X92900000Y-151500000D03*
%TD*%
D15*
%TO.C,SW1*%
X102500000Y-78000000D03*
X109000000Y-78000000D03*
X102500000Y-82500000D03*
X109000000Y-82500000D03*
%TD*%
D16*
%TO.C,J3*%
X93175000Y-56900000D03*
X98825000Y-56900000D03*
%TD*%
D15*
%TO.C,TP1*%
X119700000Y-74600000D03*
%TD*%
D17*
%TO.C,J2*%
X100400000Y-115125000D03*
D18*
X100400000Y-117665000D03*
X100400000Y-120205000D03*
X100400000Y-122745000D03*
X100400000Y-125285000D03*
X100400000Y-127825000D03*
%TD*%
D16*
%TO.C,J5*%
X136175000Y-56912500D03*
X141825000Y-56912500D03*
%TD*%
D17*
%TO.C,J1*%
X134600000Y-135825000D03*
D18*
X134600000Y-133285000D03*
X134600000Y-130745000D03*
X134600000Y-128205000D03*
%TD*%
D14*
%TO.C,H1*%
X124600000Y-57400000D03*
%TD*%
D12*
%TO.C,D3*%
X93500000Y-98000000D03*
D13*
X93500000Y-95460000D03*
%TD*%
D19*
%TO.C,BT1*%
X122500000Y-65870000D03*
D20*
X138500000Y-74380000D03*
X122500000Y-129620000D03*
D21*
X130500000Y-62310000D03*
X130500000Y-141690000D03*
%TD*%
%LPD*%
M02*
